<svg id="svg" version="1.1" xmlns="http://www.w3.org/2000/svg" xmlns:xlink="http://www.w3.org/1999/xlink" width="400" height="400" viewBox="0, 0, 400,400"><g id="svgg"><path id="path0" d="M129.811 103.582 C 129.209 104.556,129.063 109.644,129.640 109.520 C 130.081 109.425,130.200 110.045,130.202 112.441 C 130.203 114.113,130.404 115.733,130.650 116.041 C 130.895 116.348,131.318 117.860,131.589 119.400 C 131.861 120.940,132.244 122.613,132.441 123.119 C 132.639 123.624,132.800 124.659,132.800 125.419 C 132.800 126.178,133.000 126.800,133.245 126.800 C 133.533 126.800,133.600 127.275,133.435 128.154 C 133.239 129.197,133.331 129.565,133.836 129.759 C 134.278 129.928,134.431 130.328,134.305 130.985 C 134.200 131.536,134.329 132.041,134.602 132.145 C 135.083 132.330,136.400 135.831,136.400 136.926 C 136.400 137.243,136.651 137.711,136.959 137.966 C 137.266 138.221,137.423 138.790,137.308 139.232 C 137.165 139.776,137.275 139.996,137.649 139.917 C 137.952 139.853,138.200 140.070,138.200 140.400 C 138.200 140.730,138.298 141.090,138.418 141.200 C 138.938 141.678,140.400 144.497,140.400 145.023 C 140.400 145.340,140.580 145.600,140.800 145.600 C 141.020 145.600,141.200 145.788,141.200 146.017 C 141.200 146.246,141.560 146.820,142.000 147.292 C 142.440 147.764,143.024 148.656,143.297 149.275 C 143.571 149.894,143.931 150.400,144.098 150.400 C 144.264 150.400,144.400 150.670,144.400 151.000 C 144.400 151.330,144.580 151.600,144.800 151.600 C 145.020 151.600,145.200 151.793,145.200 152.029 C 145.200 152.264,145.425 152.686,145.700 152.965 C 145.975 153.245,146.650 154.071,147.200 154.801 C 149.595 157.982,152.087 160.834,156.200 165.103 C 158.620 167.614,160.717 170.058,160.860 170.534 C 161.003 171.010,161.138 171.175,161.160 170.900 C 161.216 170.203,161.715 170.276,162.625 171.115 C 163.051 171.508,165.290 173.398,167.600 175.316 C 169.910 177.234,172.315 179.251,172.945 179.797 C 173.575 180.344,174.250 180.692,174.445 180.572 C 174.640 180.451,174.800 180.516,174.800 180.715 C 174.800 181.046,175.674 181.556,181.200 184.456 C 182.190 184.975,183.090 185.490,183.200 185.601 C 183.310 185.711,183.892 186.055,184.493 186.365 C 185.095 186.674,185.942 187.259,186.377 187.664 C 186.811 188.069,187.272 188.400,187.401 188.400 C 187.785 188.400,189.600 190.331,189.600 190.739 C 189.600 190.945,189.832 191.203,190.115 191.312 C 192.004 192.037,188.306 197.600,185.935 197.600 C 185.567 197.600,185.207 197.746,185.133 197.925 C 184.911 198.468,178.359 201.622,177.963 201.377 C 177.760 201.252,177.482 201.441,177.346 201.798 C 177.209 202.154,176.862 202.356,176.574 202.245 C 176.287 202.135,175.995 202.176,175.926 202.336 C 175.744 202.757,172.840 204.400,172.277 204.400 C 172.015 204.401,171.260 204.866,170.600 205.435 C 169.940 206.004,168.905 206.763,168.300 207.121 C 167.695 207.479,167.200 207.914,167.200 208.086 C 167.200 208.259,166.975 208.401,166.700 208.402 C 166.425 208.403,165.660 208.898,165.000 209.502 C 164.340 210.106,162.722 211.410,161.405 212.400 C 155.864 216.564,148.426 224.696,146.557 228.634 C 146.201 229.385,145.749 230.000,145.554 230.000 C 145.359 230.000,145.200 230.270,145.200 230.600 C 145.200 230.930,145.020 231.200,144.800 231.200 C 144.580 231.200,144.400 231.650,144.400 232.200 C 144.400 232.750,144.220 233.200,144.000 233.200 C 143.780 233.200,143.600 233.472,143.600 233.805 C 143.600 234.138,143.432 234.723,143.226 235.105 C 143.021 235.487,142.617 236.385,142.329 237.100 C 142.040 237.815,141.669 238.400,141.502 238.400 C 141.336 238.400,141.200 239.030,141.200 239.800 C 141.200 240.570,141.020 241.200,140.800 241.200 C 140.580 241.200,140.400 241.742,140.400 242.405 C 140.400 243.068,140.236 243.923,140.036 244.305 C 139.836 244.687,139.300 246.607,138.844 248.571 C 138.389 250.536,137.813 252.268,137.565 252.421 C 137.290 252.592,137.217 253.168,137.378 253.901 C 137.561 254.734,137.452 255.291,137.021 255.722 C 136.679 256.063,136.400 256.996,136.400 257.794 C 136.400 258.593,136.231 260.000,136.025 260.923 C 135.819 261.845,135.423 263.995,135.146 265.700 C 134.868 267.405,134.540 268.800,134.418 268.800 C 134.295 268.800,134.255 269.566,134.330 270.501 C 134.430 271.767,134.259 272.440,133.662 273.128 C 132.990 273.903,132.928 274.248,133.279 275.254 C 133.730 276.548,133.507 279.939,132.944 280.349 C 132.755 280.487,132.584 282.310,132.564 284.400 C 132.545 286.490,132.383 290.315,132.205 292.900 L 131.881 297.600 147.689 297.600 L 163.496 297.600 165.876 295.300 C 167.185 294.035,170.403 290.918,173.028 288.373 C 197.023 265.105,197.383 264.800,200.863 264.800 C 203.499 264.800,205.195 266.121,215.238 275.999 C 218.158 278.870,226.088 286.528,232.582 292.747 L 237.747 297.693 253.373 297.412 C 267.018 297.165,269.063 297.048,269.500 296.488 C 270.229 295.553,270.172 290.800,269.432 290.800 C 268.706 290.800,268.462 289.638,267.957 283.770 C 267.731 281.147,267.367 277.380,267.148 275.400 C 266.928 273.420,266.715 270.630,266.675 269.200 C 266.628 267.521,266.403 266.445,266.042 266.162 C 265.644 265.851,265.543 265.185,265.692 263.862 C 265.807 262.838,265.751 262.000,265.567 262.000 C 265.383 262.000,265.063 261.325,264.857 260.500 C 263.850 256.467,263.194 253.315,263.197 252.524 C 263.198 252.042,263.001 251.524,262.757 251.373 C 262.485 251.205,262.407 250.515,262.556 249.583 C 262.714 248.599,262.637 248.012,262.339 247.913 C 261.890 247.763,261.506 246.609,260.087 241.159 C 259.709 239.707,259.183 238.257,258.917 237.938 C 258.651 237.619,258.537 236.963,258.663 236.479 C 258.795 235.976,258.709 235.600,258.463 235.600 C 258.011 235.600,255.600 230.974,255.600 230.106 C 255.600 229.828,255.420 229.600,255.200 229.600 C 254.980 229.600,254.800 229.345,254.800 229.033 C 254.800 228.722,254.653 228.407,254.472 228.333 C 254.292 228.260,253.364 227.030,252.409 225.600 C 250.349 222.513,242.074 214.177,238.400 211.487 C 236.970 210.440,235.282 209.182,234.648 208.692 C 234.014 208.201,233.038 207.553,232.478 207.251 C 231.919 206.949,231.094 206.360,230.646 205.942 C 230.198 205.525,228.114 204.332,226.016 203.292 C 223.917 202.251,222.140 201.265,222.067 201.100 C 221.993 200.935,221.593 200.800,221.177 200.800 C 220.762 200.800,219.652 200.342,218.711 199.782 C 217.770 199.223,216.685 198.662,216.300 198.536 C 215.915 198.410,215.600 198.148,215.600 197.953 C 215.600 197.759,215.240 197.600,214.800 197.600 C 214.360 197.600,214.000 197.420,214.000 197.200 C 214.000 196.980,213.745 196.800,213.434 196.800 C 212.487 196.800,210.615 194.490,210.365 193.014 C 210.142 191.697,212.269 188.400,213.341 188.400 C 213.502 188.400,213.981 188.076,214.407 187.679 C 215.103 187.031,215.752 186.642,219.200 184.808 C 221.814 183.417,225.302 181.339,225.883 180.826 C 226.149 180.592,226.472 180.400,226.600 180.400 C 226.809 180.400,228.563 179.102,232.547 176.000 C 237.591 172.074,250.000 160.251,250.000 159.373 C 250.000 159.219,250.324 158.803,250.719 158.447 C 251.114 158.091,251.872 157.170,252.404 156.400 C 252.935 155.630,253.871 154.523,254.485 153.940 C 255.098 153.356,255.600 152.743,255.600 152.577 C 255.600 152.411,256.095 151.629,256.700 150.838 C 257.932 149.227,258.640 148.054,260.412 144.682 C 261.082 143.407,261.892 142.263,262.213 142.140 C 262.533 142.017,262.685 141.738,262.551 141.520 C 262.416 141.302,262.501 140.736,262.739 140.262 C 262.978 139.788,263.625 138.352,264.177 137.071 C 264.730 135.790,265.333 134.835,265.519 134.950 C 265.704 135.064,265.777 134.627,265.682 133.979 C 265.579 133.276,265.689 132.800,265.955 132.800 C 266.200 132.800,266.400 132.170,266.400 131.400 C 266.400 130.630,266.580 130.000,266.800 130.000 C 267.020 130.000,267.200 129.381,267.200 128.624 C 267.200 127.867,267.380 127.136,267.600 127.000 C 267.820 126.864,268.000 126.250,268.000 125.636 C 268.000 123.975,268.797 122.000,269.466 122.000 C 269.864 122.000,269.975 121.752,269.810 121.232 C 269.287 119.582,269.285 118.858,269.803 117.860 C 270.335 116.834,270.732 112.791,270.909 106.600 L 271.000 103.400 200.534 103.282 C 151.953 103.201,129.989 103.294,129.811 103.582 M221.800 108.632 C 239.443 110.017,253.023 112.841,255.908 115.726 C 257.800 117.618,257.420 127.607,255.121 136.400 C 254.690 138.050,254.248 139.850,254.138 140.400 C 254.029 140.950,253.792 141.760,253.612 142.200 C 253.432 142.640,252.971 143.900,252.588 145.000 C 250.227 151.774,245.990 158.510,238.623 167.200 C 233.341 173.431,225.637 179.624,217.000 184.583 C 209.279 189.016,207.413 190.918,207.001 194.774 C 206.870 195.998,206.574 197.990,206.342 199.200 C 206.111 200.410,205.778 203.020,205.602 205.000 C 205.426 206.980,205.088 210.580,204.851 213.000 C 204.614 215.420,204.148 220.370,203.816 224.000 C 202.867 234.372,202.417 238.450,201.993 240.520 C 201.777 241.576,201.600 242.976,201.600 243.632 C 201.600 244.901,200.654 245.614,199.931 244.891 C 199.486 244.446,198.957 240.931,198.411 234.800 C 197.543 225.054,197.180 221.308,196.994 220.200 C 196.884 219.540,196.618 216.840,196.404 214.200 C 195.553 203.711,194.580 195.524,193.867 192.859 C 193.218 190.434,191.473 188.964,183.000 183.704 C 173.637 177.892,169.323 174.387,163.120 167.553 C 160.060 164.182,156.000 158.982,156.000 158.435 C 156.000 158.232,155.847 158.007,155.660 157.933 C 154.821 157.605,150.400 149.608,150.400 148.420 C 150.400 147.947,150.153 147.074,149.852 146.480 C 147.262 141.374,144.832 129.795,144.675 121.809 L 144.600 117.984 146.073 116.592 C 146.884 115.826,147.741 115.200,147.979 115.200 C 148.216 115.200,148.723 115.024,149.105 114.809 C 149.925 114.348,153.261 113.425,153.715 113.534 C 153.888 113.576,154.428 113.186,154.915 112.669 C 156.138 111.369,159.448 110.754,174.400 109.053 C 176.930 108.765,182.238 108.488,186.195 108.437 C 190.152 108.386,193.482 108.246,193.595 108.127 C 193.817 107.892,217.857 108.323,221.800 108.632 M154.606 114.390 C 154.291 114.900,154.946 115.204,155.553 114.829 C 155.954 114.581,155.931 114.459,155.446 114.273 C 155.105 114.142,154.727 114.195,154.606 114.390 M156.800 117.400 C 156.800 117.730,156.980 118.000,157.200 118.000 C 157.420 118.000,157.600 118.360,157.600 118.800 C 157.600 119.240,157.780 119.600,158.000 119.600 C 158.220 119.600,158.400 119.960,158.400 120.400 C 158.400 120.840,158.580 121.200,158.800 121.200 C 159.020 121.200,159.200 120.840,159.200 120.400 C 159.200 119.960,159.020 119.600,158.800 119.600 C 158.580 119.600,158.394 119.285,158.387 118.900 C 158.363 117.584,156.800 116.107,156.800 117.400 M146.400 118.305 C 146.400 119.183,146.903 120.000,147.443 120.000 C 148.230 120.000,148.134 119.445,147.200 118.600 C 146.760 118.202,146.400 118.069,146.400 118.305 M148.600 120.400 C 148.455 120.634,148.870 120.800,149.600 120.800 C 150.330 120.800,150.745 120.634,150.600 120.400 C 150.464 120.180,150.014 120.000,149.600 120.000 C 149.186 120.000,148.736 120.180,148.600 120.400 M151.000 121.200 C 150.846 121.449,151.553 121.585,152.876 121.560 C 154.541 121.529,154.784 121.451,154.000 121.200 C 152.559 120.738,151.285 120.738,151.000 121.200 M155.008 121.988 C 154.846 122.249,155.447 122.400,156.643 122.400 C 158.810 122.400,158.838 122.221,156.731 121.841 C 155.861 121.684,155.159 121.744,155.008 121.988 M160.000 122.367 C 160.000 122.569,159.891 123.019,159.757 123.367 C 159.570 123.855,159.777 123.997,160.657 123.988 C 161.609 123.978,161.686 123.909,161.117 123.577 C 160.740 123.358,160.535 122.915,160.659 122.589 C 160.784 122.265,160.686 122.000,160.443 122.000 C 160.199 122.000,160.000 122.165,160.000 122.367 " stroke="none" fill="#daefef" fill-rule="evenodd"></path><path id="path1" d="M112.800 76.361 C 110.798 77.410,110.372 77.600,110.024 77.600 C 109.521 77.600,107.600 79.520,107.600 80.022 C 107.600 80.234,107.060 80.972,106.400 81.663 L 105.200 82.919 105.200 89.436 C 105.200 93.349,105.360 96.052,105.600 96.200 C 105.820 96.336,106.000 96.711,106.000 97.032 C 106.000 97.690,110.157 102.000,110.791 102.000 C 111.016 102.000,111.200 102.180,111.200 102.400 C 111.200 102.620,111.920 102.800,112.800 102.800 C 113.680 102.800,114.400 102.980,114.400 103.200 C 114.400 103.919,129.067 103.723,129.345 103.000 C 129.693 102.092,270.640 102.088,271.824 102.996 C 272.715 103.680,286.607 103.836,287.020 103.167 C 287.145 102.965,287.777 102.800,288.424 102.800 C 289.071 102.800,289.600 102.620,289.600 102.400 C 289.600 102.180,289.870 102.000,290.200 102.000 C 290.530 102.000,290.800 101.820,290.800 101.600 C 290.800 101.380,291.091 101.200,291.446 101.200 C 292.193 101.200,294.800 98.497,294.800 97.722 C 294.800 97.435,294.980 97.200,295.200 97.200 C 295.420 97.200,295.600 96.660,295.600 96.000 C 295.600 95.340,295.780 94.800,296.000 94.800 C 296.245 94.800,296.400 92.867,296.400 89.800 C 296.400 86.733,296.245 84.800,296.000 84.800 C 295.780 84.800,295.600 84.260,295.600 83.600 C 295.600 82.940,295.420 82.400,295.200 82.400 C 294.980 82.400,294.800 82.125,294.800 81.789 C 294.800 81.111,291.457 77.600,290.811 77.600 C 290.585 77.600,290.400 77.464,290.400 77.297 C 290.400 76.039,287.625 76.000,200.306 76.024 C 152.508 76.036,113.130 76.188,112.800 76.361 M131.067 279.067 C 130.511 279.623,130.776 283.200,131.373 283.200 C 132.064 283.200,132.359 282.311,132.337 280.300 C 132.321 278.903,131.768 278.365,131.067 279.067 M269.200 281.376 C 269.200 281.939,269.380 282.400,269.600 282.400 C 269.820 282.400,270.000 282.051,270.000 281.624 C 270.000 281.197,269.820 280.736,269.600 280.600 C 269.373 280.460,269.200 280.796,269.200 281.376 M130.275 288.258 C 129.837 288.696,129.953 294.000,130.400 294.000 C 130.620 294.000,130.800 293.190,130.800 292.200 C 130.800 291.192,130.988 290.400,131.227 290.400 C 131.461 290.400,131.596 289.919,131.527 289.331 C 131.400 288.261,130.793 287.741,130.275 288.258 M270.000 296.726 C 270.000 298.479,270.316 298.450,252.600 298.300 C 233.323 298.136,169.786 298.135,148.244 298.298 C 134.488 298.402,132.159 298.334,131.358 297.809 C 128.912 296.207,111.485 297.210,109.966 299.041 C 109.711 299.349,109.331 299.600,109.122 299.600 C 108.561 299.600,107.600 300.662,107.600 301.283 C 107.600 301.580,107.240 302.083,106.800 302.400 C 106.360 302.717,106.000 303.297,106.000 303.688 C 106.000 304.133,105.700 304.400,105.200 304.400 C 104.742 304.400,104.400 304.667,104.400 305.024 C 104.400 305.367,104.580 305.536,104.800 305.400 C 105.060 305.239,105.200 307.300,105.200 311.288 C 105.200 316.965,105.260 317.467,106.000 318.000 C 106.440 318.317,106.800 318.804,106.800 319.081 C 106.800 320.449,110.784 323.570,113.400 324.253 C 115.260 324.738,285.833 324.633,288.065 324.145 C 290.826 323.542,294.800 320.514,294.800 319.013 C 294.800 318.676,294.980 318.400,295.200 318.400 C 295.420 318.400,295.600 317.860,295.600 317.200 C 295.600 316.540,295.761 316.000,295.957 316.000 C 296.154 316.000,296.342 313.750,296.375 311.000 C 296.415 307.752,296.289 306.000,296.018 306.000 C 295.788 306.000,295.600 305.496,295.600 304.880 C 295.600 304.264,295.375 303.518,295.100 303.221 C 294.700 302.790,294.700 302.739,295.100 302.965 C 295.375 303.120,295.600 303.051,295.600 302.811 C 295.600 302.571,295.285 302.256,294.900 302.110 C 294.515 301.964,293.539 301.160,292.731 300.322 C 291.924 299.485,291.069 298.800,290.831 298.800 C 290.594 298.800,290.400 298.620,290.400 298.400 C 290.400 298.180,289.860 298.000,289.200 298.000 C 288.540 298.000,288.000 297.824,288.000 297.608 C 288.000 297.367,284.645 297.174,279.300 297.108 C 273.000 297.030,270.600 296.871,270.600 296.533 C 270.600 296.277,270.465 295.932,270.300 295.767 C 270.135 295.602,270.000 296.033,270.000 296.726 " stroke="none" fill="#c0812d" fill-rule="evenodd"></path><path id="path2" d="M187.400 108.385 C 171.574 109.038,156.083 111.116,154.747 112.766 C 154.367 113.235,153.909 113.583,153.728 113.539 C 153.266 113.426,149.939 114.340,149.105 114.809 C 148.723 115.024,148.216 115.200,147.979 115.200 C 147.741 115.200,146.884 115.826,146.073 116.592 L 144.600 117.984 144.693 121.892 C 144.870 129.294,147.100 140.242,149.566 145.816 C 150.025 146.853,150.400 147.870,150.400 148.076 C 150.400 149.584,155.295 157.680,159.068 162.411 C 166.724 172.014,172.877 177.417,183.200 183.605 C 189.390 187.315,191.773 189.001,193.210 190.689 C 194.496 192.199,194.496 192.199,193.749 190.873 C 192.760 189.121,190.096 187.113,183.903 183.450 C 171.345 176.024,160.654 165.577,153.971 154.200 C 151.023 149.182,150.973 148.786,153.431 149.947 C 162.308 154.141,167.906 144.228,164.357 130.600 C 162.749 124.425,162.398 124.906,168.000 125.615 C 197.051 129.290,241.363 126.953,252.918 121.137 C 254.193 120.495,255.337 119.708,255.460 119.387 C 255.583 119.067,255.852 118.909,256.058 119.036 C 257.031 119.637,255.702 116.843,254.403 115.557 C 249.396 110.599,217.211 107.154,187.400 108.385 M155.553 114.829 C 154.946 115.204,154.291 114.900,154.606 114.390 C 154.727 114.195,155.105 114.142,155.446 114.273 C 155.931 114.459,155.954 114.581,155.553 114.829 M157.843 117.500 C 158.135 117.885,158.380 118.515,158.387 118.900 C 158.394 119.285,158.580 119.600,158.800 119.600 C 159.020 119.600,159.200 119.960,159.200 120.400 C 159.200 120.840,159.020 121.200,158.800 121.200 C 158.580 121.200,158.400 120.840,158.400 120.400 C 158.400 119.960,158.220 119.600,158.000 119.600 C 157.780 119.600,157.600 119.240,157.600 118.800 C 157.600 118.360,157.420 118.000,157.200 118.000 C 156.980 118.000,156.800 117.730,156.800 117.400 C 156.800 116.604,157.191 116.641,157.843 117.500 M148.000 119.662 C 148.000 120.261,146.894 120.021,146.643 119.367 C 146.185 118.174,146.401 117.877,147.200 118.600 C 147.640 118.998,148.000 119.476,148.000 119.662 M150.600 120.400 C 150.745 120.634,150.330 120.800,149.600 120.800 C 148.870 120.800,148.455 120.634,148.600 120.400 C 148.736 120.180,149.186 120.000,149.600 120.000 C 150.014 120.000,150.464 120.180,150.600 120.400 M154.000 121.200 C 154.784 121.451,154.541 121.529,152.876 121.560 C 151.553 121.585,150.846 121.449,151.000 121.200 C 151.285 120.738,152.559 120.738,154.000 121.200 M158.367 122.253 C 158.458 122.334,157.683 122.400,156.643 122.400 C 155.447 122.400,154.846 122.249,155.008 121.988 C 155.232 121.624,157.892 121.834,158.367 122.253 M160.659 122.589 C 160.535 122.915,160.740 123.358,161.117 123.577 C 161.686 123.909,161.609 123.978,160.657 123.988 C 159.777 123.997,159.570 123.855,159.757 123.367 C 159.891 123.019,160.000 122.569,160.000 122.367 C 160.000 122.165,160.199 122.000,160.443 122.000 C 160.686 122.000,160.784 122.265,160.659 122.589 M256.101 124.200 C 256.105 125.080,256.187 125.393,256.283 124.895 C 256.379 124.398,256.375 123.678,256.275 123.295 C 256.175 122.913,256.096 123.320,256.101 124.200 M169.197 149.174 C 160.471 151.828,160.670 163.631,169.481 165.974 C 174.462 167.298,179.600 163.011,179.600 157.531 C 179.600 151.967,174.221 147.646,169.197 149.174 M195.002 197.400 C 195.123 198.720,195.491 202.500,195.819 205.800 C 197.157 219.265,197.440 222.259,198.201 231.000 C 198.472 234.105,199.528 242.494,199.825 243.900 C 199.930 244.395,200.278 244.800,200.600 244.800 C 200.922 244.800,201.264 244.395,201.361 243.900 C 201.912 241.079,202.464 236.033,202.335 235.000 C 202.249 234.310,201.966 235.499,201.669 237.800 C 200.538 246.549,200.221 245.780,198.781 230.800 C 198.580 228.710,198.138 224.120,197.797 220.600 C 197.457 217.080,197.013 212.400,196.810 210.200 C 195.860 199.885,195.472 196.540,195.140 195.800 C 194.904 195.275,194.857 195.824,195.002 197.400 M205.272 200.884 C 205.232 201.700,205.028 203.680,204.818 205.284 C 204.609 206.888,204.152 211.440,203.803 215.400 C 203.455 219.360,203.081 223.297,202.972 224.150 C 202.864 225.002,202.697 227.342,202.603 229.350 L 202.431 233.000 202.960 229.200 C 203.251 227.110,203.703 222.790,203.966 219.600 C 204.228 216.410,204.715 211.460,205.049 208.600 C 205.383 205.740,205.586 202.500,205.500 201.400 C 205.375 199.790,205.330 199.690,205.272 200.884 M197.800 265.490 C 196.833 265.728,196.000 266.503,177.907 283.988 L 163.615 297.800 147.707 298.007 L 131.800 298.214 147.740 298.307 L 163.680 298.400 168.940 293.308 C 171.833 290.507,176.180 286.322,178.599 284.008 C 181.019 281.693,185.339 277.531,188.199 274.757 C 197.995 265.258,197.528 265.599,200.726 265.601 C 203.372 265.604,208.467 269.806,219.606 281.173 C 223.059 284.697,236.933 297.824,237.325 297.938 C 237.896 298.104,235.404 295.655,218.063 279.000 C 202.896 264.435,202.676 264.288,197.800 265.490 M241.900 298.298 C 244.155 298.370,247.845 298.370,250.100 298.298 C 252.355 298.227,250.510 298.169,246.000 298.169 C 241.490 298.169,239.645 298.227,241.900 298.298 " stroke="none" fill="#f09c93" fill-rule="evenodd"></path><path id="path3" d="M255.471 119.358 C 255.342 119.695,254.193 120.495,252.918 121.137 C 241.363 126.953,197.051 129.290,168.000 125.615 C 162.398 124.906,162.749 124.425,164.357 130.600 C 167.906 144.228,162.308 154.141,153.431 149.947 C 150.973 148.786,151.023 149.182,153.971 154.200 C 160.653 165.575,171.337 176.016,183.903 183.452 C 192.119 188.315,194.800 190.829,194.800 193.675 C 194.800 194.228,194.971 195.202,195.180 195.840 C 195.388 196.478,195.842 200.060,196.188 203.800 C 196.533 207.540,196.991 212.310,197.205 214.400 C 197.565 217.923,197.947 221.884,198.806 231.000 C 199.846 242.044,200.440 245.308,200.946 242.758 C 201.287 241.038,202.377 231.871,202.606 228.800 C 203.386 218.314,204.941 203.083,205.871 196.800 C 206.849 190.200,207.771 189.073,216.200 184.184 C 224.260 179.509,228.955 175.938,234.719 170.101 C 245.769 158.909,252.024 147.738,254.780 134.276 C 256.233 127.181,256.750 116.027,255.471 119.358 M173.375 149.235 C 179.990 150.901,181.852 160.405,176.343 164.395 C 169.554 169.313,160.948 163.125,163.166 154.918 C 164.331 150.609,168.846 148.095,173.375 149.235 M197.800 265.993 C 196.907 266.376,195.706 267.474,188.200 274.764 C 185.340 277.542,178.905 283.749,173.900 288.557 C 168.895 293.365,164.800 297.457,164.800 297.649 C 164.800 297.848,180.366 298.000,200.600 298.000 C 220.290 298.000,236.400 297.854,236.400 297.675 C 236.400 297.496,232.847 293.941,228.505 289.775 C 224.163 285.609,220.158 281.738,219.605 281.173 C 215.736 277.223,204.781 266.940,203.800 266.339 C 202.528 265.559,199.254 265.370,197.800 265.993 " stroke="none" fill="#e85243" fill-rule="evenodd"></path><path id="path4" d="M129.112 103.178 C 128.357 104.060,128.323 105.600,129.059 105.600 C 129.327 105.600,129.604 105.105,129.673 104.500 L 129.800 103.400 200.400 103.400 L 271.000 103.400 270.909 106.600 C 270.748 112.242,270.346 116.984,269.992 117.410 C 269.460 118.050,269.269 119.712,269.624 120.600 C 269.800 121.040,269.956 121.164,269.972 120.876 C 269.987 120.588,270.144 120.442,270.320 120.551 C 270.590 120.717,270.804 119.540,270.910 117.300 C 270.923 117.025,271.128 116.797,271.367 116.794 C 271.605 116.791,271.530 116.613,271.200 116.400 C 270.800 116.142,270.767 116.010,271.100 116.006 C 271.432 116.002,271.600 115.335,271.600 114.024 C 271.600 112.937,271.780 111.936,272.000 111.800 C 272.220 111.664,272.400 111.373,272.400 111.153 C 272.400 110.933,272.175 110.888,271.900 111.053 C 271.517 111.283,271.506 111.218,271.850 110.777 C 272.724 109.656,272.565 103.317,271.650 102.827 C 269.952 101.918,129.895 102.263,129.112 103.178 M175.700 109.076 C 176.085 109.176,176.715 109.176,177.100 109.076 C 177.485 108.975,177.170 108.893,176.400 108.893 C 175.630 108.893,175.315 108.975,175.700 109.076 M224.100 109.076 C 224.485 109.176,225.115 109.176,225.500 109.076 C 225.885 108.975,225.570 108.893,224.800 108.893 C 224.030 108.893,223.715 108.975,224.100 109.076 M129.456 109.478 C 128.932 110.002,129.198 113.500,129.800 114.000 C 130.322 114.433,130.400 114.183,130.400 112.073 C 130.400 109.810,130.059 108.874,129.456 109.478 M254.050 115.100 C 254.352 115.485,254.944 116.117,255.366 116.505 C 256.460 117.509,256.650 122.195,255.847 128.407 C 253.926 143.285,248.903 154.439,239.094 165.614 C 231.954 173.747,226.736 178.102,217.780 183.404 C 207.134 189.706,205.583 191.899,205.619 200.600 C 205.629 203.014,206.332 200.616,206.773 196.664 C 207.420 190.858,208.758 189.205,216.149 185.083 C 224.873 180.217,233.216 173.579,238.623 167.200 C 245.990 158.510,250.227 151.774,252.588 145.000 C 252.971 143.900,253.432 142.640,253.612 142.200 C 253.792 141.760,254.029 140.950,254.138 140.400 C 254.248 139.850,254.690 138.050,255.121 136.400 C 257.488 127.348,257.801 117.689,255.797 115.597 C 254.517 114.260,253.071 113.849,254.050 115.100 M130.000 117.327 C 130.000 118.331,130.180 119.264,130.400 119.400 C 130.620 119.536,130.800 120.457,130.800 121.447 C 130.800 122.545,130.956 123.151,131.200 123.000 C 131.444 122.849,131.600 123.463,131.600 124.576 C 131.600 125.579,131.780 126.400,132.000 126.400 C 132.220 126.400,132.400 126.850,132.400 127.400 C 132.400 128.022,132.627 128.400,133.000 128.400 C 133.333 128.400,133.600 128.044,133.600 127.600 C 133.600 127.160,133.420 126.800,133.200 126.800 C 132.980 126.800,132.800 126.178,132.800 125.419 C 132.800 124.659,132.636 123.624,132.436 123.119 C 132.236 122.613,131.847 120.893,131.571 119.295 C 130.958 115.743,130.000 114.543,130.000 117.327 M268.439 123.260 C 268.198 123.953,268.000 125.022,268.000 125.636 C 268.000 126.250,267.820 126.864,267.600 127.000 C 267.380 127.136,267.200 127.867,267.200 128.624 C 267.200 129.381,267.020 130.000,266.800 130.000 C 266.580 130.000,266.400 130.630,266.400 131.400 C 266.400 132.170,266.220 132.800,266.000 132.800 C 265.780 132.800,265.600 133.089,265.600 133.443 C 265.600 134.007,263.846 138.144,262.780 140.095 C 262.236 141.090,262.310 141.600,263.000 141.600 C 263.330 141.600,263.600 141.319,263.600 140.976 C 263.600 140.591,263.791 140.463,264.100 140.641 C 264.375 140.799,264.470 140.784,264.311 140.608 C 264.151 140.432,264.264 139.818,264.562 139.244 C 265.775 136.903,266.084 136.053,265.911 135.539 C 265.811 135.243,265.967 134.820,266.257 134.600 C 266.548 134.380,266.856 133.840,266.942 133.400 C 267.402 131.053,267.732 130.000,268.006 130.000 C 268.175 130.000,268.422 129.370,268.556 128.600 C 268.690 127.830,268.910 126.570,269.044 125.800 C 269.178 125.030,269.410 124.400,269.559 124.400 C 269.708 124.400,269.871 123.860,269.921 123.200 C 270.046 121.568,269.014 121.610,268.439 123.260 M133.200 130.567 C 133.200 131.239,133.419 131.600,133.828 131.600 C 134.245 131.600,134.413 131.308,134.328 130.731 C 134.139 129.451,133.200 129.314,133.200 130.567 M134.000 132.967 C 134.000 133.535,134.180 134.000,134.400 134.000 C 134.620 134.000,134.800 134.339,134.800 134.754 C 134.800 135.169,135.061 136.011,135.380 136.626 C 135.698 137.240,135.868 137.891,135.756 138.071 C 135.644 138.252,135.743 138.400,135.976 138.400 C 136.209 138.400,136.400 138.670,136.400 139.000 C 136.400 139.762,137.044 139.782,137.333 139.029 C 137.454 138.715,137.293 138.243,136.976 137.980 C 136.659 137.717,136.399 137.209,136.398 136.851 C 136.397 136.493,136.079 135.314,135.690 134.231 C 134.898 132.020,134.000 131.349,134.000 132.967 M137.414 139.977 C 137.281 140.192,137.339 140.690,137.543 141.084 C 137.746 141.478,138.320 142.655,138.819 143.700 C 139.318 144.745,139.877 145.600,140.063 145.600 C 140.248 145.600,140.400 145.960,140.400 146.400 C 140.400 146.840,140.535 147.202,140.700 147.205 C 140.865 147.207,141.344 147.927,141.764 148.805 C 142.185 149.682,142.680 150.400,142.864 150.400 C 143.049 150.400,143.200 150.670,143.200 151.000 C 143.200 151.330,143.380 151.600,143.600 151.600 C 143.820 151.600,144.000 151.804,144.000 152.053 C 144.000 152.302,144.316 152.797,144.703 153.153 C 145.089 153.509,145.674 154.323,146.003 154.961 C 146.331 155.600,147.455 156.996,148.500 158.063 C 149.545 159.131,150.400 160.117,150.400 160.255 C 150.400 160.605,152.048 162.000,152.461 162.000 C 152.648 162.000,152.800 162.273,152.800 162.606 C 152.800 163.290,158.552 169.200,159.217 169.200 C 159.454 169.200,159.536 169.380,159.400 169.600 C 159.264 169.820,159.444 170.000,159.800 170.000 C 160.156 170.000,160.336 170.180,160.200 170.400 C 160.064 170.620,160.157 170.800,160.406 170.800 C 161.393 170.800,160.415 169.474,156.200 165.101 C 152.087 160.834,149.596 157.984,147.200 154.801 C 146.650 154.071,145.975 153.245,145.700 152.965 C 145.425 152.686,145.200 152.264,145.200 152.029 C 145.200 151.793,145.020 151.600,144.800 151.600 C 144.580 151.600,144.400 151.330,144.400 151.000 C 144.400 150.670,144.264 150.400,144.098 150.400 C 143.931 150.400,143.571 149.894,143.297 149.275 C 143.024 148.656,142.440 147.764,142.000 147.292 C 141.560 146.820,141.200 146.246,141.200 146.017 C 141.200 145.788,141.020 145.600,140.800 145.600 C 140.580 145.600,140.400 145.340,140.400 145.023 C 140.400 144.386,138.796 141.474,138.336 141.274 C 138.176 141.205,138.137 140.908,138.250 140.615 C 138.494 139.977,137.760 139.417,137.414 139.977 M261.696 142.500 C 261.476 142.775,260.822 143.900,260.244 145.000 C 258.642 148.047,257.902 149.267,256.700 150.838 C 256.095 151.629,255.600 152.411,255.600 152.577 C 255.600 152.743,255.098 153.356,254.485 153.940 C 253.871 154.523,252.935 155.630,252.404 156.400 C 251.872 157.170,251.114 158.091,250.719 158.447 C 250.324 158.803,250.000 159.219,250.000 159.373 C 250.000 160.251,237.591 172.074,232.547 176.000 C 228.563 179.102,226.809 180.400,226.600 180.400 C 226.472 180.400,226.149 180.592,225.883 180.826 C 225.302 181.339,221.814 183.417,219.200 184.808 C 215.752 186.642,215.103 187.031,214.407 187.679 C 213.981 188.076,213.502 188.400,213.341 188.400 C 212.269 188.400,210.142 191.697,210.365 193.014 C 210.615 194.490,212.487 196.800,213.434 196.800 C 213.745 196.800,214.000 196.980,214.000 197.200 C 214.000 197.420,214.360 197.600,214.800 197.600 C 215.240 197.600,215.600 197.759,215.600 197.953 C 215.600 198.148,215.915 198.410,216.300 198.536 C 216.685 198.662,217.770 199.223,218.711 199.782 C 219.652 200.342,220.762 200.800,221.177 200.800 C 221.593 200.800,221.993 200.935,222.067 201.100 C 222.140 201.265,223.917 202.251,226.016 203.292 C 228.114 204.332,230.198 205.525,230.646 205.942 C 231.094 206.360,231.919 206.949,232.478 207.251 C 233.038 207.553,234.014 208.201,234.648 208.692 C 235.282 209.182,236.970 210.440,238.400 211.487 C 242.074 214.177,250.349 222.513,252.409 225.600 C 253.364 227.030,254.292 228.260,254.472 228.333 C 254.653 228.407,254.800 228.722,254.800 229.033 C 254.800 229.345,254.980 229.600,255.200 229.600 C 255.420 229.600,255.600 229.828,255.600 230.106 C 255.600 230.923,257.998 235.600,258.417 235.600 C 258.628 235.600,258.800 235.240,258.800 234.800 C 258.800 234.360,258.620 234.000,258.400 234.000 C 258.180 234.000,258.000 233.630,258.000 233.177 C 258.000 231.881,254.403 225.851,252.750 224.375 C 252.365 224.031,251.994 223.500,251.925 223.194 C 251.856 222.889,250.405 221.243,248.700 219.537 C 246.995 217.830,245.600 216.241,245.600 216.005 C 245.600 215.768,245.285 215.457,244.900 215.312 C 244.515 215.167,243.723 214.543,243.140 213.925 C 242.556 213.306,241.964 212.800,241.824 212.800 C 241.684 212.800,240.811 212.069,239.885 211.175 C 238.958 210.282,237.615 209.271,236.900 208.930 C 236.185 208.588,235.600 208.149,235.600 207.954 C 235.600 207.759,235.195 207.597,234.700 207.594 C 233.972 207.589,233.915 207.514,234.400 207.200 C 234.885 206.886,234.828 206.811,234.100 206.806 C 233.605 206.803,233.200 206.620,233.200 206.400 C 233.200 206.180,232.919 206.000,232.576 206.000 C 232.207 206.000,232.069 205.812,232.238 205.538 C 232.407 205.264,232.349 205.185,232.094 205.342 C 231.858 205.488,231.425 205.381,231.132 205.104 C 230.840 204.827,230.105 204.345,229.500 204.032 C 228.895 203.720,228.400 203.315,228.400 203.132 C 228.400 202.950,228.040 202.800,227.600 202.800 C 227.160 202.800,226.800 202.620,226.800 202.400 C 226.800 202.180,226.440 202.000,226.000 202.000 C 225.560 202.000,225.200 201.820,225.200 201.600 C 225.200 201.380,224.772 201.200,224.249 201.200 C 223.726 201.200,223.077 200.934,222.807 200.608 C 222.161 199.831,220.071 198.800,219.139 198.800 C 218.732 198.800,218.400 198.635,218.400 198.433 C 218.400 198.231,217.500 197.658,216.400 197.161 C 215.300 196.664,214.400 196.153,214.400 196.026 C 214.400 195.899,213.860 195.556,213.200 195.264 C 212.540 194.972,212.000 194.478,212.000 194.166 C 212.000 193.855,211.820 193.600,211.600 193.600 C 210.690 193.600,211.272 191.749,212.480 190.800 C 213.180 190.250,214.160 189.395,214.658 188.900 C 215.156 188.405,215.765 188.000,216.010 188.000 C 216.256 188.000,216.729 187.728,217.061 187.396 C 217.393 187.064,217.830 186.895,218.032 187.020 C 218.235 187.145,218.400 187.082,218.400 186.879 C 218.400 186.677,219.255 186.081,220.300 185.556 C 221.345 185.030,222.290 184.510,222.400 184.399 C 222.510 184.289,223.068 183.958,223.639 183.664 C 224.211 183.370,225.179 182.699,225.791 182.174 C 226.404 181.648,227.089 181.331,227.314 181.470 C 227.549 181.616,227.602 181.527,227.438 181.262 C 227.269 180.988,227.407 180.800,227.776 180.800 C 228.119 180.800,228.400 180.620,228.400 180.400 C 228.400 180.180,228.688 180.000,229.040 180.000 C 229.391 180.000,230.183 179.460,230.800 178.800 C 231.417 178.140,232.129 177.600,232.384 177.600 C 232.639 177.600,232.736 177.420,232.600 177.200 C 232.464 176.980,232.633 176.800,232.976 176.800 C 233.319 176.800,234.341 176.080,235.248 175.200 C 236.155 174.320,237.063 173.600,237.266 173.600 C 237.756 173.600,251.200 160.075,251.200 159.582 C 251.200 159.371,251.920 158.547,252.800 157.752 C 253.680 156.957,254.400 156.140,254.400 155.937 C 254.400 155.733,254.782 155.169,255.249 154.683 C 256.343 153.545,258.800 149.765,258.800 149.219 C 258.800 148.989,258.980 148.800,259.200 148.800 C 259.420 148.800,259.600 148.519,259.600 148.176 C 259.600 147.807,259.788 147.669,260.062 147.838 C 260.336 148.007,260.415 147.949,260.258 147.694 C 260.112 147.458,260.264 146.993,260.596 146.661 C 260.928 146.329,261.200 145.774,261.200 145.429 C 261.200 145.083,261.380 144.800,261.600 144.800 C 261.820 144.800,262.000 144.440,262.000 144.000 C 262.000 143.560,262.180 143.200,262.400 143.200 C 262.620 143.200,262.800 142.930,262.800 142.600 C 262.800 141.870,262.243 141.820,261.696 142.500 M161.200 170.846 C 161.200 171.413,166.306 175.999,166.940 176.000 C 167.126 176.000,167.783 176.540,168.400 177.200 C 169.017 177.860,169.729 178.400,169.984 178.400 C 170.239 178.400,170.336 178.580,170.200 178.800 C 170.064 179.020,170.199 179.200,170.501 179.200 C 170.802 179.200,171.436 179.560,171.908 180.000 C 172.380 180.440,172.954 180.800,173.183 180.800 C 173.989 180.800,173.587 180.045,172.300 179.142 C 171.101 178.302,164.421 172.756,162.625 171.110 C 161.738 170.298,161.200 170.198,161.200 170.846 M168.600 173.200 C 169.459 174.080,170.252 174.800,170.362 174.800 C 170.472 174.800,169.859 174.080,169.000 173.200 C 168.141 172.320,167.348 171.600,167.238 171.600 C 167.128 171.600,167.741 172.320,168.600 173.200 M174.227 180.757 C 173.885 181.310,175.949 183.170,176.924 183.187 C 177.322 183.194,177.536 183.380,177.400 183.600 C 177.259 183.828,177.604 184.000,178.200 184.000 C 178.796 184.000,179.141 184.172,179.000 184.400 C 178.864 184.620,179.033 184.800,179.376 184.800 C 179.719 184.800,180.001 184.935,180.003 185.100 C 180.005 185.265,180.410 185.598,180.903 185.840 C 183.002 186.871,185.415 188.220,185.604 188.468 C 185.716 188.615,186.058 188.795,186.364 188.868 C 187.193 189.065,189.600 191.318,189.600 191.897 C 189.600 192.499,190.251 192.564,190.602 191.997 C 190.739 191.776,190.569 191.486,190.225 191.354 C 189.881 191.222,189.600 190.945,189.600 190.739 C 189.600 190.331,187.785 188.400,187.401 188.400 C 187.272 188.400,186.811 188.069,186.377 187.664 C 185.942 187.259,185.095 186.674,184.493 186.365 C 183.892 186.055,183.310 185.711,183.200 185.601 C 183.090 185.490,182.010 184.878,180.800 184.240 C 175.751 181.578,175.018 181.153,174.765 180.744 C 174.578 180.440,174.420 180.444,174.227 180.757 M192.000 189.800 C 192.746 190.570,193.447 191.200,193.557 191.200 C 193.667 191.200,193.146 190.570,192.400 189.800 C 191.654 189.030,190.953 188.400,190.843 188.400 C 190.733 188.400,191.254 189.030,192.000 189.800 M193.791 192.400 C 193.955 192.950,194.237 194.300,194.416 195.400 L 194.742 197.400 194.645 194.894 C 194.589 193.451,194.324 192.179,194.020 191.894 C 193.587 191.490,193.546 191.582,193.791 192.400 M189.600 193.837 C 189.600 194.188,189.240 194.569,188.800 194.684 C 188.360 194.799,188.000 195.052,188.000 195.247 C 188.000 195.441,187.640 195.600,187.200 195.600 C 186.760 195.600,186.400 195.758,186.400 195.951 C 186.400 196.145,185.860 196.527,185.200 196.800 C 184.540 197.073,184.000 197.455,184.000 197.649 C 184.000 197.842,183.640 198.000,183.200 198.000 C 182.760 198.000,182.400 198.180,182.400 198.400 C 182.400 198.620,182.128 198.800,181.795 198.800 C 181.462 198.800,180.877 198.964,180.495 199.164 C 180.113 199.364,179.208 199.786,178.485 200.102 C 177.397 200.578,177.268 200.758,177.737 201.148 C 178.294 201.610,184.782 198.784,185.133 197.925 C 185.207 197.746,185.567 197.600,185.935 197.600 C 186.903 197.600,190.358 194.725,190.381 193.900 C 190.391 193.515,190.220 193.200,190.000 193.200 C 189.780 193.200,189.600 193.487,189.600 193.837 M195.301 202.200 C 195.305 203.080,195.387 203.393,195.483 202.895 C 195.579 202.398,195.575 201.678,195.475 201.295 C 195.375 200.913,195.296 201.320,195.301 202.200 M176.200 201.600 C 176.064 201.820,175.637 202.000,175.252 202.000 C 174.866 202.000,174.157 202.367,173.675 202.816 C 173.194 203.264,172.800 203.437,172.800 203.200 C 172.800 202.963,172.406 203.136,171.925 203.584 C 171.443 204.033,170.777 204.400,170.445 204.400 C 170.011 204.400,169.962 204.522,170.273 204.833 C 170.564 205.124,170.950 205.138,171.453 204.873 C 171.864 204.657,173.055 204.058,174.100 203.541 C 175.145 203.024,176.000 202.472,176.000 202.313 C 176.000 202.155,176.247 202.120,176.548 202.236 C 176.850 202.351,177.204 202.166,177.336 201.823 C 177.602 201.131,176.610 200.936,176.200 201.600 M169.200 205.600 C 169.200 205.820,168.957 206.000,168.659 206.000 C 168.362 206.000,167.587 206.495,166.937 207.100 C 166.288 207.705,164.939 208.631,163.941 209.157 C 162.943 209.684,161.212 210.973,160.095 212.022 C 158.977 213.071,157.959 213.825,157.831 213.698 C 157.704 213.571,157.600 213.797,157.600 214.200 C 157.600 214.603,157.490 214.823,157.355 214.688 C 157.063 214.396,150.400 221.092,150.400 221.676 C 150.400 221.898,149.860 222.583,149.200 223.200 C 148.540 223.817,148.000 224.529,148.000 224.784 C 148.000 225.039,147.792 225.119,147.538 224.962 C 147.274 224.798,147.184 224.851,147.329 225.085 C 147.468 225.309,147.229 225.811,146.799 226.200 C 146.370 226.590,145.591 227.739,145.070 228.754 C 144.549 229.769,143.645 231.526,143.061 232.658 C 142.478 233.790,142.000 235.196,142.000 235.782 C 142.000 236.390,141.828 236.741,141.600 236.600 C 141.373 236.460,141.200 236.796,141.200 237.376 C 141.200 238.782,141.700 238.660,142.329 237.100 C 142.617 236.385,143.021 235.487,143.226 235.105 C 143.432 234.723,143.600 234.138,143.600 233.805 C 143.600 233.472,143.780 233.200,144.000 233.200 C 144.220 233.200,144.400 232.750,144.400 232.200 C 144.400 231.650,144.580 231.200,144.800 231.200 C 145.020 231.200,145.200 230.930,145.200 230.600 C 145.200 230.270,145.359 230.000,145.554 230.000 C 145.749 230.000,146.201 229.385,146.557 228.634 C 148.426 224.696,155.864 216.564,161.405 212.400 C 162.722 211.410,164.340 210.106,165.000 209.502 C 165.660 208.898,166.425 208.403,166.700 208.402 C 166.975 208.401,167.200 208.262,167.200 208.094 C 167.200 207.926,167.920 207.344,168.800 206.800 C 170.467 205.770,170.823 205.200,169.800 205.200 C 169.470 205.200,169.200 205.380,169.200 205.600 M195.693 206.800 C 195.693 207.570,195.775 207.885,195.876 207.500 C 195.976 207.115,195.976 206.485,195.876 206.100 C 195.775 205.715,195.693 206.030,195.693 206.800 M205.260 206.450 C 205.227 207.028,205.111 208.107,205.001 208.850 L 204.803 210.200 205.224 208.857 C 205.455 208.119,205.572 207.039,205.482 206.457 L 205.320 205.400 205.260 206.450 M204.520 214.000 C 204.520 215.210,204.595 215.705,204.687 215.100 C 204.778 214.495,204.778 213.505,204.687 212.900 C 204.595 212.295,204.520 212.790,204.520 214.000 M196.509 214.800 C 196.509 215.790,196.587 216.195,196.682 215.700 C 196.778 215.205,196.778 214.395,196.682 213.900 C 196.587 213.405,196.509 213.810,196.509 214.800 M197.293 222.400 C 197.293 223.170,197.375 223.485,197.476 223.100 C 197.576 222.715,197.576 222.085,197.476 221.700 C 197.375 221.315,197.293 221.630,197.293 222.400 M203.701 222.600 C 203.705 223.480,203.787 223.793,203.883 223.295 C 203.979 222.798,203.975 222.078,203.875 221.695 C 203.775 221.313,203.696 221.720,203.701 222.600 M203.301 227.800 C 203.305 228.680,203.387 228.993,203.483 228.495 C 203.579 227.998,203.575 227.278,203.475 226.895 C 203.375 226.513,203.296 226.920,203.301 227.800 M197.693 228.000 C 197.693 228.770,197.775 229.085,197.876 228.700 C 197.976 228.315,197.976 227.685,197.876 227.300 C 197.775 226.915,197.693 227.230,197.693 228.000 M202.893 230.800 C 202.893 231.570,202.975 231.885,203.076 231.500 C 203.176 231.115,203.176 230.485,203.076 230.100 C 202.975 229.715,202.893 230.030,202.893 230.800 M202.514 234.600 C 202.517 235.700,202.595 236.103,202.687 235.495 C 202.779 234.886,202.777 233.986,202.682 233.495 C 202.587 233.003,202.511 233.500,202.514 234.600 M198.501 236.600 C 198.505 237.480,198.587 237.793,198.683 237.295 C 198.779 236.798,198.775 236.078,198.675 235.695 C 198.575 235.313,198.496 235.720,198.501 236.600 M258.786 236.426 C 258.452 237.051,258.472 237.405,258.872 237.885 C 259.163 238.233,259.709 239.707,260.087 241.159 C 261.506 246.609,261.890 247.763,262.339 247.913 C 262.637 248.012,262.714 248.599,262.556 249.583 C 262.407 250.515,262.485 251.205,262.757 251.373 C 263.001 251.524,263.198 252.042,263.197 252.524 C 263.194 253.315,263.850 256.467,264.857 260.500 C 265.063 261.325,265.424 262.000,265.658 262.000 C 265.923 262.000,266.000 261.433,265.862 260.500 C 265.337 256.944,264.951 254.968,264.705 254.569 C 264.560 254.335,264.396 253.379,264.341 252.446 C 264.286 251.512,264.096 250.660,263.920 250.551 C 263.744 250.442,263.600 249.823,263.600 249.176 C 263.600 248.529,263.420 248.000,263.200 248.000 C 262.980 248.000,262.800 247.471,262.800 246.824 C 262.800 246.177,262.620 245.536,262.400 245.400 C 262.180 245.264,262.000 244.623,262.000 243.976 C 262.000 243.329,261.820 242.800,261.600 242.800 C 261.380 242.800,261.200 242.080,261.200 241.200 C 261.200 240.320,261.020 239.600,260.800 239.600 C 260.580 239.600,260.400 239.255,260.400 238.833 C 260.400 238.412,260.175 237.976,259.900 237.865 C 259.519 237.711,259.525 237.656,259.929 237.632 C 260.328 237.608,260.303 237.445,259.825 236.968 C 259.477 236.620,259.295 236.170,259.420 235.968 C 259.545 235.765,259.553 235.600,259.438 235.600 C 259.322 235.600,259.029 235.972,258.786 236.426 M140.096 240.395 C 139.823 240.832,139.600 241.631,139.600 242.171 C 139.600 242.711,139.420 243.264,139.200 243.400 C 138.980 243.536,138.800 244.166,138.800 244.800 C 138.800 245.434,138.620 246.064,138.400 246.200 C 138.180 246.336,138.000 247.257,138.000 248.247 C 138.000 249.345,137.844 249.951,137.600 249.800 C 137.362 249.653,137.200 250.129,137.200 250.976 C 137.200 251.759,137.368 252.400,137.573 252.400 C 137.987 252.400,138.030 252.267,139.003 248.000 C 139.379 246.350,139.848 244.687,140.044 244.305 C 140.240 243.923,140.400 243.068,140.400 242.405 C 140.400 241.742,140.580 241.200,140.800 241.200 C 141.020 241.200,141.200 240.840,141.200 240.400 C 141.200 239.380,140.732 239.377,140.096 240.395 M199.301 242.200 C 199.305 243.080,199.387 243.393,199.483 242.895 C 199.579 242.398,199.575 241.678,199.475 241.295 C 199.375 240.913,199.296 241.320,199.301 242.200 M199.763 244.490 C 199.820 244.770,200.197 245.000,200.600 245.000 C 201.003 245.000,201.380 244.770,201.437 244.490 C 201.494 244.210,201.449 244.165,201.337 244.390 C 201.225 244.616,200.893 244.800,200.600 244.800 C 200.307 244.800,199.975 244.616,199.863 244.390 C 199.751 244.165,199.707 244.210,199.763 244.490 M136.400 254.133 C 136.400 254.867,136.276 255.591,136.124 255.743 C 135.972 255.895,135.778 256.870,135.693 257.909 C 135.607 258.949,135.371 259.860,135.169 259.933 C 134.966 260.007,134.800 260.952,134.800 262.033 C 134.800 263.115,134.650 264.000,134.466 264.000 C 134.282 264.000,134.092 265.080,134.045 266.400 C 133.923 269.780,134.546 269.384,135.146 265.700 C 135.423 263.995,135.819 261.845,136.025 260.923 C 136.231 260.000,136.400 258.515,136.400 257.623 C 136.400 256.730,136.561 256.000,136.757 256.000 C 137.313 256.000,137.625 254.837,137.356 253.768 C 137.002 252.355,136.400 252.585,136.400 254.133 M265.600 264.413 C 265.600 265.354,265.813 266.107,266.112 266.222 C 266.450 266.351,266.644 267.336,266.682 269.109 C 266.714 270.589,266.921 273.420,267.143 275.400 C 267.365 277.380,267.731 281.147,267.957 283.770 C 268.462 289.638,268.706 290.800,269.432 290.800 C 269.860 290.800,270.000 290.204,270.000 288.376 C 270.000 286.863,269.850 286.046,269.600 286.200 C 269.249 286.417,268.959 281.266,269.172 278.600 C 269.225 277.935,269.166 277.901,268.824 278.400 C 268.525 278.836,268.410 278.181,268.404 276.000 C 268.399 274.350,268.230 272.370,268.027 271.600 C 267.825 270.830,267.582 269.461,267.489 268.557 C 267.395 267.654,267.211 266.741,267.080 266.529 C 266.948 266.316,266.796 265.390,266.742 264.471 C 266.609 262.222,265.600 262.170,265.600 264.413 M199.705 265.087 C 200.314 265.179,201.214 265.177,201.705 265.082 C 202.197 264.987,201.700 264.911,200.600 264.914 C 199.500 264.917,199.097 264.995,199.705 265.087 M194.400 267.800 C 193.428 268.790,192.723 269.600,192.833 269.600 C 192.943 269.600,193.828 268.790,194.800 267.800 C 195.772 266.810,196.477 266.000,196.367 266.000 C 196.257 266.000,195.372 266.810,194.400 267.800 M209.000 270.400 C 210.750 272.160,212.271 273.600,212.381 273.600 C 212.491 273.600,211.150 272.160,209.400 270.400 C 207.650 268.640,206.129 267.200,206.019 267.200 C 205.909 267.200,207.250 268.640,209.000 270.400 M133.200 271.200 C 133.200 273.155,133.673 273.830,134.157 272.567 C 134.647 271.292,134.425 269.200,133.800 269.200 C 133.347 269.200,133.200 269.689,133.200 271.200 M214.400 275.400 C 215.146 276.170,215.847 276.800,215.957 276.800 C 216.067 276.800,215.546 276.170,214.800 275.400 C 214.054 274.630,213.353 274.000,213.243 274.000 C 213.133 274.000,213.654 274.630,214.400 275.400 M184.987 276.900 L 182.600 279.400 185.100 277.013 C 186.475 275.699,187.600 274.574,187.600 274.513 C 187.600 274.217,187.205 274.578,184.987 276.900 M132.449 277.243 C 132.419 278.587,132.295 279.847,132.173 280.043 C 132.052 280.239,132.212 280.400,132.530 280.400 C 133.434 280.400,133.988 277.077,133.357 275.433 C 132.864 274.147,132.503 274.867,132.449 277.243 M219.400 280.400 C 220.706 281.720,221.865 282.800,221.975 282.800 C 222.085 282.800,221.106 281.720,219.800 280.400 C 218.494 279.080,217.335 278.000,217.225 278.000 C 217.115 278.000,218.094 279.080,219.400 280.400 M132.078 282.500 C 131.804 283.435,131.568 285.595,131.553 287.300 C 131.538 289.005,131.356 290.400,131.148 290.400 C 130.930 290.400,130.819 291.964,130.885 294.100 L 131.000 297.800 147.247 297.904 C 162.363 298.002,163.532 297.960,164.028 297.304 C 164.482 296.705,164.478 296.674,164.001 297.100 C 163.572 297.482,159.718 297.600,147.661 297.600 L 131.881 297.600 132.200 292.900 C 132.555 287.662,132.823 280.800,132.672 280.800 C 132.619 280.800,132.351 281.565,132.078 282.500 M176.400 285.000 C 175.428 285.990,174.723 286.800,174.833 286.800 C 174.943 286.800,175.828 285.990,176.800 285.000 C 177.772 284.010,178.477 283.200,178.367 283.200 C 178.257 283.200,177.372 284.010,176.400 285.000 M229.400 290.000 C 230.706 291.320,231.865 292.400,231.975 292.400 C 232.085 292.400,231.106 291.320,229.800 290.000 C 228.494 288.680,227.335 287.600,227.225 287.600 C 227.115 287.600,228.094 288.680,229.400 290.000 M170.987 290.500 L 168.600 293.000 171.100 290.613 C 173.422 288.395,173.783 288.000,173.487 288.000 C 173.426 288.000,172.301 289.125,170.987 290.500 M166.575 294.500 L 165.400 295.800 166.700 294.625 C 167.912 293.530,168.184 293.200,167.875 293.200 C 167.806 293.200,167.221 293.785,166.575 294.500 M236.800 296.886 L 237.800 297.949 253.387 298.129 C 270.485 298.326,270.005 298.362,269.988 296.857 C 269.978 295.999,269.904 295.922,269.596 296.449 C 269.261 297.022,267.385 297.133,253.583 297.395 L 237.949 297.692 236.875 296.757 L 235.800 295.823 236.800 296.886 " stroke="none" fill="#c5a4a5" fill-rule="evenodd"></path></g></svg>