<svg enable-background="new 0 0 512 512" height="512" viewBox="0 0 512 512" width="512" xmlns="http://www.w3.org/2000/svg"><path d="m398.24878 512h-284.49756c-62.56317 0-113.75122-51.18805-113.75122-113.75122v-284.49756c0-62.56317 51.18805-113.75122 113.75122-113.75122h284.49756c62.56317 0 113.75122 51.18805 113.75122 113.75122v284.49756c0 62.56317-51.18805 113.75122-113.75122 113.75122z" fill="#e54c4c"/><path d="m410 87.69629c0-14.19167-11.50461-25.69629-25.69629-25.69629h-231.60742c-14.19167 0-25.69629 11.50462-25.69629 25.69629v362.60742c0 14.19168 11.50462 25.69629 25.69629 25.69629h231.60742c14.19168 0 25.69629-11.50461 25.69629-25.69629z" opacity=".1"/><path d="m371.90799 457.04956h-231.81598c-10.87794 0-19.69626-8.8183-19.69626-19.69623v-362.70665c0-10.87794 8.81831-19.69625 19.69626-19.69625h231.81598c10.87796 0 19.69626 8.81831 19.69626 19.69625v362.70667c0 10.87791-8.8183 19.69621-19.69626 19.69621z" fill="#eaeaea"/><path d="m371.9082 463.0498h-231.8164c-14.16895 0-25.69629-11.52734-25.69629-25.69629v-362.70703c0-14.16895 11.52734-25.69629 25.69629-25.69629h231.8164c14.16895 0 25.69629 11.52734 25.69629 25.69629v362.70703c0 14.16895-11.52734 25.69629-25.69629 25.69629zm-231.8164-402.0996c-7.55176 0-13.69629 6.14453-13.69629 13.69629v362.70703c0 7.55176 6.14453 13.69629 13.69629 13.69629h231.8164c7.55176 0 13.69629-6.14453 13.69629-13.69629v-362.70704c0-7.55176-6.14453-13.69629-13.69629-13.69629h-231.8164z" fill="#333"/><path d="m373 132.20508c0-6.74068-5.46439-12.20508-12.20508-12.20508h-194.58984c-6.74068 0-12.20508 5.4644-12.20508 12.20508v39.58984c0 6.74068 5.4644 23.20508 12.20508 23.20508h194.58984c6.74069 0 12.20508-5.4644 12.20508-12.20508z" opacity=".1"/><path d="m353.41385 181.22369h-194.82771c-3.4269 0-6.20496-2.77806-6.20496-6.20496v-50.81503c0-3.4269 2.77806-6.20496 6.20496-6.20496h194.82771c3.42691 0 6.20496 2.77805 6.20496 6.20496v50.81504c-.00001 3.42689-2.77805 6.20495-6.20496 6.20495z" fill="#ffc50d"/><path d="m353.41406 187.22363h-194.82812c-6.72949 0-12.20508-5.47559-12.20508-12.20508v-50.81445c0-6.72949 5.47559-12.20508 12.20508-12.20508h194.82812c6.72949 0 12.20508 5.47559 12.20508 12.20508v50.81445c0 6.7295-5.47559 12.20508-12.20508 12.20508zm-194.82812-63.22461c-.11328 0-.20508.0918-.20508.20508v50.81445c0 .11328.0918.20508.20508.20508h194.82812c.11328 0 .20508-.0918.20508-.20508v-50.81445c0-.11328-.0918-.20508-.20508-.20508z" fill="#333"/><path d="m362 101h-83c-4.9707 0-9-4.0293-9-9s4.0293-9 9-9h83c4.9707 0 9 4.0293 9 9s-4.0293 9-9 9z" opacity=".1"/><path d="m358 95h-83c-4.9707 0-9-4.0293-9-9s4.0293-9 9-9h83c4.9707 0 9 4.0293 9 9s-4.0293 9-9 9z" fill="#333"/><g opacity=".1"><path d="m216 252.2002c0-6.73798-5.46178-12.2002-12.19922-12.2002h-39.60156c-6.73744 0-12.19922 5.46222-12.19922 12.2002v35.59961c0 6.73797 5.46178 12.20019 12.19922 12.20019h39.60156c6.73744 0 12.19922-5.46222 12.19922-12.2002z"/><path d="m294 252.2002c0-6.73798-5.46222-12.2002-12.2002-12.2002h-39.5996c-6.73798 0-12.2002 5.46222-12.2002 12.2002v35.59961c0 6.73797 5.46222 12.20019 12.2002 12.20019h39.59961c6.73797 0 12.20019-5.46222 12.20019-12.2002z"/><path d="m372 252.2002c0-6.73798-5.46222-12.2002-12.2002-12.2002h-39.5996c-6.73798 0-12.2002 5.46222-12.2002 12.2002v35.59961c0 6.73797 5.46222 12.20019 12.2002 12.20019h39.59961c6.73797 0 12.20019-5.46222 12.20019-12.2002z"/><path d="m216 321.2002c0-6.73798-5.46178-12.2002-12.19922-12.2002h-39.60156c-6.73744 0-12.19922 5.46222-12.19922 12.2002v35.59961c0 6.73797 5.46178 12.20019 12.19922 12.20019h39.60156c6.73744 0 12.19922-5.46222 12.19922-12.2002z"/><path d="m294 321.2002c0-6.73798-5.46222-12.2002-12.2002-12.2002h-39.5996c-6.73798 0-12.2002 5.46222-12.2002 12.2002v35.59961c0 6.73797 5.46222 12.20019 12.2002 12.20019h39.59961c6.73797 0 12.20019-5.46222 12.20019-12.2002z"/><path d="m372 321.2002c0-6.73798-5.46222-12.2002-12.2002-12.2002h-39.5996c-6.73798 0-12.2002 5.46222-12.2002 12.2002v35.59961c0 6.73797 5.46222 12.20019 12.2002 12.20019h39.59961c6.73797 0 12.20019-5.46222 12.20019-12.2002z"/><path d="m216 389.2002c0-6.73798-5.46178-12.2002-12.19922-12.2002h-39.60156c-6.73744 0-12.19922 5.46222-12.19922 12.2002v35.59961c0 6.73797 5.46178 12.20019 12.19922 12.20019h39.60156c6.73744 0 12.19922-5.46222 12.19922-12.2002z"/><path d="m294 389.2002c0-6.73798-5.46222-12.2002-12.2002-12.2002h-39.5996c-6.73798 0-12.2002 5.46222-12.2002 12.2002v35.59961c0 6.73797 5.46222 12.20019 12.2002 12.20019h39.59961c6.73797 0 12.20019-5.46222 12.20019-12.2002z"/><path d="m372 389.2002c0-6.73798-5.46222-12.2002-12.2002-12.2002h-39.5996c-6.73798 0-12.2002 5.46222-12.2002 12.2002v35.59961c0 6.73797 5.46222 12.20019 12.2002 12.20019h39.59961c6.73797 0 12.20019-5.46222 12.20019-12.2002z"/></g><path d="m198.63152 287.66965h-40.05034c-3.41 0-6.2-2.78998-6.2-6.19998v-35.26665c0-3.40999 2.78999-6.2 6.2-6.2h40.05034c3.41 0 6.2 2.79001 6.2 6.2v35.26665c-.00001 3.41-2.79 6.19998-6.2 6.19998z" fill="#545a5b"/><path d="m198.63184 293.66992h-40.05078c-6.72754 0-12.2002-5.47266-12.2002-12.2002v-35.2666c0-6.72754 5.47266-12.2002 12.2002-12.2002h40.05078c6.72656 0 12.19922 5.47266 12.19922 12.2002v35.2666c-.00001 6.72755-5.47266 12.2002-12.19922 12.2002zm-40.05079-47.66699c-.09766 0-.2002.10254-.2002.2002v35.2666c0 .09766.10254.2002.2002.2002h40.05078c.09668 0 .19922-.10254.19922-.2002v-35.2666c0-.09766-.10254-.2002-.19922-.2002z" fill="#333"/><path d="m276.46289 287.66965h-40.05032c-3.41 0-6.2-2.78998-6.2-6.19998v-35.26665c0-3.40999 2.78999-6.2 6.2-6.2h40.05032c3.41 0 6.20001 2.79001 6.20001 6.2v35.26665c0 3.41-2.79001 6.19998-6.20001 6.19998z" fill="#545a5b"/><path d="m276.46289 293.66992h-40.05078c-6.72656 0-12.19922-5.47266-12.19922-12.2002v-35.2666c0-6.72754 5.47266-12.2002 12.19922-12.2002h40.05078c6.72754 0 12.2002 5.47266 12.2002 12.2002v35.2666c0 6.72755-5.47266 12.2002-12.2002 12.2002zm-40.05078-47.66699c-.09473 0-.19922.10449-.19922.2002v35.2666c0 .0957.10449.2002.19922.2002h40.05078c.09766 0 .2002-.10254.2002-.2002v-35.2666c0-.09766-.10254-.2002-.2002-.2002z" fill="#333"/><path d="m354.29428 287.66965h-40.05032c-3.41 0-6.20001-2.78998-6.20001-6.19998v-35.26665c0-3.40999 2.79001-6.2 6.20001-6.2h40.05032c3.41 0 6.20001 2.79001 6.20001 6.2v35.26665c0 3.41-2.79001 6.19998-6.20001 6.19998z" fill="#545a5b"/><path d="m354.29395 293.66992h-40.0498c-6.72754 0-12.2002-5.47266-12.2002-12.2002v-35.2666c0-6.72754 5.47266-12.2002 12.2002-12.2002h40.0498c6.72754 0 12.2002 5.47266 12.2002 12.2002v35.2666c-.00001 6.72755-5.47267 12.2002-12.2002 12.2002zm-40.04981-47.66699c-.09766 0-.2002.10254-.2002.2002v35.2666c0 .09766.10254.2002.2002.2002h40.0498c.09766 0 .2002-.10254.2002-.2002v-35.2666c0-.09766-.10254-.2002-.2002-.2002z" fill="#333"/><path d="m198.63152 356.66876h-40.05034c-3.41 0-6.2-2.78998-6.2-6.19998v-35.26663c0-3.41 2.78999-6.20001 6.2-6.20001h40.05034c3.41 0 6.2 2.79001 6.2 6.20001v35.26663c-.00001 3.41-2.79 6.19998-6.2 6.19998z" fill="#545a5b"/><path d="m198.63184 362.66895h-40.05078c-6.72754 0-12.2002-5.47266-12.2002-12.2002v-35.2666c0-6.72754 5.47266-12.2002 12.2002-12.2002h40.05078c6.72656 0 12.19922 5.47266 12.19922 12.2002v35.2666c-.00001 6.72754-5.47266 12.2002-12.19922 12.2002zm-40.05079-47.667c-.09766 0-.2002.10254-.2002.2002v35.2666c0 .09766.10254.2002.2002.2002h40.05078c.09668 0 .19922-.10254.19922-.2002v-35.2666c0-.09766-.10254-.2002-.19922-.2002z" fill="#333"/><path d="m276.46289 356.66876h-40.05032c-3.41 0-6.2-2.78998-6.2-6.19998v-35.26663c0-3.41 2.78999-6.20001 6.2-6.20001h40.05032c3.41 0 6.20001 2.79001 6.20001 6.20001v35.26663c0 3.41-2.79001 6.19998-6.20001 6.19998z" fill="#545a5b"/><path d="m276.46289 362.66895h-40.05078c-6.72656 0-12.19922-5.47266-12.19922-12.2002v-35.2666c0-6.72754 5.47266-12.2002 12.19922-12.2002h40.05078c6.72754 0 12.2002 5.47266 12.2002 12.2002v35.2666c0 6.72754-5.47266 12.2002-12.2002 12.2002zm-40.05078-47.667c-.09473 0-.19922.10449-.19922.2002v35.2666c0 .0957.10449.2002.19922.2002h40.05078c.09766 0 .2002-.10254.2002-.2002v-35.2666c0-.09766-.10254-.2002-.2002-.2002z" fill="#333"/><path d="m354.29428 356.66876h-40.05032c-3.41 0-6.20001-2.78998-6.20001-6.19998v-35.26663c0-3.41 2.79001-6.20001 6.20001-6.20001h40.05032c3.41 0 6.20001 2.79001 6.20001 6.20001v35.26663c0 3.41-2.79001 6.19998-6.20001 6.19998z" fill="#545a5b"/><path d="m354.29395 362.66895h-40.0498c-6.72754 0-12.2002-5.47266-12.2002-12.2002v-35.2666c0-6.72754 5.47266-12.2002 12.2002-12.2002h40.0498c6.72754 0 12.2002 5.47266 12.2002 12.2002v35.2666c-.00001 6.72754-5.47267 12.2002-12.2002 12.2002zm-40.04981-47.667c-.09766 0-.2002.10254-.2002.2002v35.2666c0 .09766.10254.2002.2002.2002h40.0498c.09766 0 .2002-.10254.2002-.2002v-35.2666c0-.09766-.10254-.2002-.2002-.2002z" fill="#333"/><path d="m198.63152 424.64838h-40.05034c-3.41 0-6.2-2.79001-6.2-6.20001v-35.26663c0-3.41 2.78999-6.20001 6.2-6.20001h40.05034c3.41 0 6.2 2.79001 6.2 6.20001v35.26663c-.00001 3.41-2.79 6.20001-6.2 6.20001z" fill="#545a5b"/><path d="m198.63184 430.64844h-40.05078c-6.72754 0-12.2002-5.47266-12.2002-12.2002v-35.2666c0-6.72754 5.47266-12.2002 12.2002-12.2002h40.05078c6.72656 0 12.19922 5.47266 12.19922 12.2002v35.2666c-.00001 6.72754-5.47266 12.2002-12.19922 12.2002zm-40.05079-47.66699c-.09766 0-.2002.10254-.2002.2002v35.2666c0 .09766.10254.2002.2002.2002h40.05078c.09668 0 .19922-.10254.19922-.2002v-35.2666c0-.09766-.10254-.2002-.19922-.2002z" fill="#333"/><path d="m276.46289 424.64838h-40.05032c-3.41 0-6.2-2.79001-6.2-6.20001v-35.26663c0-3.41 2.78999-6.20001 6.2-6.20001h40.05032c3.41 0 6.20001 2.79001 6.20001 6.20001v35.26663c0 3.41-2.79001 6.20001-6.20001 6.20001z" fill="#545a5b"/><path d="m276.46289 430.64844h-40.05078c-6.72656 0-12.19922-5.47266-12.19922-12.2002v-35.2666c0-6.72754 5.47266-12.2002 12.19922-12.2002h40.05078c6.72754 0 12.2002 5.47266 12.2002 12.2002v35.2666c0 6.72754-5.47266 12.2002-12.2002 12.2002zm-40.05078-47.66699c-.09473 0-.19922.10449-.19922.2002v35.2666c0 .0957.10449.2002.19922.2002h40.05078c.09766 0 .2002-.10254.2002-.2002v-35.2666c0-.09766-.10254-.2002-.2002-.2002z" fill="#333"/><path d="m354.29428 424.64838h-40.05032c-3.41 0-6.20001-2.79001-6.20001-6.20001v-35.26663c0-3.41 2.79001-6.20001 6.20001-6.20001h40.05032c3.41 0 6.20001 2.79001 6.20001 6.20001v35.26663c0 3.41-2.79001 6.20001-6.20001 6.20001z" fill="#545a5b"/><g fill="#333"><path d="m354.29395 430.64844h-40.0498c-6.72754 0-12.2002-5.47266-12.2002-12.2002v-35.2666c0-6.72754 5.47266-12.2002 12.2002-12.2002h40.0498c6.72754 0 12.2002 5.47266 12.2002 12.2002v35.2666c-.00001 6.72754-5.47267 12.2002-12.2002 12.2002zm-40.04981-47.66699c-.09766 0-.2002.10254-.2002.2002v35.2666c0 .09766.10254.2002.2002.2002h40.0498c.09766 0 .2002-.10254.2002-.2002v-35.2666c0-.09766-.10254-.2002-.2002-.2002z"/><path d="m268.76367 135.21973v11.2334l-3.06348 3.06348-1.02148-1.02051v-14.8086zm13.27637 12.76562 2.04297 2.04199-2.04297 2.04297h-13.27637l-2.04199-2.04297 2.04199-2.04199zm0-1.53223v-10.72363l1.53223-4.08496c1.36133.34082 2.21289 1.19238 2.55371 2.55371v14.29785l-1.02148 1.02051zm3.06445 4.08497 1.02148 1.02148v14.29785c-.34082 1.36133-1.19238 2.21289-2.55371 2.55273l-1.53223-4.08496v-10.72363z"/><path d="m283.41602 168.70703-1.62598-4.38184v-10.82715l3.31445-3.31348 1.27148 1.27148v14.40137c-.37109 1.5127-1.29102 2.43262-2.74316 2.79492zm-1.12598-4.42676 1.43652 3.82812c1.14844-.34961 1.85547-1.1084 2.15723-2.31152l-.00781-14.13379-.77148-.77148-2.81445 2.81348v10.57519zm-.14649-11.95996h-13.4834l-2.29199-2.29297 2.29199-2.29199h13.4834l2.29297 2.29199zm-13.27636-.5h13.06934l1.79297-1.79297-1.79297-1.79199h-13.06934l-1.79199 1.79199zm-3.16699-1.95019-1.27148-1.27051v-15.27246l4.58496 1.71973v11.50977zm-.77149-1.47754.77148.77051 2.81348-2.81348v-10.95703l-3.58496-1.34473zm20.17578 1.47754-3.31445-3.31348.01562-10.91504 1.61133-4.29395.21582.05469c1.45215.36328 2.37207 1.2832 2.73535 2.73535l.00781 14.46191zm-2.81445-3.52051 2.81445 2.81348.77148-.77051v-14.19434c-.29395-1.14648-1.00098-1.90137-2.15039-2.25195l-1.43555 3.82812v10.5752z"/><path d="m294.03906 164.83594v-13.27637l1.02148-1.02148 3.06348 3.06348v9.70215zm19.4043 3.57422h-16.85059c-1.3623-.33984-2.21387-1.19141-2.55371-2.55273l4.08496-1.53223h13.78711zm-3.06348-32.68067h-12.2041l-4.08496-1.53125c.33984-1.36133 1.19141-2.21289 2.55273-2.55371h15.26758zm1.02051 12.25586 2.04297 2.04199-2.04297 2.04297h-13.27637l-2.04199-2.04297 2.04199-2.04199zm0-1.53223v-10.72363l1.53223-4.08496c1.36133.34082 2.21289 1.19238 2.55371 2.55371v14.29785l-1.02148 1.02051z"/><path d="m313.80371 168.66016h-17.21094c-1.51367-.37012-2.43359-1.29004-2.7959-2.74219l-.05469-.2168 4.38184-1.62598h13.95996zm-19.46289-2.64942c.34961 1.15039 1.1084 1.85645 2.3125 2.15723l16.42969-.00781-1.34473-3.58496h-13.56934zm-.55176-.81445v-13.74023l1.27148-1.27148 3.31348 3.31348v9.97852zm.5-13.5332v12.8125l3.58496-1.34473v-9.42578l-2.81348-2.81348zm17.21485.65722h-13.4834l-2.29199-2.29297 2.29199-2.29199h13.4834l2.29297 2.29199zm-13.27637-.5h13.06934l1.79297-1.79297-1.79297-1.79199h-13.06934l-1.79199 1.79199zm16.2373-1.95019-3.31445-3.31348.01562-10.91504 1.61133-4.29395.21582.05469c1.45215.36328 2.37207 1.2832 2.73535 2.73535l.00781 14.46191zm-2.81445-3.52051 2.81445 2.81348.77148-.77051v-14.19434c-.29395-1.14648-1.00098-1.90137-2.15039-2.25195l-1.43555 3.82812v10.5752zm-1.09766-10.37012-12.46484-.01562-4.29395-1.60938.05469-.2168c.3623-1.45215 1.28223-2.37207 2.73438-2.73535l15.68848-.00781zm-12.33203-.5h11.98633l1.34375-3.58496h-14.90723c-1.14648.29395-1.90137 1.00098-2.25098 2.14941z"/><path d="m327.48535 136.75098v9.70215l-3.06348 3.06348-1.02148-1.02051v-13.27637zm-4.08496 28.08496v-13.27637l1.02148-1.02148 3.06348 3.06348v9.70215zm17.87207 3.57422h-15.31836c-1.3623-.33984-2.21387-1.19141-2.55371-2.55273l4.08496-1.53223h12.25586zm-1.53125-32.68067h-12.2041l-4.08496-1.53125c.33984-1.36133 1.19141-2.21289 2.55273-2.55371h15.26758zm1.02051 10.72363v-10.72363l1.53223-4.08496c1.36133.34082 2.21289 1.19238 2.55371 2.55371v14.29785l-1.02148 1.02051zm3.06445 4.08497 1.02148 1.02148v14.29785c-.34082 1.36133-1.19238 2.21289-2.55371 2.55273l-1.53223-4.08496v-10.72363z"/><path d="m342.1377 168.70703-1.62598-4.38184v-10.82715l3.31445-3.31348 1.27148 1.27148v14.40137c-.37109 1.5127-1.29102 2.43262-2.74316 2.79492zm-1.12598-4.42676 1.43652 3.82812c1.14844-.34961 1.85547-1.1084 2.15723-2.31152l-.00781-14.13379-.77148-.77148-2.81445 2.81348v10.57519zm.62109 4.37989h-15.67871c-1.51367-.37012-2.43359-1.29004-2.7959-2.74219l-.05469-.2168 4.38184-1.62598h12.42871zm-17.93066-2.64942c.34961 1.15039 1.1084 1.85645 2.3125 2.15723l14.89746-.00781-1.34375-3.58496h-12.03809zm-.55176-.81445v-13.74023l1.27148-1.27148 3.31348 3.31348v9.97852zm.5-13.5332v12.8125l3.58496-1.34473v-9.42578l-2.81348-2.81348zm.77149-1.79297-1.27148-1.27051v-13.74023l4.58496 1.71875v9.97852zm-.77149-1.47754.77148.77051 2.81348-2.81348v-9.42578l-3.58496-1.34375zm20.17578 1.47754-3.31445-3.31348.01562-10.91504 1.61133-4.29395.21582.05469c1.45215.36328 2.37207 1.2832 2.73535 2.73535l.00781 14.46191zm-2.81445-3.52051 2.81445 2.81348.77148-.77051v-14.19434c-.29395-1.14648-1.00098-1.90137-2.15039-2.25195l-1.43555 3.82812v10.5752zm-1.09766-10.37012-12.46484-.01562-4.29395-1.60938.05469-.2168c.3623-1.45215 1.28223-2.37207 2.73438-2.73535l15.68848-.00781zm-12.33203-.5h11.98633l1.34375-3.58496h-14.90723c-1.14648.29395-1.90137 1.00098-2.25098 2.14941z"/></g><path d="m172 171c-3.31348 0-6-2.68652-6-6v-28c0-3.31348 2.68652-6 6-6h56c3.31348 0 6 2.68652 6 6s-2.68652 6-6 6h-50v22c0 3.31348-2.68652 6-6 6z" fill="#fff"/><circle cx="249.83333" cy="136.00006" fill="#fff" r="6"/></svg>