<svg height="100" viewBox="0 0 100 100" width="100" xmlns="http://www.w3.org/2000/svg"><circle cx="19.71" cy="56.65" fill="#fff" r=".89"/><circle cx="78.76" cy="31.78" fill="#fff" r=".68"/><circle cx="76.13" cy="12.74" fill="#f1bc19" r=".89"/><circle cx="20.21" cy="64.32" fill="#f1bc19" r=".89"/><circle cx="49.25" cy="49.97" fill="#fce0a2" r="37.45"/><circle cx="81.58" cy="14.9" fill="#f1bc19" r="4.01"/><circle cx="85.58" cy="23.97" fill="#ee3e54" r="1.88"/><circle cx="76.6" cy="76.38" fill="#fbcd59" r="1.88"/><circle cx="13.44" cy="63.44" fill="#fbcd59" r="4.01"/><circle cx="23.67" cy="87.57" fill="#ee3e54" r="1.88"/><circle cx="75.25" cy="30.26" fill="#fff" r="1.8"/><circle cx="17.18" cy="51.33" fill="#fff" r="2.54"/><path d="m58.43 27.28a3.1 3.1 0 0 0 -.08-.69 2.75 2.75 0 0 0 .08-.65 3 3 0 0 0 -2.22-2.83 3.33 3.33 0 0 0 -3.39-3 3.9 3.9 0 0 0 -6.82-.3 3.42 3.42 0 0 0 -.79-.09 3 3 0 0 0 -3.18 2.88s0 .1 0 .16a3.36 3.36 0 0 0 -2.55 3.16 3.09 3.09 0 0 0 .8 2.06 2.66 2.66 0 0 0 -.61 1.68 3 3 0 0 0 3.12 2.83 3.25 3.25 0 0 0 1.26-.24 2.61 2.61 0 0 0 2.71 2.37 3 3 0 0 0 .85-.12 3.89 3.89 0 0 0 3 1.31 3.65 3.65 0 0 0 3.71-2.92 3.32 3.32 0 0 0 2.25-2.76 3.22 3.22 0 0 0 1.86-2.85z" fill="#3a2221"/><path d="m49.47 24.81c-11.47 0-16.32 8.64-12.89 16.89.16.38 1.71.06 1.75-.34.44-4.69 3-8.62 11.14-6.63 8.12-2 10.7 1.94 11.15 6.63 0 .4 1.22.41 1.38 0 3.43-8.23-1.07-16.55-12.53-16.55z" fill="#512c2b"/><path d="m61.33 42.36c.13-1.51-.32-2.81-.22-3.56-1.33-1.64-2.17-3.58-4-4.75a23.67 23.67 0 0 0 -6.74-2.82c-5.68-1.42-11.26 2.73-13 8.1l-.06.1a15.23 15.23 0 0 1 .18 2.92c-1.53 0-2.12.81-1.59 2.42 0 0 .59 2.62 1 3.87a1.48 1.48 0 0 0 1.47 1.2v2.49a4.45 4.45 0 0 0 .86 2.8c1.49 2.17 9.18 7.17 11 7 3 0 9-5.12 10.54-7.67a3.78 3.78 0 0 0 .47-1.68c0-1 0-2 0-3a1.48 1.48 0 0 0 1.27-1.18c.39-1.25 1-3.85 1-3.87.49-1.57-.64-2.4-2.18-2.37z" fill="#d8ad8f"/><path d="m49.47 28.4c-6.82 0-12.34 5-12.34 11.24a4.49 4.49 0 0 0 .43 1.72c1.51-5.52 8.4-8.16 11.92-8.16s10.34 2.29 11.92 8.16a4.77 4.77 0 0 0 .42-1.72c0-6.2-5.53-11.24-12.35-11.24z" fill="#ee3e54"/><path d="m65.93 67.81a2.87 2.87 0 0 1 -.34-.12l-.59-.24c-1.23-.52-9.22-3.25-9.22-3.25a1.86 1.86 0 0 1 -1.22-1.08 8.87 8.87 0 0 1 -.23-2.9 22.27 22.27 0 0 1 -4.2 1.42c-1.86.19-5.13-2.26-5.13-2.26s-.1 3-.22 3.69a1.66 1.66 0 0 1 -1.26 1.13l-7.7 2.57a7.91 7.91 0 0 0 -2.17.91 7.76 7.76 0 0 0 -3.26 4.66h-.05c0 .1-.05.31-.09.6a5.27 5.27 0 0 0 -.13 1.34c-.05.46.1 7.28.05 7.82 7.07 4.15 12 5.17 22.48 5.17 4.6 0 13.19-3.71 17.14-5.73-.42-9.33.38-12.42-3.86-13.73z" fill="#b2876b"/><path d="m30.19 82.1a36.34 36.34 0 0 0 25.81 4.72c4.65-.8 9.73-3.75 13.81-5.28-.44-9.33.55-12.11-3.69-13.41-.82-.26-3.93-1.75-3.93-1.75s-8 4.5-11.53 5.21a69.39 69.39 0 0 1 -20.1 1.06c-.08.35-.22 7.79-.37 9.45z" fill="#ee3e54"/><path d="m66.6 68.33a3.86 3.86 0 0 0 -.51-.2c-.82-.26-3.93-1.75-3.93-1.75s-8 4.5-11.53 5.21a69.39 69.39 0 0 1 -20.1 1.06c-.08.31-.21 1.58-.34 3.08 22.35 3.94 33.3-5.73 36.41-7.4z" fill="#ee8670"/><g fill="#f4989e" opacity=".3"><ellipse cx="42.64" cy="50.99" opacity=".8" rx="1.96" ry="1.99"/><ellipse cx="57.69" cy="50.99" opacity=".8" rx="1.96" ry="1.99"/></g><path d="m37.81 42.35.82 8.01" fill="none" stroke="#472b29" stroke-linecap="round" stroke-linejoin="round" stroke-width=".4"/><path d="m61.52 41.89-.49 8.03" fill="none" stroke="#472b29" stroke-linecap="round" stroke-linejoin="round" stroke-width=".4"/><path d="m50.83 59.87a.09.09 0 0 0 .08-.09.09.09 0 0 0 -.08-.08h-1.77a.09.09 0 0 0 -.08.08.09.09 0 0 0 .08.09z" fill="#472b29" opacity=".41"/><path d="m45.28 59.85s3.41 1.86 5.23 1.7a14 14 0 0 0 4.4-1.62" fill="none" stroke="#472b29" stroke-linecap="round" stroke-linejoin="round" stroke-width=".5"/><g fill="#472b29"><path d="m47.87 38.93a20.61 20.61 0 0 0 -7.23 1.7.22.22 0 0 0 -.14.25.23.23 0 0 0 .25.13s5.06-.84 6.71-.83h.09a.23.23 0 0 0 .16-.14l.36-.84a.15.15 0 0 0 0-.17.23.23 0 0 0 -.2-.1z"/><path d="m52.37 38.78a20.77 20.77 0 0 1 7.14 2 .22.22 0 0 1 .13.25.23.23 0 0 1 -.26.12s-5-1.07-6.66-1.13h-.09a.29.29 0 0 1 -.16-.15l-.31-.87a.17.17 0 0 1 0-.18.25.25 0 0 1 .21-.04z"/><path d="m44.57 42.23a1.37 1.37 0 0 0 -1.2.82.64.64 0 0 1 .2 0 .82.82 0 0 1 0 1.64.67.67 0 0 1 -.37-.11 1.51 1.51 0 0 0 1.37 1.29 1.85 1.85 0 0 0 0-3.61z"/><path d="m55.51 42.23a1.32 1.32 0 0 0 -1.07.61.75.75 0 0 1 .26-.05.83.83 0 0 1 0 1.65.75.75 0 0 1 -.62-.36 1.64 1.64 0 0 0 1.43 1.76 1.85 1.85 0 0 0 0-3.61z"/><path d="m50.22 50.19a1.67 1.67 0 0 0 1.35-.75.29.29 0 0 0 0-.35.17.17 0 0 0 -.28 0 1.34 1.34 0 0 1 -2.07 0 .18.18 0 0 0 -.29 0 .3.3 0 0 0 0 .35 1.67 1.67 0 0 0 1.29.75z" opacity=".41"/></g><path d="m45.76 53.39a2.16 2.16 0 0 0 -.09.62c0 1.82 2 3.3 4.5 3.3s4.5-1.48 4.5-3.3a2.16 2.16 0 0 0 -.09-.62z" fill="#6d1b18"/><path d="m52.54 56.8a3.25 3.25 0 0 0 -2.37-.8 3.29 3.29 0 0 0 -2.38.78 5.79 5.79 0 0 0 4.75 0z" fill="#ee3e54"/><path d="m47 53.39s0 0 0 .06v.55c0 .48.65.88 1.43.88h3.42c.78 0 1.42-.4 1.42-.88v-.56a.13.13 0 0 0 0-.06z" fill="#fdfcef"/><path d="m45.76 53.39a2.16 2.16 0 0 0 -.09.62c0 1.82 2 3.3 4.5 3.3s4.5-1.48 4.5-3.3a2.16 2.16 0 0 0 -.09-.62z" fill="none" stroke="#472b29" stroke-linecap="round" stroke-linejoin="round" stroke-width=".5"/><path d="m38 55a3.14 3.14 0 0 1 -.11-6.21" fill="none" stroke="#f1bc19" stroke-linecap="round" stroke-linejoin="round" stroke-width=".8"/><path d="m61.61 54.89a3.14 3.14 0 0 0 .11-6.21" fill="none" stroke="#f1bc19" stroke-linecap="round" stroke-linejoin="round" stroke-width=".8"/><path d="m66 68a3.19 3.19 0 0 1 -.34-.13l-.57-.23c-1.23-.53-9.22-3.26-9.22-3.26a1.85 1.85 0 0 1 -1.22-1.07 7.9 7.9 0 0 1 -.23-2.68 24.29 24.29 0 0 0 6.41-6 3.78 3.78 0 0 0 .47-1.68c0-1 0-2 0-3a1.48 1.48 0 0 0 1.27-1.18c.39-1.25 1-3.84 1-3.87.53-1.61-.63-2.44-2.17-2.41 0-.42.05-1.07.07-1a4.76 4.76 0 0 0 .42-1.71c0-6.21-5.53-11.25-12.35-11.25s-12.34 5-12.34 11.25a4.48 4.48 0 0 0 .46 1.63 10.18 10.18 0 0 1 .08 1.07c-1.53 0-2.31.81-1.78 2.42 0 0 .59 2.62 1 3.87a1.48 1.48 0 0 0 1.43 1.23v2.49a4.48 4.48 0 0 0 .86 2.81c.8 1.16 3.38 3.13 5.89 4.69 0 .73-.17 2.7-.27 3.25a1.67 1.67 0 0 1 -1.26 1.12l-7.7 2.58a10.66 10.66 0 0 0 -2.17.9c-4.52 2.28-3.65 13.56-3.74 14.1l.4.37a37.38 37.38 0 0 0 39.27-1c-.13-7.19-.08-12.23-3.67-13.31z" fill="none" stroke="#472b29" stroke-linecap="round" stroke-linejoin="round"/></svg>