<svg height="100" viewBox="0 0 100 100" width="100" xmlns="http://www.w3.org/2000/svg"><circle cx="22.06" cy="58.47" fill="#fff" r=".89"/><circle cx="81.11" cy="33.6" fill="#fff" r=".68"/><circle cx="78.48" cy="14.57" fill="#f1bc19" r=".89"/><circle cx="22.56" cy="66.15" fill="#f1bc19" r=".89"/><circle cx="51.6" cy="51.8" fill="#f9dbd2" r="37.45"/><circle cx="83.93" cy="16.72" fill="#f1bc19" r="4.01"/><circle cx="87.93" cy="25.79" fill="#f4989e" r="1.88"/><circle cx="78.95" cy="78.21" fill="#fbcd59" r="1.88"/><circle cx="15.79" cy="65.26" fill="#fbcd59" r="4.01"/><circle cx="26.02" cy="89.4" fill="#f4989e" r="1.88"/><circle cx="77.6" cy="32.09" fill="#fff" r="1.8"/><circle cx="19.53" cy="53.15" fill="#fff" r="2.54"/><path d="m66.16 69.89c-.74-.52-10.23-3.8-10.23-3.8a1.46 1.46 0 0 1 -1-1.2 19 19 0 0 1 -.23-2.75 16.45 16.45 0 0 0 6.12-6 4 4 0 0 0 .47-1.68c0-1 0-2 0-3a1.49 1.49 0 0 0 1.27-1.19c.39-1.24 1-3.84 1-3.86.44-1.57-.31-2.41-1.84-2.41a4.34 4.34 0 0 0 1-1.18h.11.44c2 .65 5.09.25 5.9-4.49a3.5 3.5 0 0 1 -3 1.26 3.06 3.06 0 0 0 -.27-1.21 3 3 0 0 0 1-2.21 3.15 3.15 0 0 0 -3.21-3.08 3.68 3.68 0 0 0 .19-1.2 4 4 0 0 0 -4.12-4 4.23 4.23 0 0 0 -1.13.16c0-.05 0-.11 0-.16a4.94 4.94 0 0 0 -5.15-4.69 5.33 5.33 0 0 0 -4.05 1.8 7.17 7.17 0 0 0 -3.87-1c-3.41 0-6.17 2.21-6.17 4.94v.35a3.18 3.18 0 0 0 -1.69 1.82c-.27.8.61 3 .58 3.1a1.85 1.85 0 0 0 -1.9 2.35c.1.47.87 7.26 1.28 7.46-1.53 0-2.31.8-1.79 2.42 0 0 .6 2.62 1 3.86a1.49 1.49 0 0 0 1.47 1.21v2.49a4.52 4.52 0 0 0 .85 2.8 17.68 17.68 0 0 0 5.68 5.27 20.36 20.36 0 0 1 -.23 2.8 1.44 1.44 0 0 1 -1.05 1.2l-7.75 2.66a7.73 7.73 0 0 0 -2.18.94 8.6 8.6 0 0 0 -3.56 6.87h39.32a8.48 8.48 0 0 0 -3.26-6.65z" fill="#d8ad8f"/><path d="m66.13 69.75a2.87 2.87 0 0 1 -.34-.12l-.57-.24c-1.22-.52-9.22-3.25-9.22-3.25a1.86 1.86 0 0 1 -1.22-1.08 10.8 10.8 0 0 1 -.21-3.25 15.92 15.92 0 0 1 -4.22 1.77c-1.86.18-5.06-1.62-5.06-1.62s-.17 2.38-.29 3.04a1.66 1.66 0 0 1 -1.26 1.13l-7.74 2.58a8 8 0 0 0 -2.17.91 7.76 7.76 0 0 0 -3.26 4.66h-.05c0 .11 0 .32-.09.61a5.27 5.27 0 0 0 -.13 1.34c-.05.46-.09 6-.14 6.5 7.63 4.25 16 6.18 26.5 6.18 4.61 0 9-2.84 13.12-4.37-.4-9.34.59-13.49-3.65-14.79z" fill="#b2876b"/><path d="m41.23 67c1.54 1.26 13 1.85 16.11-.67l4.86 1.67 1.19 19.36s-14.68 4.52-28-1.47l.61-17.18z" fill="#f4989e"/><path d="m54.81 39.23a4.27 4.27 0 0 0 3.85 2.29 4.84 4.84 0 0 0 1.21-.16 3.32 3.32 0 0 0 2.56 1.16 3.25 3.25 0 0 0 .44 0c1.89.6 5 1 5.91-3a2.83 2.83 0 0 1 -2.67.31 4.64 4.64 0 0 0 -.28-1.5 2.94 2.94 0 0 0 1-2.17 3.11 3.11 0 0 0 -3.19-3 3.84 3.84 0 0 0 .19-1.18 4 4 0 0 0 -4.17-3.98 4.58 4.58 0 0 0 -1.12.15s0-.1 0-.15a4.88 4.88 0 0 0 -5.12-4.61 5.28 5.28 0 0 0 -4 1.77 7.2 7.2 0 0 0 -3.78-1c-3.39 0-6.14 2.18-6.14 4.86v.35a3.11 3.11 0 0 0 -1.68 1.79c0 .05.49 2.69.56 3a4.81 4.81 0 0 0 2.43 1.62 5.07 5.07 0 0 0 3 0c.75 2.5 3.65 4.37 7.1 4.37a9 9 0 0 0 3.9-.92z" fill="#9f8066"/><path d="m38.7 34.63c-.2 0-.54.17-.69.2a1.19 1.19 0 0 0 -1.1 1.25l1.09 7.27c0-.63.19-6.24 2-7.77a7.93 7.93 0 0 1 -1.3-.95z" fill="#6d3c14" opacity=".34"/><path d="m47.85 43.08a20.83 20.83 0 0 0 -7.42-.38.2.2 0 0 0 -.19.19.21.21 0 0 0 .2.2s5.09.61 6.68 1.08h.08a.25.25 0 0 0 .2-.09l.58-.71a.15.15 0 0 0 0-.17.22.22 0 0 0 -.13-.12z" fill="#472b29"/><path d="m51.84 43.08a20.84 20.84 0 0 1 7.42-.38.21.21 0 0 1 .2.19.22.22 0 0 1 -.2.2s-5.09.61-6.68 1.08h-.08a.24.24 0 0 1 -.2-.09l-.58-.71a.17.17 0 0 1 0-.17.24.24 0 0 1 .12-.12z" fill="#472b29"/><path d="m44.33 45.34a1.38 1.38 0 0 0 -1.2.83.64.64 0 0 1 .2 0 .82.82 0 0 1 0 1.64.67.67 0 0 1 -.37-.11 1.51 1.51 0 0 0 1.37 1.3 1.86 1.86 0 0 0 0-3.62z" fill="#472b29"/><path d="m55.27 45.34a1.31 1.31 0 0 0 -1.07.66.75.75 0 0 1 .26-.05.82.82 0 0 1 0 1.64.74.74 0 0 1 -.62-.35 1.47 1.47 0 1 0 1.43-1.86z" fill="#472b29"/><path d="m49.77 54.65a2.89 2.89 0 0 0 2.17-1 .32.32 0 0 0 0-.46.34.34 0 0 0 -.47 0 2.5 2.5 0 0 1 -3.34 0 .33.33 0 0 0 -.5.43 2.93 2.93 0 0 0 2.14 1.03z" fill="#472b29" opacity=".41"/><path d="m44.88 61.85s3.55 2 5.42 1.81a14 14 0 0 0 4.53-1.85" fill="none" stroke="#472b29" stroke-linecap="round" stroke-linejoin="round" stroke-width=".5"/><path d="m66.11 39.64a4.52 4.52 0 0 0 -.28-1.48 2.91 2.91 0 0 0 1-2.15 3.11 3.11 0 0 0 -3.19-3 3.77 3.77 0 0 0 .19-1.17 4 4 0 0 0 -4.17-3.84 4.15 4.15 0 0 0 -1.12.15c0-.05 0-.1 0-.15a4.87 4.87 0 0 0 -5.12-4.58 5.46 5.46 0 0 0 -3.32 1.08c.42.42.15-.06.42.42a7.1 7.1 0 0 1 5 .61 5.66 5.66 0 0 1 2.26 7.16l-.08.13a3.91 3.91 0 0 1 1.06.4 4 4 0 0 1 1.74 5.34 3.54 3.54 0 0 1 -.73.93 3.18 3.18 0 0 1 1.7 2.75 3.15 3.15 0 0 0 1.33.1c1.89.59 5 1 5.91-3a2.83 2.83 0 0 1 -2.6.3z" fill="#836f61"/><path d="m38.18 33.83a4.76 4.76 0 0 0 2.62 1.86 5.17 5.17 0 0 0 3.07 0c.75 2.51 3.66 4.37 7.14 4.37a9 9 0 0 0 3.87-.85 4.3 4.3 0 0 0 3.88 2.3 4.78 4.78 0 0 0 1.24-.17 3.37 3.37 0 0 0 2.58 1.16 3.15 3.15 0 0 0 .44 0 3.52 3.52 0 0 0 3.28.23" fill="none" stroke="#472b29" stroke-linecap="round" stroke-linejoin="round" stroke-width=".6"/><g fill="#ba8964" opacity=".3"><ellipse cx="42.72" cy="53.15" opacity=".8" rx="1.96" ry="1.99"/><ellipse cx="57.77" cy="53.15" opacity=".8" rx="1.96" ry="1.99"/></g><g fill="#8e7469"><circle cx="46.75" cy="49.18" opacity=".8" r=".22"/><circle cx="46.97" cy="50.89" opacity=".8" r=".22"/><circle cx="48.49" cy="49.96" opacity=".8" r=".22"/><circle cx="51.68" cy="49.92" opacity=".8" r=".22"/><circle cx="52.54" cy="51.41" opacity=".8" r=".22"/><circle cx="53.58" cy="49.94" opacity=".8" r=".22"/></g><path d="m37.98 43.97.69 7.55" fill="none" stroke="#472b29" stroke-linecap="round" stroke-linejoin="round" stroke-width=".6"/><path d="m61.6 44.05-.45 7.36" fill="none" stroke="#472b29" stroke-linecap="round" stroke-linejoin="round" stroke-width=".6"/><path d="m51.6 89.26a37.28 37.28 0 0 0 18.22-4.73l-.39-9.19c-.09-1.46-.07-3.41-3.18-5.45-.75-.5-10.23-3.8-10.23-3.8a1.46 1.46 0 0 1 -1-1.2 19 19 0 0 1 -.23-2.75 16.53 16.53 0 0 0 6.12-6 4 4 0 0 0 .47-1.68c0-1 0-2 0-3a1.48 1.48 0 0 0 1.26-1.19c.4-1.24 1-3.84 1-3.86.53-1.62-.25-2.45-1.79-2.42a4 4 0 0 0 1-1.18h.11a7.22 7.22 0 0 0 3.39 0c1.84-.6 2.5-1.78 3-4.47a3.51 3.51 0 0 1 -3 1.26 3.06 3.06 0 0 0 -.35-1.2 3 3 0 0 0 1-2.21 3.15 3.15 0 0 0 -3.21-3.08 4 4 0 0 0 .19-1.2 4 4 0 0 0 -4.12-4 4.17 4.17 0 0 0 -1.13.16c0-.05 0-.11 0-.16a4.94 4.94 0 0 0 -5.16-4.69 5.33 5.33 0 0 0 -4 1.8 7.17 7.17 0 0 0 -3.91-1.02c-3.41 0-6.17 2.21-6.17 4.94v.35a3.41 3.41 0 0 0 -1.69 1.82c-.56 1.34.58 3.08.57 3.1a1.85 1.85 0 0 0 -1.89 2.35c.1.47 1.16 7 1.28 7.46-1.54 0-2.32.8-1.79 2.42 0 0 .6 2.62 1 3.86a1.51 1.51 0 0 0 1.48 1.21v2.49a4.46 4.46 0 0 0 .85 2.8 17.68 17.68 0 0 0 5.7 5.29 22.07 22.07 0 0 1 -.23 2.8 1.44 1.44 0 0 1 -1 1.2l-7.75 2.66a7.73 7.73 0 0 0 -2.18.94 7.89 7.89 0 0 0 -3.18 4.46c-.14.47-.34 6.13-.53 8.27a37.22 37.22 0 0 0 21.47 6.84z" fill="none" stroke="#472b29" stroke-linecap="round" stroke-linejoin="round"/><path d="m56.33 68.87a12.64 12.64 0 0 1 -6.91 1.73 13.33 13.33 0 0 1 -7-1.73c-1-.52-1.59-.81-1.59-1.81a1.71 1.71 0 0 1 1.59-1.8s4.43 1.54 6.91 1.54 7-1.54 7-1.54a1.71 1.71 0 0 1 1.6 1.8c0 1-.49 1.19-1.6 1.81z" fill="#f4989e" stroke="#472b29" stroke-miterlimit="10" stroke-width=".75"/><path d="m56.36 56.53a.14.14 0 0 0 0-.21.14.14 0 0 0 -.2 0 10.41 10.41 0 0 1 -6.31 1.68 10.39 10.39 0 0 1 -6.32-1.74h-.09a.18.18 0 0 0 -.12 0 .15.15 0 0 0 0 .21 10.55 10.55 0 0 0 6.5 2 10.56 10.56 0 0 0 6.54-1.94z" fill="#472b29"/></svg>