<svg height="100" viewBox="0 0 100 100" width="100" xmlns="http://www.w3.org/2000/svg"><circle cx="20.75" cy="56.38" fill="#fff" r=".89"/><circle cx="79.8" cy="31.51" fill="#fff" r=".68"/><circle cx="77.17" cy="12.48" fill="#f1bc19" r=".89"/><circle cx="21.24" cy="64.06" fill="#f1bc19" r=".89"/><circle cx="50.28" cy="49.71" fill="#f9dbd2" r="37.45"/><circle cx="82.61" cy="14.63" fill="#f1bc19" r="4.01"/><circle cx="86.62" cy="23.7" fill="#ee8670" r="1.88"/><circle cx="77.63" cy="76.12" fill="#fbcd59" r="1.88"/><circle cx="14.47" cy="63.17" fill="#fbcd59" r="4.01"/><circle cx="24.71" cy="87.31" fill="#ee8670" r="1.88"/><circle cx="76.28" cy="30" fill="#fff" r="1.8"/><circle cx="18.21" cy="51.06" fill="#fff" r="2.54"/><path d="m65.63 37.15a19 19 0 0 0 -6.12-8.49 14.22 14.22 0 0 0 -10-2.82 14.19 14.19 0 0 0 -10 2.82 19 19 0 0 0 -6.13 8.49 23.94 23.94 0 0 0 1.79 20.23 18 18 0 0 0 12.83 8.62.2.2 0 0 1 0 .08 13.89 13.89 0 0 0 1.58 0 13.78 13.78 0 0 0 1.57 0v-.08a17.94 17.94 0 0 0 12.77-8.61 23.94 23.94 0 0 0 1.71-20.24zm-16.1 24.85a43.91 43.91 0 0 1 0-28.66 43.91 43.91 0 0 1 0 28.66z" fill="#472b29"/><path d="m61.55 41.89c.13-1.52-.32-2.82-.23-3.58-1.33-1.65-2.17-3.59-4-4.77a23.77 23.77 0 0 0 -6.78-2.83c-5.7-1.43-11.3 2.74-13.07 8.13a.31.31 0 0 1 -.05.1 21.6 21.6 0 0 1 .37 2.94c-1.54 0-2.33.81-1.79 2.43 0 0 .59 2.63 1 3.89a1.49 1.49 0 0 0 1.48 1.2v2.51a4.5 4.5 0 0 0 .86 2.81c1.5 2.18 9.23 7.2 11.09 7 3 0 9-5.14 10.59-7.7a3.87 3.87 0 0 0 .48-1.69c0-1 0-2 0-3a1.51 1.51 0 0 0 1.27-1.19c.39-1.26 1-3.86 1-3.89.48-1.56-.68-2.39-2.22-2.36z" fill="#d8ad8f"/><path d="m66.16 67.46-.33-.12-.58-.24c-1.25-.53-9.25-3.27-9.25-3.27a1.82 1.82 0 0 1 -1.22-1.08 8.72 8.72 0 0 1 -.23-2.92 22.05 22.05 0 0 1 -4.23 1.43c-1.87.18-5.15-2.27-5.15-2.27s-.1 3-.22 3.71a1.66 1.66 0 0 1 -1.27 1.13l-7.73 2.58a8.1 8.1 0 0 0 -2.18.91 7.8 7.8 0 0 0 -3.28 4.68 4.34 4.34 0 0 0 -.09.61 5.51 5.51 0 0 0 -.19 1.39c0 .47-.05 6.13-.1 6.67 8.41 5.79 12.35 6 22.88 6 4.63 0 13-3 17.11-4.5-.44-9.41.33-13.4-3.94-14.71z" fill="#b2876b"/><g fill="#f4989e" opacity=".3"><ellipse cx="42.77" cy="50.55" opacity=".8" rx="1.97" ry="2"/><ellipse cx="57.89" cy="50.55" opacity=".8" rx="1.97" ry="2"/></g><path d="m37.92 41.88.82 8.04" fill="none" stroke="#472b29" stroke-linecap="round" stroke-linejoin="round" stroke-width=".4"/><path d="m61.73 41.42-.49 8.07" fill="none" stroke="#472b29" stroke-linecap="round" stroke-linejoin="round" stroke-width=".4"/><path d="m46.72 54.63a1.91 1.91 0 0 0 -.06.48c0 1.39 1.54 2.53 3.45 2.53s3.45-1.14 3.45-2.53a1.55 1.55 0 0 0 -.07-.48z" fill="#6d1b18"/><path d="m51.93 57.25a2.47 2.47 0 0 0 -1.82-.6 2.51 2.51 0 0 0 -1.83.6 4.47 4.47 0 0 0 1.83.39 4.42 4.42 0 0 0 1.82-.39z" fill="#ee3e54"/><path d="m47.71 54.63s0 0 0 0v.42c0 .38.49.68 1.1.68h2.62c.6 0 1.09-.3 1.09-.68v-.47z" fill="#fdfcef"/><path d="m46.72 54.63a1.91 1.91 0 0 0 -.06.48c0 1.39 1.54 2.53 3.45 2.53s3.45-1.14 3.45-2.53a1.55 1.55 0 0 0 -.07-.48z" fill="none" stroke="#472b29" stroke-linecap="round" stroke-linejoin="round" stroke-width=".4"/><path d="m30.48 80.51 6.05.59.77-14.91s-3.94.52-5.37 2.66c-1.86 2.79-1.45 11.66-1.45 11.66z" fill="#eab94e"/><path d="m70 80.84-6.56.6-1.44-15.74s4.83 1 6.38 3.2c2.03 2.86 1.62 11.94 1.62 11.94z" fill="#eab94e"/><path d="m41.15 64.67c-.21 9 17.41 9.57 16.19-.66l4.88 1.69 1.46 19a35.5 35.5 0 0 1 -27.41-.62l.42-17.74z" fill="#fbcd59"/><path d="m47.7 87c1.51.39 2.95-.37 4.32-.18l-.44-13.65h-3.49z" fill="#ef8f70"/><path d="m52.71 71.67-1.15 2.2h-3.48l-1.12-2.2 2.88-2.34z" fill="#ec795a"/><path d="m49.84 69.32-3.67 3.87-7.17-7.33c0-.31 4.78-2.11 4.78-2.11l1.47 1.37z" fill="#e6e7e8"/><path d="m49.84 69.32 3.67 3.87 7.31-7.55-5-1.89-1.47 1.37z" fill="#e6e7e8"/><path d="m50.11 52.76a2.68 2.68 0 0 0 2-.9.15.15 0 0 0 0-.2.14.14 0 0 0 -.19 0 2.65 2.65 0 0 1 -3.59 0 .12.12 0 0 0 -.1 0h-.09a.15.15 0 0 0 0 .2 2.66 2.66 0 0 0 1.97.9z" fill="#472b29" opacity=".41"/><path d="m51 59.48a.09.09 0 0 0 0-.18h-1.78a.09.09 0 0 0 0 .18z" fill="#472b29" opacity=".41"/><path d="m48.06 40.71a21 21 0 0 0 -7.42-.78.22.22 0 0 0 -.21.19.23.23 0 0 0 .19.21 66.18 66.18 0 0 1 6.65 1.43h.08a.24.24 0 0 0 .2-.07l.62-.68a.2.2 0 0 0 0-.18.22.22 0 0 0 -.11-.12z" fill="#512c2b"/><path d="m52.06 40.51a21 21 0 0 1 7.45-.39.2.2 0 0 1 0 .4s-5.11.61-6.71 1.08h-.08a.26.26 0 0 1 -.2-.08l-.58-.71a.16.16 0 0 1 0-.18.22.22 0 0 1 .12-.12z" fill="#512c2b"/><path d="m44.51 42.78a1.38 1.38 0 0 0 -1.2.83.64.64 0 0 1 .2 0 .83.83 0 0 1 0 1.65.67.67 0 0 1 -.37-.11 1.52 1.52 0 0 0 1.37 1.3 1.87 1.87 0 0 0 0-3.64z" fill="#472b29"/><path d="m55.51 42.78a1.32 1.32 0 0 0 -1.08.63.58.58 0 0 1 .26-.06.83.83 0 0 1 0 1.65.73.73 0 0 1 -.62-.36 1.48 1.48 0 1 0 1.44-1.86z" fill="#472b29"/><path d="m66.21 67.61-.34-.12-.58-.24c-1.23-.53-9.29-3.25-9.29-3.25a1.82 1.82 0 0 1 -1.22-1.08 8.21 8.21 0 0 1 -.24-2.69 24.19 24.19 0 0 0 6.44-6 3.87 3.87 0 0 0 .48-1.69c0-1 0-2 0-3a1.49 1.49 0 0 0 1.27-1.19c.39-1.25 1-3.86 1-3.88.53-1.62-.63-2.46-2.17-2.43 0-.42 0-1.08.06-1a4.43 4.43 0 0 0 .43-1.72c0-6.23-5.55-11.29-12.4-11.29s-12.38 5.05-12.38 11.28a4.79 4.79 0 0 0 .46 1.69 8.32 8.32 0 0 1 .09 1c-1.54 0-2.33.82-1.79 2.44 0 0 .59 2.63 1 3.88a1.5 1.5 0 0 0 1.48 1.21v2.5a4.48 4.48 0 0 0 .86 2.81c.81 1.17 3.4 3.15 5.92 4.72 0 .73-.17 2.72-.27 3.26a1.66 1.66 0 0 1 -1.31 1.18l-7.71 2.57a10.78 10.78 0 0 0 -2.18.91c-4.51 2.29-3.64 12.6-3.69 13.14 13.51 10.49 32.11 6.06 40 1.51-.47-9.37.34-13.21-3.92-14.52z" fill="none" stroke="#472b29" stroke-linecap="round" stroke-linejoin="round"/><path d="m45.43 59.46s3.42 1.86 5.24 1.71a13.94 13.94 0 0 0 4.42-1.63" fill="none" stroke="#472b29" stroke-linecap="round" stroke-linejoin="round" stroke-width=".5"/><path d="m49.41 29c-4-1.28-15.37 4-12.25 12.8.12 0 11.78-6.66 12.25-9 .84 2.39 12.13 9 12.24 9 3.13-8.72-8.25-14.05-12.24-12.8z" fill="#472b29"/><path d="m51.16 31.58a13.21 13.21 0 0 0 -7.81.53 12.42 12.42 0 0 0 -6 5.41 12.91 12.91 0 0 1 5.54-6.31 14.6 14.6 0 0 1 8.53-1.61z" fill="#ef8f70"/><path d="m63.91 31h-.28a11.21 11.21 0 0 0 -2.09 0 15.34 15.34 0 0 0 -1.71.22c-.15 0-.62.07-.69.08a2.45 2.45 0 0 0 -.5.17.69.69 0 0 0 -.13-.06l-1-.6-1-.57a.74.74 0 0 0 -.12-.09 1.61 1.61 0 0 0 -.11-.52 6.73 6.73 0 0 0 -.26-.65c-.19-.54-.42-1.09-.67-1.63a11.26 11.26 0 0 0 -1-1.85 2.53 2.53 0 0 0 -.18-.22s-2 .1-3.92 3.57a7.33 7.33 0 0 0 -.64 2.69c0 .39 0 .56.35.64a5.39 5.39 0 0 0 1.77.3c.23 0 .47 0 .7.05a14.32 14.32 0 0 0 2.52 0c0 .06 2.27 1.41 2.33 1.4a15.22 15.22 0 0 0 1.3 2.2c.13.2.25.4.39.6a5.48 5.48 0 0 0 1.14 1.41c.23.25.38.19.71 0a7.2 7.2 0 0 0 2-1.9c1.99-3.39 1.08-5.15 1.09-5.24z" fill="#ec795a"/><g fill="#fbcd59"><path d="m48.4 42.35c-2.25-2.74-10.72-.8-10.73-.8.15.62.29 1.23.41 1.83.63.07.67 1.48.73 2 .3 2.49 2 4.34 5.49 4.25a4.42 4.42 0 0 0 4.5-4.34 6.42 6.42 0 0 0 -.4-2.94zm-.4 3.06a3.67 3.67 0 0 1 -3.77 3.66h-.66c-3.5 0-4.1-3.07-4.17-5a2.07 2.07 0 0 1 1.87-2.17 21.18 21.18 0 0 1 2.2-.07c2.62 0 3.76.63 4.06 1.13a4.44 4.44 0 0 1 .47 2.45z"/><path d="m50.88 45.29a4.41 4.41 0 0 0 4.49 4.34c3.52.09 5.19-1.76 5.49-4.25.07-.52.1-1.93.73-2 .13-.6.26-1.21.42-1.83 0 0-8.49-1.94-10.73.8a6.12 6.12 0 0 0 -.4 2.94zm1.27-2.29c.31-.5 1.44-1.13 4.06-1.13a21.08 21.08 0 0 1 2.2.07 2.07 2.07 0 0 1 1.87 2.17c-.07 1.93-.67 5-4.17 5h-.65a3.68 3.68 0 0 1 -3.78-3.66 4.44 4.44 0 0 1 .47-2.45z"/><path d="m51.36 44.5a2.69 2.69 0 0 0 -1.58-.5 2.31 2.31 0 0 0 -1.46.46c-.16-.43-.31-.85-.47-1.27h4c-.19.46-.34.88-.49 1.31z"/></g></svg>