<svg height="100" viewBox="0 0 100 100" width="100" xmlns="http://www.w3.org/2000/svg"><circle cx="20.75" cy="56.38" fill="#fff" r=".89"/><circle cx="79.8" cy="31.51" fill="#fff" r=".68"/><circle cx="77.17" cy="12.48" fill="#f1bc19" r=".89"/><circle cx="21.24" cy="64.06" fill="#f1bc19" r=".89"/><circle cx="50.28" cy="49.71" fill="#cee1f4" r="37.45"/><circle cx="82.61" cy="14.63" fill="#f1bc19" r="4.01"/><circle cx="86.62" cy="23.7" fill="#ee3e54" r="1.88"/><circle cx="77.63" cy="76.12" fill="#fbcd59" r="1.88"/><circle cx="14.47" cy="63.17" fill="#fbcd59" r="4.01"/><circle cx="24.71" cy="87.31" fill="#ee3e54" r="1.88"/><circle cx="76.28" cy="30" fill="#fff" r="1.8"/><circle cx="18.21" cy="51.06" fill="#fff" r="2.54"/><path d="m33.23 75.79a1.9 1.9 0 0 0 1.44-.14l.11-.06.06.08a2.1 2.1 0 0 0 .69.73l.15.11a2.73 2.73 0 0 0 1.32.49h.64a2 2 0 0 0 0 .26 2.85 2.85 0 0 0 1.09 1.57l.15.11a2.69 2.69 0 0 0 1.25.44h.67a2.38 2.38 0 0 0 .38-.11v.24a2.11 2.11 0 0 0 .8 1.34 1.6 1.6 0 0 0 .73.35 1.63 1.63 0 0 0 .82.08 1.43 1.43 0 0 0 .73-.26 1.46 1.46 0 0 0 .59-.48l.11-.15a3 3 0 0 0 1.14 1.21 2.8 2.8 0 0 0 3.59-.77 1.37 1.37 0 0 0 .18.16 3 3 0 0 0 4.24-.42 3.19 3.19 0 0 0 .51-1.13 2.63 2.63 0 0 0 3-1.08 1.89 1.89 0 0 0 .33-1h.59a2.08 2.08 0 0 0 1.46-.84 1.54 1.54 0 0 0 .36-.75 2 2 0 0 0 -.09-1.35 1.7 1.7 0 0 0 .55 0 1.61 1.61 0 0 0 .75-.34 1.56 1.56 0 0 0 .58-.59 2 2 0 0 0 .24-1.56l-.2-.51s0 0 0 0a1.84 1.84 0 0 0 .81-.65 2.63 2.63 0 0 0 0-3.18 3.13 3.13 0 0 0 .89-.85 3.05 3.05 0 0 0 -1-4.14l-.21-.12a2.8 2.8 0 0 0 -.48-3.64 3.1 3.1 0 0 0 -1.52-.67l.11-.15a1.57 1.57 0 0 0 .21-.82 1.88 1.88 0 0 0 -.36-1.52 1.56 1.56 0 0 0 -.57-.57 2.13 2.13 0 0 0 -1.53-.31l-.23.07a2.55 2.55 0 0 0 0-.39l-.19-.64a2.69 2.69 0 0 0 -.83-1l-.16-.11a1.93 1.93 0 0 0 -.88-.41 2 2 0 0 0 -1-.09h-.27l-.19-.61a2.76 2.76 0 0 0 -.79-1.04l-.16-.1a2 2 0 0 0 -.91-.41h-.1s0-.09 0-.14a1.92 1.92 0 0 0 -.35-1.4 2 2 0 0 0 -1.21-.75l-.41-.07a2 2 0 0 0 -1.41.29 1.45 1.45 0 0 0 -.4.42 1.45 1.45 0 0 0 -.41-.1 1.31 1.31 0 0 0 -.68 0 1.24 1.24 0 0 0 -.58.27 1.2 1.2 0 0 0 -.46.46.83.83 0 0 1 -.07.13 2.21 2.21 0 0 0 -.72-.89l-.16-.1a1.64 1.64 0 0 0 -.78-.33 1.67 1.67 0 0 0 -.83-.05 1.58 1.58 0 0 0 -.73.3 1.5 1.5 0 0 0 -.59.53l-.25.49v.17a1.69 1.69 0 0 0 -.51-.23 1.9 1.9 0 0 0 -.91-.17 2.65 2.65 0 0 0 -1.69.77l-.35.51a2.27 2.27 0 0 0 -.17.5 1.83 1.83 0 0 0 -.47 0 1.64 1.64 0 0 0 -.79.22 1.52 1.52 0 0 0 -.67.48l-.3.47a2.13 2.13 0 0 0 -.19.74 2.72 2.72 0 0 0 -2.54 1.2 2.63 2.63 0 0 0 -.51 1.91 2.63 2.63 0 0 0 -1.69 1.06 2.74 2.74 0 0 0 -.28 2.81 2 2 0 0 0 -.63.42l-.34.45a1.48 1.48 0 0 0 -.23.79 1.41 1.41 0 0 0 .06.81 1.7 1.7 0 0 0 .18.44 2.51 2.51 0 0 0 -.41.32l-.36.5a1.74 1.74 0 0 0 -.25.92 1.66 1.66 0 0 0 .09.93 1.82 1.82 0 0 0 .46.81 1.85 1.85 0 0 0 .39.4.71.71 0 0 0 -.14.1l-.38.4a1.53 1.53 0 0 0 -.31.73 1.62 1.62 0 0 0 0 .79 1.65 1.65 0 0 0 .32.77 1.71 1.71 0 0 0 .57.63l.16.11a2.13 2.13 0 0 0 1.08.38l-.11.11a1.29 1.29 0 0 0 -.28.59 1.36 1.36 0 0 0 -.06.64 1.3 1.3 0 0 0 .23.63 1.69 1.69 0 0 0 .23.36 1.32 1.32 0 0 0 -.25.52 1.91 1.91 0 0 0 .19 1.42l.2.37a2 2 0 0 0 1.1.88z" fill="#472b29"/><path d="m31.08 35.35a2 2 0 0 0 1.05 1.09l.14.06a1 1 0 0 0 0 .1 1.84 1.84 0 0 0 -.22 1v.18a2.37 2.37 0 0 0 .39 1.32l.43.51-.21.2a1.8 1.8 0 0 0 -.53.84 1.83 1.83 0 0 0 -.2.95v.19a2.45 2.45 0 0 0 .37 1.21l.46.53a2.62 2.62 0 0 0 .34.24l-.21.15a2 2 0 0 0 -.71 1.42 1.48 1.48 0 0 0 .16.8 1.62 1.62 0 0 0 .45.72 1.66 1.66 0 0 0 .71.45 1.74 1.74 0 0 0 .82.2h.26a2.81 2.81 0 0 0 -.36 1.63 3 3 0 0 0 3 2.49v.24a3.21 3.21 0 0 0 3.12 3.22 4 4 0 0 0 1.36-.24 2.91 2.91 0 0 0 2.9 1.82 2.36 2.36 0 0 0 1.12-.29s0 0 0 0l.35.46a2.43 2.43 0 0 0 1.57.7 1.92 1.92 0 0 0 .92-.14 1.7 1.7 0 0 0 .78-.42 1.59 1.59 0 0 0 .39-.43 1.55 1.55 0 0 0 .38.43 1.73 1.73 0 0 0 .79.42 1.88 1.88 0 0 0 .91.14 2.45 2.45 0 0 0 1.58-.7l.34-.46a2.32 2.32 0 0 0 1.11.29 2.93 2.93 0 0 0 2.91-1.82 4 4 0 0 0 1.35.24 3.19 3.19 0 0 0 3.12-3.22 2 2 0 0 0 0-.24 3 3 0 0 0 3-2.49 2.66 2.66 0 0 0 -.36-1.63h.26a1.82 1.82 0 0 0 .83-.2 1.72 1.72 0 0 0 .71-.45 1.62 1.62 0 0 0 .45-.72 1.57 1.57 0 0 0 .15-.8 2 2 0 0 0 -.7-1.42l-.22-.15a2.62 2.62 0 0 0 .34-.24l.47-.53a2.44 2.44 0 0 0 .4-1.27v-.19a1.83 1.83 0 0 0 -.19-.95 1.9 1.9 0 0 0 -.54-.84 1.34 1.34 0 0 0 -.21-.2l.43-.51a2.47 2.47 0 0 0 .4-1.32v-.18a1.93 1.93 0 0 0 -.22-1 .69.69 0 0 1 0-.1l.13-.06a1.93 1.93 0 0 0 1-1.09 1.84 1.84 0 0 0 -.08-1.42l-.27-.32a2 2 0 0 0 -1.17-1 1.77 1.77 0 0 0 -.64-.09 1.55 1.55 0 0 0 -.17-.4 1.36 1.36 0 0 0 -.44-.55 1.47 1.47 0 0 0 -.62-.32 1.56 1.56 0 0 0 -.71-.11h-.17a2 2 0 0 0 .38-1.08v-.19a1.5 1.5 0 0 0 -.2-.83 1.69 1.69 0 0 0 -.49-.7 2.69 2.69 0 0 0 -1.61-.6l-.61.08h-.18a1.69 1.69 0 0 0 -.12-.54 1.77 1.77 0 0 0 -.43-.85 1.93 1.93 0 0 0 -.8-.61 2.16 2.16 0 0 0 -1-.33h-.68a2.09 2.09 0 0 0 -.56.14 2.13 2.13 0 0 0 -1-.92 1.89 1.89 0 0 0 -.88-.27h-.62a2.31 2.31 0 0 0 -.79.27 3.42 3.42 0 0 0 -4.8-.71 3.43 3.43 0 0 0 -4.81.71 2.31 2.31 0 0 0 -.79-.27h-.62a1.85 1.85 0 0 0 -.87.27 1.81 1.81 0 0 0 -.7.52 1.52 1.52 0 0 0 -.28.4 2.19 2.19 0 0 0 -.56-.14h-.69a2.16 2.16 0 0 0 -1 .33 1.9 1.9 0 0 0 -.79.61 1.78 1.78 0 0 0 -.44.85 1.69 1.69 0 0 0 -.12.54h-.18l-.61-.08a1.82 1.82 0 0 0 -.86.17 1.78 1.78 0 0 0 -.74.43 1.6 1.6 0 0 0 -.49.7 1.51 1.51 0 0 0 -.21.83v.19a2.1 2.1 0 0 0 .34 1.11h-.16a1.54 1.54 0 0 0 -.71.11 1.45 1.45 0 0 0 -.63.32 1.34 1.34 0 0 0 -.43.55 1.08 1.08 0 0 0 -.17.4 1.74 1.74 0 0 0 -.64.09 2.06 2.06 0 0 0 -1.18 1l-.2.38a1.8 1.8 0 0 0 -.07 1.39z" fill="#472b29"/><path d="m61.73 41.89c.13-1.52-.32-2.82-.22-3.58-1.33-1.65-2.17-3.59-4-4.77a23.77 23.77 0 0 0 -6.78-2.83c-5.7-1.43-11.3 2.74-13.07 8.13a.31.31 0 0 1 0 .1 21.6 21.6 0 0 1 .34 2.94c-1.54 0-2.33.81-1.79 2.43 0 0 .59 2.63 1 3.89a1.49 1.49 0 0 0 1.48 1.2v2.51a4.5 4.5 0 0 0 .86 2.81c1.5 2.18 9.23 7.2 11.1 7 3 0 9-5.14 10.58-7.7a3.87 3.87 0 0 0 .48-1.69c0-1 0-2 0-3a1.51 1.51 0 0 0 1.27-1.19c.39-1.26 1-3.86 1-3.89.45-1.56-.71-2.39-2.25-2.36z" fill="#d8ad8f"/><path d="m66.35 67.46-.35-.12-.58-.24c-1.23-.53-9.26-3.27-9.26-3.27a1.82 1.82 0 0 1 -1.16-1.08 8.72 8.72 0 0 1 -.23-2.92 22.05 22.05 0 0 1 -4.23 1.43c-1.87.18-5.15-2.27-5.15-2.27s-.09 3-.22 3.71a1.66 1.66 0 0 1 -1.26 1.13l-7.74 2.58a8.1 8.1 0 0 0 -2.18.91 7.8 7.8 0 0 0 -3.32 4.68h-.05a4.34 4.34 0 0 0 -.09.61 5.51 5.51 0 0 0 -.14 1.39c0 .47-.05 7.13-.09 7.67 6.79 7 16.3 5.48 26.83 5.48 4.63 0 10.41-2.34 13.15-5.08-.44-9.43.33-13.3-3.93-14.61z" fill="#b2876b"/><path d="m42 65.24c1.53 1.22 12.93 1.85 16.11-.55l4.85 1.65 1.43 19.08a48.35 48.35 0 0 1 -28.39-.52l.77-18z" fill="#78a0cf"/><g fill="#f4989e" opacity=".3"><ellipse cx="42.95" cy="50.55" opacity=".8" rx="1.97" ry="2"/><ellipse cx="58.07" cy="50.55" opacity=".8" rx="1.97" ry="2"/></g><path d="m38.1 41.88.82 8.04" fill="none" stroke="#472b29" stroke-linecap="round" stroke-linejoin="round" stroke-width=".4"/><path d="m61.91 41.42-.49 8.07" fill="none" stroke="#472b29" stroke-linecap="round" stroke-linejoin="round" stroke-width=".4"/><path d="m50.29 52.76a2.68 2.68 0 0 0 2-.9.15.15 0 0 0 0-.2.14.14 0 0 0 -.19 0 2.65 2.65 0 0 1 -3.59 0 .12.12 0 0 0 -.1 0h-.09a.15.15 0 0 0 0 .2 2.66 2.66 0 0 0 1.97.9z" fill="#472b29" opacity=".41"/><path d="m51.18 59.48a.09.09 0 0 0 0-.18h-1.78a.09.09 0 0 0 0 .18z" fill="#472b29" opacity=".41"/><path d="m48.24 40.71a20.93 20.93 0 0 0 -7.42-.78.22.22 0 0 0 -.21.19.23.23 0 0 0 .19.21 66.18 66.18 0 0 1 6.65 1.43h.08a.23.23 0 0 0 .2-.07l.62-.68a.2.2 0 0 0 0-.18.22.22 0 0 0 -.11-.12z" fill="#512c2b"/><path d="m52.24 40.51a21 21 0 0 1 7.45-.39.22.22 0 0 1 .2.2.21.21 0 0 1 -.2.2s-5.11.61-6.71 1.08h-.08a.26.26 0 0 1 -.2-.08l-.58-.71a.17.17 0 0 1 0-.18.22.22 0 0 1 .12-.12z" fill="#512c2b"/><path d="m44.69 42.78a1.38 1.38 0 0 0 -1.2.83.64.64 0 0 1 .2 0 .83.83 0 0 1 0 1.65.67.67 0 0 1 -.37-.11 1.52 1.52 0 0 0 1.37 1.3 1.87 1.87 0 0 0 0-3.64z" fill="#472b29"/><path d="m55.69 42.78a1.32 1.32 0 0 0 -1.08.63.58.58 0 0 1 .26-.06.83.83 0 0 1 0 1.65.73.73 0 0 1 -.62-.36 1.48 1.48 0 1 0 1.44-1.86z" fill="#472b29"/><path d="m66.39 67.61-.34-.12-.58-.24c-1.23-.53-9.26-3.25-9.26-3.25a1.84 1.84 0 0 1 -1.21-1.1 8.21 8.21 0 0 1 -.24-2.69 24.41 24.41 0 0 0 6.45-6 4 4 0 0 0 .47-1.69c0-1 0-2 0-3a1.49 1.49 0 0 0 1.32-1.17c.39-1.25 1-3.86 1-3.88.53-1.62-.63-2.46-2.17-2.43 0-.42 0-1.08.06-1a4.43 4.43 0 0 0 .43-1.72c0-6.23-5.55-11.29-12.4-11.29s-12.47 5.05-12.47 11.28a4.79 4.79 0 0 0 .46 1.69 8.32 8.32 0 0 1 .09 1c-1.54 0-2.32.82-1.79 2.44 0 0 .6 2.63 1 3.88a1.5 1.5 0 0 0 1.48 1.21v2.5a4.48 4.48 0 0 0 .86 2.81c.81 1.17 3.4 3.15 5.92 4.72 0 .73-.17 2.72-.27 3.26a1.66 1.66 0 0 1 -1.3 1.18l-7.74 2.59a10.78 10.78 0 0 0 -2.18.91c-4.51 2.29-3.64 13.6-3.68 14.14 10.24 8.89 36.24 5.69 40 .4-.46-9.4.35-13.12-3.91-14.43z" fill="none" stroke="#472b29" stroke-linecap="round" stroke-linejoin="round"/><path d="m45.61 59.46s3.42 1.86 5.24 1.71a14 14 0 0 0 4.43-1.63" fill="none" stroke="#472b29" stroke-linecap="round" stroke-linejoin="round" stroke-width=".5"/><g fill="#472b29"><path d="m56.43 28.84a3.76 3.76 0 0 1 -.31 3.16 3 3 0 0 1 -3.32.72c.54 2.26-3.79 2.94-4.76 1.07.84 2-3.54 4-4.88 2a3 3 0 0 1 -1.16 2.65 3.2 3.2 0 0 1 -2.68.42 1.51 1.51 0 0 1 .4 1.69 1.38 1.38 0 0 1 -1.33.83 2.35 2.35 0 0 1 -1.49-.78 5.62 5.62 0 0 1 -1.1-5.12 9.31 9.31 0 0 1 2.68-4.27 16.53 16.53 0 0 1 9.89-4.71 8.54 8.54 0 0 1 6 1.34 3.34 3.34 0 0 1 1.52 2.7"/><path d="m62.46 33.09c-1.52-1.67-3.69-1.75-5.81-1.58a.49.49 0 0 0 -.32.16.54.54 0 0 0 -.32.11 1.84 1.84 0 0 0 -.38 2.53 2.13 2.13 0 0 0 2.21.8 1.74 1.74 0 0 0 2 1.8 1.82 1.82 0 0 0 .73 1.93 1.41 1.41 0 0 0 .52 2.16c1.52.8 2.51-.9 2.69-2.16.31-2.24.3-3.98-1.32-5.75z"/><path d="m56.76 55a.14.14 0 0 0 0-.2.15.15 0 0 0 -.21 0 10.39 10.39 0 0 1 -6.32 1.74 10.43 10.43 0 0 1 -6.33-1.74.14.14 0 0 0 -.09 0 .14.14 0 0 0 -.11.06.14.14 0 0 0 0 .2 11.36 11.36 0 0 0 13 0z"/></g><path d="m57 66.88a28 28 0 0 1 -7 .71 28.07 28.07 0 0 1 -7-.71 1.72 1.72 0 0 1 -1.6-1.81 1.71 1.71 0 0 1 1.6-1.8s4.37.52 6.86.52 7.14-.52 7.14-.52a1.71 1.71 0 0 1 1.6 1.8 1.72 1.72 0 0 1 -1.6 1.81z" fill="#78a0cf" stroke="#472b29" stroke-miterlimit="10" stroke-width=".7"/></svg>