<svg height="100" viewBox="0 0 100 100" width="100" xmlns="http://www.w3.org/2000/svg"><circle cx="20.75" cy="56.38" fill="#fff" r=".89"/><circle cx="79.8" cy="31.51" fill="#fff" r=".68"/><circle cx="77.17" cy="12.48" fill="#f1bc19" r=".89"/><circle cx="21.24" cy="64.06" fill="#f1bc19" r=".89"/><circle cx="50.28" cy="49.71" fill="#e6edb7" r="37.45"/><circle cx="82.61" cy="14.63" fill="#f1bc19" r="4.01"/><circle cx="86.62" cy="23.7" fill="#ee3e54" r="1.88"/><circle cx="77.63" cy="76.12" fill="#fbcd59" r="1.88"/><circle cx="14.47" cy="63.17" fill="#fbcd59" r="4.01"/><circle cx="24.71" cy="87.31" fill="#ee3e54" r="1.88"/><circle cx="76.28" cy="30" fill="#fff" r="1.8"/><circle cx="18.21" cy="51.06" fill="#fff" r="2.54"/><path d="m37.67 41.65c.51 1-.31 2.29-1.32 2.86s-2.2.77-3.19 1.37a4.41 4.41 0 0 0 1.73 8.12 3.47 3.47 0 0 0 -2.71 3.9 5 5 0 0 0 3.33 3.77 9.41 9.41 0 0 0 5.21.15 8.48 8.48 0 0 0 9.92 1.24" fill="#472b29"/><path d="m63.33 41.65c-.51 1 .31 2.29 1.32 2.86s2.19.77 3.19 1.37a4.41 4.41 0 0 1 -1.73 8.12 3.48 3.48 0 0 1 2.71 3.9 5 5 0 0 1 -3.33 3.77 9.41 9.41 0 0 1 -5.21.15 8.48 8.48 0 0 1 -9.92 1.24" fill="#472b29"/><path d="m61.46 41.57c.13-1.51.58-3.27.67-4l-1.13-3.33c-1.33-1.65-2.19-3.13-4-4.31-2-1.29-4.61-.53-6.93-1.11-5.7-1.43-10.91 4.32-12.67 9.71l-.06.1a19.78 19.78 0 0 1 .37 2.94c-1.54 0-2.32.81-1.79 2.43 0 0 .6 2.63 1 3.88a1.5 1.5 0 0 0 1.48 1.21v2.5a4.52 4.52 0 0 0 .85 2.82c1.51 2.17 9.23 7.2 11.1 7 3 0 9-5.14 10.59-7.7a4 4 0 0 0 .42-1.71c0-1 0-2 0-3a1.49 1.49 0 0 0 1.27-1.19c.4-1.25 1-3.86 1-3.88.54-1.55-.63-2.39-2.17-2.36z" fill="#d8ad8f"/><path d="m66.08 67.14a2.87 2.87 0 0 1 -.34-.12l-.58-.24c-1.23-.53-9.26-3.26-9.26-3.26a1.9 1.9 0 0 1 -1.22-1.09 8.94 8.94 0 0 1 -.23-2.91 22.35 22.35 0 0 1 -4.23 1.42c-1.86.19-5.15-2.27-5.15-2.27s-.09 3-.22 3.71a1.69 1.69 0 0 1 -1.26 1.14l-7.74 2.58a7.61 7.61 0 0 0 -2.17.91 7.78 7.78 0 0 0 -3.28 4.68c0 .1-.05.32-.09.6a5.61 5.61 0 0 0 -.14 1.35c0 .46-.09 1-.13 1.51 6.8 7 11.35 11.48 21.89 11.48 4.62 0 14-2.39 18.13-3.93-.49-9.37.28-14.25-3.98-15.56z" fill="#b2876b"/><path d="m37.83 41.56.82 8.05" fill="none" stroke="#472b29" stroke-linecap="round" stroke-linejoin="round" stroke-width=".4"/><path d="m61.65 41.1-.49 8.07" fill="none" stroke="#472b29" stroke-linecap="round" stroke-linejoin="round" stroke-width=".4"/><path d="m30 81c8.13 5.59 13 5.31 23.47 5.31 4.6 0 13-1.78 16.38-4-.4-9.31.4-13.58-3.85-14.89-.83-.25-3.93-1.75-3.93-1.75s-8 4.5-11.53 5.21a69.42 69.42 0 0 1 -20.1 1.12c-.08.28-.27 7.38-.44 9z" fill="#9daa39"/><path d="m66.49 67.63c-.17-.07-.33-.15-.52-.21-.82-.25-3.93-1.75-3.93-1.75s-8 4.5-11.53 5.21a69.37 69.37 0 0 1 -20.1 1.12c-.08.31-.2 1.58-.33 3.08 22.35 3.92 33.29-5.78 36.41-7.45z" fill="#fbcd59"/><path d="m66.12 67.3a3.19 3.19 0 0 1 -.34-.13l-.58-.23c-1.23-.53-9.26-3.27-9.26-3.27a1.89 1.89 0 0 1 -1.22-1.08 8.27 8.27 0 0 1 -.24-2.7 24.25 24.25 0 0 0 6.45-6 4 4 0 0 0 .47-1.68c0-1 0-2 0-3a1.48 1.48 0 0 0 1.28-1.21c.4-1.25 1-3.86 1-3.88.53-1.62-.64-2.45-2.18-2.42 0-.43 0-1.08.07-1a4.7 4.7 0 0 0 .43-1.7c0-6.24-5.55-11.29-12.4-11.29s-12.42 5.05-12.42 11.29a4.42 4.42 0 0 0 .47 1.64 10.15 10.15 0 0 1 .08 1.08c-1.54 0-2.32.81-1.79 2.43 0 0 .6 2.63 1 3.88a1.49 1.49 0 0 0 1.48 1.21v2.5a4.5 4.5 0 0 0 .85 2.82c.81 1.17 3.4 3.15 5.93 4.71-.05.74-.18 2.72-.28 3.27a1.68 1.68 0 0 1 -1.26 1.13l-7.74 2.58a11 11 0 0 0 -2.17.91c-4.54 2.3-3.68 13.61-3.75 14.14 11.19 9.33 35.82 4.3 40 1.4-.43-9.37.38-14.1-3.88-15.4z" fill="none" stroke="#472b29" stroke-linecap="round" stroke-linejoin="round"/><path d="m45.34 59.15s3.43 1.86 5.25 1.71a14.24 14.24 0 0 0 4.41-1.64" fill="none" stroke="#472b29" stroke-linecap="round" stroke-linejoin="round" stroke-width=".5"/><circle cx="45.19" cy="31.71" fill="#fbcd59" r="1.48"/><path d="m37.62 43.3a3.75 3.75 0 0 1 0-.67l-1.62.37.58 3 .64-.12-.46-2.39z" fill="#033b55"/><g fill="#472b29"><path d="m50.17 50.43a2.9 2.9 0 0 0 2.18-1 .15.15 0 0 0 0-.21.15.15 0 0 0 -.21 0 2.87 2.87 0 0 1 -3.91 0 .16.16 0 0 0 -.11 0 .13.13 0 0 0 -.1 0 .14.14 0 0 0 0 .21 2.88 2.88 0 0 0 2.15 1z" opacity=".41"/><path d="m47.4 39.7.53-1a13.74 13.74 0 0 0 -7 .22l.67 1a10.89 10.89 0 0 1 5.8-.22z"/><path d="m58.68 39.7.53-1a13.74 13.74 0 0 0 -7 .22l.67 1a10.89 10.89 0 0 1 5.8-.22z"/><path d="m44.16 40.36a1.49 1.49 0 0 0 -1.29.9.78.78 0 0 1 .21 0 .9.9 0 0 1 0 1.8.81.81 0 0 1 -.4-.12 1.64 1.64 0 0 0 1.48 1.4 2 2 0 0 0 0-3.94z"/><path d="m55.94 40.36a1.4 1.4 0 0 0 -1.16.68.67.67 0 0 1 .28-.06.9.9 0 0 1 0 1.79.79.79 0 0 1 -.66-.39 1.59 1.59 0 1 0 1.54-2z"/></g><circle cx="42.61" cy="48.89" fill="#cd9480" r="2.27"/><circle cx="57.55" cy="48.89" fill="#cd9480" r="2.27"/><path d="m51.52 26.73c1.56.49 5.36 2.79 5 5.92-.39 3.41 5.7 3.77 4.23 9.78-.23 1 1.11.7 1.59-.17 3-5.46 2.86-11.24-.14-14.83-2.82-3.37-9.44-3.58-10.54-2.38a.9.9 0 0 0 -.22.57c-.01.38-.09 1.06.08 1.11z" fill="#472b29"/><path d="m58.36 26.19c0-1.85-2.21-3.38-4.11-3.58-5.79-.62-13.93 1.58-17.36 6.13s-4.22 13.87-2.2 16.93c2.17 3.27 3.48.44 3.91-1 2.12-7.34 6-6.76 9.54-9 4.71-2.94 2.75-7.32 9.15-4.56 1.6.68 1.05-3.22 1.07-4.92z" fill="#472b29"/><circle cx="50.17" cy="36.81" fill="#ee3e54" r=".84"/><circle cx="49.76" cy="66.59" fill="#f1bc19" r="1.04"/><path d="m54.64 63.7c0 .93-2.18 1.69-4.88 1.69s-4.88-.76-4.88-1.69" fill="none" stroke="#f1bc19" stroke-linecap="round" stroke-linejoin="round" stroke-width=".5"/><path d="m46.79 54a1.84 1.84 0 0 0 -.07.47c0 1.4 1.55 2.53 3.45 2.53s3.46-1.13 3.46-2.53a1.84 1.84 0 0 0 -.07-.47z" fill="#6d1b18"/><path d="m52 56.64a2.56 2.56 0 0 0 -1.83-.6 2.53 2.53 0 0 0 -1.82.6 4.47 4.47 0 0 0 3.65 0z" fill="#ee3e54"/><path d="m47.78 54a.06.06 0 0 0 0 0v.43c0 .37.49.68 1.09.68h2.63c.6 0 1.09-.31 1.09-.68v-.43a.06.06 0 0 0 0 0z" fill="#fdfcef"/><path d="m46.79 54a1.84 1.84 0 0 0 -.07.47c0 1.4 1.55 2.53 3.45 2.53s3.46-1.13 3.46-2.53a1.84 1.84 0 0 0 -.07-.47z" fill="none" stroke="#472b29" stroke-linecap="round" stroke-linejoin="round" stroke-width=".4"/></svg>