<svg height="100" viewBox="0 0 100 100" width="100" xmlns="http://www.w3.org/2000/svg"><circle cx="22.06" cy="58.47" fill="#fff" r=".89"/><circle cx="81.11" cy="33.6" fill="#fff" r=".68"/><circle cx="22.56" cy="66.15" fill="#f1bc19" r=".89"/><circle cx="51.6" cy="51.8" fill="#e4e4f9" r="37.45"/><circle cx="83.93" cy="16.72" fill="#f1bc19" r="4.01"/><circle cx="87.93" cy="25.79" fill="#a1a1ca" r="1.88"/><circle cx="78.95" cy="78.21" fill="#fbcd59" r="1.88"/><circle cx="15.79" cy="65.26" fill="#fbcd59" r="4.01"/><circle cx="26.02" cy="89.4" fill="#a1a1ca" r="1.88"/><circle cx="77.6" cy="32.09" fill="#fff" r="1.8"/><circle cx="19.53" cy="53.15" fill="#fff" r="2.54"/><path d="m66 38.42a19 19 0 0 0 -6.12-8.49 14.22 14.22 0 0 0 -10-2.82 14.19 14.19 0 0 0 -10 2.82 19 19 0 0 0 -6.13 8.49 23.94 23.94 0 0 0 1.79 20.23 18 18 0 0 0 12.78 8.61v.08h1.58s1 0 1.57 0v-.08a18 18 0 0 0 12.77-8.61 23.94 23.94 0 0 0 1.76-20.23zm-16.15 24.83a43.91 43.91 0 0 1 0-28.66 43.91 43.91 0 0 1 0 28.66z" fill="#472b29"/><path d="m61.46 44c.13-1.52-.32-2.82-.22-3.58-1.33-1.65-2.17-3.59-4-4.77a23.65 23.65 0 0 0 -6.78-2.83c-5.7-1.43-11.3 2.74-13.06 8.13l-.06.1a20.1 20.1 0 0 1 .35 2.95c-1.54 0-2.32.81-1.79 2.43 0 0 .6 2.63 1 3.89a1.49 1.49 0 0 0 1.48 1.2v2.51a4.49 4.49 0 0 0 .85 2.81c1.51 2.18 9.23 7.2 11.1 7 3 0 9-5.14 10.59-7.7a4 4 0 0 0 .47-1.69c0-1 0-2 0-3a1.51 1.51 0 0 0 1.27-1.19c.4-1.26 1-3.86 1-3.89.51-1.59-.66-2.37-2.2-2.37z" fill="#d8ad8f"/><path d="m66.1 69.87a3.19 3.19 0 0 1 -.34-.13l-.58-.23c-1.18-.51-9.26-3.27-9.26-3.27a1.89 1.89 0 0 1 -1.22-1.08 11.25 11.25 0 0 1 -.27-3.23 22 22 0 0 1 -4.09 1.34c-1.87.18-5.25-1.88-5.25-1.88s-.09 3-.22 3.72a1.68 1.68 0 0 1 -1.26 1.13l-7.74 2.58a7.91 7.91 0 0 0 -2.17.91 7.78 7.78 0 0 0 -3.28 4.68s-.3 6.83-.28 7c0 .47-.07.35-.12.88 7.29 5.81 16 6.53 26.49 6.53 4.62 0 9.45-2.74 13.37-4.6-.44-9.42.48-13.05-3.78-14.35z" fill="#b2876b"/><g fill="#f4989e" opacity=".3"><ellipse cx="42.68" cy="52.64" opacity=".8" rx="1.97" ry="2"/><ellipse cx="57.8" cy="52.64" opacity=".8" rx="1.97" ry="2"/></g><path d="m37.83 43.97.82 8.04" fill="none" stroke="#472b29" stroke-linecap="round" stroke-linejoin="round" stroke-width=".4"/><path d="m61.65 43.51-.49 8.07" fill="none" stroke="#472b29" stroke-linecap="round" stroke-linejoin="round" stroke-width=".4"/><path d="m46.63 56.72a1.91 1.91 0 0 0 -.06.48c0 1.39 1.54 2.53 3.45 2.53s3.45-1.14 3.45-2.53a1.91 1.91 0 0 0 -.06-.48z" fill="#6d1b18"/><path d="m51.84 59.34a3.06 3.06 0 0 0 -3.64 0 4.44 4.44 0 0 0 3.64 0z" fill="#ee3e54"/><path d="m47.62 56.72s0 0 0 .05v.42c0 .38.5.68 1.1.68h2.62c.6 0 1.1-.3 1.1-.68v-.42s0 0 0-.05z" fill="#fdfcef"/><path d="m46.63 56.72a1.91 1.91 0 0 0 -.06.48c0 1.39 1.54 2.53 3.45 2.53s3.45-1.14 3.45-2.53a1.91 1.91 0 0 0 -.06-.48z" fill="none" stroke="#472b29" stroke-linecap="round" stroke-linejoin="round" stroke-width=".4"/><path d="m42.65 66.83c1.54 1.29 13 1.9 16.11-.68l4.86 1.73 1.38 18.88s-14 5.83-28.26-.47l.68-17.69z" fill="#8889b9"/><path d="m50 54.85a2.66 2.66 0 0 0 2-.9.14.14 0 0 0 0-.2.14.14 0 0 0 -.19 0 2.64 2.64 0 0 1 -3.58 0 .16.16 0 0 0 -.11-.05.11.11 0 0 0 -.08 0 .14.14 0 0 0 0 .2 2.66 2.66 0 0 0 1.96.95z" fill="#472b29" opacity=".41"/><path d="m50.91 61.57a.09.09 0 0 0 0-.18h-1.78a.09.09 0 0 0 0 .18z" fill="#472b29" opacity=".41"/><path d="m48 42.8a21 21 0 0 0 -7.45-.8.21.21 0 0 0 -.2.19c0 .1.07.18.19.21a66.13 66.13 0 0 1 6.64 1.43h.08a.24.24 0 0 0 .21-.08l.61-.67a.17.17 0 0 0 0-.18.2.2 0 0 0 -.08-.1z" fill="#512c2b"/><path d="m52 42.6a21.07 21.07 0 0 1 7.46-.39.22.22 0 0 1 .19.2.21.21 0 0 1 -.2.2s-5.11.61-6.71 1.08h-.08a.25.25 0 0 1 -.2-.09l-.58-.7a.2.2 0 0 1 0-.18.24.24 0 0 1 .12-.12z" fill="#512c2b"/><path d="m44.43 44.87a1.4 1.4 0 0 0 -1.21.83.69.69 0 0 1 .2 0 .83.83 0 0 1 0 1.65.7.7 0 0 1 -.37-.11 1.54 1.54 0 0 0 1.38 1.3 1.87 1.87 0 0 0 0-3.64z" fill="#472b29"/><path d="m55.42 44.87a1.34 1.34 0 0 0 -1.08.63.58.58 0 0 1 .26-.06.83.83 0 0 1 0 1.65.74.74 0 0 1 -.62-.36 1.48 1.48 0 1 0 1.44-1.86z" fill="#472b29"/><path d="m45.34 61.55s3.43 1.86 5.25 1.71a14 14 0 0 0 4.41-1.63" fill="none" stroke="#472b29" stroke-linecap="round" stroke-linejoin="round" stroke-width=".5"/><path d="m60.84 68.31c1.07-1.39 2.79-2.25 3.63-3.79a4.18 4.18 0 0 0 .2-3.54 4.78 4.78 0 0 0 -.44-.8 7.38 7.38 0 0 0 -3.16-.28 7.27 7.27 0 0 0 -6.24 6.89 7.15 7.15 0 0 0 1.17 4.27 2.16 2.16 0 0 0 3.87-.81 5.2 5.2 0 0 1 .97-1.94z" fill="#472b29"/><path d="m60.07 69c-.84 1.09-2.18 1.76-2.84 3a3.26 3.26 0 0 0 -.15 2.76 3.2 3.2 0 0 0 .34.63 5.64 5.64 0 0 0 6.4-8.51 1.69 1.69 0 0 0 -3 .63 4.12 4.12 0 0 1 -.75 1.49z" fill="#472b29"/><path d="m57.78 75.1a3.38 3.38 0 0 0 -1.42 2.62c0 .9.31 1.77.38 2.67a4.53 4.53 0 0 1 -1.65 3.82 6.13 6.13 0 0 0 8.34-5.82 4.61 4.61 0 0 0 -.71-2.46 3.67 3.67 0 0 0 -4.94-.83z" fill="#472b29"/><path d="m69.92 84.46c-.24-8 0-13.58-3.8-14.76l-.34-.12-.58-.24c-1.23-.53-9.26-3.27-9.26-3.27a1.86 1.86 0 0 1 -1.22-1.07 8.21 8.21 0 0 1 -.24-2.69 24.41 24.41 0 0 0 6.45-6 4 4 0 0 0 .47-1.69c0-1 0-2 0-3a1.49 1.49 0 0 0 1.27-1.19c.4-1.25 1-3.86 1-3.88.53-1.62-.64-2.46-2.18-2.43 0-.43 0-1.08.07-1a4.7 4.7 0 0 0 .44-1.72c0-6.23-5.55-11.29-12.4-11.29s-12.42 5.06-12.42 11.29a4.5 4.5 0 0 0 .47 1.65 10.18 10.18 0 0 1 .08 1.07c-1.54 0-2.32.82-1.79 2.44 0 0 .6 2.63 1 3.88a1.5 1.5 0 0 0 1.48 1.21v2.5a4.47 4.47 0 0 0 .82 2.85c.81 1.17 3.4 3.15 5.93 4.72-.05.73-.18 2.71-.28 3.26a1.66 1.66 0 0 1 -1.26 1.13l-7.74 2.59a10.46 10.46 0 0 0 -2.17.91c-4.15 2.11-3.75 11-3.7 12.82a37.45 37.45 0 0 0 39.9 2.07z" fill="none" stroke="#472b29" stroke-linecap="round" stroke-linejoin="round"/><path d="m49.73 30.3c-4-1.28-15.37 4-12.25 12.8.12 0 1.36 5.14 3.37 6.88a5.18 5.18 0 0 1 -1.05-4.43 12.85 12.85 0 0 1 1.2-3.3c4.25-2 7.43-7.08 8.77-8.2 1.27 1.07 4.85 5.68 8.61 7.87a13.76 13.76 0 0 1 1.32 3.63 5.22 5.22 0 0 1 -1 4.43c2-1.74 3.25-6.88 3.37-6.88 3.03-8.76-8.35-14.1-12.34-12.8z" fill="#472b29"/><path d="m51.48 32.84a13.21 13.21 0 0 0 -7.81.54 12.42 12.42 0 0 0 -6 5.41 12.91 12.91 0 0 1 5.54-6.31 14.61 14.61 0 0 1 8.54-1.61z" fill="#a1a1ca"/><path d="m64.23 32.31-.23-.05a11.1 11.1 0 0 0 -2.08 0 15.26 15.26 0 0 0 -1.72.21l-.69.09a2 2 0 0 0 -.5.17.69.69 0 0 0 -.13-.06s-1-.6-1-.6l-1-.57a.74.74 0 0 0 -.12-.09 1.91 1.91 0 0 0 -.1-.52c0-.07-.2-.52-.27-.66-.19-.53-.42-1.08-.67-1.62a11.26 11.26 0 0 0 -1-1.85 2.53 2.53 0 0 0 -.18-.22s-2 .1-3.92 3.57a7.33 7.33 0 0 0 -.62 2.7c0 .39 0 .56.35.63a5.16 5.16 0 0 0 1.77.31h.7a14.32 14.32 0 0 0 2.52.05c0 .06 2.27 1.41 2.33 1.4a15.8 15.8 0 0 0 1.3 2.2c.13.2.25.4.39.6a5.48 5.48 0 0 0 1.14 1.41c.23.25.39.19.71 0a7.36 7.36 0 0 0 2-1.9c1.92-3.39 1.01-5.16 1.02-5.2z" fill="#8889b9"/><g fill="#fff"><path d="m54.21 28.63a.42.42 0 0 1 -.58.18.46.46 0 0 1 .45-.79.45.45 0 0 1 .13.61z"/><path d="m52.69 30.46a.42.42 0 0 1 -.58.18.44.44 0 0 1 -.11-.64.43.43 0 0 1 .58-.18.44.44 0 0 1 .11.64z"/><path d="m52 32.74a.44.44 0 0 1 -.58.19.45.45 0 0 1 -.14-.61.43.43 0 0 1 .59-.18.45.45 0 0 1 .13.6z"/><path d="m55.15 30.68a.42.42 0 0 1 -.58.18.44.44 0 0 1 -.14-.6.44.44 0 0 1 .59-.19.46.46 0 0 1 .13.61z"/><path d="m54.11 32.68a.43.43 0 0 1 -.58.19.45.45 0 0 1 -.14-.61.43.43 0 0 1 .59-.18.45.45 0 0 1 .13.6z"/><path d="m56.23 32.62a.42.42 0 0 1 -.58.18.43.43 0 0 1 -.13-.6.42.42 0 0 1 .58-.2.44.44 0 0 1 .13.62z"/><path d="m58.7 34.08a.42.42 0 0 1 -.58.18.45.45 0 0 1 -.13-.6.43.43 0 0 1 .58-.19.44.44 0 0 1 .13.61z"/><path d="m61 34.1a.43.43 0 0 1 -.58.19.45.45 0 0 1 -.14-.61.43.43 0 0 1 .59-.18.45.45 0 0 1 .13.6z"/><path d="m63.28 34a.43.43 0 0 1 -.58.19.45.45 0 0 1 -.14-.61.43.43 0 0 1 .59-.18.45.45 0 0 1 .13.6z"/><path d="m62.5 36.25a.44.44 0 0 1 -.59.18.46.46 0 0 1 -.13-.61.43.43 0 0 1 .58-.18.45.45 0 0 1 .14.61z"/><path d="m61.11 38.14a.44.44 0 0 1 -.58.19.45.45 0 0 1 -.14-.61.42.42 0 0 1 .58-.18.44.44 0 0 1 .14.6z"/><path d="m59.83 36.07a.43.43 0 0 1 -.58.18.44.44 0 0 1 -.13-.61.42.42 0 0 1 .58-.18.44.44 0 0 1 .13.61z"/></g></svg>