<svg height="100" viewBox="0 0 100 100" width="100" xmlns="http://www.w3.org/2000/svg"><circle cx="20.76" cy="56.38" fill="#fff" r=".89"/><circle cx="79.81" cy="31.51" fill="#fff" r=".68"/><circle cx="21.25" cy="64.06" fill="#f1bc19" r=".89"/><circle cx="50.34" cy="49.88" fill="#c0e5e4" r="37.45"/><circle cx="82.62" cy="14.63" fill="#f1bc19" r="4.01"/><circle cx="86.61" cy="24.7" fill="#00a5a5" r="1.88"/><circle cx="77.64" cy="76.12" fill="#fbcd59" r="1.88"/><circle cx="14.48" cy="63.17" fill="#fbcd59" r="4.01"/><circle cx="24.72" cy="87.31" fill="#00a5a5" r="1.88"/><circle cx="76.29" cy="30" fill="#fff" r="1.8"/><circle cx="18.22" cy="51.06" fill="#fff" r="2.54"/><path d="m44.1 61.69a101.47 101.47 0 0 0 10.29 0c2.73-.24 5.51-1.21 7.11-3.19 10.17-12.67-4-31.08-18.55-30.69-10.82.29-13.54 34 1.15 33.88z" fill="#b28c72" stroke="#472b29" stroke-miterlimit="10" stroke-width=".5"/><path d="m61.47 41.89c.13-1.52-.32-2.82-.22-3.58-1.33-1.65-2.17-3.59-4-4.77a23.65 23.65 0 0 0 -6.78-2.83c-5.7-1.43-11.3 2.74-13.06 8.13l-.06.1a20.1 20.1 0 0 1 .37 2.94c-1.54 0-2.32.81-1.79 2.43 0 0 .6 2.63 1 3.89a1.49 1.49 0 0 0 1.48 1.2v2.51a4.49 4.49 0 0 0 .85 2.81c1.51 2.18 9.23 7.2 11.1 7 3 0 9-5.14 10.59-7.7a4 4 0 0 0 .47-1.69c0-1 0-2 0-3a1.51 1.51 0 0 0 1.27-1.19c.4-1.26 1-3.86 1-3.89.49-1.56-.69-2.39-2.22-2.36z" fill="#d8ad8f"/><path d="m66.09 67.46-.34-.12-.58-.24c-1.23-.53-9.26-3.27-9.26-3.27a1.86 1.86 0 0 1 -1.22-1.08 9 9 0 0 1 -.23-2.92 22.05 22.05 0 0 1 -4.23 1.43c-1.86.18-5.15-2.27-5.15-2.27s-.09 3-.22 3.71a1.66 1.66 0 0 1 -1.26 1.13l-7.74 2.58a7.91 7.91 0 0 0 -2.17.91 7.78 7.78 0 0 0 -3.28 4.68h-.05c0 .1-.05.32-.09.61a5.51 5.51 0 0 0 -.14 1.39c0 .47-.09 7-.13 7.52 13.43 10.41 35.89 2.93 40 1.4-.46-9.43.35-14.15-3.91-15.46z" fill="#b2876b"/><g fill="#f4989e" opacity=".3"><ellipse cx="42.69" cy="50.55" opacity=".8" rx="1.97" ry="2"/><ellipse cx="57.81" cy="50.55" opacity=".8" rx="1.97" ry="2"/></g><path d="m37.84 41.88.82 8.04" fill="none" stroke="#472b29" stroke-linecap="round" stroke-linejoin="round" stroke-width=".4"/><path d="m61.66 41.42-.49 8.07" fill="none" stroke="#472b29" stroke-linecap="round" stroke-linejoin="round" stroke-width=".4"/><path d="m46.64 54.63a1.91 1.91 0 0 0 -.06.48c0 1.39 1.54 2.53 3.45 2.53s3.45-1.14 3.45-2.53a1.91 1.91 0 0 0 -.06-.48z" fill="#6d1b18"/><path d="m51.85 57.25a3.06 3.06 0 0 0 -3.64 0 4.44 4.44 0 0 0 3.64 0z" fill="#ee3e54"/><path d="m47.63 54.63s0 0 0 0v.42c0 .38.5.68 1.1.68h2.62c.6 0 1.1-.3 1.1-.68v-.42s0 0 0 0z" fill="#fdfcef"/><path d="m46.64 54.63a1.91 1.91 0 0 0 -.06.48c0 1.39 1.54 2.53 3.45 2.53s3.45-1.14 3.45-2.53a1.91 1.91 0 0 0 -.06-.48z" fill="none" stroke="#472b29" stroke-linecap="round" stroke-linejoin="round" stroke-width=".4"/><path d="m41.08 64.67c-.22 9 17.4 9.57 16.18-.66l4.88 1.69 1.52 19.64s-15.45 5.42-28.5-.86l.7-18.07z" fill="#f1bc19"/><path d="m50 52.76a2.66 2.66 0 0 0 2-.9.14.14 0 0 0 0-.2.14.14 0 0 0 -.19 0 2.64 2.64 0 0 1 -3.58 0 .16.16 0 0 0 -.11 0 .11.11 0 0 0 -.08 0 .14.14 0 0 0 0 .2 2.66 2.66 0 0 0 1.96.9z" fill="#472b29" opacity=".41"/><path d="m50.92 59.48a.09.09 0 0 0 0-.18h-1.78a.09.09 0 0 0 0 .18z" fill="#472b29" opacity=".41"/><path d="m48 39.82a20.75 20.75 0 0 0 -7.44-.82.21.21 0 0 0 -.21.19.22.22 0 0 0 .19.2s5.08.88 6.64 1.43h.09a.24.24 0 0 0 .2-.08l.62-.67a.17.17 0 0 0 0-.18.2.2 0 0 0 -.09-.07z" fill="#512c2b"/><path d="m52 39.62a21 21 0 0 1 7.45-.39.21.21 0 0 1 .2.2.22.22 0 0 1 -.2.2s-5.12.61-6.71 1.08h-.08a.27.27 0 0 1 -.21-.09l-.57-.71a.14.14 0 0 1 0-.17.22.22 0 0 1 .12-.12z" fill="#512c2b"/><path d="m44.44 42.78a1.4 1.4 0 0 0 -1.21.83.69.69 0 0 1 .2 0 .83.83 0 0 1 0 1.65.67.67 0 0 1 -.37-.11 1.54 1.54 0 0 0 1.38 1.3 1.87 1.87 0 0 0 0-3.64z" fill="#472b29"/><path d="m55.43 42.78a1.34 1.34 0 0 0 -1.08.63.58.58 0 0 1 .26-.06.83.83 0 0 1 0 1.65.74.74 0 0 1 -.62-.36 1.48 1.48 0 1 0 1.44-1.86z" fill="#472b29"/><path d="m54.73 62.9a8.21 8.21 0 0 1 -.24-2.69 24.41 24.41 0 0 0 6.45-6 4 4 0 0 0 .47-1.69c0-1 0-2 0-3a1.49 1.49 0 0 0 1.27-1.19c.4-1.25 1-3.86 1-3.88.53-1.62-.64-2.46-2.18-2.43 0-.42.05-1.08.07-1a4.7 4.7 0 0 0 .43-1.71c0-6.23-5.55-11.31-12.4-11.31s-12.41 5.08-12.41 11.31a4.5 4.5 0 0 0 .47 1.69 10.18 10.18 0 0 1 .08 1c-1.54 0-2.32.82-1.79 2.44 0 0 .6 2.63 1 3.88a1.5 1.5 0 0 0 1.48 1.21v2.5a4.47 4.47 0 0 0 .85 2.81c.81 1.17 3.4 3.15 5.93 4.72 0 .73-.18 2.72-.28 3.26" fill="none" stroke="#472b29" stroke-linecap="round" stroke-linejoin="round"/><path d="m45.35 59.46s3.43 1.86 5.25 1.71a14 14 0 0 0 4.4-1.63" fill="none" stroke="#472b29" stroke-linecap="round" stroke-linejoin="round" stroke-width=".5"/><g fill="#472b29"><path d="m48.32 42.35c-2.25-2.74-10.72-.8-10.73-.8.16.62.29 1.23.41 1.83.63.07.67 1.48.73 2 .31 2.49 2 4.34 5.49 4.25a4.42 4.42 0 0 0 4.5-4.34 6.12 6.12 0 0 0 -.4-2.94zm-.4 3.06a3.68 3.68 0 0 1 -3.78 3.66h-.65c-3.5 0-4.1-3.07-4.17-5a2.07 2.07 0 0 1 1.86-2.17 21.27 21.27 0 0 1 2.2-.07c2.62 0 3.76.63 4.06 1.13a4.42 4.42 0 0 1 .48 2.45z"/><path d="m50.8 45.29a4.41 4.41 0 0 0 4.49 4.34c3.52.09 5.19-1.76 5.5-4.25.06-.52.1-1.93.73-2 .12-.6.25-1.21.41-1.83 0 0-8.48-1.94-10.73.8a6.12 6.12 0 0 0 -.4 2.94zm1.28-2.29c.3-.5 1.44-1.13 4.05-1.13a21.38 21.38 0 0 1 2.21.07 2.07 2.07 0 0 1 1.86 2.17c-.07 1.93-.67 5-4.17 5h-.65a3.68 3.68 0 0 1 -3.78-3.66 4.42 4.42 0 0 1 .48-2.45z"/><path d="m51.28 44.5a2.69 2.69 0 0 0 -1.58-.5 2.31 2.31 0 0 0 -1.46.46c-.15-.43-.31-.85-.46-1.27h4c-.19.46-.35.88-.5 1.31z"/></g><path d="m66.64 42.62c-4.11-.2-1.83-17-18.23-16.28-16.62.77-11.41 15.9-10.48 17.73.65-.19 4.51-5 6.15-8.29 4.04 5.95 17.85 10.22 22.56 6.84z" fill="#bd977c" stroke="#472b29" stroke-linejoin="round" stroke-width=".5"/><path d="m48.2 26.1c9.57 3.63 8.62 12.2 9 16.91 3.62.82 7.16.87 9.08-.52-4.09-.19-1.88-17.01-18.08-16.39z" fill="#9f8066"/><path d="m47.62 87.19c1.51.4 2.93-.7 4.3-.5l-.44-14.15h-3.48z" fill="#d12642"/><path d="m52.61 71.03-1.14 2.19h-3.49l-1.11-2.19 2.87-2.35z" fill="#ee3e54"/><path d="m66.11 67.47a2.87 2.87 0 0 1 -.34-.12l-.58-.24c-.6-.25-2.81-1-4.92-1.77l.26-.26-4.78-2.08-.53.49a2.07 2.07 0 0 1 -.51-.7 3.7 3.7 0 0 1 -.22-1.22c2.69-.25 5.42-1.22 7-3.18a15.41 15.41 0 0 0 2.71-14.51 6.25 6.25 0 0 0 2.42-1c-4.11-.2-1.83-17.45-18.23-16.67a15.78 15.78 0 0 0 -7.34 1.89c-9.21 3.86-10.76 33.58 3 33.47h.95c0 .49-.09.93-.13 1.14a1.34 1.34 0 0 1 -.59.81l-.6-.55-4.78 2.11.25.25-3.28 1.1a11 11 0 0 0 -2.17.91c-4.5 2.3-3.64 13.66-3.7 14.14 10.7 9.53 34.35 5 40 1.4-.44-9.37.37-14.1-3.89-15.41z" fill="none" stroke="#472b29" stroke-linecap="round" stroke-linejoin="round"/><path d="m49.74 68.68-3.67 3.86-7.14-7.33 4.78-2.1 1.48 1.36z" fill="#e6e7e8"/><path d="m49.74 68.68 3.67 3.86 7.14-7.33-4.78-2.1-1.47 1.36z" fill="#e6e7e8"/></svg>