<svg height="100" viewBox="0 0 100 100" width="100" xmlns="http://www.w3.org/2000/svg"><circle cx="22.06" cy="59.47" fill="#fff" r=".89"/><circle cx="81.11" cy="34.6" fill="#fff" r=".68"/><circle cx="78.48" cy="15.57" fill="#f1bc19" r=".89"/><circle cx="22.56" cy="67.15" fill="#f1bc19" r=".89"/><circle cx="51.38" cy="52.8" fill="#f9dbd2" r="37.45"/><circle cx="83.93" cy="17.72" fill="#f1bc19" r="4.01"/><circle cx="87.93" cy="26.79" fill="#ee3e54" r="1.88"/><circle cx="78.95" cy="79.21" fill="#fbcd59" r="1.88"/><circle cx="15.79" cy="66.26" fill="#fbcd59" r="4.01"/><circle cx="26.02" cy="90.4" fill="#ee3e54" r="1.88"/><circle cx="77.6" cy="33.09" fill="#fff" r="1.8"/><circle cx="19.53" cy="54.15" fill="#fff" r="2.54"/><path d="m61.46 44.68c.13-1.52-.32-2.83-.22-3.58-1.33-1.65-2.17-3.6-4-4.77a23.37 23.37 0 0 0 -6.78-2.83c-5.7-1.43-11.3 2.74-13.06 8.13l-.06.1a19.78 19.78 0 0 1 .37 2.94c-1.54 0-2.32.81-1.79 2.43 0 0 .6 2.63 1 3.88a1.5 1.5 0 0 0 1.48 1.21v2.5a4.5 4.5 0 0 0 .85 2.82c1.51 2.17 9.23 7.2 11.1 7 3 0 9-5.14 10.59-7.7a4 4 0 0 0 .47-1.68c0-1 0-2 0-3a1.48 1.48 0 0 0 1.23-1.13c.4-1.25 1-3.86 1-3.88.53-1.64-.64-2.48-2.18-2.44z" fill="#f6cca4"/><path d="m66.08 70.25-.34-.13-.58-.24c-1.23-.52-9.26-3.26-9.26-3.26a1.89 1.89 0 0 1 -1.22-1.08 9 9 0 0 1 -.23-2.92 22.35 22.35 0 0 1 -4.23 1.38c-1.86.19-5.15-2.27-5.15-2.27s-.09 3-.22 3.71a1.69 1.69 0 0 1 -1.26 1.14l-7.74 2.62a7.91 7.91 0 0 0 -2.17.91 7.78 7.78 0 0 0 -3.28 4.68c0 .1-.05.32-.09.6-.14.72-.16 6.23-.14 6.35 0 .46-.09 1-.13 1.51 7.63 5.26 13.77 6.73 24.29 6.26 4.78-.21 11.9-2.61 15.63-4.52-.49-9.38.38-13.44-3.88-14.74z" fill="#edbc94"/><g fill="#f4989e" opacity=".3"><ellipse cx="42.68" cy="53.34" opacity=".8" rx="1.97" ry="2"/><ellipse cx="57.8" cy="53.34" opacity=".8" rx="1.97" ry="2"/></g><path d="m37.83 44.66.82 8.05" fill="none" stroke="#472b29" stroke-linecap="round" stroke-linejoin="round" stroke-width=".4"/><path d="m61.65 44.2-.49 8.07" fill="none" stroke="#472b29" stroke-linecap="round" stroke-linejoin="round" stroke-width=".4"/><path d="m46.79 57.45a2 2 0 0 0 -.07.48c0 1.4 1.55 2.53 3.45 2.53s3.46-1.13 3.46-2.53a2 2 0 0 0 -.07-.48z" fill="#6d1b18"/><path d="m52 60.07a2.56 2.56 0 0 0 -1.83-.6 2.53 2.53 0 0 0 -1.82.6 4.47 4.47 0 0 0 3.65 0z" fill="#ee3e54"/><path d="m47.78 57.45a.09.09 0 0 0 0 0v.43c0 .37.49.67 1.09.67h2.63c.6 0 1.09-.3 1.09-.67v-.38a.09.09 0 0 0 0 0z" fill="#fdfcef"/><path d="m46.79 57.45a2 2 0 0 0 -.07.48c0 1.4 1.55 2.53 3.45 2.53s3.46-1.13 3.46-2.53a2 2 0 0 0 -.07-.48z" fill="none" stroke="#472b29" stroke-linecap="round" stroke-linejoin="round" stroke-width=".4"/><path d="m41.07 67.46c-.22 9 17.4 9.57 16.18-.67l4.88 1.7 1.49 19.35a45.27 45.27 0 0 1 -28.44-1.36l.67-17.28z" fill="#fbcd59"/><path d="m50.17 55.58a2.66 2.66 0 0 0 2-.9.14.14 0 0 0 0-.19.13.13 0 0 0 -.19 0 2.62 2.62 0 0 1 -3.59 0 .14.14 0 0 0 -.1 0 .18.18 0 0 0 -.09 0 .13.13 0 0 0 0 .19 2.64 2.64 0 0 0 1.97.9z" fill="#472b29" opacity=".41"/><path d="m51.06 62.3a.09.09 0 0 0 .08-.08.09.09 0 0 0 -.08-.09h-1.77a.08.08 0 0 0 -.08.09.08.08 0 0 0 .08.08z" fill="#472b29" opacity=".41"/><path d="m48.16 43.53a21.17 21.17 0 0 0 -7.42-.78.22.22 0 0 0 -.2.19.21.21 0 0 0 .19.21s5.07.88 6.64 1.43h.08a.3.3 0 0 0 .21-.08l.61-.68a.16.16 0 0 0 0-.17.23.23 0 0 0 -.11-.12z" fill="#512c2b"/><path d="m52.16 43.34a20.83 20.83 0 0 1 7.46-.34.2.2 0 0 1 0 .39s-5.12.61-6.72 1.03h-.08a.29.29 0 0 1 -.2-.09l-.62-.69a.19.19 0 0 1 0-.18.23.23 0 0 1 .16-.12z" fill="#512c2b"/><path d="m44.62 45.61a1.4 1.4 0 0 0 -1.21.83.71.71 0 0 1 .2 0 .83.83 0 0 1 0 1.66.68.68 0 0 1 -.37-.12 1.54 1.54 0 0 0 1.38 1.3 1.87 1.87 0 0 0 0-3.63z" fill="#472b29"/><path d="m55.61 45.61a1.33 1.33 0 0 0 -1.08.62.58.58 0 0 1 .26-.06.83.83 0 0 1 0 1.66.77.77 0 0 1 -.62-.36 1.48 1.48 0 1 0 1.44-1.86z" fill="#472b29"/><path d="m45.34 62.25s3.43 1.86 5.25 1.71a14 14 0 0 0 4.41-1.64" fill="none" stroke="#472b29" stroke-linecap="round" stroke-linejoin="round" stroke-width=".5"/><path d="m66.12 70.4-.34-.12-.58-.28c-1.23-.53-9.26-3.27-9.26-3.27a1.89 1.89 0 0 1 -1.22-1.08 8.24 8.24 0 0 1 -.24-2.7 24.39 24.39 0 0 0 6.45-6 4 4 0 0 0 .47-1.69c0-1 0-2 0-3a1.51 1.51 0 0 0 1.27-1.19c.4-1.26 1-3.86 1-3.89.53-1.62-.64-2.45-2.18-2.42 0-.43 0-1.08.07-1a4.7 4.7 0 0 0 .44-1.66c0-6.24-5.55-11.29-12.4-11.29s-12.42 5.05-12.42 11.29a4.57 4.57 0 0 0 .47 1.65 10.18 10.18 0 0 1 .08 1.07c-1.54 0-2.32.81-1.79 2.43 0 0 .6 2.63 1 3.89a1.49 1.49 0 0 0 1.48 1.2v2.51a4.49 4.49 0 0 0 .85 2.81c.81 1.17 3.4 3.15 5.93 4.71-.05.74-.18 2.72-.28 3.27a1.68 1.68 0 0 1 -1.26 1.13l-7.74 2.58a11 11 0 0 0 -2.17.91c-4.28 2.16-3.75 11.41-3.75 12.95a37.42 37.42 0 0 0 39.91 1.79c-.22-7.9.03-13.43-3.79-14.6z" fill="none" stroke="#472b29" stroke-linecap="round" stroke-linejoin="round"/><path d="m62.65 36.38c-.45-1.9-2.61-5.51-4.86-5.23a6.51 6.51 0 0 0 -2.53-3.4 9.1 9.1 0 0 0 -6.26-1.22c-3.49.47-7.7 1.69-10 4.47s-4.44 6.81-4.32 10.49a12.92 12.92 0 0 1 1.78-2 17.08 17.08 0 0 0 2.34 9.63 19.25 19.25 0 0 1 .9-6.53 11 11 0 0 0 .47 3c-.09-.31 4.58-7.38 9.84-9.13-.32.55-.61 1.11-.87 1.66s-1.11 4-1.46 4.12a15.13 15.13 0 0 0 6.61-5.24 4.88 4.88 0 0 0 .76-1.61h.4c0 .13.09.25.14.37a15.12 15.12 0 0 0 1.67 2.55c2.21 3.12 4.15 7 3.92 10.75 2.57-3.7 2.51-8.39 1.47-12.68z" fill="#512c2b"/></svg>