<svg height="100" viewBox="0 0 100 100" width="100" xmlns="http://www.w3.org/2000/svg"><circle cx="22.06" cy="58.47" fill="#fff" r=".89"/><circle cx="81.11" cy="33.6" fill="#fff" r=".68"/><circle cx="78.48" cy="14.57" fill="#f1bc19" r=".89"/><circle cx="22.56" cy="66.15" fill="#f1bc19" r=".89"/><circle cx="51.6" cy="51.8" fill="#fce0a2" r="37.45"/><circle cx="83.93" cy="16.72" fill="#f1bc19" r="4.01"/><circle cx="87.93" cy="25.79" fill="#ee3e54" r="1.88"/><circle cx="78.95" cy="78.21" fill="#fbcd59" r="1.88"/><circle cx="15.79" cy="65.26" fill="#fbcd59" r="4.01"/><circle cx="26.02" cy="89.4" fill="#ee3e54" r="1.88"/><circle cx="77.6" cy="32.09" fill="#fff" r="1.8"/><circle cx="19.53" cy="53.15" fill="#fff" r="2.54"/><ellipse cx="53.34" cy="36.6" fill="#b5374c" rx="9.14" ry="9.83" transform="matrix(.96931677 -.24581495 .24581495 .96931677 -7.36 14.23)"/><path d="m65.91 69.74c-.74-.52-10.23-3.8-10.23-3.8a1.46 1.46 0 0 1 -1-1.2 19 19 0 0 1 -.27-2.74 16.53 16.53 0 0 0 6.12-6 4 4 0 0 0 .47-1.69c0-1 0-2 0-3 .61-.09 2-.43 2.26-1.19.4-1.24 1-3.84 1-3.86.45-1.36-1-2.15-2.12-2.36a.41.41 0 0 1 -.25.06c-3.47-.27-7.13-2.37-10.1-4.06-2.45-1.41-5.52-2.66-7.28-5a31.6 31.6 0 0 0 -6.69-1.7 6.47 6.47 0 0 1 .23.79 1.85 1.85 0 0 0 -1.89 2.35c.09.4.65 5.27 1.06 6.92a.46.46 0 0 1 -.39.57c-1.35.17-2.64 1-2.18 2.39 0 0 .6 2.62 1 3.86.27.84 1.76 1.17 2.48 1.21v2.49a4.46 4.46 0 0 0 .85 2.8 17.57 17.57 0 0 0 5.68 5.27c0 1-.23 2.8-.23 2.8s-.44 1-1 1.2l-7.84 2.75a7.73 7.73 0 0 0 -2.18.94c-3.41 2.21-3.63 10.62-3.56 10.87l39.33-4a8.47 8.47 0 0 0 -3.27-6.67z" fill="#d8ad8f"/><path d="m38.54 34.31c-.24 0-.68.18-.87.21-1.51.25-1.38 1.33-1.38 1.33l1.43 7.74c0-.67.24-6.63 2.49-8.27a10.18 10.18 0 0 1 -1.67-1.01z" fill="#b5374c"/><path d="m47.39 41.9a20.84 20.84 0 0 0 -7.23 1.71.22.22 0 0 0 -.14.24.22.22 0 0 0 .25.13s5.06-.84 6.71-.83h.08a.27.27 0 0 0 .17-.14l.36-.84a.17.17 0 0 0 0-.18.23.23 0 0 0 -.2-.09z" fill="#772d3d"/><path d="m51.6 42.93a20.84 20.84 0 0 1 7.4-.38.21.21 0 0 1 .2.19.22.22 0 0 1 -.2.2s-5.09.61-6.68 1.08h-.08a.27.27 0 0 1 -.21-.09l-.57-.7a.2.2 0 0 1 0-.18.22.22 0 0 1 .14-.12z" fill="#772d3d"/><path d="m44.09 45.19a1.37 1.37 0 0 0 -1.2.83.64.64 0 0 1 .2 0 .82.82 0 0 1 0 1.64.67.67 0 0 1 -.37-.11 1.51 1.51 0 0 0 1.37 1.29 1.86 1.86 0 0 0 0-3.62z" fill="#472b29"/><path d="m55 45.19a1.31 1.31 0 0 0 -1.07.62.75.75 0 0 1 .26-.05.82.82 0 0 1 0 1.64.74.74 0 0 1 -.62-.35 1.47 1.47 0 1 0 1.43-1.86z" fill="#472b29"/><path d="m49.74 55.16a1.67 1.67 0 0 0 1.35-.75.29.29 0 0 0 0-.35.17.17 0 0 0 -.28 0 1.24 1.24 0 0 1 -1 .5 1.22 1.22 0 0 1 -1-.5.18.18 0 0 0 -.29 0 .3.3 0 0 0 0 .35 1.66 1.66 0 0 0 1.22.75z" fill="#472b29" opacity=".41"/><path d="m65.77 69.83a3.19 3.19 0 0 1 -.34-.13l-.57-.23c-1.22-.53-9.22-3.26-9.22-3.26a1.85 1.85 0 0 1 -1.22-1.07 10.87 10.87 0 0 1 -.21-3.26 15.92 15.92 0 0 1 -4.21 1.77c-1.86.19-5.06-1.62-5.06-1.62s-.17 2.39-.29 3.06a1.67 1.67 0 0 1 -1.26 1.12l-7.7 2.58a7.23 7.23 0 0 0 -5.43 5.56h-.06c0 .1-.05.32-.09.6-.14.71-.15 5.22-.13 5.34-.05.46-.09 1-.14 1.51a21.64 21.64 0 0 0 2.41 2.12 37.49 37.49 0 0 0 37.3.69c-.23-7.99.06-13.61-3.78-14.78z" fill="#b2876b"/><path d="m44.64 61.7s3.54 2 5.42 1.81a14 14 0 0 0 4.53-1.85" fill="none" stroke="#472b29" stroke-linecap="round" stroke-linejoin="round" stroke-width=".5"/><g fill="#f4989e" opacity=".3"><ellipse cx="42.48" cy="53" opacity=".8" rx="1.96" ry="1.99"/><ellipse cx="57.53" cy="53" opacity=".8" rx="1.96" ry="1.99"/></g><path d="m61.36 43.9-.45 7.36" fill="none" stroke="#472b29" stroke-linecap="round" stroke-linejoin="round" stroke-width=".6"/><path d="m46.31 57.55a1.84 1.84 0 0 0 -.06.47c0 1.39 1.54 2.52 3.43 2.52s3.44-1.13 3.44-2.52a1.84 1.84 0 0 0 -.06-.47z" fill="#6d1b18"/><path d="m51.5 60.15a3 3 0 0 0 -3.63 0 4.22 4.22 0 0 0 1.81.39 4.26 4.26 0 0 0 1.82-.39z" fill="#ee3e54"/><path d="m47.29 57.55v.45c0 .37.49.68 1.09.68h2.62c.6 0 1.09-.31 1.09-.68v-.43s0 0 0 0z" fill="#fdfcef"/><path d="m46.31 57.55a1.84 1.84 0 0 0 -.06.47c0 1.39 1.54 2.52 3.43 2.52s3.44-1.13 3.44-2.52a1.84 1.84 0 0 0 -.06-.47z" fill="none" stroke="#472b29" stroke-linecap="round" stroke-linejoin="round" stroke-width=".4"/><path d="m39 36.67s16.16 13 27.44 9.56c5-1.56 3.45-5.92 3.45-5.92s-2.42 3.74-5.21 1.84-8-24.4-23.19-15.28c-5.21 3.13-2.49 9.8-2.49 9.8z" fill="#ee3e54"/><path d="m69.93 40.54s-2.42 3.74-5.21 1.84-8.03-24.38-23.19-15.28c-.24.15-.45.31-.66.47 14.35-1 19.26 21 25.61 18.89 5-1.66 3.45-5.92 3.45-5.92z" fill="#e02b4a"/><circle cx="62.05" cy="49.51" fill="none" r=".53" stroke="#472b29" stroke-linecap="round" stroke-linejoin="round" stroke-width=".3"/><path d="m40.87 67.05c1.54 1.26 13 1.86 16.11-.66l4.86 1.69 1.49 19.32s-12.65 5.29-28.33-1.94l.67-16.67z" fill="#f1bc19"/><path d="m41.7 26.87c-5.21 3.16-2.46 9.8-2.46 9.8s16 13 27.26 9.56c5-1.56 3.43-5.92 3.43-5.92" fill="none" stroke="#472b29" stroke-linecap="round" stroke-linejoin="round" stroke-width=".6"/><g fill="#8e7469"><circle cx="46.57" cy="50.53" opacity=".8" r=".22" transform="matrix(.99832166 -.05791251 .05791251 .99832166 -2.85 2.78)"/><circle cx="46.89" cy="52.23" opacity=".8" r=".22" transform="matrix(.99832166 -.05791251 .05791251 .99832166 -2.95 2.8)"/><circle cx="48.35" cy="51.2" opacity=".8" r=".22" transform="matrix(.99832166 -.05791251 .05791251 .99832166 -2.88 2.89)"/><circle cx="51.54" cy="50.99" opacity=".8" r=".22" transform="matrix(.99832166 -.05791251 .05791251 .99832166 -2.87 3.07)"/><circle cx="52.49" cy="52.42" opacity=".8" r=".22" transform="matrix(.99832166 -.05791251 .05791251 .99832166 -2.95 3.13)"/><circle cx="53.44" cy="50.9" opacity=".8" r=".22" transform="matrix(.99832166 -.05791251 .05791251 .99832166 -2.86 3.18)"/></g><path d="m60.53 56a3.78 3.78 0 0 0 .47-1.7c0-1 0-2 0-2.95.61-.08 2-.43 2.27-1.18s.64-2.38.84-3.23a13.43 13.43 0 0 0 2.27-.46h.09l.2-.08c4.77-1.62 3.25-5.84 3.25-5.84s-2.42 3.74-5.2 1.83c-.64-.43-1.4-1.88-2.35-3.77a10.4 10.4 0 0 0 -.17-4.25 9.83 9.83 0 0 0 -8.11-7.46c-3.18-2.31-7.26-3-12.57.21-2.69 1.62-3.28 4.8-3.21 6.89-.17 0-.25.06-.26.09a1.89 1.89 0 0 0 -1.89 2.35c.12.89.86 7.25 1.27 7.45-1.53 0-3.31.81-2.78 2.42 0 0 .59 2.62 1 3.87.26.84 1.75 1.17 2.47 1.2v2.49a4.48 4.48 0 0 0 .88 2.79 17.66 17.66 0 0 0 5.67 5.27c0 1-.23 2.8-.23 2.8s-.44 1-1 1.19l-7.85 2.67a7.86 7.86 0 0 0 -2.18.94c-3.41 2.21-3.52 11.76-3.56 12.25 1.17 2.3 11.46 6.44 16.49 7.14 1.71.19 3.46.31 5.26.37a37.29 37.29 0 0 0 18-4.62c-.11-3.51-.11-6.56-.4-9 0-.06 0-.1 0-.16v-.2a2.23 2.23 0 0 0 0-.23c-.37-2.52-1.12-4.28-2.76-5.06-.13-.11-9.34-3.66-9.34-3.66l-1.29-.46a1.46 1.46 0 0 1 -1-1.19 20.73 20.73 0 0 1 -.4-2.72 16.41 16.41 0 0 0 6.12-6z" fill="none" stroke="#472b29" stroke-linecap="round" stroke-linejoin="round"/></svg>