<svg height="100" viewBox="0 0 100 100" width="100" xmlns="http://www.w3.org/2000/svg"><circle cx="20.75" cy="56.38" fill="#fff" r=".89"/><circle cx="79.8" cy="31.51" fill="#fff" r=".68"/><circle cx="77.17" cy="12.48" fill="#f1bc19" r=".89"/><circle cx="21.24" cy="64.06" fill="#f1bc19" r=".89"/><circle cx="50.28" cy="49.71" fill="#f9dbd2" r="37.45"/><circle cx="82.61" cy="14.63" fill="#f1bc19" r="4.01"/><circle cx="86.62" cy="23.7" fill="#ee3e54" r="1.88"/><circle cx="77.63" cy="76.12" fill="#fbcd59" r="1.88"/><circle cx="14.47" cy="63.17" fill="#fbcd59" r="4.01"/><circle cx="24.71" cy="87.31" fill="#ee3e54" r="1.88"/><circle cx="76.28" cy="30" fill="#fff" r="1.8"/><circle cx="18.21" cy="51.06" fill="#fff" r="2.54"/><path d="m64.1 64c0 .1 0 .18-.06.26a22.5 22.5 0 0 1 -.78 2.47 11.24 11.24 0 0 1 -1.67 3.18 4.67 4.67 0 0 1 -1 1 4.87 4.87 0 0 1 -2.78.75h-17a4.77 4.77 0 0 1 -2.88-.82 4.59 4.59 0 0 1 -.93-.89 11.24 11.24 0 0 1 -1.67-3.18 22.5 22.5 0 0 1 -.78-2.47l-.12-.3c-2.67-10.49-1.88-29.09 4.17-34.69a14.62 14.62 0 0 1 10.66-4.31 14.21 14.21 0 0 1 9 2.94 18.25 18.25 0 0 1 1.63 1.38 7 7 0 0 1 .6.62c5.51 6.25 6.19 23.95 3.61 34.06z" fill="#efa21b" stroke="#472b29" stroke-miterlimit="10"/><path d="m61.46 41.65c.13-1.52-.32-2.82-.22-3.58-1.33-1.65-2.17-3.59-4-4.77a23.65 23.65 0 0 0 -6.78-2.83c-5.7-1.43-11.3 2.74-13.06 8.13l-.06.1a20.1 20.1 0 0 1 .37 2.94c-1.54 0-2.32.81-1.79 2.43 0 0 .6 2.64 1 3.89a1.51 1.51 0 0 0 1.48 1.21v2.5a4.49 4.49 0 0 0 .85 2.81c1.51 2.18 9.23 7.2 11.1 7 3 0 9-5.14 10.59-7.7a4 4 0 0 0 .47-1.69c0-1 0-2 0-3a1.51 1.51 0 0 0 1.23-1.09c.4-1.25 1-3.86 1-3.89.53-1.66-.64-2.49-2.18-2.46z" fill="#f6cca4"/><path d="m66.08 67.22-.34-.12-.58-.24c-1.23-.53-9.26-3.27-9.26-3.27a1.86 1.86 0 0 1 -1.22-1.08 9 9 0 0 1 -.23-2.92 22.05 22.05 0 0 1 -4.23 1.41c-1.86.18-5.15-2.27-5.15-2.27s-.09 3-.22 3.71a1.66 1.66 0 0 1 -1.26 1.13l-7.74 2.58a16.79 16.79 0 0 0 -2.17.91c-4.36 1.86-3.61 13.76-3.65 14.3 6.8 7 16.3 5.48 26.83 5.48a25.23 25.23 0 0 0 13.14-4.06c-.43-9.38.34-14.25-3.92-15.56z" fill="#edbc94"/><g fill="#f4989e" opacity=".3"><ellipse cx="42.68" cy="50.32" opacity=".8" rx="1.97" ry="2"/><ellipse cx="57.8" cy="50.32" opacity=".8" rx="1.97" ry="2"/></g><path d="m37.83 41.64.82 8.04" fill="none" stroke="#472b29" stroke-linecap="round" stroke-linejoin="round" stroke-width=".4"/><path d="m61.65 41.18-.49 8.07" fill="none" stroke="#472b29" stroke-linecap="round" stroke-linejoin="round" stroke-width=".4"/><path d="m46.8 53.43a1.84 1.84 0 0 0 -.06.47c0 1.4 1.55 2.53 3.45 2.53s3.45-1.13 3.45-2.53a1.84 1.84 0 0 0 -.06-.47z" fill="#6d1b18"/><path d="m52 56a3.06 3.06 0 0 0 -3.64 0 4.44 4.44 0 0 0 3.64 0z" fill="#ee3e54"/><path d="m47.79 53.43v.47c0 .37.5.68 1.1.68h2.61c.6 0 1.1-.31 1.1-.68v-.47z" fill="#fdfcef"/><path d="m46.8 53.43a1.84 1.84 0 0 0 -.06.47c0 1.4 1.55 2.53 3.45 2.53s3.45-1.13 3.45-2.53a1.84 1.84 0 0 0 -.06-.47z" fill="none" stroke="#472b29" stroke-linecap="round" stroke-linejoin="round" stroke-width=".4"/><path d="m41.07 64.43 2.83-1 5.85 13.69 4.51-11.12 1.12-2.57 6.75 2 1.55 20.17s-14.38 4.22-28.8-1.34l1-18.09z" fill="#836f61"/><path d="m39.55 66.71 4.84 1.81-1.9 2.61 7.26 6.04-5.1-13.58z" fill="#fdfcef"/><path d="m59.95 66.71-5.1-3.12-5.1 13.58 7.26-6.04-1.9-2.61z" fill="#fdfcef"/><path d="m50.19 51.49a1.83 1.83 0 0 0 1.48-.83.15.15 0 0 0 0-.17.09.09 0 0 0 -.15 0 1.67 1.67 0 0 1 -2.64 0 .09.09 0 0 0 -.08 0 .09.09 0 0 0 -.06 0 .14.14 0 0 0 0 .17 1.8 1.8 0 0 0 1.45.83z" fill="#472b29" opacity=".41"/><path d="m51.08 58.28a.09.09 0 0 0 0-.18h-1.78a.09.09 0 0 0 0 .18z" fill="#472b29" opacity=".41"/><path d="m48.18 40.41a20.73 20.73 0 0 0 -7.42-.78.22.22 0 0 0 -.21.19.22.22 0 0 0 .19.2s5.08.88 6.65 1.43h.08a.23.23 0 0 0 .2-.08l.62-.68a.18.18 0 0 0 0-.17.22.22 0 0 0 -.11-.11z" fill="#512c2b"/><path d="m52.18 40.21a21 21 0 0 1 7.45-.39.21.21 0 0 1 .2.2.22.22 0 0 1 -.2.2s-5.11.61-6.71 1.08h-.08a.24.24 0 0 1 -.2-.09l-.58-.71a.15.15 0 0 1 0-.17.22.22 0 0 1 .12-.12z" fill="#512c2b"/><path d="m44.63 42.48a1.38 1.38 0 0 0 -1.2.83.64.64 0 0 1 .2 0 .83.83 0 0 1 0 1.65.67.67 0 0 1 -.37-.11 1.51 1.51 0 0 0 1.37 1.29 1.86 1.86 0 0 0 0-3.63z" fill="#472b29"/><path d="m55.63 42.48a1.31 1.31 0 0 0 -1.08.62.75.75 0 0 1 .26-.05.83.83 0 0 1 0 1.65.73.73 0 0 1 -.62-.36 1.48 1.48 0 1 0 1.44-1.86z" fill="#472b29"/><path d="m66.12 67.37a2.87 2.87 0 0 1 -.34-.12l-.58-.25c-1.23-.53-9.26-3.27-9.26-3.27a1.86 1.86 0 0 1 -1.22-1.08 8.18 8.18 0 0 1 -.24-2.65 24.25 24.25 0 0 0 6.45-6 4 4 0 0 0 .47-1.69c0-1 0-2 0-3a1.49 1.49 0 0 0 1.27-1.19c.4-1.25 1-3.86 1-3.88.53-1.62-.64-2.46-2.18-2.43 0-.42 0-1.08.07-1a4.69 4.69 0 0 0 .44-1.73c0-6.24-5.55-11.3-12.4-11.3s-12.41 5.06-12.41 11.3a4.49 4.49 0 0 0 .47 1.64 10.15 10.15 0 0 1 .08 1.08c-1.54 0-2.32.81-1.79 2.43 0 0 .6 2.63 1 3.88a1.5 1.5 0 0 0 1.48 1.21v2.5a4.47 4.47 0 0 0 .85 2.81c.81 1.17 3.4 3.15 5.93 4.72-.05.73-.18 2.72-.28 3.26a1.66 1.66 0 0 1 -1.26 1.13l-7.74 2.59a10.46 10.46 0 0 0 -2.17.91c-4.51 2.29-3.65 13.6-3.69 14.14 9.83 9.31 36.58 5.48 40 1.4-.5-9.38.31-14.1-3.95-15.41z" fill="none" stroke="#472b29" stroke-linecap="round" stroke-linejoin="round"/><path d="m45.34 59.22s3.43 1.86 5.25 1.71a14 14 0 0 0 4.41-1.63" fill="none" stroke="#472b29" stroke-linecap="round" stroke-linejoin="round" stroke-width=".5"/><path d="m50 25.73c-10.9.24-13.83 11-13.52 10.73a17 17 0 0 0 2.34 9.63 19.19 19.19 0 0 1 .9-6.52 10.85 10.85 0 0 0 .47 3c-.09-.31 4.58-7.38 9.84-9.13-.32.55-.61 1.11-.87 1.67s-1.11 4-1.46 4.11a15.18 15.18 0 0 0 6.59-5.22 5 5 0 0 0 .76-1.62h.4c0 .13.09.26.14.38a15.12 15.12 0 0 0 1.67 2.55c2.21 3.11 4.15 7 3.92 10.75 2.5-3.56 1.75-7.75.79-11.94.03-.12-3.08-8.59-11.97-8.39z" fill="#efa21b"/><g fill="#f4989e" opacity=".27"><circle cx="46.74" cy="47.37" opacity=".8" r=".22" transform="matrix(.99832166 -.05791251 .05791251 .99832166 -2.67 2.79)"/><circle cx="47.06" cy="49.07" opacity=".8" r=".22" transform="matrix(.99832166 -.05791251 .05791251 .99832166 -2.76 2.81)"/><circle cx="48.52" cy="48.05" opacity=".8" r=".22" transform="matrix(1 -.06 .06 1 -2.7 2.89)"/><circle cx="51.71" cy="47.83" opacity=".8" r=".22" transform="matrix(.99832166 -.05791251 .05791251 .99832166 -2.68 3.07)"/><circle cx="52.66" cy="49.26" opacity=".8" r=".22" transform="matrix(.99832166 -.05791251 .05791251 .99832166 -2.76 3.13)"/><circle cx="53.61" cy="47.74" opacity=".8" r=".22" transform="matrix(.99832166 -.05791251 .05791251 .99832166 -2.67 3.18)"/></g><path d="m36.45 36.48a17 17 0 0 0 2.34 9.63 19 19 0 0 1 .91-6.52 10.6 10.6 0 0 0 .46 3c-.09-.32 4.58-7.38 9.84-9.14-.32.55-.61 1.11-.87 1.67s-1.11 4-1.46 4.11a15.11 15.11 0 0 0 6.59-5.23 4.84 4.84 0 0 0 .74-1.64h.4c0 .12.09.25.14.37a15.12 15.12 0 0 0 1.67 2.55c2.21 3.11 4.35 7 4.12 10.73" fill="none" stroke="#472b29" stroke-linecap="round" stroke-linejoin="round" stroke-width=".5"/></svg>