<svg height="100" viewBox="0 0 100 100" width="100" xmlns="http://www.w3.org/2000/svg"><circle cx="20.75" cy="56.38" fill="#fff" r=".89"/><circle cx="79.8" cy="31.51" fill="#fff" r=".68"/><circle cx="77.17" cy="12.48" fill="#f1bc19" r=".89"/><circle cx="21.24" cy="64.06" fill="#f1bc19" r=".89"/><circle cx="50.28" cy="49.71" fill="#c0e5e4" r="37.45"/><circle cx="82.61" cy="14.63" fill="#f1bc19" r="4.01"/><circle cx="86.62" cy="23.7" fill="#00a5a5" r="1.88"/><circle cx="77.63" cy="76.12" fill="#fbcd59" r="1.88"/><circle cx="14.47" cy="63.17" fill="#fbcd59" r="4.01"/><circle cx="24.71" cy="87.31" fill="#00a5a5" r="1.88"/><circle cx="76.28" cy="30" fill="#fff" r="1.8"/><circle cx="18.21" cy="51.06" fill="#fff" r="2.54"/><path d="m61.46 41.89c.13-1.52-.32-2.82-.22-3.58-1.33-1.65-2.17-3.59-4-4.77a23.65 23.65 0 0 0 -6.78-2.83c-5.7-1.43-11.3 2.74-13.06 8.13l-.06.1a20.1 20.1 0 0 1 .37 2.94c-1.54 0-2.32.81-1.79 2.43 0 0 .6 2.63 1 3.89a1.49 1.49 0 0 0 1.48 1.2v2.51a4.49 4.49 0 0 0 .85 2.81c1.51 2.18 9.23 7.2 11.1 7 3 0 9-5.14 10.59-7.7a4 4 0 0 0 .47-1.69c0-1 0-2 0-3a1.51 1.51 0 0 0 1.27-1.19c.4-1.26 1-3.86 1-3.89.49-1.56-.68-2.39-2.22-2.36z" fill="#d8ad8f"/><path d="m66.08 67.46-.34-.12-.58-.24c-1.23-.53-9.26-3.27-9.26-3.27a1.86 1.86 0 0 1 -1.22-1.08 9 9 0 0 1 -.23-2.92 22.05 22.05 0 0 1 -4.23 1.43c-1.86.18-5.15-2.27-5.15-2.27s-.09 3-.22 3.71a1.66 1.66 0 0 1 -1.26 1.13l-7.74 2.58a7.91 7.91 0 0 0 -2.17.91 7.78 7.78 0 0 0 -3.28 4.68c0 .1-.05.32-.09.61a5.51 5.51 0 0 0 -.19 1.39c0 .47-.05 6.13-.09 6.67 6.8 7 14 6.53 24.49 6.53 4.63 0 13.07-1.73 15.45-5.28-.44-9.43.37-13.15-3.89-14.46z" fill="#b2876b"/><g fill="#f4989e" opacity=".3"><ellipse cx="42.68" cy="50.55" opacity=".8" rx="1.97" ry="2"/><ellipse cx="57.8" cy="50.55" opacity=".8" rx="1.97" ry="2"/></g><path d="m37.83 41.88.82 8.04" fill="none" stroke="#472b29" stroke-linecap="round" stroke-linejoin="round" stroke-width=".4"/><path d="m61.65 41.42-.49 8.07" fill="none" stroke="#472b29" stroke-linecap="round" stroke-linejoin="round" stroke-width=".4"/><path d="m46.63 54.63a1.91 1.91 0 0 0 -.06.48c0 1.39 1.54 2.53 3.45 2.53s3.45-1.14 3.45-2.53a1.91 1.91 0 0 0 -.06-.48z" fill="#6d1b18"/><path d="m51.84 57.25a3.06 3.06 0 0 0 -3.64 0 4.44 4.44 0 0 0 3.64 0z" fill="#ee3e54"/><path d="m47.62 54.63s0 0 0 0v.42c0 .38.5.68 1.1.68h2.62c.6 0 1.1-.3 1.1-.68v-.42s0 0 0 0z" fill="#fdfcef"/><path d="m46.63 54.63a1.91 1.91 0 0 0 -.06.48c0 1.39 1.54 2.53 3.45 2.53s3.45-1.14 3.45-2.53a1.91 1.91 0 0 0 -.06-.48z" fill="none" stroke="#472b29" stroke-linecap="round" stroke-linejoin="round" stroke-width=".4"/><path d="m50 52.76a2.66 2.66 0 0 0 2-.9.14.14 0 0 0 0-.2.14.14 0 0 0 -.19 0 2.64 2.64 0 0 1 -3.58 0 .16.16 0 0 0 -.11 0 .11.11 0 0 0 -.08 0 .14.14 0 0 0 0 .2 2.66 2.66 0 0 0 1.96.9z" fill="#472b29" opacity=".41"/><path d="m50.91 59.48a.09.09 0 0 0 0-.18h-1.78a.09.09 0 0 0 0 .18z" fill="#472b29" opacity=".41"/><path d="m48 40.71a21 21 0 0 0 -7.43-.78.21.21 0 0 0 -.2.19c0 .1.07.18.19.21a66.13 66.13 0 0 1 6.64 1.43h.08a.26.26 0 0 0 .21-.07l.61-.68a.17.17 0 0 0 0-.18.2.2 0 0 0 -.1-.12z" fill="#512c2b"/><path d="m52 40.51a21.07 21.07 0 0 1 7.46-.39.22.22 0 0 1 .19.2.21.21 0 0 1 -.2.2s-5.11.61-6.71 1.08h-.08a.28.28 0 0 1 -.2-.08l-.58-.71a.2.2 0 0 1 0-.18.24.24 0 0 1 .12-.12z" fill="#512c2b"/><path d="m44.43 42.78a1.4 1.4 0 0 0 -1.21.83.69.69 0 0 1 .2 0 .83.83 0 0 1 0 1.65.7.7 0 0 1 -.37-.11 1.54 1.54 0 0 0 1.38 1.3 1.87 1.87 0 0 0 0-3.64z" fill="#472b29"/><path d="m55.42 42.78a1.34 1.34 0 0 0 -1.08.63.58.58 0 0 1 .26-.06.83.83 0 0 1 0 1.65.74.74 0 0 1 -.62-.36 1.48 1.48 0 1 0 1.44-1.86z" fill="#472b29"/><path d="m41.31 64.78c1.53 1.21 12.93 1.84 16.11-.55l4.85 1.64 1.5 19.95s-14.22 3.69-28.43-1.52l.77-17.89z" fill="#00a5a5"/><g stroke="#472b29"><path d="m66.12 67.61-.34-.12-.58-.24c-1.2-.53-9.26-3.25-9.26-3.25a1.86 1.86 0 0 1 -1.22-1.08 8.21 8.21 0 0 1 -.24-2.69 24.41 24.41 0 0 0 6.45-6 4 4 0 0 0 .47-1.69c0-1 0-2 0-3a1.49 1.49 0 0 0 1.27-1.19c.4-1.25 1-3.86 1-3.88.54-1.62-.67-2.47-2.17-2.47 0-.42 0-1.08.07-1a4.7 4.7 0 0 0 .43-1.69c0-6.23-5.56-11.31-12.41-11.31s-12.41 5.08-12.41 11.31a4.5 4.5 0 0 0 .47 1.69 10.18 10.18 0 0 1 .08 1c-1.54 0-2.32.82-1.79 2.44 0 0 .6 2.63 1 3.88a1.5 1.5 0 0 0 1.48 1.21v2.5a4.47 4.47 0 0 0 .85 2.81c.81 1.17 3.4 3.15 5.93 4.72-.05.73-.18 2.72-.28 3.26a1.66 1.66 0 0 1 -1.29 1.18l-7.74 2.59a10.46 10.46 0 0 0 -2.17.91c-4.51 2.29-3.65 12.6-3.69 13.14 8.21 9.51 37.18 6.47 40 1.4-.46-9.4.35-13.12-3.91-14.43z" fill="none" stroke-linecap="round" stroke-linejoin="round"/><path d="m45.34 59.46s3.43 1.86 5.25 1.71a14 14 0 0 0 4.41-1.63" fill="none" stroke-linecap="round" stroke-linejoin="round" stroke-width=".5"/><path d="m59 25.82a3.1 3.1 0 0 0 -.08-.69 2.76 2.76 0 0 0 .07-.65 3 3 0 0 0 -2.21-2.83 3.34 3.34 0 0 0 -3.4-3 3.89 3.89 0 0 0 -6.77-.27 3.48 3.48 0 0 0 -.79-.09 3 3 0 0 0 -3.18 2.88v.16a3.37 3.37 0 0 0 -2.54 3.16 3.09 3.09 0 0 0 .8 2.06 2.62 2.62 0 0 0 -.62 1.68 3 3 0 0 0 3.17 2.77 3.29 3.29 0 0 0 1.26-.24 2.6 2.6 0 0 0 2.71 2.37 2.89 2.89 0 0 0 .84-.12 3.93 3.93 0 0 0 3 1.31 3.65 3.65 0 0 0 3.71-2.92 3.32 3.32 0 0 0 2.25-2.76 3.22 3.22 0 0 0 1.78-2.82z" fill="#efba43" stroke-miterlimit="10"/><path d="m49.75 24.9c-11.46 0-15.53 9.73-12.1 19.3a.5.5 0 0 0 1-.1c.45-5.43 3-10 11.15-7.68 8.12-2.32 10.7 2.25 11.15 7.68a.5.5 0 0 0 1 .1c3.33-9.57-.74-19.3-12.2-19.3z" fill="#fbcd59" stroke-miterlimit="10"/></g><path d="m48.28 43c-2.28-2.74-10.88-.8-10.89-.8.16.62.3 1.23.42 1.84.64.06.68 1.47.74 2 .31 2.5 2 4.34 5.57 4.25a4.43 4.43 0 0 0 4.56-4.34 6.34 6.34 0 0 0 -.4-2.95zm-.41 3.07a3.7 3.7 0 0 1 -3.87 3.64 4.89 4.89 0 0 1 -.66 0c-3.56 0-4.16-3.07-4.23-5a2.07 2.07 0 0 1 1.89-2.17c.65-.06 1.38-.06 2.23-.06 2.66 0 3.81.62 4.12 1.12a4.44 4.44 0 0 1 .52 2.46z" fill="#472b29"/><path d="m50.79 45.93a4.44 4.44 0 0 0 4.56 4.34c3.57.09 5.26-1.75 5.57-4.25.07-.52.1-1.93.74-2 .13-.61.26-1.22.42-1.84 0 0-8.6-1.94-10.88.8a6.11 6.11 0 0 0 -.41 2.95zm1.3-2.33c.3-.5 1.46-1.12 4.11-1.12.85 0 1.59 0 2.24.06a2.08 2.08 0 0 1 1.89 2.17c-.07 1.94-.68 5-4.23 5a4.89 4.89 0 0 1 -.66 0 3.69 3.69 0 0 1 -3.83-3.65 4.35 4.35 0 0 1 .48-2.46z" fill="#472b29"/><path d="m51.28 45.14a2.76 2.76 0 0 0 -1.6-.45 2.37 2.37 0 0 0 -1.48.45c-.16-.42-.32-.85-.47-1.27h4c-.14.42-.3.85-.45 1.27z" fill="#472b29"/><path d="m57 67.15a28 28 0 0 1 -7 .71 28 28 0 0 1 -7-.71 1.71 1.71 0 0 1 -1.6-1.8 1.72 1.72 0 0 1 1.6-1.81s4.37.53 6.85.53 7.15-.53 7.15-.53a1.72 1.72 0 0 1 1.6 1.81 1.71 1.71 0 0 1 -1.6 1.8z" fill="#00a5a5" stroke="#472b29" stroke-miterlimit="10" stroke-width=".7"/></svg>