<svg id="svg" version="1.1" xmlns="http://www.w3.org/2000/svg" xmlns:xlink="http://www.w3.org/1999/xlink" width="400" height="400" viewBox="0, 0, 400,400"><g id="svgg"><path id="path0" d="M140.400 56.400 C 140.400 56.620,140.170 56.800,139.888 56.800 C 139.607 56.800,139.112 57.182,138.788 57.649 C 138.465 58.116,137.975 58.733,137.700 59.020 C 135.725 61.084,137.561 74.400,139.820 74.400 C 140.139 74.400,140.400 74.580,140.400 74.800 C 140.400 75.020,141.034 75.200,141.810 75.200 C 143.297 75.200,143.846 75.937,144.168 78.367 C 144.349 79.731,145.582 83.299,146.039 83.780 C 146.238 83.989,146.400 84.484,146.400 84.880 C 146.400 85.276,146.580 85.600,146.800 85.600 C 147.020 85.600,147.200 85.960,147.200 86.400 C 147.200 86.840,147.336 87.200,147.502 87.200 C 147.669 87.200,148.058 87.772,148.368 88.472 C 148.678 89.172,149.441 90.279,150.065 90.931 C 150.689 91.584,151.200 92.275,151.200 92.466 C 151.200 92.893,157.068 98.800,157.494 98.801 C 157.662 98.801,158.430 99.344,159.200 100.006 C 159.970 100.669,161.095 101.432,161.700 101.703 C 162.305 101.974,162.800 102.331,162.800 102.498 C 162.800 102.664,163.039 102.800,163.332 102.800 C 163.625 102.800,164.749 103.248,165.831 103.796 C 166.913 104.343,168.110 104.692,168.492 104.571 C 168.874 104.450,170.244 104.621,171.535 104.952 C 177.891 106.580,186.420 106.654,190.400 105.115 C 190.950 104.902,192.467 104.658,193.771 104.573 C 195.075 104.487,196.245 104.270,196.371 104.090 C 196.497 103.911,197.950 103.103,199.600 102.295 C 201.250 101.487,203.125 100.415,203.767 99.913 C 205.608 98.472,211.600 92.429,211.600 92.012 C 211.600 91.806,212.005 91.223,212.500 90.718 C 212.995 90.213,213.850 88.900,214.400 87.800 C 214.950 86.700,215.535 85.740,215.700 85.667 C 215.865 85.593,216.000 85.295,216.000 85.004 C 216.000 84.714,216.336 83.784,216.748 82.938 C 217.646 81.091,218.400 78.787,218.400 77.890 C 218.400 76.273,219.303 75.200,220.664 75.200 C 221.689 75.200,222.372 74.828,223.600 73.600 L 225.200 72.000 225.200 65.600 L 225.200 59.200 223.577 57.577 C 222.180 56.180,221.749 55.972,220.477 56.077 L 219.000 56.200 218.888 61.992 C 218.745 69.452,218.715 69.455,215.260 62.387 L 212.333 56.400 181.256 56.400 L 150.179 56.400 147.212 62.376 C 145.580 65.663,144.100 68.262,143.923 68.152 C 143.745 68.043,143.600 65.263,143.600 61.976 L 143.600 56.000 142.000 56.000 C 141.120 56.000,140.400 56.180,140.400 56.400 M137.000 112.500 C 136.340 112.728,134.667 113.429,133.282 114.057 C 131.897 114.686,130.592 115.200,130.382 115.200 C 130.172 115.200,129.995 115.335,129.989 115.500 C 129.983 115.665,129.264 116.241,128.391 116.779 C 127.518 117.318,126.702 118.079,126.577 118.471 C 126.453 118.863,126.165 119.142,125.938 119.092 C 125.711 119.041,125.317 119.355,125.063 119.788 C 124.808 120.221,124.105 121.058,123.500 121.648 C 122.895 122.238,122.400 123.009,122.400 123.360 C 122.400 123.712,122.220 124.000,122.000 124.000 C 121.780 124.000,121.600 124.281,121.600 124.624 C 121.600 124.967,121.420 125.136,121.200 125.000 C 120.980 124.864,120.800 125.123,120.800 125.576 C 120.800 126.029,120.620 126.400,120.400 126.400 C 120.180 126.400,120.000 126.940,120.000 127.600 C 120.000 128.260,119.840 128.800,119.645 128.800 C 118.943 128.800,118.679 131.554,118.527 140.494 L 118.371 149.589 131.086 149.694 L 143.800 149.800 143.916 153.100 L 144.032 156.400 131.216 156.400 L 118.400 156.400 118.400 192.976 C 118.400 216.929,118.538 229.638,118.800 229.800 C 119.020 229.936,119.200 230.397,119.200 230.824 C 119.200 231.251,119.338 231.600,119.506 231.600 C 119.674 231.600,120.237 232.289,120.757 233.131 C 121.670 234.608,124.119 236.461,126.531 237.500 C 127.861 238.073,134.853 238.182,135.905 237.647 C 136.287 237.452,137.050 237.084,137.600 236.828 C 138.905 236.220,141.600 233.802,141.600 233.239 C 141.600 232.998,141.736 232.800,141.902 232.800 C 142.789 232.800,143.382 229.841,143.584 224.400 L 143.800 218.600 181.200 218.600 L 218.600 218.600 218.888 224.916 C 219.106 229.695,219.321 231.378,219.774 231.831 C 220.103 232.160,220.667 232.928,221.027 233.539 C 221.681 234.645,224.330 236.552,226.531 237.500 C 227.861 238.073,234.853 238.182,235.905 237.647 C 236.287 237.452,237.050 237.084,237.600 236.828 C 238.868 236.237,241.600 233.809,241.600 233.273 C 241.600 233.049,241.743 232.807,241.919 232.733 C 242.094 232.660,242.634 231.747,243.119 230.704 L 244.000 228.809 244.000 192.610 L 244.000 156.411 231.300 156.306 L 218.600 156.200 218.600 153.000 L 218.600 149.800 231.300 149.694 L 244.000 149.589 244.000 140.418 C 244.000 134.736,243.848 131.153,243.600 131.000 C 243.380 130.864,243.200 130.401,243.200 129.971 C 243.200 129.216,243.056 128.826,242.062 126.905 C 241.808 126.413,241.600 125.738,241.600 125.405 C 241.600 125.072,241.432 124.800,241.227 124.800 C 241.022 124.800,240.741 124.444,240.603 124.009 C 240.273 122.969,237.579 119.772,237.141 119.900 C 236.953 119.955,236.845 119.841,236.900 119.648 C 237.023 119.214,233.445 116.000,232.839 116.000 C 232.597 116.000,232.400 115.820,232.400 115.600 C 232.400 115.380,232.029 115.200,231.576 115.200 C 231.123 115.200,230.852 115.039,230.973 114.843 C 231.095 114.647,230.385 114.248,229.397 113.956 C 228.409 113.664,227.600 113.264,227.600 113.066 C 227.600 112.868,227.151 112.793,226.603 112.897 C 226.035 113.006,225.410 112.854,225.154 112.544 C 224.791 112.107,222.309 112.000,212.551 112.000 L 200.400 112.000 200.400 113.734 C 200.400 126.589,185.286 135.406,172.963 129.739 C 171.842 129.224,170.557 128.487,170.106 128.101 C 169.655 127.716,168.855 127.040,168.327 126.600 C 164.981 123.812,162.416 118.484,162.406 114.300 L 162.400 112.000 150.300 112.043 C 143.102 112.068,137.714 112.253,137.000 112.500 " stroke="none" fill="#f8c3b2" fill-rule="evenodd"></path><path id="path1" d="M173.133 12.382 C 173.060 12.593,172.325 12.810,171.500 12.864 C 170.675 12.919,170.000 13.107,170.000 13.282 C 170.000 13.457,169.460 13.600,168.800 13.600 C 168.140 13.600,167.600 13.780,167.600 14.000 C 167.600 14.220,167.240 14.400,166.800 14.400 C 166.360 14.400,166.000 14.580,166.000 14.800 C 166.000 15.020,165.640 15.200,165.200 15.200 C 164.760 15.200,164.400 15.380,164.400 15.600 C 164.400 15.820,163.950 16.000,163.400 16.000 C 162.850 16.000,162.400 16.159,162.400 16.354 C 162.400 16.549,161.759 17.013,160.976 17.385 C 160.193 17.756,159.453 18.317,159.333 18.630 C 159.213 18.944,158.861 19.200,158.552 19.200 C 157.971 19.200,150.400 26.543,150.400 27.107 C 150.400 27.281,150.040 27.683,149.600 28.000 C 149.160 28.317,148.800 28.882,148.800 29.255 C 148.800 29.628,148.665 29.993,148.500 30.067 C 148.076 30.255,145.600 35.199,145.600 35.856 C 145.600 36.155,145.459 36.400,145.287 36.400 C 145.115 36.400,144.934 36.885,144.885 37.478 C 144.836 38.070,144.658 38.655,144.489 38.778 C 144.321 38.900,144.126 39.630,144.058 40.400 C 143.989 41.170,143.768 41.971,143.566 42.180 C 143.060 42.705,143.091 55.886,143.600 56.200 C 143.836 56.346,144.001 58.773,144.002 62.124 L 144.003 67.800 146.903 62.000 L 149.802 56.200 181.201 56.200 L 212.600 56.200 215.440 61.758 C 217.002 64.815,218.382 67.152,218.506 66.952 C 218.992 66.165,219.327 42.526,218.857 42.235 C 218.606 42.080,218.400 41.344,218.400 40.600 C 218.400 39.856,218.256 39.158,218.079 39.049 C 217.903 38.940,217.510 37.939,217.207 36.825 C 216.904 35.711,216.508 34.800,216.328 34.800 C 216.147 34.800,216.000 34.440,216.000 34.000 C 216.000 33.560,215.820 33.200,215.600 33.200 C 215.380 33.200,215.200 32.840,215.200 32.400 C 215.200 31.960,215.009 31.600,214.776 31.600 C 214.543 31.600,214.455 31.435,214.580 31.232 C 214.705 31.030,214.536 30.593,214.204 30.261 C 213.872 29.929,213.600 29.447,213.600 29.189 C 213.600 28.932,213.060 28.217,212.400 27.600 C 211.740 26.983,211.200 26.367,211.200 26.229 C 211.200 26.091,210.435 25.184,209.500 24.213 C 208.565 23.241,207.335 21.906,206.766 21.245 C 206.198 20.585,205.480 19.989,205.170 19.922 C 204.861 19.855,204.129 19.305,203.543 18.700 C 202.958 18.095,202.191 17.600,201.840 17.600 C 201.488 17.600,201.200 17.420,201.200 17.200 C 201.200 16.980,200.840 16.800,200.400 16.800 C 199.960 16.800,199.600 16.620,199.600 16.400 C 199.600 16.180,199.240 16.000,198.800 16.000 C 198.360 16.000,198.000 15.820,198.000 15.600 C 198.000 15.380,197.640 15.200,197.200 15.200 C 196.760 15.200,196.400 15.020,196.400 14.800 C 196.400 14.580,196.051 14.400,195.624 14.400 C 195.197 14.400,194.736 14.220,194.600 14.000 C 194.464 13.780,193.913 13.600,193.376 13.600 C 192.839 13.600,192.400 13.420,192.400 13.200 C 192.400 12.980,191.781 12.800,191.024 12.800 C 190.267 12.800,189.536 12.620,189.400 12.400 C 189.075 11.874,173.316 11.857,173.133 12.382 M256.000 18.600 L 256.000 25.200 265.400 25.200 L 274.800 25.200 274.800 37.400 L 274.800 49.600 268.400 49.600 L 262.000 49.600 262.000 56.200 L 262.000 62.800 268.400 62.800 L 274.800 62.800 274.800 75.000 L 274.800 87.200 265.400 87.200 L 256.000 87.200 256.000 93.800 L 256.000 100.400 265.400 100.400 L 274.800 100.400 274.800 112.600 L 274.800 124.800 268.400 124.800 L 262.000 124.800 262.000 131.400 L 262.000 138.000 268.400 138.000 L 274.800 138.000 274.800 150.000 L 274.800 162.000 265.400 162.000 L 256.000 162.000 256.000 168.600 L 256.000 175.200 265.400 175.200 L 274.800 175.200 274.800 187.400 L 274.800 199.600 268.400 199.600 L 262.000 199.600 262.000 206.200 L 262.000 212.800 268.400 212.800 L 274.800 212.800 274.800 293.800 L 274.800 374.800 265.400 374.800 L 256.000 374.800 256.000 381.400 L 256.000 388.000 272.000 388.000 L 288.000 388.000 288.000 200.000 L 288.000 12.000 272.000 12.000 L 256.000 12.000 256.000 18.600 M143.802 223.498 C 143.505 229.169,143.094 367.061,143.371 368.200 C 143.561 368.983,143.896 369.000,159.383 369.000 L 175.200 369.000 175.200 312.900 L 175.200 256.800 181.199 256.800 L 187.197 256.800 187.299 312.806 L 187.400 368.812 203.200 368.824 L 219.000 368.837 219.095 301.118 C 219.147 263.873,219.057 230.160,218.895 226.200 L 218.600 219.000 181.324 218.898 L 144.049 218.796 143.802 223.498 " stroke="none" fill="#6c84b4" fill-rule="evenodd"></path><path id="path2" d="M162.405 113.283 C 162.438 122.614,171.443 131.200,181.196 131.200 C 191.030 131.200,199.966 122.786,199.995 113.500 L 200.000 112.000 197.008 112.000 C 194.065 112.000,194.012 112.018,193.789 113.100 C 192.857 117.642,191.593 120.104,189.237 121.971 C 181.265 128.285,169.689 123.450,168.716 113.400 L 168.600 112.200 165.500 112.083 L 162.400 111.966 162.405 113.283 M118.400 153.000 L 118.400 156.000 131.000 156.000 L 143.600 156.000 143.600 153.000 L 143.600 150.000 131.000 150.000 L 118.400 150.000 118.400 153.000 M218.800 153.000 L 218.800 156.000 231.400 156.000 L 244.000 156.000 244.000 153.000 L 244.000 150.000 231.400 150.000 L 218.800 150.000 218.800 153.000 " stroke="none" fill="#fc7c7c" fill-rule="evenodd"></path><path id="path3" d="M168.498 109.500 C 168.615 112.305,168.936 115.140,169.212 115.800 C 169.487 116.460,169.954 117.560,170.248 118.243 C 172.555 123.598,180.555 126.436,186.138 123.880 C 191.520 121.416,193.585 117.592,193.905 109.500 C 194.131 103.766,194.275 103.994,191.057 104.963 C 185.439 106.654,178.100 106.658,171.634 104.973 C 168.046 104.039,168.257 103.733,168.498 109.500 M200.062 113.400 C 199.875 117.573,198.049 121.718,194.818 125.311 C 193.123 127.195,192.904 127.562,193.889 126.869 C 194.598 126.370,195.491 125.430,195.875 124.781 C 196.259 124.131,196.695 123.600,196.844 123.600 C 197.885 123.600,200.538 115.747,200.296 113.382 L 200.134 111.800 200.062 113.400 M162.446 116.000 C 162.427 116.550,162.587 117.270,162.800 117.600 C 163.294 118.364,163.294 117.542,162.800 116.000 L 162.480 115.000 162.446 116.000 M163.210 118.716 C 163.186 119.945,166.210 124.751,168.045 126.400 C 174.471 132.172,182.080 133.245,189.900 129.483 C 191.275 128.822,192.400 128.125,192.400 127.935 C 192.400 127.745,191.702 128.031,190.848 128.570 C 181.850 134.250,169.165 130.455,164.414 120.661 C 163.758 119.308,163.216 118.432,163.210 118.716 M131.000 149.906 L 143.600 150.011 143.600 153.000 L 143.600 155.989 130.900 156.100 L 118.200 156.212 131.116 156.306 L 144.032 156.400 143.916 153.100 L 143.800 149.800 131.100 149.800 L 118.400 149.800 131.000 149.906 M218.568 150.140 C 218.454 150.437,218.415 151.922,218.480 153.440 L 218.600 156.200 231.200 156.208 L 243.800 156.217 231.300 156.103 L 218.800 155.989 218.800 153.000 L 218.800 150.011 231.500 149.900 L 244.200 149.788 231.487 149.694 C 221.123 149.617,218.737 149.700,218.568 150.140 " stroke="none" fill="#fcbb8b" fill-rule="evenodd"></path><path id="path4" d="M149.728 56.498 C 149.551 56.774,148.194 59.427,146.714 62.394 L 144.023 67.788 143.900 61.994 L 143.776 56.200 143.688 62.076 C 143.640 65.308,143.745 68.043,143.923 68.152 C 144.100 68.262,145.580 65.663,147.212 62.376 L 150.179 56.400 181.256 56.400 L 212.333 56.400 215.252 62.371 C 217.923 67.833,218.800 69.055,218.800 67.310 C 218.800 66.956,218.673 66.793,218.518 66.948 C 218.363 67.103,216.968 64.748,215.418 61.715 L 212.600 56.200 181.325 56.098 C 156.572 56.016,149.983 56.100,149.728 56.498 M143.773 218.927 C 143.661 219.217,143.629 221.332,143.701 223.627 L 143.831 227.800 143.916 223.296 L 144.000 218.792 181.362 218.896 C 201.911 218.953,218.640 218.865,218.538 218.700 C 218.176 218.114,143.998 218.339,143.773 218.927 M142.228 368.924 C 140.816 369.795,138.000 372.770,138.000 373.389 C 138.000 373.725,137.820 374.000,137.600 374.000 C 137.359 374.000,137.200 375.667,137.200 378.200 C 137.200 380.733,137.359 382.400,137.600 382.400 C 137.820 382.400,138.000 382.675,138.000 383.011 C 138.000 383.791,141.390 387.200,142.166 387.200 C 142.489 387.200,142.864 387.380,143.000 387.600 C 143.545 388.481,174.988 388.106,176.603 387.199 C 178.428 386.173,180.800 383.808,180.800 383.013 C 180.800 382.676,180.980 382.400,181.200 382.400 C 181.420 382.400,181.600 382.675,181.600 383.011 C 181.600 383.804,184.996 387.200,185.789 387.200 C 186.125 387.200,186.400 387.380,186.400 387.600 C 186.400 388.233,218.746 388.137,220.117 387.500 C 220.709 387.225,221.195 386.865,221.197 386.700 C 221.199 386.535,221.393 386.400,221.629 386.400 C 222.186 386.400,222.915 385.655,224.177 383.796 C 225.264 382.194,225.785 374.000,224.800 374.000 C 224.580 374.000,224.421 373.865,224.447 373.700 C 224.578 372.874,224.272 372.332,222.831 370.833 C 221.969 369.935,220.994 369.200,220.665 369.200 C 220.336 369.200,219.996 368.988,219.910 368.729 C 219.823 368.470,219.542 368.388,219.285 368.547 C 218.688 368.917,187.693 368.905,187.095 368.535 C 186.849 368.383,186.577 368.470,186.490 368.729 C 186.404 368.988,186.074 369.200,185.756 369.200 C 184.987 369.200,181.600 372.614,181.600 373.389 C 181.600 373.725,181.420 374.000,181.200 374.000 C 180.980 374.000,180.800 373.725,180.800 373.389 C 180.800 372.614,177.413 369.200,176.644 369.200 C 176.326 369.200,175.975 368.975,175.864 368.700 C 175.732 368.376,175.545 368.341,175.330 368.600 C 174.942 369.070,143.600 369.169,143.600 368.700 C 143.600 368.286,143.140 368.361,142.228 368.924 " stroke="none" fill="#c4c4cc" fill-rule="evenodd"></path></g></svg>