<svg id="svg" version="1.1" xmlns="http://www.w3.org/2000/svg" xmlns:xlink="http://www.w3.org/1999/xlink" width="400" height="400" viewBox="0, 0, 400,400"><g id="svgg"><path id="path0" d="M76.900 125.465 C 76.595 125.588,76.400 126.434,76.400 127.633 C 76.400 128.715,76.230 129.600,76.021 129.600 C 75.813 129.600,75.672 130.330,75.707 131.223 C 75.743 132.116,75.578 132.971,75.341 133.123 C 75.103 133.275,74.930 134.261,74.955 135.314 C 74.980 136.367,74.800 137.357,74.555 137.514 C 74.310 137.671,74.130 138.685,74.155 139.767 C 74.184 141.037,74.020 141.793,73.691 141.903 C 73.325 142.025,73.253 142.606,73.433 143.966 C 73.625 145.414,73.534 146.009,73.045 146.497 C 72.561 146.982,72.467 147.575,72.656 148.958 C 72.841 150.303,72.734 151.042,72.247 151.784 C 71.774 152.506,71.660 153.235,71.842 154.375 C 72.141 156.245,71.722 158.923,71.183 158.590 C 70.952 158.447,70.905 159.518,71.061 161.361 C 71.264 163.764,71.185 164.563,70.669 165.350 C 70.168 166.116,70.078 166.911,70.265 168.917 C 70.515 171.594,70.154 175.342,69.674 175.046 C 69.523 174.953,69.400 178.399,69.400 182.704 C 69.400 188.611,69.277 190.574,68.900 190.700 C 68.541 190.820,68.400 192.096,68.400 195.233 L 68.400 199.600 78.000 199.600 L 87.600 199.600 87.604 192.900 C 87.610 181.409,89.029 163.364,91.040 149.200 C 91.974 142.619,94.068 130.653,95.046 126.300 L 95.293 125.200 86.347 125.232 C 81.426 125.249,77.175 125.354,76.900 125.465 M106.845 131.900 C 104.987 141.500,104.915 141.896,104.425 145.098 C 103.238 152.864,103.225 152.959,101.993 163.200 C 101.172 170.025,100.000 188.932,100.000 195.342 L 100.000 199.581 130.500 199.707 C 164.053 199.847,163.924 199.838,171.731 202.432 C 187.689 207.735,200.255 220.908,204.322 236.600 C 205.343 240.540,205.550 241.664,206.031 245.906 L 206.543 250.411 218.766 250.306 C 229.282 250.215,230.999 250.116,231.057 249.600 C 231.801 242.981,232.096 240.764,232.386 239.600 C 233.269 236.050,233.705 234.548,234.039 233.905 C 234.238 233.523,234.400 233.025,234.400 232.797 C 234.400 232.058,237.489 225.735,239.022 223.336 C 247.100 210.697,258.325 203.372,274.200 200.379 L 279.000 199.474 324.100 199.715 L 369.200 199.956 369.200 190.402 C 369.200 184.464,369.049 180.754,368.800 180.600 C 368.565 180.455,368.400 178.121,368.400 174.953 C 368.400 171.455,368.259 169.640,368.000 169.800 C 367.743 169.959,367.600 168.537,367.600 165.824 C 367.600 163.275,367.441 161.600,367.200 161.600 C 366.969 161.600,366.800 160.341,366.800 158.624 C 366.800 156.987,366.620 155.536,366.400 155.400 C 366.180 155.264,366.000 153.903,366.000 152.376 C 366.000 150.792,365.828 149.600,365.600 149.600 C 365.374 149.600,365.200 148.467,365.200 147.000 C 365.200 145.533,365.026 144.400,364.800 144.400 C 364.580 144.400,364.400 143.421,364.400 142.224 C 364.400 141.027,364.220 139.936,364.000 139.800 C 363.780 139.664,363.600 138.573,363.600 137.376 C 363.600 136.179,363.420 135.200,363.200 135.200 C 362.980 135.200,362.800 134.300,362.800 133.200 C 362.800 132.100,362.620 131.200,362.400 131.200 C 362.180 131.200,362.000 130.390,362.000 129.400 C 362.000 128.410,361.820 127.600,361.600 127.600 C 361.380 127.600,361.200 127.060,361.200 126.400 L 361.200 125.200 234.671 125.200 L 108.142 125.200 106.845 131.900 M33.421 131.550 C 31.551 132.647,30.862 134.217,30.829 137.454 C 30.803 140.023,31.557 142.810,32.194 142.500 C 32.763 142.224,33.200 142.470,33.200 143.067 C 33.200 143.433,33.309 143.624,33.442 143.491 C 33.747 143.186,35.600 145.007,35.600 145.610 C 35.600 146.192,36.614 147.200,37.200 147.200 C 37.862 147.200,38.800 148.239,38.800 148.971 C 38.800 149.339,39.142 149.600,39.624 149.600 C 40.077 149.600,40.336 149.780,40.200 150.000 C 40.064 150.220,40.233 150.400,40.576 150.400 C 40.933 150.400,41.200 150.742,41.200 151.200 C 41.200 151.733,41.467 152.000,42.000 152.000 C 42.440 152.000,42.800 152.180,42.800 152.400 C 42.800 152.620,42.801 152.889,42.802 152.999 C 42.804 153.380,44.547 155.200,44.909 155.200 C 45.110 155.200,45.731 155.560,46.291 156.000 C 47.088 156.627,47.914 156.800,50.111 156.800 L 52.914 156.800 54.857 154.857 L 56.800 152.914 56.800 150.111 C 56.800 147.914,56.627 147.088,56.000 146.291 C 55.560 145.731,55.200 145.110,55.200 144.909 C 55.200 144.334,53.267 142.803,52.497 142.768 C 52.098 142.750,52.009 142.652,52.289 142.539 C 52.927 142.280,51.086 140.400,50.195 140.400 C 49.842 140.400,49.664 140.220,49.800 140.000 C 49.936 139.780,49.756 139.600,49.400 139.600 C 49.044 139.600,48.858 139.429,48.988 139.220 C 49.294 138.724,44.876 134.306,44.380 134.612 C 44.171 134.742,44.000 134.554,44.000 134.195 C 44.000 133.425,43.065 132.400,42.362 132.400 C 42.090 132.400,41.984 132.283,42.127 132.139 C 43.399 130.868,35.496 130.333,33.421 131.550 M32.479 170.240 L 30.759 172.022 30.836 175.211 C 30.878 176.965,31.067 178.400,31.256 178.400 C 31.445 178.400,31.600 178.578,31.600 178.795 C 31.600 179.404,32.915 180.800,33.489 180.800 C 33.770 180.800,34.000 180.980,34.000 181.200 C 34.000 181.915,52.998 181.725,53.596 181.004 C 53.868 180.677,54.217 180.487,54.372 180.583 C 54.527 180.679,54.912 180.385,55.227 179.930 C 55.542 179.474,56.007 178.885,56.260 178.620 C 57.102 177.736,56.849 171.937,55.934 171.143 C 55.501 170.767,55.183 170.315,55.226 170.136 C 55.543 168.824,53.013 168.458,43.600 168.458 L 34.200 168.458 32.479 170.240 M46.291 194.000 C 45.731 194.440,45.110 194.800,44.909 194.800 C 44.225 194.800,42.800 196.692,42.800 197.600 C 42.800 197.820,42.440 198.000,42.000 198.000 C 41.467 198.000,41.200 198.267,41.200 198.800 C 41.200 199.258,40.933 199.600,40.576 199.600 C 40.233 199.600,40.064 199.780,40.200 200.000 C 40.336 200.220,40.077 200.400,39.624 200.400 C 39.142 200.400,38.800 200.661,38.800 201.029 C 38.800 201.761,37.862 202.800,37.200 202.800 C 36.614 202.800,35.600 203.808,35.600 204.390 C 35.600 204.993,33.747 206.814,33.442 206.509 C 33.309 206.376,33.200 206.567,33.200 206.933 C 33.200 207.528,32.991 207.657,32.155 207.577 C 29.557 207.328,30.664 216.832,33.421 218.450 C 35.496 219.667,43.399 219.132,42.127 217.861 C 41.984 217.717,42.090 217.600,42.362 217.600 C 43.065 217.600,44.000 216.575,44.000 215.805 C 44.000 215.446,44.171 215.258,44.380 215.388 C 44.876 215.694,49.294 211.276,48.988 210.780 C 48.858 210.571,49.044 210.400,49.400 210.400 C 49.756 210.400,49.936 210.220,49.800 210.000 C 49.664 209.780,49.842 209.600,50.195 209.600 C 51.086 209.600,52.927 207.720,52.289 207.461 C 52.009 207.348,52.098 207.250,52.497 207.232 C 53.267 207.197,55.200 205.666,55.200 205.091 C 55.200 204.890,55.560 204.269,56.000 203.709 C 56.627 202.912,56.800 202.086,56.800 199.889 L 56.800 197.086 54.857 195.143 L 52.914 193.200 50.111 193.200 C 47.914 193.200,47.088 193.373,46.291 194.000 " stroke="none" fill="#515666" fill-rule="evenodd"></path><path id="path1" d="M307.030 13.500 C 307.177 14.325,307.455 15.171,307.649 15.380 C 307.842 15.589,308.000 16.163,308.000 16.656 C 308.000 17.149,308.180 17.664,308.400 17.800 C 308.620 17.936,308.800 18.476,308.800 19.000 C 308.800 19.524,308.980 20.064,309.200 20.200 C 309.420 20.336,309.600 20.876,309.600 21.400 C 309.600 21.924,309.780 22.464,310.000 22.600 C 310.220 22.736,310.400 23.276,310.400 23.800 C 310.400 24.324,310.580 24.864,310.800 25.000 C 311.020 25.136,311.200 25.676,311.200 26.200 C 311.200 26.724,311.380 27.264,311.600 27.400 C 311.820 27.536,312.000 27.999,312.000 28.429 C 312.000 28.859,312.178 29.523,312.396 29.905 C 312.743 30.515,317.418 44.666,320.884 55.600 C 321.547 57.690,322.249 59.713,322.445 60.095 C 322.640 60.477,322.800 61.064,322.800 61.400 C 322.800 61.736,322.962 62.323,323.161 62.705 C 323.360 63.087,323.737 64.210,324.000 65.200 C 324.263 66.190,324.640 67.313,324.839 67.695 C 325.038 68.077,325.200 68.754,325.200 69.200 C 325.200 69.646,325.362 70.323,325.561 70.705 C 325.760 71.087,326.138 72.210,326.403 73.200 C 326.667 74.190,327.045 75.413,327.242 75.919 C 327.439 76.424,327.600 77.269,327.600 77.795 C 327.600 78.322,327.760 78.852,327.956 78.973 C 328.151 79.094,328.400 79.779,328.508 80.496 C 328.616 81.213,329.337 84.230,330.109 87.200 C 330.882 90.170,332.345 96.470,333.359 101.200 C 335.159 109.590,335.561 111.573,336.416 116.300 C 336.645 117.565,337.005 119.368,337.216 120.306 C 337.427 121.244,337.600 122.639,337.600 123.406 L 337.600 124.800 349.000 124.800 L 360.400 124.800 360.400 123.176 C 360.400 122.196,360.242 121.651,360.000 121.800 C 359.756 121.951,359.600 121.337,359.600 120.224 C 359.600 119.159,359.416 118.400,359.158 118.400 C 358.884 118.400,358.774 117.793,358.869 116.800 C 358.974 115.689,358.865 115.200,358.511 115.200 C 358.192 115.200,358.000 114.664,358.000 113.776 C 358.000 112.929,358.162 112.453,358.400 112.600 C 358.873 112.892,358.873 112.501,358.400 111.400 C 358.072 110.637,358.055 110.641,358.028 111.500 C 358.013 111.995,357.803 112.400,357.561 112.400 C 357.284 112.400,357.174 111.677,357.261 110.433 C 357.370 108.895,357.291 108.557,356.900 108.882 C 356.516 109.202,356.400 108.963,356.400 107.849 C 356.400 107.052,356.220 106.400,356.000 106.400 C 355.780 106.400,355.600 105.770,355.600 105.000 C 355.600 104.230,355.420 103.600,355.200 103.600 C 354.980 103.600,354.800 102.981,354.800 102.224 C 354.800 101.467,354.620 100.736,354.400 100.600 C 354.180 100.464,354.000 99.823,354.000 99.176 C 354.000 98.529,353.800 98.000,353.556 98.000 C 353.286 98.000,353.175 97.462,353.273 96.628 C 353.365 95.833,353.262 95.286,353.026 95.328 C 352.802 95.368,352.554 94.950,352.476 94.400 C 352.397 93.850,352.168 93.229,351.966 93.020 C 351.765 92.811,351.600 92.136,351.600 91.520 C 351.600 90.904,351.399 90.400,351.153 90.400 C 350.895 90.400,350.786 89.987,350.894 89.420 C 351.014 88.793,350.870 88.359,350.495 88.215 C 350.121 88.071,349.976 87.637,350.095 87.015 C 350.214 86.395,350.069 85.959,349.698 85.816 C 349.309 85.667,349.195 85.276,349.355 84.638 C 349.521 83.974,349.400 83.609,348.956 83.438 C 348.589 83.298,348.415 82.937,348.548 82.592 C 348.675 82.261,348.325 81.178,347.771 80.186 C 347.217 79.194,346.874 78.204,347.008 77.988 C 347.141 77.771,346.977 77.320,346.642 76.985 C 346.308 76.651,346.136 76.112,346.260 75.788 C 346.384 75.465,346.286 75.200,346.043 75.200 C 345.799 75.200,345.600 74.660,345.600 74.000 C 345.600 73.340,345.420 72.800,345.200 72.800 C 344.980 72.800,344.800 72.440,344.800 72.000 C 344.800 71.560,344.620 71.200,344.400 71.200 C 344.180 71.200,344.000 70.660,344.000 70.000 C 344.000 69.340,343.820 68.800,343.600 68.800 C 343.380 68.800,343.200 68.440,343.200 68.000 C 343.200 67.560,343.020 67.200,342.800 67.200 C 342.580 67.200,342.400 66.649,342.400 65.976 C 342.400 65.263,342.233 64.856,342.000 65.000 C 341.773 65.140,341.600 64.804,341.600 64.224 C 341.600 63.661,341.420 63.200,341.200 63.200 C 340.980 63.200,340.800 62.840,340.800 62.400 C 340.800 61.960,340.620 61.600,340.400 61.600 C 340.180 61.600,340.000 61.150,340.000 60.600 C 340.000 60.050,339.820 59.600,339.600 59.600 C 339.380 59.600,339.200 59.150,339.200 58.600 C 339.200 58.050,339.020 57.600,338.800 57.600 C 338.580 57.600,338.400 57.240,338.400 56.800 C 338.400 56.360,338.220 56.000,338.000 56.000 C 337.780 56.000,337.600 55.651,337.600 55.224 C 337.600 54.797,337.420 54.336,337.200 54.200 C 336.980 54.064,336.800 53.603,336.800 53.176 C 336.800 52.749,336.620 52.400,336.400 52.400 C 336.180 52.400,336.000 52.040,336.000 51.600 C 336.000 51.160,335.820 50.800,335.600 50.800 C 335.380 50.800,335.200 50.350,335.200 49.800 C 335.200 49.250,335.020 48.800,334.800 48.800 C 334.580 48.800,334.400 48.451,334.400 48.024 C 334.400 47.597,334.220 47.136,334.000 47.000 C 333.780 46.864,333.600 46.403,333.600 45.976 C 333.600 45.549,333.401 45.200,333.157 45.200 C 332.914 45.200,332.816 44.935,332.941 44.611 C 333.066 44.284,332.863 43.851,332.487 43.641 C 332.113 43.431,331.941 43.126,332.104 42.962 C 332.268 42.799,332.166 42.380,331.878 42.032 C 330.689 40.596,330.390 39.267,331.096 38.561 C 331.718 37.939,331.704 37.913,330.881 38.174 C 330.177 38.398,330.000 38.296,330.000 37.670 C 330.000 37.238,329.719 36.778,329.375 36.646 C 329.031 36.514,328.854 36.236,328.982 36.029 C 329.110 35.821,328.852 35.005,328.408 34.214 C 327.963 33.423,327.600 32.421,327.600 31.988 C 327.600 31.555,327.420 31.200,327.200 31.200 C 326.980 31.200,326.800 30.840,326.800 30.400 C 326.800 29.960,326.620 29.600,326.400 29.600 C 326.180 29.600,326.000 29.240,326.000 28.800 C 326.000 28.360,325.820 28.000,325.600 28.000 C 325.380 28.000,325.200 27.550,325.200 27.000 C 325.200 26.450,325.020 26.000,324.800 26.000 C 324.580 26.000,324.400 25.640,324.400 25.200 C 324.400 24.760,324.220 24.400,324.000 24.400 C 323.780 24.400,323.600 24.040,323.600 23.600 C 323.600 23.160,323.420 22.800,323.200 22.800 C 322.980 22.800,322.800 22.350,322.800 21.800 C 322.800 21.250,322.599 20.800,322.353 20.800 C 322.095 20.800,321.986 20.387,322.094 19.820 C 322.204 19.246,322.103 18.873,321.850 18.920 C 321.613 18.964,321.357 18.595,321.282 18.100 C 321.206 17.605,320.977 17.200,320.772 17.200 C 320.567 17.200,320.400 16.840,320.400 16.400 C 320.400 15.960,320.220 15.600,320.000 15.600 C 319.780 15.600,319.600 15.251,319.600 14.824 C 319.600 14.397,319.420 13.936,319.200 13.800 C 318.980 13.664,318.800 13.203,318.800 12.776 C 318.800 12.042,318.472 12.000,312.782 12.000 L 306.764 12.000 307.030 13.500 M215.800 75.702 C 207.502 78.585,204.482 85.442,208.129 93.119 C 212.233 101.758,225.897 101.411,229.830 92.567 C 233.800 83.640,224.642 72.630,215.800 75.702 M343.845 211.300 C 343.434 230.893,342.146 246.351,339.204 267.000 C 338.499 271.953,337.059 280.539,335.985 286.200 C 335.734 287.520,335.379 289.410,335.195 290.400 C 334.491 294.186,331.167 308.812,329.967 313.400 C 329.277 316.040,328.622 318.787,328.512 319.504 C 328.402 320.221,328.151 320.906,327.956 321.027 C 327.760 321.148,327.600 321.678,327.600 322.205 C 327.600 322.731,327.439 323.576,327.242 324.081 C 327.045 324.587,326.667 325.810,326.403 326.800 C 326.138 327.790,325.760 328.913,325.561 329.295 C 325.362 329.677,325.200 330.354,325.200 330.800 C 325.200 331.246,325.038 331.923,324.839 332.305 C 324.640 332.687,324.260 333.810,323.993 334.800 C 323.727 335.790,323.372 336.960,323.204 337.400 C 323.036 337.840,321.996 340.990,320.892 344.400 C 314.077 365.444,312.745 369.470,312.392 370.095 C 312.177 370.477,312.000 371.141,312.000 371.571 C 312.000 372.001,311.820 372.464,311.600 372.600 C 311.380 372.736,311.200 373.276,311.200 373.800 C 311.200 374.324,311.020 374.864,310.800 375.000 C 310.580 375.136,310.400 375.676,310.400 376.200 C 310.400 376.724,310.220 377.264,310.000 377.400 C 309.780 377.536,309.600 378.076,309.600 378.600 C 309.600 379.124,309.420 379.664,309.200 379.800 C 308.980 379.936,308.800 380.476,308.800 381.000 C 308.800 381.524,308.620 382.064,308.400 382.200 C 308.180 382.336,308.000 382.851,308.000 383.344 C 308.000 383.837,307.842 384.411,307.649 384.620 C 307.455 384.829,307.177 385.675,307.030 386.500 L 306.764 388.000 312.782 388.000 C 318.472 388.000,318.800 387.958,318.800 387.224 C 318.800 386.797,318.980 386.336,319.200 386.200 C 319.420 386.064,319.600 385.603,319.600 385.176 C 319.600 384.749,319.780 384.400,320.000 384.400 C 320.220 384.400,320.400 384.040,320.400 383.600 C 320.400 383.160,320.580 382.800,320.800 382.800 C 321.020 382.800,321.200 382.350,321.200 381.800 C 321.200 381.250,321.380 380.800,321.600 380.800 C 321.820 380.800,322.000 380.535,322.000 380.212 C 322.000 379.889,322.360 378.983,322.800 378.200 C 323.240 377.417,323.600 376.511,323.600 376.188 C 323.600 375.865,323.780 375.600,324.000 375.600 C 324.220 375.600,324.400 375.240,324.400 374.800 C 324.400 374.360,324.580 374.000,324.800 374.000 C 325.020 374.000,325.200 373.550,325.200 373.000 C 325.200 372.450,325.380 372.000,325.600 372.000 C 325.820 372.000,326.000 371.640,326.000 371.200 C 326.000 370.760,326.180 370.400,326.400 370.400 C 326.620 370.400,326.800 370.040,326.800 369.600 C 326.800 369.160,326.980 368.800,327.200 368.800 C 327.420 368.800,327.600 368.350,327.600 367.800 C 327.600 367.250,327.791 366.800,328.024 366.800 C 328.257 366.800,328.352 366.647,328.236 366.459 C 328.120 366.271,328.284 365.776,328.600 365.359 C 328.916 364.942,329.180 364.285,329.187 363.900 C 329.194 363.515,329.380 363.200,329.600 363.200 C 329.820 363.200,330.000 362.828,330.000 362.373 C 330.000 361.703,330.167 361.599,330.881 361.826 C 331.704 362.087,331.718 362.061,331.096 361.439 C 330.390 360.733,330.689 359.404,331.878 357.968 C 332.166 357.620,332.268 357.201,332.104 357.038 C 331.941 356.874,332.113 356.569,332.487 356.359 C 332.902 356.127,333.069 355.724,332.916 355.325 C 332.717 354.807,332.849 354.720,333.555 354.904 C 334.300 355.099,334.367 355.042,333.963 354.555 C 333.480 353.973,333.573 353.609,334.847 351.105 C 335.041 350.723,335.200 350.138,335.200 349.805 C 335.200 349.472,335.380 349.200,335.600 349.200 C 335.820 349.200,336.000 348.840,336.000 348.400 C 336.000 347.960,336.180 347.600,336.400 347.600 C 336.620 347.600,336.800 347.251,336.800 346.824 C 336.800 346.397,336.980 345.936,337.200 345.800 C 337.420 345.664,337.600 345.203,337.600 344.776 C 337.600 344.349,337.780 344.000,338.000 344.000 C 338.220 344.000,338.400 343.651,338.400 343.224 C 338.400 342.797,338.580 342.336,338.800 342.200 C 339.020 342.064,339.200 341.603,339.200 341.176 C 339.200 340.749,339.380 340.400,339.600 340.400 C 339.820 340.400,340.000 339.950,340.000 339.400 C 340.000 338.850,340.180 338.400,340.400 338.400 C 340.620 338.400,340.800 338.040,340.800 337.600 C 340.800 337.160,340.980 336.800,341.200 336.800 C 341.420 336.800,341.600 336.339,341.600 335.776 C 341.600 335.196,341.773 334.860,342.000 335.000 C 342.233 335.144,342.400 334.737,342.400 334.024 C 342.400 333.351,342.580 332.800,342.800 332.800 C 343.020 332.800,343.200 332.528,343.200 332.195 C 343.200 331.862,343.380 331.232,343.600 330.795 C 343.820 330.358,344.180 329.642,344.400 329.205 C 344.620 328.768,344.800 328.138,344.800 327.805 C 344.800 327.472,344.980 327.200,345.200 327.200 C 345.420 327.200,345.600 326.660,345.600 326.000 C 345.600 325.340,345.780 324.800,346.000 324.800 C 346.220 324.800,346.400 324.350,346.400 323.800 C 346.400 323.250,346.601 322.800,346.847 322.800 C 347.101 322.800,347.200 322.445,347.078 321.976 C 346.946 321.472,347.083 321.066,347.428 320.934 C 347.801 320.791,347.913 320.391,347.755 319.762 C 347.593 319.117,347.709 318.733,348.113 318.578 C 348.446 318.450,348.630 318.037,348.528 317.646 C 348.427 317.260,348.608 316.725,348.931 316.457 C 349.253 316.190,349.430 315.638,349.324 315.230 C 349.217 314.823,349.326 314.369,349.565 314.222 C 349.804 314.074,350.000 313.508,350.000 312.964 C 350.000 312.420,350.243 311.882,350.541 311.767 C 350.871 311.641,351.009 311.179,350.894 310.580 C 350.786 310.013,350.895 309.600,351.153 309.600 C 351.399 309.600,351.600 309.080,351.600 308.443 C 351.600 307.523,351.824 307.224,352.700 306.979 C 353.555 306.741,353.639 306.634,353.077 306.502 C 352.308 306.322,352.259 304.536,353.026 304.672 C 353.259 304.713,353.367 304.179,353.278 303.419 C 353.193 302.691,353.321 301.973,353.562 301.824 C 353.803 301.675,354.000 301.023,354.000 300.376 C 354.000 299.729,354.180 299.200,354.400 299.200 C 354.620 299.200,354.800 298.570,354.800 297.800 C 354.800 297.030,354.980 296.400,355.200 296.400 C 355.420 296.400,355.600 295.748,355.600 294.951 C 355.600 293.837,355.716 293.598,356.100 293.917 C 356.491 294.241,356.570 293.944,356.460 292.566 C 356.372 291.463,356.485 290.800,356.760 290.800 C 357.007 290.800,357.200 290.098,357.200 289.200 C 357.200 287.486,357.826 287.012,358.125 288.500 C 358.224 288.995,358.212 288.365,358.098 287.100 C 357.955 285.526,358.033 284.800,358.345 284.800 C 358.609 284.800,358.800 284.129,358.800 283.200 C 358.800 282.320,358.980 281.600,359.200 281.600 C 359.420 281.600,359.600 280.779,359.600 279.776 C 359.600 278.663,359.756 278.049,360.000 278.200 C 360.247 278.353,360.400 277.663,360.400 276.400 C 360.400 275.137,360.553 274.447,360.800 274.600 C 361.047 274.752,361.200 274.071,361.200 272.824 C 361.200 271.711,361.380 270.800,361.600 270.800 C 361.820 270.800,362.000 269.900,362.000 268.800 C 362.000 267.700,362.158 266.800,362.351 266.800 C 362.544 266.800,362.682 265.982,362.657 264.981 C 362.633 263.981,362.823 263.033,363.080 262.874 C 363.348 262.709,363.515 261.776,363.473 260.678 C 363.425 259.436,363.589 258.654,363.944 258.435 C 364.340 258.190,364.411 257.649,364.206 256.436 C 363.996 255.194,364.094 254.516,364.592 253.755 C 365.076 253.018,365.187 252.309,364.998 251.185 C 364.722 249.556,365.042 247.855,365.564 248.178 C 365.732 248.282,365.854 246.928,365.835 245.169 C 365.814 243.293,365.978 241.854,366.230 241.686 C 366.485 241.517,366.648 240.025,366.630 238.035 C 366.609 235.677,366.750 234.619,367.100 234.501 C 367.468 234.378,367.533 233.618,367.347 231.616 C 367.078 228.720,367.477 224.753,367.959 225.533 C 368.118 225.791,368.237 222.552,368.224 218.336 C 368.206 212.541,368.322 210.628,368.700 210.501 C 369.066 210.379,369.200 208.944,369.200 205.167 L 369.200 200.000 356.641 200.000 L 344.082 200.000 343.845 211.300 M241.402 220.217 C 238.886 223.645,236.171 228.577,234.808 232.200 C 234.643 232.640,234.323 233.450,234.099 234.000 C 233.372 235.783,232.511 239.331,232.158 242.000 C 232.056 242.770,231.700 245.380,231.367 247.800 C 230.843 251.614,230.778 261.233,230.881 320.000 L 231.000 387.800 237.300 387.910 L 243.600 388.020 243.600 302.810 C 243.600 255.945,243.538 217.600,243.462 217.600 C 243.386 217.600,242.459 218.778,241.402 220.217 M194.000 302.961 L 194.000 388.020 200.300 387.910 L 206.600 387.800 206.565 319.000 C 206.526 244.749,206.544 245.435,204.420 237.502 C 202.619 230.777,197.513 220.818,194.647 218.439 C 194.051 217.945,194.000 224.630,194.000 302.961 " stroke="none" fill="#f3945c" fill-rule="evenodd"></path><path id="path2" d="M117.716 12.800 C 117.601 13.240,117.348 13.600,117.153 13.600 C 116.959 13.600,116.800 13.949,116.800 14.376 C 116.800 14.803,116.620 15.264,116.400 15.400 C 116.180 15.536,116.000 15.961,116.000 16.344 C 116.000 17.219,115.101 19.193,114.700 19.197 C 114.535 19.199,114.400 19.436,114.400 19.725 C 114.400 20.014,114.012 21.049,113.537 22.025 C 113.063 23.001,112.673 24.025,112.671 24.300 C 112.668 24.575,112.538 24.800,112.380 24.800 C 112.118 24.800,111.720 25.743,111.385 27.160 C 111.313 27.468,111.094 27.828,110.898 27.960 C 110.455 28.260,108.400 33.396,108.400 34.204 C 108.400 34.532,108.220 34.800,108.000 34.800 C 107.780 34.800,107.600 35.160,107.600 35.600 C 107.600 36.040,107.420 36.400,107.200 36.400 C 106.980 36.400,106.800 36.749,106.800 37.176 C 106.800 37.603,106.620 38.064,106.400 38.200 C 106.180 38.336,106.000 38.887,106.000 39.424 C 106.000 39.961,105.820 40.400,105.600 40.400 C 105.380 40.400,105.200 40.760,105.200 41.200 C 105.200 41.640,105.020 42.000,104.800 42.000 C 104.580 42.000,104.400 42.349,104.400 42.776 C 104.400 43.203,104.220 43.664,104.000 43.800 C 103.780 43.936,103.600 44.397,103.600 44.824 C 103.600 45.251,103.420 45.600,103.200 45.600 C 102.980 45.600,102.800 45.960,102.800 46.400 C 102.800 46.840,102.620 47.200,102.400 47.200 C 102.180 47.200,102.000 47.650,102.000 48.200 C 102.000 48.750,101.820 49.200,101.600 49.200 C 101.380 49.200,101.200 49.571,101.200 50.024 C 101.200 50.477,101.058 50.760,100.885 50.652 C 100.712 50.545,100.530 50.940,100.481 51.529 C 100.433 52.118,100.215 52.660,99.997 52.733 C 99.778 52.807,99.600 53.212,99.600 53.633 C 99.600 54.055,99.420 54.400,99.200 54.400 C 98.980 54.400,98.800 54.760,98.800 55.200 C 98.800 55.640,98.620 56.000,98.400 56.000 C 98.180 56.000,98.043 56.135,98.095 56.300 C 98.183 56.576,97.835 57.588,96.652 60.500 C 96.406 61.105,96.089 61.600,95.947 61.600 C 95.804 61.600,95.449 62.410,95.157 63.400 C 94.865 64.390,94.477 65.200,94.295 65.200 C 94.114 65.200,94.004 65.425,94.052 65.700 C 94.099 65.975,93.942 66.650,93.702 67.200 C 92.826 69.205,92.450 70.361,92.138 71.998 C 92.012 72.659,91.750 73.200,91.555 73.200 C 91.360 73.200,91.200 73.661,91.200 74.224 C 91.200 74.804,91.027 75.140,90.800 75.000 C 90.574 74.860,90.400 75.188,90.400 75.753 C 90.400 76.303,90.220 76.864,90.000 77.000 C 89.780 77.136,89.600 77.599,89.600 78.029 C 89.600 78.459,89.420 79.168,89.200 79.605 C 88.980 80.042,88.620 80.758,88.400 81.195 C 88.180 81.632,88.000 82.352,88.000 82.795 C 88.000 83.238,87.820 83.600,87.600 83.600 C 87.380 83.600,87.200 84.039,87.200 84.576 C 87.200 85.113,87.020 85.664,86.800 85.800 C 86.580 85.936,86.400 86.577,86.400 87.224 C 86.400 87.871,86.220 88.400,86.000 88.400 C 85.780 88.400,85.600 88.850,85.600 89.400 C 85.600 89.950,85.458 90.400,85.285 90.400 C 85.112 90.400,84.926 90.985,84.872 91.700 C 84.819 92.415,84.600 93.060,84.387 93.133 C 84.174 93.207,84.000 93.792,84.000 94.433 C 84.000 95.075,83.859 95.600,83.687 95.600 C 83.515 95.600,83.334 96.095,83.284 96.700 C 83.234 97.305,83.015 97.860,82.797 97.933 C 82.578 98.007,82.400 98.772,82.400 99.633 C 82.400 100.495,82.220 101.200,82.000 101.200 C 81.780 101.200,81.600 101.740,81.600 102.400 C 81.600 103.060,81.420 103.600,81.200 103.600 C 80.980 103.600,80.800 104.219,80.800 104.976 C 80.800 105.733,80.620 106.464,80.400 106.600 C 80.180 106.736,80.000 107.366,80.000 108.000 C 80.000 108.634,79.820 109.264,79.600 109.400 C 79.380 109.536,79.200 110.256,79.200 111.000 C 79.200 111.744,79.020 112.464,78.800 112.600 C 78.580 112.736,78.400 113.456,78.400 114.200 C 78.400 114.944,78.240 115.652,78.044 115.773 C 77.706 115.982,77.487 116.906,76.973 120.300 C 76.848 121.125,76.640 122.070,76.511 122.400 C 76.382 122.730,76.209 123.405,76.125 123.900 L 75.973 124.800 206.624 124.800 L 337.275 124.800 336.997 122.700 C 336.845 121.545,336.378 118.800,335.961 116.600 C 335.544 114.400,335.004 111.520,334.761 110.200 C 334.519 108.880,334.179 107.260,334.006 106.600 C 333.833 105.940,333.475 104.320,333.209 103.000 C 332.438 99.161,329.255 85.689,328.390 82.600 C 328.205 81.940,327.841 80.590,327.581 79.600 C 327.320 78.610,326.969 77.350,326.800 76.800 C 326.631 76.250,326.271 74.990,326.000 74.000 C 325.729 73.010,325.367 71.750,325.195 71.200 C 325.024 70.650,324.486 68.850,324.002 67.200 C 322.597 62.422,319.971 54.384,312.894 33.200 C 309.255 22.310,306.267 13.085,306.254 12.700 C 306.212 11.522,118.024 11.622,117.716 12.800 M222.154 75.275 C 236.374 79.375,232.972 100.613,218.205 99.925 C 205.450 99.331,201.367 81.298,212.855 76.295 C 213.595 75.972,214.650 75.516,215.200 75.281 C 216.560 74.700,220.149 74.697,222.154 75.275 M77.890 200.307 L 68.380 200.415 68.412 211.798 C 68.431 218.465,68.601 223.277,68.822 223.414 C 69.030 223.542,69.200 225.797,69.200 228.424 C 69.200 231.341,69.356 233.200,69.600 233.200 C 69.837 233.200,70.000 234.659,70.000 236.776 C 70.000 238.743,70.180 240.464,70.400 240.600 C 70.620 240.736,70.800 242.277,70.800 244.024 C 70.800 245.875,70.967 247.200,71.200 247.200 C 71.429 247.200,71.600 248.400,71.600 250.000 C 71.600 251.600,71.771 252.800,72.000 252.800 C 72.222 252.800,72.400 253.859,72.400 255.176 C 72.400 256.483,72.580 257.664,72.800 257.800 C 73.020 257.936,73.200 258.937,73.200 260.024 C 73.200 261.111,73.380 262.000,73.600 262.000 C 73.822 262.000,74.000 263.067,74.000 264.400 C 74.000 265.720,74.163 266.800,74.361 266.800 C 74.560 266.800,74.815 267.655,74.928 268.700 C 75.346 272.557,75.588 274.058,75.868 274.510 C 76.026 274.765,76.178 275.430,76.206 275.987 C 76.234 276.544,76.367 277.270,76.501 277.600 C 76.635 277.930,76.842 278.830,76.961 279.600 C 77.506 283.141,77.713 284.023,78.044 284.227 C 78.240 284.348,78.400 285.056,78.400 285.800 C 78.400 286.544,78.580 287.264,78.800 287.400 C 79.020 287.536,79.200 288.256,79.200 289.000 C 79.200 289.744,79.380 290.464,79.600 290.600 C 79.820 290.736,80.000 291.366,80.000 292.000 C 80.000 292.634,80.180 293.264,80.400 293.400 C 80.620 293.536,80.800 294.267,80.800 295.024 C 80.800 295.781,80.980 296.400,81.200 296.400 C 81.420 296.400,81.600 296.940,81.600 297.600 C 81.600 298.260,81.780 298.800,82.000 298.800 C 82.220 298.800,82.400 299.419,82.400 300.176 C 82.400 300.933,82.580 301.664,82.800 301.800 C 83.020 301.936,83.200 302.577,83.200 303.224 C 83.200 303.871,83.380 304.400,83.600 304.400 C 83.820 304.400,84.000 304.850,84.000 305.400 C 84.000 305.950,84.180 306.400,84.400 306.400 C 84.620 306.400,84.800 307.019,84.800 307.776 C 84.800 308.533,84.980 309.264,85.200 309.400 C 85.420 309.536,85.600 310.076,85.600 310.600 C 85.600 311.124,85.780 311.664,86.000 311.800 C 86.220 311.936,86.400 312.476,86.400 313.000 C 86.400 313.524,86.580 314.064,86.800 314.200 C 87.020 314.336,87.200 314.887,87.200 315.424 C 87.200 315.961,87.380 316.400,87.600 316.400 C 87.820 316.400,88.000 316.762,88.000 317.205 C 88.000 317.983,88.142 318.369,89.138 320.295 C 89.392 320.787,89.600 321.541,89.600 321.971 C 89.600 322.401,89.780 322.864,90.000 323.000 C 90.220 323.136,90.400 323.697,90.400 324.247 C 90.400 324.812,90.574 325.140,90.800 325.000 C 91.027 324.860,91.200 325.196,91.200 325.776 C 91.200 326.339,91.380 326.800,91.600 326.800 C 91.820 326.800,92.000 327.268,92.000 327.840 C 92.000 328.411,92.245 329.446,92.544 330.140 C 92.843 330.833,93.324 331.940,93.613 332.600 C 93.902 333.260,94.099 334.025,94.052 334.300 C 94.004 334.575,94.129 334.800,94.330 334.800 C 94.532 334.800,94.923 335.610,95.200 336.600 C 95.477 337.590,95.861 338.400,96.052 338.400 C 96.243 338.400,96.400 338.760,96.400 339.200 C 96.400 339.640,96.536 340.000,96.702 340.000 C 97.000 340.000,98.000 342.525,98.088 343.500 C 98.113 343.775,98.283 344.000,98.467 344.000 C 98.650 344.000,98.800 344.360,98.800 344.800 C 98.800 345.240,98.980 345.600,99.200 345.600 C 99.420 345.600,99.600 345.945,99.600 346.367 C 99.600 346.788,99.778 347.193,99.997 347.267 C 100.215 347.340,100.433 347.882,100.481 348.471 C 100.530 349.060,100.712 349.455,100.885 349.348 C 101.058 349.240,101.200 349.513,101.200 349.953 C 101.200 350.393,101.380 350.864,101.600 351.000 C 101.820 351.136,102.000 351.597,102.000 352.024 C 102.000 352.451,102.180 352.800,102.400 352.800 C 102.620 352.800,102.800 353.160,102.800 353.600 C 102.800 354.040,102.980 354.400,103.200 354.400 C 103.420 354.400,103.600 354.749,103.600 355.176 C 103.600 355.603,103.780 356.064,104.000 356.200 C 104.220 356.336,104.400 356.797,104.400 357.224 C 104.400 357.651,104.580 358.000,104.800 358.000 C 105.020 358.000,105.200 358.360,105.200 358.800 C 105.200 359.240,105.380 359.600,105.600 359.600 C 105.820 359.600,106.000 360.039,106.000 360.576 C 106.000 361.113,106.180 361.664,106.400 361.800 C 106.620 361.936,106.800 362.397,106.800 362.824 C 106.800 363.251,106.980 363.600,107.200 363.600 C 107.420 363.600,107.600 363.960,107.600 364.400 C 107.600 364.840,107.780 365.200,108.000 365.200 C 108.220 365.200,108.400 365.468,108.400 365.796 C 108.400 366.714,110.444 371.709,111.162 372.542 C 111.513 372.950,111.760 373.310,111.711 373.342 C 111.501 373.479,112.120 375.200,112.380 375.200 C 112.538 375.200,112.668 375.425,112.671 375.700 C 112.673 375.975,113.063 376.999,113.537 377.975 C 114.012 378.951,114.400 379.986,114.400 380.275 C 114.400 380.564,114.535 380.801,114.700 380.803 C 115.101 380.807,116.000 382.781,116.000 383.656 C 116.000 384.039,116.180 384.464,116.400 384.600 C 116.620 384.736,116.800 385.197,116.800 385.624 C 116.800 386.051,116.959 386.400,117.153 386.400 C 117.348 386.400,117.601 386.760,117.716 387.200 C 117.923 387.993,118.262 388.000,155.763 388.000 L 193.600 388.000 193.600 302.677 L 193.600 217.354 190.300 214.224 C 187.201 211.285,181.706 207.200,180.851 207.200 C 180.640 207.200,180.407 207.064,180.333 206.898 C 179.531 205.082,168.409 201.635,160.800 200.844 C 156.789 200.428,99.892 200.059,77.890 200.307 M275.000 201.002 C 270.794 201.592,266.822 202.495,264.353 203.422 C 261.898 204.343,255.827 207.330,255.667 207.696 C 255.593 207.863,255.278 208.000,254.967 208.000 C 254.655 208.000,254.400 208.180,254.400 208.400 C 254.400 208.620,254.130 208.800,253.800 208.800 C 253.470 208.800,253.200 208.941,253.200 209.114 C 253.200 209.286,252.649 209.753,251.975 210.151 C 251.301 210.549,249.231 212.323,247.375 214.093 L 244.000 217.311 244.000 302.656 L 244.000 388.000 275.114 388.000 C 304.471 388.000,306.230 387.960,306.254 387.300 C 306.267 386.915,309.255 377.690,312.894 366.800 C 319.971 345.616,322.597 337.578,324.002 332.800 C 324.486 331.150,325.024 329.350,325.195 328.800 C 325.367 328.250,325.729 326.990,326.000 326.000 C 326.271 325.010,326.631 323.750,326.800 323.200 C 326.969 322.650,327.320 321.390,327.581 320.400 C 327.841 319.410,328.205 318.060,328.390 317.400 C 329.173 314.603,332.529 300.497,333.196 297.200 C 333.441 295.990,333.797 294.280,333.988 293.400 C 334.353 291.717,334.822 289.365,335.783 284.400 C 339.928 262.987,342.598 236.877,343.444 209.500 L 343.726 200.400 311.163 200.448 C 287.314 200.483,277.637 200.631,275.000 201.002 M368.406 222.900 C 368.411 223.628,368.486 223.685,368.800 223.200 C 369.301 222.424,369.301 222.000,368.800 222.000 C 368.580 222.000,368.403 222.405,368.406 222.900 " stroke="none" fill="#fbbb93" fill-rule="evenodd"></path><path id="path3" d="M75.693 126.409 C 75.427 127.261,75.309 128.219,75.432 128.539 C 75.554 128.858,75.462 129.238,75.227 129.383 C 74.687 129.717,74.662 133.200,75.200 133.200 C 75.634 133.200,75.769 132.423,75.635 130.700 C 75.587 130.095,75.740 129.600,75.974 129.600 C 76.217 129.600,76.400 128.759,76.400 127.643 C 76.400 125.104,76.005 125.200,86.479 125.200 L 95.293 125.200 95.046 126.300 C 94.068 130.653,91.974 142.619,91.040 149.200 C 89.029 163.364,87.610 181.409,87.604 192.900 L 87.600 199.600 77.900 199.694 C 72.565 199.746,88.990 199.903,114.400 200.043 C 139.810 200.182,161.410 200.403,162.400 200.533 C 163.815 200.719,163.687 200.649,161.800 200.202 C 159.844 199.740,153.904 199.632,129.700 199.617 L 100.000 199.600 100.000 195.351 C 100.000 188.933,101.172 170.030,101.993 163.200 C 103.225 152.959,103.238 152.864,104.425 145.098 C 104.915 141.897,104.987 141.500,106.845 131.901 L 108.141 125.201 234.571 125.094 L 361.000 124.986 218.588 124.923 L 76.176 124.859 75.693 126.409 M361.289 126.629 C 361.245 127.163,361.387 127.600,361.604 127.600 C 362.073 127.600,362.140 126.134,361.685 125.852 C 361.512 125.745,361.334 126.095,361.289 126.629 M362.267 129.467 C 361.852 129.882,361.953 131.200,362.400 131.200 C 362.620 131.200,362.800 130.750,362.800 130.200 C 362.800 129.153,362.708 129.026,362.267 129.467 M74.000 135.400 C 74.000 137.737,74.570 138.356,74.985 136.469 C 75.215 135.421,74.689 133.200,74.210 133.200 C 74.094 133.200,74.000 134.190,74.000 135.400 M362.800 134.200 C 362.800 134.750,362.980 135.200,363.200 135.200 C 363.420 135.200,363.600 134.750,363.600 134.200 C 363.600 133.650,363.420 133.200,363.200 133.200 C 362.980 133.200,362.800 133.650,362.800 134.200 M73.200 139.976 C 73.200 141.063,73.020 142.064,72.800 142.200 C 72.295 142.512,72.269 146.800,72.773 146.800 C 73.386 146.800,73.682 145.272,73.397 143.583 C 73.237 142.634,73.287 142.000,73.521 142.000 C 74.075 142.000,74.463 140.189,74.164 139.000 C 73.745 137.329,73.200 137.880,73.200 139.976 M363.600 138.753 C 363.600 139.193,363.780 139.664,364.000 139.800 C 364.220 139.936,364.400 139.687,364.400 139.247 C 364.400 138.807,364.220 138.336,364.000 138.200 C 363.780 138.064,363.600 138.313,363.600 138.753 M364.400 143.176 C 364.400 143.849,364.580 144.400,364.800 144.400 C 365.020 144.400,365.200 143.961,365.200 143.424 C 365.200 142.887,365.020 142.336,364.800 142.200 C 364.567 142.056,364.400 142.463,364.400 143.176 M33.600 143.512 C 33.600 143.704,34.050 144.283,34.600 144.800 C 35.150 145.317,35.600 145.610,35.600 145.452 C 35.600 145.293,35.150 144.714,34.600 144.164 C 34.050 143.614,33.600 143.320,33.600 143.512 M37.802 148.002 C 38.202 148.444,38.611 148.722,38.712 148.621 C 38.928 148.405,37.788 147.200,37.367 147.200 C 37.207 147.200,37.403 147.561,37.802 148.002 M71.613 149.824 C 71.624 152.352,71.678 152.531,72.213 151.824 C 72.960 150.835,72.947 148.829,72.187 147.824 C 71.653 147.117,71.601 147.298,71.613 149.824 M365.200 148.400 C 365.200 149.060,365.380 149.600,365.600 149.600 C 365.820 149.600,366.000 149.060,366.000 148.400 C 366.000 147.740,365.820 147.200,365.600 147.200 C 365.380 147.200,365.200 147.740,365.200 148.400 M366.000 153.953 C 366.000 154.613,366.180 155.264,366.400 155.400 C 366.633 155.544,366.800 155.145,366.800 154.447 C 366.800 153.787,366.620 153.136,366.400 153.000 C 366.167 152.856,366.000 153.255,366.000 153.953 M71.073 153.461 C 70.670 153.864,70.741 158.316,71.155 158.572 C 71.597 158.845,71.989 157.445,71.988 155.600 C 71.988 154.104,71.521 153.013,71.073 153.461 M70.013 162.700 C 70.024 165.865,70.082 166.126,70.613 165.424 C 71.510 164.237,71.300 159.200,70.353 159.200 C 70.159 159.200,70.006 160.775,70.013 162.700 M366.800 160.400 C 366.800 161.060,366.980 161.600,367.200 161.600 C 367.420 161.600,367.600 161.060,367.600 160.400 C 367.600 159.740,367.420 159.200,367.200 159.200 C 366.980 159.200,366.800 159.740,366.800 160.400 M69.200 170.776 C 69.200 174.731,69.676 176.318,70.151 173.944 C 70.466 172.371,70.464 168.879,70.148 167.700 C 69.610 165.693,69.200 167.024,69.200 170.776 M367.600 168.424 C 367.600 169.404,367.758 169.949,368.000 169.800 C 368.220 169.664,368.400 168.933,368.400 168.176 C 368.400 167.419,368.220 166.800,368.000 166.800 C 367.780 166.800,367.600 167.531,367.600 168.424 M68.682 176.933 C 68.275 177.991,68.334 190.800,68.746 190.800 C 69.279 190.800,69.604 187.540,69.560 182.644 C 69.517 177.826,69.180 175.636,68.682 176.933 M368.400 178.353 C 368.400 179.453,368.580 180.464,368.800 180.600 C 369.046 180.752,369.200 180.079,369.200 178.847 C 369.200 177.747,369.020 176.736,368.800 176.600 C 368.554 176.448,368.400 177.121,368.400 178.353 M275.200 200.226 C 273.161 200.723,273.131 200.745,274.800 200.535 C 275.790 200.410,291.720 200.190,310.200 200.045 L 343.800 199.783 310.600 199.736 C 284.083 199.699,276.957 199.798,275.200 200.226 M166.000 201.200 C 166.330 201.413,167.050 201.573,167.600 201.554 L 168.600 201.520 167.600 201.200 C 166.058 200.706,165.236 200.706,166.000 201.200 M270.000 201.200 C 269.196 201.457,269.157 201.523,269.800 201.532 C 270.240 201.538,270.960 201.389,271.400 201.200 C 272.419 200.762,271.368 200.762,270.000 201.200 M37.802 201.998 C 37.403 202.439,37.207 202.800,37.367 202.800 C 37.788 202.800,38.928 201.595,38.712 201.379 C 38.611 201.278,38.202 201.556,37.802 201.998 M169.400 202.000 C 169.536 202.220,170.042 202.387,170.524 202.372 C 171.369 202.345,171.371 202.331,170.600 202.000 C 169.499 201.527,169.108 201.527,169.400 202.000 M176.000 204.156 C 176.000 204.268,177.125 204.905,178.500 205.573 C 179.875 206.240,181.630 207.169,182.400 207.636 C 183.757 208.461,183.769 208.461,182.800 207.659 C 181.976 206.976,180.450 206.141,176.300 204.100 C 176.135 204.019,176.000 204.044,176.000 204.156 M34.468 205.327 C 33.235 206.640,33.387 207.049,34.642 205.794 C 35.216 205.221,35.606 204.673,35.511 204.577 C 35.415 204.482,34.946 204.819,34.468 205.327 M257.300 206.012 C 256.145 206.674,255.200 207.310,255.200 207.425 C 255.200 207.643,258.721 205.714,259.380 205.134 C 260.081 204.518,259.415 204.799,257.300 206.012 M184.657 209.070 C 185.129 209.472,186.549 210.610,187.813 211.600 C 189.077 212.590,191.286 214.660,192.722 216.200 C 194.158 217.740,194.768 218.260,194.077 217.356 C 192.396 215.155,188.097 211.167,185.722 209.605 C 184.665 208.909,184.186 208.669,184.657 209.070 M247.200 213.335 C 246.210 214.276,244.955 215.576,244.410 216.223 C 243.866 216.871,244.721 216.145,246.310 214.611 C 248.940 212.073,249.401 211.577,249.100 211.611 C 249.045 211.618,248.190 212.393,247.200 213.335 M206.093 248.400 C 206.093 249.170,206.175 249.485,206.276 249.100 C 206.376 248.715,206.376 248.085,206.276 247.700 C 206.175 247.315,206.093 247.630,206.093 248.400 " stroke="none" fill="#747c8c" fill-rule="evenodd"></path><path id="path4" d="M306.319 12.207 C 306.181 12.431,309.038 21.521,312.668 32.407 C 319.316 52.344,322.222 61.213,323.676 66.000 C 324.429 68.478,324.632 69.168,325.555 72.400 C 325.775 73.170,326.135 74.430,326.355 75.200 C 327.270 78.404,327.671 79.875,327.990 81.200 C 328.176 81.970,328.983 85.210,329.784 88.400 C 331.458 95.067,332.626 99.987,333.013 102.000 C 333.161 102.770,333.422 104.030,333.593 104.800 C 334.308 108.024,335.192 112.495,336.004 117.000 C 336.480 119.640,337.015 122.520,337.192 123.400 L 337.514 125.000 337.557 123.506 C 337.581 122.684,337.427 121.244,337.216 120.306 C 337.005 119.368,336.634 117.520,336.392 116.200 C 335.398 110.779,335.127 109.439,333.359 101.200 C 332.345 96.470,330.882 90.170,330.109 87.200 C 329.337 84.230,328.616 81.213,328.508 80.496 C 328.400 79.779,328.151 79.094,327.956 78.973 C 327.760 78.852,327.600 78.322,327.600 77.795 C 327.600 77.269,327.439 76.424,327.242 75.919 C 327.045 75.413,326.667 74.190,326.403 73.200 C 326.138 72.210,325.760 71.087,325.561 70.705 C 325.362 70.323,325.200 69.646,325.200 69.200 C 325.200 68.754,325.038 68.077,324.839 67.695 C 324.640 67.313,324.263 66.190,324.000 65.200 C 323.737 64.210,323.360 63.087,323.161 62.705 C 322.962 62.323,322.800 61.736,322.800 61.400 C 322.800 61.064,322.640 60.477,322.445 60.095 C 322.249 59.713,321.547 57.690,320.884 55.600 C 317.418 44.666,312.743 30.515,312.396 29.905 C 312.178 29.523,312.000 28.859,312.000 28.429 C 312.000 27.999,311.820 27.536,311.600 27.400 C 311.380 27.264,311.200 26.724,311.200 26.200 C 311.200 25.676,311.020 25.136,310.800 25.000 C 310.580 24.864,310.400 24.324,310.400 23.800 C 310.400 23.276,310.220 22.736,310.000 22.600 C 309.780 22.464,309.600 21.924,309.600 21.400 C 309.600 20.876,309.420 20.336,309.200 20.200 C 308.980 20.064,308.800 19.524,308.800 19.000 C 308.800 18.476,308.620 17.936,308.400 17.800 C 308.180 17.664,308.000 17.201,308.000 16.771 C 308.000 16.341,307.835 15.677,307.634 15.295 C 307.433 14.913,307.111 13.970,306.919 13.200 C 306.727 12.431,306.457 11.984,306.319 12.207 M318.800 12.776 C 318.800 13.203,318.980 13.664,319.200 13.800 C 319.420 13.936,319.600 14.397,319.600 14.824 C 319.600 15.251,319.780 15.600,320.000 15.600 C 320.220 15.600,320.400 15.960,320.400 16.400 C 320.400 16.840,320.580 17.200,320.800 17.200 C 321.020 17.200,321.200 17.549,321.200 17.976 C 321.200 18.403,321.380 18.864,321.600 19.000 C 321.820 19.136,322.000 19.597,322.000 20.024 C 322.000 20.451,322.180 20.800,322.400 20.800 C 322.620 20.800,322.800 21.250,322.800 21.800 C 322.800 22.350,322.980 22.800,323.200 22.800 C 323.420 22.800,323.600 23.160,323.600 23.600 C 323.600 24.040,323.780 24.400,324.000 24.400 C 324.220 24.400,324.400 24.760,324.400 25.200 C 324.400 25.640,324.580 26.000,324.800 26.000 C 325.020 26.000,325.200 26.450,325.200 27.000 C 325.200 27.550,325.380 28.000,325.600 28.000 C 325.820 28.000,326.000 28.360,326.000 28.800 C 326.000 29.240,326.180 29.600,326.400 29.600 C 326.620 29.600,326.800 29.960,326.800 30.400 C 326.800 30.840,326.980 31.200,327.200 31.200 C 327.420 31.200,327.600 30.750,327.600 30.200 C 327.600 29.650,327.465 29.199,327.300 29.197 C 326.941 29.193,326.000 27.256,326.000 26.520 C 326.000 26.234,325.820 26.000,325.600 26.000 C 325.380 26.000,325.200 25.645,325.200 25.212 C 325.200 24.779,324.853 23.806,324.428 23.050 C 324.004 22.295,323.764 21.569,323.895 21.438 C 324.026 21.307,323.923 21.200,323.667 21.200 C 323.410 21.200,323.200 20.750,323.200 20.200 C 323.200 19.561,322.975 19.200,322.576 19.200 C 322.233 19.200,322.067 19.016,322.206 18.791 C 322.499 18.316,321.563 16.000,321.079 16.000 C 320.899 16.000,320.844 15.852,320.956 15.671 C 321.068 15.491,320.898 14.840,320.580 14.226 C 320.261 13.611,320.000 12.859,320.000 12.554 C 320.000 12.249,319.730 12.000,319.400 12.000 C 319.070 12.000,318.800 12.349,318.800 12.776 M327.820 31.734 C 327.596 32.231,327.765 32.988,328.344 34.072 C 328.815 34.954,329.099 35.840,328.975 36.041 C 328.851 36.241,329.031 36.514,329.375 36.646 C 329.719 36.778,330.000 37.226,330.000 37.643 C 330.000 38.059,330.188 38.400,330.418 38.400 C 330.647 38.400,330.798 38.625,330.752 38.900 C 330.617 39.716,331.238 41.534,331.815 42.013 C 332.111 42.258,332.263 42.692,332.153 42.978 C 332.044 43.263,332.231 43.603,332.570 43.733 C 332.926 43.870,333.087 44.229,332.950 44.585 C 332.821 44.923,332.914 45.200,333.157 45.200 C 333.401 45.200,333.600 45.549,333.600 45.976 C 333.600 46.403,333.780 46.864,334.000 47.000 C 334.220 47.136,334.400 47.597,334.400 48.024 C 334.400 48.451,334.580 48.800,334.800 48.800 C 335.020 48.800,335.200 49.250,335.200 49.800 C 335.200 50.350,335.380 50.800,335.600 50.800 C 335.820 50.800,336.000 51.160,336.000 51.600 C 336.000 52.040,336.180 52.400,336.400 52.400 C 336.620 52.400,336.800 52.749,336.800 53.176 C 336.800 53.603,336.980 54.064,337.200 54.200 C 337.420 54.336,337.600 54.797,337.600 55.224 C 337.600 55.651,337.780 56.000,338.000 56.000 C 338.220 56.000,338.400 56.360,338.400 56.800 C 338.400 57.240,338.580 57.600,338.800 57.600 C 339.020 57.600,339.200 58.050,339.200 58.600 C 339.200 59.150,339.380 59.600,339.600 59.600 C 339.820 59.600,340.000 60.050,340.000 60.600 C 340.000 61.150,340.180 61.600,340.400 61.600 C 340.620 61.600,340.800 61.960,340.800 62.400 C 340.800 62.840,340.980 63.200,341.200 63.200 C 341.666 63.200,341.741 61.874,341.300 61.433 C 341.135 61.268,340.985 61.013,340.966 60.867 C 340.948 60.720,340.695 60.060,340.404 59.400 C 340.113 58.740,339.802 57.750,339.713 57.200 C 339.624 56.650,339.382 56.140,339.175 56.067 C 338.969 55.993,338.800 55.588,338.800 55.167 C 338.800 54.745,338.620 54.400,338.400 54.400 C 338.180 54.400,338.000 54.040,338.000 53.600 C 338.000 53.160,337.820 52.800,337.600 52.800 C 337.380 52.800,337.245 52.656,337.300 52.479 C 337.428 52.067,335.497 47.843,335.100 47.667 C 334.935 47.593,334.800 47.194,334.800 46.779 C 334.800 46.364,334.440 45.383,334.000 44.600 C 333.560 43.817,333.200 42.911,333.200 42.588 C 333.200 42.265,333.065 41.999,332.900 41.997 C 332.494 41.993,331.600 40.014,331.600 39.120 C 331.600 38.724,331.420 38.400,331.200 38.400 C 330.980 38.400,330.800 38.051,330.800 37.624 C 330.800 37.197,330.620 36.736,330.400 36.600 C 330.180 36.464,330.000 36.003,330.000 35.576 C 330.000 35.149,329.820 34.800,329.600 34.800 C 329.380 34.800,329.200 34.440,329.200 34.000 C 329.200 33.560,329.032 33.200,328.827 33.200 C 328.621 33.200,328.385 32.705,328.303 32.100 C 328.174 31.156,328.105 31.104,327.820 31.734 M341.900 63.431 C 341.735 63.597,341.600 64.099,341.600 64.547 C 341.600 65.135,341.721 65.239,342.038 64.922 C 342.278 64.682,342.413 64.180,342.338 63.807 C 342.262 63.433,342.065 63.264,341.900 63.431 M342.400 66.200 C 342.400 66.750,342.580 67.200,342.800 67.200 C 343.020 67.200,343.200 67.560,343.200 68.000 C 343.200 68.440,343.401 68.800,343.647 68.800 C 343.926 68.800,343.989 68.463,343.814 67.900 C 343.661 67.405,343.439 66.595,343.321 66.100 C 343.032 64.887,342.400 64.955,342.400 66.200 M344.000 70.200 C 344.000 70.750,344.180 71.200,344.400 71.200 C 344.620 71.200,344.800 71.560,344.800 72.000 C 344.800 72.440,344.980 72.800,345.200 72.800 C 345.420 72.800,345.600 72.350,345.600 71.800 C 345.600 71.250,345.420 70.800,345.200 70.800 C 344.980 70.800,344.800 70.440,344.800 70.000 C 344.800 69.560,344.620 69.200,344.400 69.200 C 344.180 69.200,344.000 69.650,344.000 70.200 M345.600 74.200 C 345.600 74.750,345.799 75.200,346.043 75.200 C 346.286 75.200,346.384 75.465,346.260 75.788 C 346.136 76.112,346.308 76.651,346.642 76.985 C 346.977 77.320,347.141 77.771,347.008 77.988 C 346.874 78.204,347.206 79.173,347.746 80.140 C 348.286 81.108,348.699 82.218,348.664 82.607 C 348.629 82.996,348.825 83.393,349.100 83.490 C 349.416 83.602,349.600 83.287,349.600 82.633 C 349.600 82.065,349.459 81.600,349.287 81.600 C 349.015 81.600,347.739 77.961,347.921 77.703 C 347.959 77.650,347.632 76.969,347.195 76.191 C 346.758 75.412,346.400 74.421,346.400 73.988 C 346.400 73.555,346.220 73.200,346.000 73.200 C 345.780 73.200,345.600 73.650,345.600 74.200 M215.200 75.281 C 214.650 75.516,213.595 75.972,212.855 76.295 C 208.802 78.060,205.681 83.703,206.114 88.481 C 207.548 104.298,231.200 103.438,231.200 87.569 C 231.200 79.169,222.228 72.278,215.200 75.281 M222.285 75.958 C 236.017 80.977,231.808 101.145,217.381 99.449 C 210.384 98.627,205.109 91.413,206.850 85.046 C 208.870 77.662,215.794 73.585,222.285 75.958 M349.322 84.658 C 349.183 85.022,349.322 85.513,349.635 85.758 C 349.946 86.001,350.200 86.648,350.200 87.195 C 350.200 87.812,350.457 88.239,350.879 88.320 C 351.473 88.434,351.506 88.284,351.141 87.125 C 350.911 86.396,350.629 85.395,350.515 84.900 C 350.271 83.844,349.681 83.724,349.322 84.658 M350.800 89.600 C 350.800 90.040,350.980 90.400,351.200 90.400 C 351.420 90.400,351.600 90.929,351.600 91.576 C 351.600 92.223,351.780 92.864,352.000 93.000 C 352.220 93.136,352.400 93.676,352.400 94.200 C 352.400 94.724,352.580 95.264,352.800 95.400 C 353.020 95.536,353.200 96.177,353.200 96.824 C 353.200 97.471,353.380 98.000,353.600 98.000 C 353.820 98.000,354.000 98.529,354.000 99.176 C 354.000 99.823,354.180 100.464,354.400 100.600 C 354.620 100.736,354.800 101.467,354.800 102.224 C 354.800 102.981,354.980 103.600,355.200 103.600 C 355.420 103.600,355.600 104.230,355.600 105.000 C 355.600 105.770,355.780 106.400,356.000 106.400 C 356.220 106.400,356.400 107.041,356.400 107.824 C 356.400 108.671,356.562 109.147,356.800 109.000 C 357.044 108.849,357.200 109.463,357.200 110.576 C 357.200 111.579,357.380 112.400,357.600 112.400 C 357.820 112.400,358.000 113.030,358.000 113.800 C 358.000 114.570,358.180 115.200,358.400 115.200 C 358.896 115.200,358.933 112.930,358.442 112.626 C 358.090 112.408,357.607 109.841,357.594 108.120 C 357.591 107.636,357.411 107.130,357.194 106.996 C 356.977 106.862,356.800 106.144,356.800 105.400 C 356.800 104.656,356.620 103.936,356.400 103.800 C 356.180 103.664,356.000 103.034,356.000 102.400 C 356.000 101.766,355.820 101.136,355.600 101.000 C 355.380 100.864,355.200 100.313,355.200 99.776 C 355.200 99.239,355.020 98.800,354.800 98.800 C 354.580 98.800,354.400 98.164,354.400 97.387 C 354.400 96.567,354.172 95.888,353.857 95.767 C 353.558 95.652,353.363 95.120,353.422 94.579 C 353.481 94.041,353.365 93.600,353.165 93.600 C 352.964 93.600,352.800 92.959,352.800 92.176 C 352.800 91.329,352.638 90.853,352.400 91.000 C 352.167 91.144,352.000 90.737,352.000 90.024 C 352.000 89.203,351.803 88.800,351.400 88.800 C 351.067 88.800,350.800 89.156,350.800 89.600 M359.067 115.467 C 358.635 115.899,358.762 118.400,359.216 118.400 C 359.451 118.400,359.591 117.702,359.538 116.800 C 359.486 115.920,359.419 115.200,359.388 115.200 C 359.358 115.200,359.213 115.320,359.067 115.467 M359.600 120.624 C 359.600 121.471,359.762 121.947,360.000 121.800 C 360.220 121.664,360.400 121.023,360.400 120.376 C 360.400 119.729,360.220 119.200,360.000 119.200 C 359.780 119.200,359.600 119.841,359.600 120.624 M360.400 123.600 C 360.400 124.260,360.580 124.800,360.800 124.800 C 361.020 124.800,361.200 124.260,361.200 123.600 C 361.200 122.940,361.020 122.400,360.800 122.400 C 360.580 122.400,360.400 122.940,360.400 123.600 M98.500 125.097 C 100.205 125.172,102.995 125.172,104.700 125.097 C 106.405 125.022,105.010 124.961,101.600 124.961 C 98.190 124.961,96.795 125.022,98.500 125.097 M73.123 200.299 C 75.831 200.368,80.151 200.368,82.723 200.299 C 85.295 200.229,83.080 200.172,77.800 200.173 C 72.520 200.173,70.415 200.230,73.123 200.299 M104.800 200.284 C 115.974 200.530,161.280 200.582,160.182 200.347 C 159.532 200.208,145.680 200.112,129.400 200.134 C 113.120 200.156,102.050 200.223,104.800 200.284 M277.200 200.353 C 276.430 200.489,291.083 200.548,309.763 200.485 L 343.726 200.370 343.445 209.485 C 342.831 229.351,341.818 242.664,339.602 260.000 C 339.000 264.708,336.488 280.760,335.783 284.400 C 334.822 289.365,334.353 291.717,333.988 293.400 C 333.797 294.280,333.441 295.990,333.196 297.200 C 332.610 300.097,331.566 304.502,329.784 311.600 C 328.983 314.790,328.176 318.030,327.990 318.800 C 327.805 319.570,327.461 320.875,327.227 321.700 C 326.992 322.525,326.610 323.875,326.377 324.700 C 326.145 325.525,325.785 326.785,325.577 327.500 C 325.370 328.215,325.035 329.385,324.833 330.100 C 323.365 335.299,320.736 343.400,312.661 367.600 C 308.758 379.299,306.201 387.549,306.412 387.765 C 306.624 387.981,306.879 387.447,307.037 386.456 C 307.185 385.535,307.461 384.686,307.653 384.568 C 307.844 384.449,308.000 383.924,308.000 383.400 C 308.000 382.876,308.180 382.336,308.400 382.200 C 308.620 382.064,308.800 381.524,308.800 381.000 C 308.800 380.476,308.980 379.936,309.200 379.800 C 309.420 379.664,309.600 379.124,309.600 378.600 C 309.600 378.076,309.780 377.536,310.000 377.400 C 310.220 377.264,310.400 376.724,310.400 376.200 C 310.400 375.676,310.580 375.136,310.800 375.000 C 311.020 374.864,311.200 374.324,311.200 373.800 C 311.200 373.276,311.380 372.736,311.600 372.600 C 311.820 372.464,312.000 372.001,312.000 371.571 C 312.000 371.141,312.177 370.477,312.392 370.095 C 312.745 369.470,314.077 365.444,320.892 344.400 C 321.996 340.990,323.036 337.840,323.204 337.400 C 323.372 336.960,323.727 335.790,323.993 334.800 C 324.260 333.810,324.640 332.687,324.839 332.305 C 325.038 331.923,325.200 331.246,325.200 330.800 C 325.200 330.354,325.362 329.677,325.561 329.295 C 325.760 328.913,326.138 327.790,326.403 326.800 C 326.667 325.810,327.045 324.587,327.242 324.081 C 327.439 323.576,327.600 322.731,327.600 322.205 C 327.600 321.678,327.760 321.148,327.956 321.027 C 328.151 320.906,328.402 320.221,328.512 319.504 C 328.622 318.787,329.277 316.040,329.967 313.400 C 331.230 308.569,334.508 294.090,335.264 290.000 C 335.488 288.790,335.843 286.900,336.054 285.800 C 337.044 280.623,338.506 271.899,339.204 267.000 C 342.146 246.351,343.434 230.893,343.845 211.300 L 344.082 200.000 311.341 200.053 C 293.333 200.082,277.970 200.217,277.200 200.353 M162.433 200.947 C 162.525 201.028,163.479 201.188,164.554 201.304 C 165.749 201.432,166.293 201.378,165.954 201.163 C 165.435 200.835,162.071 200.628,162.433 200.947 M271.400 201.196 C 270.902 201.408,271.431 201.451,272.800 201.312 C 274.010 201.189,275.075 201.023,275.167 200.944 C 275.511 200.647,272.167 200.870,271.400 201.196 M167.200 201.755 C 167.200 201.840,167.730 201.987,168.379 202.082 C 169.027 202.177,169.467 202.108,169.355 201.928 C 169.157 201.607,167.200 201.450,167.200 201.755 M268.000 202.006 C 267.578 202.282,267.815 202.323,268.800 202.142 C 270.525 201.825,270.851 201.598,269.567 201.606 C 269.035 201.609,268.330 201.789,268.000 202.006 M251.400 210.235 L 250.200 211.266 251.600 210.363 C 253.396 209.204,253.401 209.200,252.967 209.202 C 252.765 209.203,252.060 209.668,251.400 210.235 M189.800 213.720 C 193.455 217.243,194.890 218.380,192.378 215.764 C 191.620 214.975,189.920 213.411,188.600 212.290 C 187.106 211.021,187.559 211.561,189.800 213.720 M368.250 211.650 C 367.717 214.314,367.958 222.391,368.563 222.159 C 369.008 221.988,369.137 220.729,369.178 216.171 C 369.227 210.737,368.824 208.778,368.250 211.650 M246.489 214.510 L 243.598 217.421 243.700 302.810 L 243.802 388.200 243.901 302.756 L 244.000 217.312 246.996 214.456 C 248.644 212.885,249.854 211.600,249.686 211.600 C 249.518 211.600,248.079 212.910,246.489 214.510 M193.796 302.800 C 193.796 349.770,193.843 368.985,193.900 345.500 C 193.957 322.015,193.957 283.585,193.900 260.100 C 193.843 236.615,193.796 255.830,193.796 302.800 M367.456 226.418 C 366.950 228.949,367.148 232.400,367.800 232.400 C 368.282 232.400,368.399 231.792,368.394 229.300 C 368.387 225.861,367.880 224.301,367.456 226.418 M366.652 235.300 C 366.339 236.467,366.344 238.749,366.661 239.934 C 367.092 241.545,367.587 240.042,367.594 237.100 C 367.600 234.443,367.125 233.535,366.652 235.300 M365.850 242.850 C 365.447 244.863,365.560 246.299,366.138 246.521 C 366.550 246.679,366.696 246.124,366.759 244.164 C 366.846 241.494,366.284 240.682,365.850 242.850 M364.968 248.984 C 364.653 250.238,365.084 252.119,365.612 251.793 C 365.825 251.661,366.000 250.854,366.000 250.000 C 366.000 248.176,365.335 247.521,364.968 248.984 M364.442 254.071 C 364.116 254.713,364.008 255.576,364.171 256.228 C 364.589 257.891,365.275 256.823,365.119 254.754 L 364.986 253.000 364.442 254.071 M363.461 259.288 C 363.185 260.345,363.540 262.000,364.043 262.000 C 364.240 262.000,364.400 261.190,364.400 260.200 C 364.400 258.307,363.856 257.779,363.461 259.288 M362.739 263.500 C 362.586 265.255,362.629 265.613,363.002 265.703 C 363.221 265.756,363.456 265.125,363.524 264.300 C 363.596 263.432,363.470 262.800,363.224 262.800 C 362.991 262.800,362.773 263.115,362.739 263.500 M362.000 268.400 C 362.000 269.280,362.180 270.000,362.400 270.000 C 362.620 270.000,362.800 269.280,362.800 268.400 C 362.800 267.520,362.620 266.800,362.400 266.800 C 362.180 266.800,362.000 267.520,362.000 268.400 M361.700 270.665 C 361.127 270.896,360.997 274.400,361.561 274.400 C 361.760 274.400,361.985 273.500,362.061 272.400 C 362.138 271.300,362.200 270.414,362.200 270.431 C 362.200 270.449,361.975 270.554,361.700 270.665 M360.400 275.976 C 360.400 276.869,360.580 277.600,360.800 277.600 C 361.020 277.600,361.200 276.981,361.200 276.224 C 361.200 275.467,361.020 274.736,360.800 274.600 C 360.558 274.451,360.400 274.996,360.400 275.976 M359.600 279.776 C 359.600 280.779,359.420 281.600,359.200 281.600 C 358.980 281.600,358.800 282.140,358.800 282.800 C 358.800 284.402,359.453 284.333,359.745 282.700 C 360.428 278.870,360.454 278.481,360.038 278.224 C 359.745 278.042,359.600 278.556,359.600 279.776 M358.000 285.800 C 358.000 286.350,358.180 286.800,358.400 286.800 C 358.620 286.800,358.800 286.350,358.800 285.800 C 358.800 285.250,358.620 284.800,358.400 284.800 C 358.180 284.800,358.000 285.250,358.000 285.800 M357.200 289.200 C 357.200 290.080,357.020 290.800,356.800 290.800 C 356.580 290.800,356.400 291.531,356.400 292.424 C 356.400 293.404,356.242 293.949,356.000 293.800 C 355.762 293.653,355.600 294.129,355.600 294.976 C 355.600 295.759,355.420 296.400,355.200 296.400 C 354.980 296.400,354.800 297.030,354.800 297.800 C 354.800 298.570,354.620 299.200,354.400 299.200 C 354.180 299.200,354.000 299.729,354.000 300.376 C 354.000 301.023,353.820 301.664,353.600 301.800 C 353.380 301.936,353.200 302.566,353.200 303.200 C 353.200 303.834,353.020 304.464,352.800 304.600 C 352.146 305.004,352.337 306.400,353.047 306.400 C 353.517 306.400,353.642 306.133,353.506 305.420 C 353.391 304.821,353.529 304.359,353.859 304.233 C 354.157 304.118,354.400 303.580,354.400 303.036 C 354.400 302.492,354.580 301.936,354.800 301.800 C 355.020 301.664,355.200 301.034,355.200 300.400 C 355.200 299.766,355.380 299.136,355.600 299.000 C 355.820 298.864,356.000 298.234,356.000 297.600 C 356.000 296.966,356.182 296.335,356.404 296.197 C 356.627 296.060,356.770 295.437,356.722 294.814 C 356.675 294.190,356.844 293.428,357.099 293.121 C 357.354 292.814,357.571 292.211,357.582 291.782 C 357.593 291.352,357.710 290.235,357.843 289.300 C 358.002 288.180,357.933 287.600,357.642 287.600 C 357.393 287.600,357.200 288.299,357.200 289.200 M351.600 308.400 C 351.600 309.060,351.420 309.600,351.200 309.600 C 350.980 309.600,350.800 309.960,350.800 310.400 C 350.800 310.844,351.067 311.200,351.400 311.200 C 351.803 311.200,352.000 310.797,352.000 309.976 C 352.000 309.303,352.142 308.840,352.315 308.948 C 352.488 309.055,352.666 308.705,352.711 308.171 C 352.763 307.542,352.581 307.200,352.196 307.200 C 351.800 307.200,351.600 307.604,351.600 308.400 M350.267 311.867 C 350.120 312.013,350.000 312.543,350.000 313.043 C 350.000 313.543,349.811 314.069,349.581 314.212 C 349.350 314.354,349.215 314.787,349.281 315.174 C 349.346 315.561,349.155 316.172,348.855 316.533 C 348.280 317.226,348.489 318.400,349.187 318.400 C 349.414 318.400,349.600 317.860,349.600 317.200 C 349.600 316.540,349.780 316.000,350.000 316.000 C 350.220 316.000,350.400 315.561,350.400 315.024 C 350.400 314.487,350.559 313.949,350.752 313.830 C 351.329 313.473,351.547 311.600,351.011 311.600 C 350.748 311.600,350.413 311.720,350.267 311.867 M347.798 318.804 C 347.661 319.026,347.655 319.544,347.786 319.956 C 347.932 320.417,347.800 320.791,347.443 320.928 C 347.084 321.066,346.944 321.466,347.078 321.976 C 347.200 322.445,347.101 322.800,346.847 322.800 C 346.601 322.800,346.400 323.250,346.400 323.800 C 346.400 324.350,346.220 324.800,346.000 324.800 C 345.780 324.800,345.600 325.250,345.600 325.800 C 345.600 326.350,345.780 326.800,346.000 326.800 C 346.220 326.800,346.400 326.468,346.400 326.061 C 346.400 325.655,346.708 324.710,347.085 323.961 C 347.463 323.213,347.828 322.244,347.897 321.809 C 347.966 321.373,348.198 320.842,348.411 320.629 C 348.909 320.131,348.919 318.400,348.424 318.400 C 348.217 318.400,347.935 318.582,347.798 318.804 M344.800 327.800 C 344.800 328.130,344.980 328.400,345.200 328.400 C 345.420 328.400,345.600 328.130,345.600 327.800 C 345.600 327.470,345.420 327.200,345.200 327.200 C 344.980 327.200,344.800 327.470,344.800 327.800 M344.158 329.500 C 344.039 329.885,343.775 330.513,343.571 330.895 C 343.367 331.277,343.200 331.862,343.200 332.195 C 343.200 332.528,343.020 332.800,342.800 332.800 C 342.580 332.800,342.400 333.250,342.400 333.800 C 342.400 335.400,342.979 334.959,343.580 332.900 C 344.192 330.801,344.791 329.553,345.400 329.106 C 345.625 328.941,345.488 328.810,345.087 328.806 C 344.696 328.803,344.277 329.115,344.158 329.500 M341.600 335.553 C 341.600 335.993,341.780 336.464,342.000 336.600 C 342.220 336.736,342.400 336.487,342.400 336.047 C 342.400 335.607,342.220 335.136,342.000 335.000 C 341.780 334.864,341.600 335.113,341.600 335.553 M340.800 337.600 C 340.800 338.040,340.620 338.400,340.400 338.400 C 340.180 338.400,340.000 338.850,340.000 339.400 C 340.000 339.950,339.820 340.400,339.600 340.400 C 339.380 340.400,339.200 340.749,339.200 341.176 C 339.200 341.603,339.020 342.064,338.800 342.200 C 338.580 342.336,338.400 342.797,338.400 343.224 C 338.400 343.651,338.220 344.000,338.000 344.000 C 337.780 344.000,337.600 344.349,337.600 344.776 C 337.600 345.203,337.420 345.664,337.200 345.800 C 336.980 345.936,336.800 346.397,336.800 346.824 C 336.800 347.251,336.620 347.600,336.400 347.600 C 336.180 347.600,336.000 347.960,336.000 348.400 C 336.000 348.840,335.820 349.200,335.600 349.200 C 335.380 349.200,335.200 349.472,335.200 349.805 C 335.200 350.138,335.041 350.723,334.847 351.105 C 333.790 353.183,333.532 353.967,333.776 354.362 C 333.931 354.612,333.762 354.800,333.381 354.800 C 332.946 354.800,332.796 355.013,332.950 355.415 C 333.087 355.771,332.926 356.130,332.570 356.267 C 332.231 356.397,332.044 356.737,332.153 357.022 C 332.263 357.308,332.111 357.742,331.815 357.987 C 331.238 358.466,330.617 360.284,330.752 361.100 C 330.798 361.375,330.647 361.600,330.418 361.600 C 330.188 361.600,330.000 361.960,330.000 362.400 C 330.000 362.840,329.820 363.200,329.600 363.200 C 329.380 363.200,329.194 363.515,329.187 363.900 C 329.180 364.285,328.916 364.942,328.600 365.359 C 328.022 366.123,328.127 366.800,328.824 366.800 C 329.031 366.800,329.200 366.440,329.200 366.000 C 329.200 365.560,329.380 365.200,329.600 365.200 C 329.820 365.200,330.000 364.851,330.000 364.424 C 330.000 363.997,330.180 363.536,330.400 363.400 C 330.620 363.264,330.800 362.803,330.800 362.376 C 330.800 361.949,330.980 361.600,331.200 361.600 C 331.420 361.600,331.600 361.276,331.600 360.880 C 331.600 359.986,332.494 358.007,332.900 358.003 C 333.065 358.001,333.200 357.735,333.200 357.412 C 333.200 357.089,333.560 356.183,334.000 355.400 C 334.440 354.617,334.800 353.636,334.800 353.221 C 334.800 352.806,334.935 352.407,335.100 352.333 C 335.497 352.157,337.428 347.933,337.300 347.521 C 337.245 347.344,337.380 347.200,337.600 347.200 C 337.820 347.200,338.000 346.840,338.000 346.400 C 338.000 345.960,338.180 345.600,338.400 345.600 C 338.620 345.600,338.800 345.240,338.800 344.800 C 338.800 344.360,338.980 344.000,339.200 344.000 C 339.420 344.000,339.600 343.460,339.600 342.800 C 339.600 342.140,339.780 341.600,340.000 341.600 C 340.220 341.600,340.400 341.251,340.400 340.824 C 340.400 340.397,340.583 339.934,340.807 339.796 C 341.030 339.658,341.117 339.390,341.000 339.200 C 340.883 339.010,340.970 338.742,341.193 338.604 C 341.719 338.280,341.724 336.800,341.200 336.800 C 340.980 336.800,340.800 337.160,340.800 337.600 M327.600 367.576 C 327.600 368.003,327.780 368.464,328.000 368.600 C 328.227 368.740,328.400 368.404,328.400 367.824 C 328.400 367.261,328.220 366.800,328.000 366.800 C 327.780 366.800,327.600 367.149,327.600 367.576 M326.800 369.600 C 326.800 370.040,326.620 370.400,326.400 370.400 C 326.180 370.400,326.000 370.760,326.000 371.200 C 326.000 371.640,325.820 372.000,325.600 372.000 C 325.380 372.000,325.200 372.349,325.200 372.776 C 325.200 373.203,325.380 373.664,325.600 373.800 C 325.820 373.936,326.000 373.802,326.000 373.503 C 326.000 372.749,326.935 370.807,327.300 370.803 C 327.465 370.801,327.600 370.350,327.600 369.800 C 327.600 369.250,327.420 368.800,327.200 368.800 C 326.980 368.800,326.800 369.160,326.800 369.600 M324.400 374.800 C 324.400 375.240,324.220 375.600,324.000 375.600 C 323.780 375.600,323.600 375.865,323.600 376.188 C 323.600 376.511,323.240 377.417,322.800 378.200 C 322.360 378.983,322.000 379.889,322.000 380.212 C 322.000 380.535,321.820 380.800,321.600 380.800 C 321.380 380.800,321.200 381.250,321.200 381.800 C 321.200 382.350,321.020 382.800,320.800 382.800 C 320.580 382.800,320.400 383.160,320.400 383.600 C 320.400 384.040,320.220 384.400,320.000 384.400 C 319.780 384.400,319.600 384.749,319.600 385.176 C 319.600 385.603,319.420 386.064,319.200 386.200 C 318.574 386.587,318.731 388.000,319.400 388.000 C 319.730 388.000,320.000 387.751,320.000 387.446 C 320.000 387.141,320.261 386.389,320.580 385.774 C 320.898 385.160,321.068 384.509,320.956 384.329 C 320.844 384.148,320.898 383.999,321.076 383.997 C 321.454 383.993,322.400 382.080,322.400 381.320 C 322.400 381.034,322.580 380.800,322.800 380.800 C 323.020 380.800,323.200 380.476,323.200 380.080 C 323.200 379.684,323.416 379.144,323.680 378.880 C 323.944 378.616,324.037 378.400,323.887 378.400 C 323.737 378.400,323.971 377.765,324.407 376.988 C 325.258 375.473,325.452 374.000,324.800 374.000 C 324.580 374.000,324.400 374.360,324.400 374.800 " stroke="none" fill="#f49c6c" fill-rule="evenodd"></path></g></svg>