<svg id="svg" version="1.1" xmlns="http://www.w3.org/2000/svg" xmlns:xlink="http://www.w3.org/1999/xlink" width="400" height="416.43835616438355" viewBox="0, 0, 400,416.43835616438355"><g id="svgg"><path id="path0" d="M263.099 87.975 C 256.377 90.621,251.029 97.283,248.950 105.600 C 247.815 110.141,247.790 182.509,248.921 187.172 C 250.467 193.541,253.950 199.192,258.171 202.180 C 263.754 206.132,263.409 206.100,298.400 205.934 L 326.600 205.800 328.391 204.846 C 335.575 201.016,339.625 195.384,341.640 186.420 C 342.731 181.566,342.821 111.582,341.742 106.749 C 339.960 98.768,335.484 92.471,329.122 88.996 L 326.200 87.400 295.600 87.314 C 266.538 87.232,264.904 87.265,263.099 87.975 " stroke="none" fill="#f27374" fill-rule="evenodd"></path><path id="path1" d="M47.455 27.400 C 47.321 27.751,46.721 28.000,46.013 28.000 C 45.333 28.000,44.448 28.352,44.000 28.800 C 43.514 29.286,42.667 29.600,41.843 29.600 C 41.005 29.600,40.397 29.830,40.255 30.200 C 40.124 30.543,39.527 30.800,38.859 30.800 C 38.030 30.800,37.633 31.031,37.484 31.600 C 37.342 32.144,36.938 32.400,36.225 32.400 C 35.647 32.400,35.071 32.670,34.945 33.000 C 34.818 33.330,34.358 33.600,33.922 33.600 C 33.259 33.600,29.600 36.831,29.600 37.415 C 29.600 37.858,27.946 39.200,27.400 39.200 C 27.070 39.200,26.800 39.470,26.800 39.800 C 26.800 40.130,26.542 40.400,26.227 40.400 C 25.912 40.400,25.540 40.760,25.400 41.200 C 25.260 41.640,24.888 42.000,24.573 42.000 C 24.258 42.000,24.000 42.270,24.000 42.600 C 24.000 42.930,23.730 43.200,23.400 43.200 C 22.981 43.200,22.800 43.622,22.800 44.600 C 22.800 45.733,22.648 46.000,22.000 46.000 C 21.556 46.000,21.200 46.267,21.200 46.600 C 21.200 46.930,20.930 47.200,20.600 47.200 C 20.181 47.200,20.000 47.622,20.000 48.600 C 20.000 49.733,19.848 50.000,19.200 50.000 C 18.667 50.000,18.400 50.267,18.400 50.800 C 18.400 51.244,18.133 51.600,17.800 51.600 C 17.427 51.600,17.200 51.978,17.200 52.600 C 17.200 53.150,16.840 53.960,16.400 54.400 C 15.960 54.840,15.600 55.483,15.600 55.829 C 15.600 56.174,15.330 56.727,15.000 57.057 C 14.670 57.387,14.400 58.075,14.400 58.586 C 14.400 59.097,14.130 59.618,13.800 59.745 C 13.392 59.901,13.200 60.540,13.200 61.741 C 13.200 63.170,13.048 63.547,12.400 63.716 C 11.732 63.891,11.600 64.262,11.600 65.963 C 11.600 67.507,11.455 68.000,11.000 68.000 C 10.533 68.000,10.400 68.533,10.400 70.400 C 10.400 72.267,10.222 72.978,9.599 73.601 C 8.509 74.691,8.510 337.400,9.600 337.400 C 10.071 337.400,10.225 338.059,10.316 340.464 C 10.395 342.547,10.620 343.684,11.016 344.013 C 11.337 344.280,11.600 345.091,11.600 345.816 C 11.600 347.531,11.951 348.400,12.643 348.400 C 13.013 348.400,13.200 348.870,13.200 349.800 C 13.200 350.778,13.381 351.200,13.800 351.200 C 14.215 351.200,14.400 351.617,14.400 352.557 C 14.400 353.395,14.630 354.003,15.000 354.145 C 15.330 354.271,15.600 354.847,15.600 355.425 C 15.600 356.138,15.856 356.542,16.400 356.684 C 17.001 356.841,17.200 357.230,17.200 358.247 C 17.200 359.183,17.385 359.600,17.800 359.600 C 18.197 359.600,18.400 359.997,18.400 360.773 C 18.400 361.595,18.640 362.022,19.200 362.200 C 19.640 362.340,20.000 362.712,20.000 363.027 C 20.000 363.342,20.270 363.600,20.600 363.600 C 21.004 363.600,21.200 364.004,21.200 364.837 C 21.200 365.738,21.417 366.132,22.000 366.284 C 22.440 366.399,22.800 366.742,22.800 367.047 C 22.800 367.351,23.070 367.600,23.400 367.600 C 23.733 367.600,24.000 367.956,24.000 368.400 C 24.000 368.844,24.267 369.200,24.600 369.200 C 24.930 369.200,25.200 369.470,25.200 369.800 C 25.200 370.133,25.556 370.400,26.000 370.400 C 26.533 370.400,26.800 370.667,26.800 371.200 C 26.800 371.644,27.067 372.000,27.400 372.000 C 27.730 372.000,28.000 372.270,28.000 372.600 C 28.000 372.933,28.356 373.200,28.800 373.200 C 29.240 373.200,29.600 373.451,29.600 373.757 C 29.600 374.064,29.870 374.418,30.200 374.545 C 30.530 374.671,30.800 375.029,30.800 375.338 C 30.800 375.995,31.819 376.926,32.674 377.052 C 33.000 377.100,33.477 377.425,33.734 377.774 C 33.990 378.124,34.641 378.494,35.180 378.597 C 35.719 378.700,36.313 379.058,36.500 379.392 C 36.687 379.727,37.350 380.000,37.973 380.000 C 38.770 380.000,39.169 380.237,39.316 380.800 C 39.466 381.375,39.862 381.600,40.720 381.600 C 41.413 381.600,42.011 381.852,42.145 382.200 C 42.302 382.611,42.945 382.800,44.187 382.800 C 45.457 382.800,46.000 382.964,46.000 383.349 C 46.000 384.376,49.098 384.397,199.116 384.397 C 349.034 384.397,352.800 384.371,352.800 383.346 C 352.800 382.965,353.348 382.800,354.613 382.800 C 355.855 382.800,356.498 382.611,356.655 382.200 C 356.789 381.852,357.387 381.600,358.080 381.600 C 358.938 381.600,359.334 381.375,359.484 380.800 C 359.641 380.199,360.030 380.000,361.047 380.000 C 361.949 380.000,362.400 379.811,362.400 379.432 C 362.400 379.119,362.940 378.745,363.600 378.600 C 364.260 378.455,364.800 378.081,364.800 377.768 C 364.800 377.456,365.070 377.200,365.400 377.200 C 366.060 377.200,367.600 375.819,367.600 375.227 C 367.600 375.022,367.960 374.740,368.400 374.600 C 368.840 374.460,369.200 374.088,369.200 373.773 C 369.200 373.458,369.470 373.200,369.800 373.200 C 370.130 373.200,370.400 372.951,370.400 372.647 C 370.400 372.342,370.760 371.999,371.200 371.884 C 371.640 371.769,372.000 371.388,372.000 371.037 C 372.000 370.687,372.270 370.400,372.600 370.400 C 372.930 370.400,373.200 370.151,373.200 369.847 C 373.200 369.542,373.560 369.199,374.000 369.084 C 374.440 368.969,374.800 368.588,374.800 368.237 C 374.800 367.887,375.070 367.600,375.400 367.600 C 375.730 367.600,376.000 367.349,376.000 367.043 C 376.000 366.736,376.270 366.382,376.600 366.255 C 376.951 366.121,377.200 365.521,377.200 364.813 C 377.200 363.867,377.376 363.600,378.000 363.600 C 378.440 363.600,378.800 363.349,378.800 363.043 C 378.800 362.736,379.070 362.382,379.400 362.255 C 379.743 362.124,380.000 361.527,380.000 360.859 C 380.000 360.030,380.231 359.633,380.800 359.484 C 381.344 359.342,381.600 358.938,381.600 358.225 C 381.600 357.647,381.870 357.071,382.200 356.945 C 382.564 356.805,382.800 356.200,382.800 355.404 C 382.800 354.430,383.005 354.040,383.600 353.884 C 384.183 353.732,384.400 353.338,384.400 352.437 C 384.400 351.604,384.596 351.200,385.000 351.200 C 385.415 351.200,385.600 350.783,385.600 349.843 C 385.600 349.005,385.830 348.397,386.200 348.255 C 386.611 348.098,386.800 347.455,386.800 346.213 C 386.800 344.930,386.963 344.400,387.357 344.400 C 388.164 344.400,388.400 343.488,388.400 340.367 C 388.400 338.174,388.524 337.600,389.000 337.600 C 389.532 337.600,389.600 322.665,389.600 205.587 C 389.600 88.612,389.532 73.549,389.000 73.345 C 388.553 73.173,388.400 72.461,388.400 70.557 C 388.400 69.151,388.265 68.021,388.100 68.047 C 387.000 68.221,386.800 67.876,386.800 65.800 C 386.800 64.111,386.661 63.600,386.200 63.600 C 385.757 63.600,385.600 63.136,385.600 61.820 C 385.600 60.622,385.396 59.925,384.975 59.690 C 384.404 59.371,384.112 58.631,384.031 57.300 C 384.014 57.025,383.730 56.800,383.400 56.800 C 382.999 56.800,382.800 56.399,382.800 55.587 C 382.800 54.879,382.551 54.279,382.200 54.145 C 381.870 54.018,381.600 53.467,381.600 52.920 C 381.600 52.262,381.329 51.854,380.800 51.716 C 380.357 51.600,380.000 51.170,380.000 50.753 C 380.000 50.339,379.730 50.000,379.400 50.000 C 378.996 50.000,378.800 49.596,378.800 48.763 C 378.800 47.862,378.583 47.468,378.000 47.316 C 377.560 47.201,377.200 46.858,377.200 46.553 C 377.200 46.249,376.930 46.000,376.600 46.000 C 376.218 46.000,376.000 45.616,376.000 44.946 C 376.000 43.935,374.410 42.000,373.579 42.000 C 373.371 42.000,373.200 41.640,373.200 41.200 C 373.200 40.756,372.933 40.400,372.600 40.400 C 372.270 40.400,372.000 40.119,372.000 39.776 C 372.000 39.433,371.839 39.252,371.642 39.374 C 371.249 39.617,367.600 36.194,367.600 35.581 C 367.600 35.372,367.351 35.200,367.047 35.200 C 366.742 35.200,366.399 34.840,366.284 34.400 C 366.132 33.817,365.738 33.600,364.837 33.600 C 364.004 33.600,363.600 33.404,363.600 33.000 C 363.600 32.626,363.222 32.400,362.596 32.400 C 362.044 32.400,361.284 32.040,360.907 31.600 C 360.530 31.160,360.014 30.800,359.760 30.800 C 359.506 30.800,359.074 30.530,358.800 30.200 C 358.496 29.834,357.620 29.600,356.554 29.600 C 355.240 29.600,354.683 29.402,354.307 28.800 C 353.974 28.266,353.374 28.000,352.504 28.000 C 351.612 28.000,351.200 27.811,351.200 27.400 C 351.200 26.868,334.071 26.800,199.443 26.800 C 64.916 26.800,47.659 26.868,47.455 27.400 M329.122 88.996 C 335.484 92.471,339.960 98.768,341.742 106.749 C 342.821 111.582,342.731 181.566,341.640 186.420 C 339.625 195.384,335.575 201.016,328.391 204.846 L 326.600 205.800 298.400 205.934 C 263.409 206.100,263.754 206.132,258.171 202.180 C 253.950 199.192,250.467 193.541,248.921 187.172 C 247.790 182.509,247.815 110.141,248.950 105.600 C 251.029 97.283,256.377 90.621,263.099 87.975 C 264.904 87.265,266.538 87.232,295.600 87.314 L 326.200 87.400 329.122 88.996 M217.000 237.465 C 227.777 243.292,228.010 260.156,217.400 266.410 C 215.219 267.696,216.297 267.684,136.800 267.296 L 69.400 266.968 67.498 265.849 C 57.573 260.008,58.109 243.341,68.400 237.759 C 69.752 237.026,71.836 236.993,128.800 236.783 C 218.288 236.454,215.085 236.430,217.000 237.465 M215.645 284.806 C 227.639 288.138,228.422 308.374,216.800 314.645 C 214.687 315.784,71.980 315.809,69.400 314.669 C 58.212 309.730,57.184 291.309,67.800 286.000 L 69.800 285.000 107.800 284.795 C 182.728 284.391,214.162 284.394,215.645 284.806 " stroke="none" fill="#f1f1f1" fill-rule="evenodd"></path><path id="path2" d="M185.500 238.446 C 184.895 238.897,184.400 239.507,184.400 239.800 C 184.400 240.093,184.248 240.393,184.062 240.467 C 183.876 240.540,183.471 241.068,183.162 241.640 C 182.182 243.454,177.706 250.146,176.530 251.555 C 175.909 252.300,175.235 253.200,175.033 253.555 C 174.154 255.100,169.248 261.177,167.349 263.073 C 163.770 266.645,162.435 266.452,190.489 266.413 C 211.579 266.383,214.954 266.296,216.277 265.750 C 227.043 261.307,226.994 242.736,216.205 238.228 C 213.597 237.138,187.000 237.327,185.500 238.446 M143.667 286.293 C 142.168 286.734,141.434 287.186,141.195 287.812 C 140.894 288.604,128.802 296.970,126.000 298.325 C 125.450 298.591,124.460 299.163,123.800 299.596 C 121.539 301.080,111.343 305.872,107.600 307.210 C 106.170 307.721,104.645 308.377,104.211 308.669 C 103.777 308.961,103.147 309.201,102.811 309.202 C 102.475 309.204,101.700 309.466,101.090 309.784 C 100.479 310.103,98.984 310.547,97.767 310.772 C 96.549 310.997,95.366 311.297,95.137 311.439 C 94.122 312.066,84.343 312.793,77.264 312.767 C 73.009 312.752,69.424 312.843,69.297 312.970 C 69.170 313.096,73.124 313.200,78.083 313.200 C 85.075 313.200,87.481 313.335,88.800 313.800 C 91.360 314.703,213.426 314.708,215.986 313.805 C 226.827 309.980,227.007 289.412,216.227 286.190 C 213.181 285.279,146.789 285.373,143.667 286.293 M87.130 287.100 C 97.102 287.159,113.302 287.159,123.130 287.100 C 132.959 287.040,124.800 286.992,105.000 286.992 C 85.200 286.992,77.159 287.040,87.130 287.100 " stroke="none" fill="#545058" fill-rule="evenodd"></path><path id="path3" d="M186.325 237.408 C 186.211 237.522,160.484 237.611,129.154 237.604 C 65.864 237.591,70.247 237.409,66.545 240.202 C 58.957 245.926,59.823 260.598,68.000 264.861 L 69.800 265.800 117.400 266.023 C 143.580 266.146,165.540 266.372,166.200 266.525 C 166.860 266.678,167.130 266.692,166.800 266.556 C 165.119 265.861,165.224 265.194,167.349 263.073 C 169.248 261.177,174.154 255.100,175.033 253.555 C 175.235 253.200,175.909 252.300,176.530 251.555 C 177.706 250.146,182.182 243.454,183.162 241.640 C 183.471 241.068,183.876 240.540,184.062 240.467 C 184.248 240.393,184.400 240.091,184.400 239.794 C 184.400 239.497,184.929 238.878,185.576 238.417 C 186.815 237.535,214.122 237.276,216.200 238.128 C 216.640 238.308,216.550 238.179,216.000 237.842 C 215.017 237.239,186.906 236.828,186.325 237.408 M218.000 238.925 C 218.000 239.024,218.661 239.609,219.468 240.225 C 220.276 240.841,220.811 241.141,220.656 240.891 C 220.340 240.379,218.000 238.647,218.000 238.925 M223.844 247.800 C 224.173 249.271,224.402 249.590,224.394 248.567 C 224.391 248.145,224.205 247.530,223.982 247.200 C 223.685 246.762,223.648 246.924,223.844 247.800 M220.426 262.907 C 219.287 264.311,219.242 264.429,220.163 263.600 C 221.120 262.738,222.256 261.186,221.914 261.207 C 221.851 261.211,221.182 261.976,220.426 262.907 M215.834 265.900 C 215.669 266.065,204.884 266.293,191.867 266.406 L 168.200 266.613 191.600 266.692 C 211.257 266.759,215.160 266.680,216.000 266.200 C 216.550 265.886,216.805 265.622,216.567 265.614 C 216.328 265.606,215.998 265.735,215.834 265.900 M144.400 285.600 C 143.850 285.776,127.145 285.938,107.277 285.960 C 81.185 285.989,70.639 286.130,69.300 286.467 C 61.100 288.532,58.602 303.993,65.366 310.811 C 69.062 314.535,66.031 314.398,150.200 314.645 C 213.623 314.831,216.670 314.782,217.426 313.557 C 217.540 313.374,216.882 313.489,215.966 313.812 C 213.424 314.709,91.343 314.697,88.800 313.800 C 87.481 313.335,85.075 313.200,78.083 313.200 C 73.124 313.200,69.170 313.096,69.297 312.970 C 69.424 312.843,73.009 312.752,77.264 312.767 C 84.343 312.793,94.122 312.066,95.137 311.439 C 95.366 311.297,96.549 310.997,97.767 310.772 C 98.984 310.547,100.479 310.103,101.090 309.784 C 101.700 309.466,102.475 309.204,102.811 309.202 C 103.147 309.201,103.777 308.961,104.211 308.669 C 104.645 308.377,106.170 307.721,107.600 307.210 C 111.343 305.872,121.539 301.080,123.800 299.596 C 124.460 299.163,125.450 298.591,126.000 298.325 C 128.824 296.960,140.894 288.604,141.198 287.804 C 142.032 285.611,143.216 285.548,181.286 285.680 C 200.363 285.746,215.663 285.678,215.286 285.528 C 214.313 285.142,145.611 285.212,144.400 285.600 M123.130 287.100 C 113.302 287.159,97.102 287.159,87.130 287.100 C 77.159 287.040,85.200 286.992,105.000 286.992 C 124.800 286.992,132.959 287.040,123.130 287.100 M221.004 289.800 C 222.607 292.026,223.050 292.439,222.157 290.873 C 221.741 290.143,221.052 289.243,220.626 288.873 C 220.176 288.482,220.334 288.869,221.004 289.800 M224.046 303.267 C 224.021 303.634,223.896 304.264,223.770 304.667 C 223.552 305.362,223.563 305.363,223.997 304.687 C 224.248 304.296,224.373 303.666,224.273 303.287 C 224.111 302.668,224.088 302.666,224.046 303.267 M222.013 308.504 C 221.502 309.437,220.705 310.649,220.242 311.197 L 219.400 312.194 220.301 311.434 C 221.188 310.686,223.339 307.206,223.077 306.944 C 223.003 306.870,222.524 307.572,222.013 308.504 " stroke="none" fill="#767476" fill-rule="evenodd"></path><path id="path4" d="M128.800 236.783 C 71.836 236.993,69.752 237.026,68.400 237.759 C 58.109 243.341,57.573 260.008,67.498 265.849 L 69.400 266.968 136.800 267.296 C 216.297 267.684,215.219 267.696,217.400 266.410 C 228.010 260.156,227.777 243.292,217.000 237.465 C 215.085 236.430,218.288 236.454,128.800 236.783 M217.293 238.482 C 225.819 243.026,227.151 258.396,219.515 264.122 C 215.677 267.001,217.646 266.835,189.904 266.607 C 176.207 266.494,143.580 266.267,117.400 266.101 L 69.800 265.800 68.000 264.861 C 59.823 260.598,58.957 245.926,66.545 240.202 C 70.247 237.409,65.864 237.591,129.154 237.604 C 160.484 237.611,186.211 237.522,186.325 237.408 C 186.440 237.294,192.913 237.200,200.711 237.200 L 214.888 237.200 217.293 238.482 M107.800 284.795 L 69.800 285.000 67.800 286.000 C 57.184 291.309,58.212 309.730,69.400 314.669 C 71.980 315.809,214.687 315.784,216.800 314.645 C 227.035 309.122,228.148 292.665,218.716 286.304 C 215.584 284.192,216.747 284.207,107.800 284.795 M216.302 285.885 C 227.618 289.452,226.934 311.075,215.400 314.382 C 213.545 314.914,92.716 314.691,77.965 314.129 C 68.614 313.773,68.196 313.663,65.366 310.811 C 58.602 303.993,61.100 288.532,69.300 286.467 C 70.639 286.130,81.185 285.989,107.277 285.960 C 127.145 285.938,143.850 285.776,144.400 285.600 C 146.659 284.876,213.949 285.143,216.302 285.885 " stroke="none" fill="#8c858c" fill-rule="evenodd"></path></g></svg>