<svg height="100" viewBox="0 0 100 100" width="100" xmlns="http://www.w3.org/2000/svg"><circle cx="20.32" cy="55.99" fill="#fff" r=".89"/><circle cx="79.37" cy="31.12" fill="#fff" r=".68"/><circle cx="76.74" cy="12.08" fill="#f1bc19" r=".89"/><circle cx="20.81" cy="63.66" fill="#f1bc19" r=".89"/><circle cx="49.63" cy="49.32" fill="#c0e5e4" r="37.45"/><circle cx="82.18" cy="14.24" fill="#f1bc19" r="4.01"/><circle cx="86.19" cy="23.31" fill="#88ae45" r="1.88"/><circle cx="77.2" cy="75.73" fill="#fbcd59" r="1.88"/><circle cx="14.04" cy="62.78" fill="#fbcd59" r="4.01"/><circle cx="24.28" cy="86.91" fill="#88ae45" r="1.88"/><circle cx="75.85" cy="29.6" fill="#fff" r="1.8"/><circle cx="17.78" cy="50.67" fill="#fff" r="2.54"/><path d="m68 70.21c-.41-2.15-1.28-3.4-3.35-4a2.87 2.87 0 0 1 -.34-.12l-.59-.24c-1.28-.56-8.72-3.29-8.72-3.29a1.91 1.91 0 0 1 -1.24-1.09 8.66 8.66 0 0 1 -.23-2.91 47.65 47.65 0 0 1 -5 1.42c-1.9.19-6-2.27-6-2.27s-.09 3-.22 3.71a1.72 1.72 0 0 1 -1.31 1.14l-7.12 2.58a8.16 8.16 0 0 0 -2.21.91 7.59 7.59 0 0 0 -3.16 4.16s-.47 3.32-.45 3.43c-.05.47-.09 1-.14 1.52 7.76 5.25 14 6.73 24.7 6.26 4.86-.21 12.1-2.61 15.89-4.53-.19-4.22-.51-6.68-.51-6.68z" fill="#ce9065"/><path d="m64.62 66.22a2.87 2.87 0 0 1 -.34-.12l-.59-.24c-.77-.32-3.9-1.49-6.18-2.34h-.11c-2.51 1.29-6.09 3.23-9.38 3.23s-6.59-1.75-9.39-3.26l-.31.08-4.43 1.61a8.16 8.16 0 0 0 -2.21.91 7.59 7.59 0 0 0 -3.16 4.16s-.47 3.32-.45 3.43c-.05.47-.09 5.45-.14 6 7.76 5.25 14 6.73 24.7 6.26 4.86-.22 12.1-2.62 15.89-4.53-.2-4.22-.55-11.15-.55-11.15-.41-2.16-1.28-3.41-3.35-4.04z" fill="#fdfcef"/><path d="m29 68.67c.42-1 3.2-2.92 4.27-3.22l1.45-.54 5.78-2.23c1.51 3.86 5 19.79 6.81 23.54a33.66 33.66 0 0 1 -9.4-1.12 52.25 52.25 0 0 1 -10.15-5.24c.17-.8-.07-8.05 1.24-11.19z" fill="#83ccb7"/><path d="m67.33 68.65a3.17 3.17 0 0 0 -2.22-2.11l-1.45-.54-7.94-3c-1.47 4.67-5.07 17.84-6.87 23.4a33.91 33.91 0 0 0 11.15-1.34c6.29-1.77 8.66-3.27 8.65-3.34-.13-.8-.29-9.53-1.32-13.07z" fill="#83ccb7"/><path d="m34.9 79.66v3.91" fill="none" stroke="#6fbca4" stroke-linecap="round" stroke-linejoin="round" stroke-width=".7"/><path d="m61.06 79.66v4.6" fill="none" stroke="#6fbca4" stroke-linecap="round" stroke-linejoin="round" stroke-width=".7"/><path d="m40.79 63.66 6.14 21.53" fill="none" stroke="#00a5a5" stroke-linecap="square" stroke-linejoin="round" stroke-width="2"/><path d="m55.34 64.02-6.04 21.17" fill="none" stroke="#00a5a5" stroke-linecap="square" stroke-linejoin="round" stroke-width="2"/><path d="m60.26 43.68h-.36c-1 0-1 .23-.95-.37.08-1.06-.31-5.25-.31-5.46 0-4.46-4.66-8.09-10.47-8.3h-.23c-5.82.21-10.47 3.84-10.47 8.3 0 .21-.15 4.51-.07 5.57 0 .6-.23.22-1.2.26h-.36a2.23 2.23 0 0 0 -2.09 1.58c.13.08.61 3.73 1.39 5.17.43.8 1.11.92 1.81 1.43a1.54 1.54 0 0 1 .57 1 8.85 8.85 0 0 0 2.68 4.14c.58.57 4.49 4.74 7.85 4.53s7.27-4 7.86-4.53a9 9 0 0 0 2.68-4.09 1.57 1.57 0 0 1 .56-1c.7-.51 1.38-.63 1.82-1.43.78-1.44 1.26-5.09 1.39-5.17a2.23 2.23 0 0 0 -2.1-1.63z" fill="#db9e71"/><g fill="#512c2b"><path d="m48.11 50.74a2.32 2.32 0 0 0 1.77-.8.1.1 0 0 0 0-.16.12.12 0 0 0 -.17 0 2.09 2.09 0 0 1 -1.59.62 2.12 2.12 0 0 1 -1.59-.62.1.1 0 0 0 -.09 0 .11.11 0 0 0 -.07 0 .11.11 0 0 0 0 .16 2.36 2.36 0 0 0 1.74.8z"/><path d="m45.94 41.52.43-.84a11.37 11.37 0 0 0 -5.68.18l.54.81a8.84 8.84 0 0 1 4.71-.15z"/><path d="m55.11 41.52.43-.84a11.37 11.37 0 0 0 -5.68.18l.55.81a8.81 8.81 0 0 1 4.7-.15z"/><path d="m43.3 42.69a1.21 1.21 0 0 0 -1 .73.51.51 0 0 1 .17 0 .73.73 0 0 1 0 1.46.63.63 0 0 1 -.32-.1 1.33 1.33 0 0 0 1.2 1.14 1.65 1.65 0 0 0 0-3.2z"/><path d="m52.88 42.69a1.16 1.16 0 0 0 -1 .55.64.64 0 0 1 .23-.05.73.73 0 0 1 0 1.46.62.62 0 0 1 -.53-.32 1.43 1.43 0 0 0 1.25 1.56 1.65 1.65 0 0 0 0-3.2z"/><path d="m53.41 52.6a.12.12 0 0 0 0-.17.11.11 0 0 0 -.16 0 8.5 8.5 0 0 1 -5.15 1.42 8.49 8.49 0 0 1 -5.1-1.44.1.1 0 0 0 -.07 0 .13.13 0 0 0 -.1 0 .12.12 0 0 0 0 .17 9.27 9.27 0 0 0 10.59 0z"/><path d="m38.22 40.12a23.86 23.86 0 0 1 2.28-6.21 1.33 1.33 0 0 0 -1.5-.48 16.89 16.89 0 0 0 -2.1 8.45 15.34 15.34 0 0 0 .71 4c.32-1.88.2-3.88.61-5.76z"/><path d="m58 40.12a23.53 23.53 0 0 0 -2.29-6.21 1.34 1.34 0 0 1 1.51-.48 16.8 16.8 0 0 1 2.11 8.45 15.34 15.34 0 0 1 -.71 4c-.32-1.88-.2-3.88-.62-5.76z"/><path d="m49.51 57.87a.15.15 0 0 0 .12-.16c0-.08-.06-.16-.12-.16h-2.57c-.06 0-.11.08-.11.16s.05.16.11.16z"/></g><path d="m68 70.39c-.41-2.15-1.28-3.41-3.35-4l-.34-.12-.62-.27c-1.25-.53-8.69-3.27-8.69-3.27a1.87 1.87 0 0 1 -1.24-1.08 6.5 6.5 0 0 1 -.26-2.3 26.43 26.43 0 0 0 2.39-1.86 9.21 9.21 0 0 0 2.68-4.14 1.57 1.57 0 0 1 .56-1.06c.7-.52 1.38-.63 1.82-1.45a15.36 15.36 0 0 0 1.39-5.22 2.22 2.22 0 0 0 -2.1-1.6h-.34c-1 0-1 .19-1-.41.08-1.08-.29-5.27-.29-5.49 0-4.51-4.66-8.18-10.47-8.39h-.23c-5.82.21-10.47 3.88-10.47 8.39 0 .22-.15 4.57-.07 5.64 0 .6-.23.21-1.2.26h-.36a2.22 2.22 0 0 0 -2.09 1.6 15.72 15.72 0 0 0 1.39 5.22c.43.82 1.11.93 1.81 1.45a1.54 1.54 0 0 1 .57 1.06 9 9 0 0 0 2.68 4.14 25.92 25.92 0 0 0 2.27 1.73c0 .9-.1 2-.17 2.38a1.69 1.69 0 0 1 -1.27 1.13l-7.12 2.59a7.86 7.86 0 0 0 -2.21.91 6 6 0 0 0 -3.16 4.16c-.59 2.16-.54 8.88-.59 9.41 7.76 5.26 14 6.73 24.7 6.26 4.86-.21 12.1-2.61 15.89-4.52-.19-4.23-.51-11.15-.51-11.15z" fill="none" stroke="#472b29" stroke-linecap="round" stroke-linejoin="round"/><path d="m58.8 46.88 1.48-.64-.25 2.29" fill="none" stroke="#895d3d" stroke-linejoin="round" stroke-width=".6"/><path d="m37.63 46.54-1.48-.65.26 2.3" fill="none" stroke="#895d3d" stroke-linejoin="round" stroke-width=".6"/><path d="m37.61 43.82-.16 8.64" fill="none" stroke="#472b29" stroke-linecap="round" stroke-linejoin="round" stroke-width=".4"/><path d="m58.66 43.82.17 8.64" fill="none" stroke="#472b29" stroke-linecap="round" stroke-linejoin="round" stroke-width=".4"/><path d="m58.48 44a2.48 2.48 0 0 1 .13.35l.19-.14a3.48 3.48 0 0 0 .38-.48c.15-1.1.25-2.21.29-2.82.47-4.42-.93-6.94-2-8.19a15.9 15.9 0 0 0 -9.51-3 16.18 16.18 0 0 0 -8.2 2.17c-1.94 1.8-3.2 3.35-3.07 9.06 0 .57.16 1.6.32 2.65a.5.5 0 0 1 .09.24.63.63 0 0 0 .18.12c.24.07.35-.22.48-.42a1.71 1.71 0 0 1 .13-.23 26 26 0 0 1 .4-3.94 19.89 19.89 0 0 1 1.26-3.67c2.73-2.74 14.08-2.62 17 0a19.89 19.89 0 0 1 1.26 3.67c.3 1.01.63 4.63.67 4.63z" fill="#dd851d" stroke="#dd851d" stroke-linecap="round" stroke-linejoin="round" stroke-width=".5"/><path d="m38.73 32.72a2.58 2.58 0 0 0 1 2.4 3.78 3.78 0 0 0 1.82.8 3.62 3.62 0 0 0 2.33-.37 5.51 5.51 0 0 0 6 2.72 6.49 6.49 0 0 0 2.82-1.16 3.29 3.29 0 0 0 3.24 1.41 3.37 3.37 0 0 0 .9-.28 2.5 2.5 0 0 0 2.11.64 2.43 2.43 0 0 0 1.33-.65c1.08-.3 2.06-1.3 2.07-3.66a2.33 2.33 0 0 1 -1.35 1.11 2.66 2.66 0 0 0 -.29-.64 2.4 2.4 0 0 0 .45-1.83 2.42 2.42 0 0 0 -2.78-2 3 3 0 0 0 0-1 3.12 3.12 0 0 0 -3.57-2.59 3 3 0 0 0 -.83.25.49.49 0 0 0 0-.12 3.8 3.8 0 0 0 -4.43-3 3.92 3.92 0 0 0 -2.8 1.88 5.24 5.24 0 0 0 -3-.37c-2.55.4-4.34 2.45-4 4.58" fill="#ef9922"/><path d="m61 35.69a2.24 2.24 0 0 0 -.28-.63 2.41 2.41 0 0 0 -2.32-3.82 3.3 3.3 0 0 0 0-.94 3.07 3.07 0 0 0 -4.4-2.3s0-.08 0-.12a3.72 3.72 0 0 0 -4-3 4.79 4.79 0 0 1 2.81 4.7v.16a3.87 3.87 0 0 1 1.13-.06 4 4 0 0 1 3.57 4.32 4 4 0 0 1 -.29 1.2 3.15 3.15 0 0 1 2.87 3.15l.15-.12c1.07-.31 2-1.3 2.06-3.64a2.25 2.25 0 0 1 -1.3 1.1z" fill="#dd851d" opacity=".54"/><path d="m38.73 32.72a3 3 0 0 0 2.83 3.2 3.62 3.62 0 0 0 2.33-.37 5.51 5.51 0 0 0 6 2.72 6.49 6.49 0 0 0 2.82-1.16 3.29 3.29 0 0 0 3.24 1.41 3.37 3.37 0 0 0 .9-.28 2.5 2.5 0 0 0 2.11.64 2.43 2.43 0 0 0 1.33-.65c1.08-.3 2.06-1.3 2.07-3.66" fill="none" stroke="#472b29" stroke-linecap="round" stroke-linejoin="round" stroke-width=".4"/><path d="m59.72 44c.17-1.21.29-2.45.33-3.1a15.1 15.1 0 0 0 .07-2.39 2.49 2.49 0 0 0 .5-.35c1.11-.3 2.13-1.3 2.14-3.66a2.31 2.31 0 0 1 -1.42 1.1 2.5 2.5 0 0 0 -.34-.6 2.35 2.35 0 0 0 .47-1.83 2.51 2.51 0 0 0 -2.88-2 3 3 0 0 0 0-.95 3.22 3.22 0 0 0 -3.7-2.6 3.49 3.49 0 0 0 -.85.26s0-.08 0-.12a3.94 3.94 0 0 0 -4.59-3 4.14 4.14 0 0 0 -2.9 1.88 5.58 5.58 0 0 0 -3.07-.37c-2.64.41-4.5 2.46-4.15 4.58l-.86 1.61c-1.61 1.54-2.61 3.45-2.47 8.47 0 .6.18 1.67.35 2.76" fill="none" stroke="#472b29" stroke-linecap="round" stroke-linejoin="round"/></svg>