<svg height="100" viewBox="0 0 100 100" width="100" xmlns="http://www.w3.org/2000/svg"><circle cx="20.92" cy="56.96" fill="#fff" r=".89"/><circle cx="79.97" cy="32.09" fill="#fff" r=".68"/><circle cx="77.34" cy="13.06" fill="#f1bc19" r=".89"/><circle cx="21.41" cy="64.63" fill="#f1bc19" r=".89"/><circle cx="50.23" cy="50.29" fill="#e4e4f9" r="37.45"/><circle cx="82.78" cy="15.21" fill="#f1bc19" r="4.01"/><circle cx="86.79" cy="24.28" fill="#9d9fce" r="1.88"/><circle cx="77.8" cy="76.7" fill="#fbcd59" r="1.88"/><circle cx="14.64" cy="63.75" fill="#fbcd59" r="4.01"/><circle cx="24.88" cy="87.88" fill="#9d9fce" r="1.88"/><circle cx="76.45" cy="30.58" fill="#fff" r="1.8"/><circle cx="18.38" cy="51.64" fill="#fff" r="2.54"/><path d="m68.72 71.25c-.4-2.14-1.28-3.4-3.34-4l-.38-.14-.58-.24c-1.25-.53-8.68-3.27-8.68-3.27a1.87 1.87 0 0 1 -1.24-1.08 8.72 8.72 0 0 1 -.23-2.92 46 46 0 0 1 -5 1.43c-1.9.18-6-2.27-6-2.27s-.1 3-.23 3.71a1.67 1.67 0 0 1 -1.28 1.13l-7.13 2.58a8.44 8.44 0 0 0 -2.21.91 7.59 7.59 0 0 0 -3.16 4.16s-.47 3.32-.45 3.44c0 .46-.09 1-.14 1.51 7.77 5.26 14 6.73 24.7 6.26 4.87-.21 12.1-2.61 15.9-4.52-.2-4.23-.55-6.69-.55-6.69z" fill="#ce9065"/><path d="m65.38 67.27-.38-.12-.58-.24c-.77-.33-3.91-1.5-6.19-2.35h-.1c-2.52 1.29-6.1 3.23-9.39 3.23s-6.55-1.79-9.35-3.26l-.32.09-4.43 1.6a8.44 8.44 0 0 0 -2.21.91 7.59 7.59 0 0 0 -3.16 4.16s-.47 3.32-.45 3.44c0 .46-.09 5.44-.14 6 7.77 5.26 14 6.73 24.7 6.26 4.87-.21 12.1-2.61 15.9-4.52-.21-4.23-.56-11.16-.56-11.16-.4-2.16-1.28-3.42-3.34-4.04z" fill="#fdfcef"/><path d="m35.5 80.69v3.95" fill="none" stroke="#e1e0d8" stroke-linecap="round" stroke-linejoin="round" stroke-width=".6"/><path d="m61.83 80.69v4.65" fill="none" stroke="#e1e0d8" stroke-linecap="round" stroke-linejoin="round" stroke-width=".6"/><path d="m61 44.73h-.36c-1 0-1.24.34-1.2-.26.08-1.06-.07-5.36-.07-5.58 0-4.45-4.65-8.09-10.46-8.29h-.24c-5.81.2-10.46 3.84-10.46 8.29 0 .22-.15 4.52-.07 5.58 0 .6-.24.21-1.2.26h-.34a2.22 2.22 0 0 0 -2.1 1.58c.13.07.61 3.73 1.39 5.17.44.8 1.12.91 1.82 1.43a1.56 1.56 0 0 1 .57 1 9 9 0 0 0 2.72 4.14c.59.57 4.5 4.73 7.86 4.52s7.27-4 7.86-4.52a9 9 0 0 0 2.62-4.05 1.56 1.56 0 0 1 .57-1c.7-.52 1.38-.63 1.81-1.43.78-1.44 1.26-5.1 1.39-5.17a2.21 2.21 0 0 0 -2.11-1.67z" fill="#db9e71"/><path d="m48.87 52.79a2.36 2.36 0 0 0 1.77-.8.12.12 0 0 0 0-.17.12.12 0 0 0 -.17 0 2.32 2.32 0 0 1 -3.18 0 .15.15 0 0 0 -.09 0 .11.11 0 0 0 -.08 0 .12.12 0 0 0 0 .17 2.34 2.34 0 0 0 1.75.8z" fill="#512c2b"/><path d="m46.69 44.56.43-.83a11.25 11.25 0 0 0 -5.68.18l.55.81a8.91 8.91 0 0 1 4.7-.16z" fill="#512c2b"/><path d="m55.86 44.56.44-.83a11.29 11.29 0 0 0 -5.69.18l.55.81a8.91 8.91 0 0 1 4.7-.16z" fill="#512c2b"/><path d="m44.05 45.74a1.22 1.22 0 0 0 -1 .73h.18a.73.73 0 0 1 0 1.46.58.58 0 0 1 -.32-.1 1.33 1.33 0 0 0 1.19 1.14 1.65 1.65 0 0 0 0-3.2z" fill="#512c2b"/><path d="m53.63 45.74a1.17 1.17 0 0 0 -.94.54.59.59 0 0 1 .23-.05.73.73 0 0 1 0 1.46.64.64 0 0 1 -.54-.31 1.29 1.29 0 1 0 1.25-1.64z" fill="#512c2b"/><g fill="none" stroke-linejoin="round"><path d="m68.72 71.43c-.4-2.14-1.28-3.4-3.34-4l-.38-.15-.58-.23c-1.25-.53-8.68-3.27-8.68-3.27a1.9 1.9 0 0 1 -1.24-1.08 6.51 6.51 0 0 1 -.25-2.3 29.16 29.16 0 0 0 2.39-1.87 9 9 0 0 0 2.67-4.14 1.58 1.58 0 0 1 .57-1c.7-.53 1.38-.64 1.81-1.45a15.41 15.41 0 0 0 1.39-5.23 2.21 2.21 0 0 0 -2.08-1.64h-.36c-1-.05-1 .23-1-.38.08-1.07-.31-5.31-.31-5.53 0-4.5-4.65-8.18-10.46-8.38h-.24c-5.81.2-10.46 3.88-10.46 8.38 0 .22-.15 4.57-.07 5.64 0 .61-.24.22-1.2.27h-.3a2.23 2.23 0 0 0 -2.1 1.59 15.83 15.83 0 0 0 1.39 5.23c.44.81 1.12.92 1.82 1.45a1.58 1.58 0 0 1 .57 1 9 9 0 0 0 2.72 4.19 25.07 25.07 0 0 0 2.28 1.73c0 .91-.11 2-.18 2.39a1.69 1.69 0 0 1 -1.28 1.13l-7.13 2.58a8.44 8.44 0 0 0 -2.21.91 6 6 0 0 0 -3.16 4.16c-.59 2.17-.54 8.88-.59 9.42 7.77 5.25 14 6.73 24.7 6.26 4.87-.21 12.1-2.61 15.9-4.53-.26-4.22-.61-11.15-.61-11.15z" stroke="#472b29" stroke-linecap="round"/><path d="m59.55 47.92 1.49-.64-.26 2.3" stroke="#895d3d" stroke-width=".6"/><path d="m38.39 47.58-1.49-.64.26 2.29" stroke="#895d3d" stroke-width=".6"/><path d="m38.37 44.86-.17 8.65" stroke="#472b29" stroke-linecap="round" stroke-width=".4"/><path d="m59.42 44.86.16 8.65" stroke="#472b29" stroke-linecap="round" stroke-width=".4"/></g><path d="m56 66.58a13.8 13.8 0 0 1 -7.3 1.72 14.52 14.52 0 0 1 -7.36-1.72c-1.05-.52-1.68-.81-1.68-1.81a1.75 1.75 0 0 1 1.68-1.77s4.64 1.54 7.25 1.54 7.41-1.54 7.41-1.54a1.75 1.75 0 0 1 1.68 1.8c-.05.97-.57 1.2-1.68 1.78z" fill="#e1e0d8" stroke="#472b29" stroke-miterlimit="10" stroke-width=".7"/><path d="m61.15 31c-.07-.56-.68-.48-1.28-.44-1.87.11-2.33-.49-6.15-2.62a9.56 9.56 0 0 0 -10.3.55c-11.94 2.61-5 18-5 18s0-8.08 3.65-10.54c6.19 4 12.09 4.47 15.69 2.1 1.39 3.06 1.35 8.44 1.35 8.44a14.43 14.43 0 0 0 1.09-10.75c-.44-1.44 1.15-2.87.9-4.71z" fill="#472b29"/><path d="m45.59 56.08a1.84 1.84 0 0 0 -.06.47c0 1.4 1.54 2.53 3.45 2.53s3.45-1.13 3.45-2.53a1.84 1.84 0 0 0 -.06-.47z" fill="#6d1b18"/><path d="m50.8 58.69a3.06 3.06 0 0 0 -3.64 0 4.44 4.44 0 0 0 3.64 0z" fill="#ee3e54"/><path d="m46.58 56.08s0 0 0 0v.43c0 .37.5.68 1.1.68h2.62c.6 0 1.1-.31 1.1-.68v-.43s0 0 0 0z" fill="#fdfcef"/><path d="m45.59 56.08a1.84 1.84 0 0 0 -.06.47c0 1.4 1.54 2.53 3.45 2.53s3.45-1.13 3.45-2.53a1.84 1.84 0 0 0 -.06-.47z" fill="none" stroke="#472b29" stroke-linecap="round" stroke-linejoin="round" stroke-width=".4"/><path d="m43.35 60.2s3.78 2.35 5.8 2.16 4.85-2.08 4.85-2.08" fill="none" stroke="#472b29" stroke-linecap="round" stroke-linejoin="round" stroke-width=".5"/></svg>