<svg height="100" viewBox="0 0 100 100" width="100" xmlns="http://www.w3.org/2000/svg" xmlns:xlink="http://www.w3.org/1999/xlink"><clipPath id="a"><path d="m48.78 63.35c2 0 7.67-2.66 9.77-5.5 1.43-1.94.77-4.62.77-8.15 0-8.72 3.28-19.35-10.54-19.35s-10.54 10.65-10.54 19.35c0 3.59-.62 6.23.85 8.17 2.1 2.77 7.64 5.48 9.69 5.48z"/></clipPath><circle cx="20.16" cy="56.6" fill="#fff" r=".89"/><circle cx="79.21" cy="31.73" fill="#fff" r=".68"/><circle cx="76.58" cy="12.7" fill="#f1bc19" r=".89"/><circle cx="20.66" cy="64.27" fill="#f1bc19" r=".89"/><circle cx="49.48" cy="49.93" fill="#c0e5e4" r="37.45"/><circle cx="82.02" cy="14.85" fill="#f1bc19" r="4.01"/><circle cx="86.03" cy="23.92" fill="#276fa0" r="1.88"/><circle cx="77.05" cy="76.34" fill="#fbcd59" r="1.88"/><circle cx="13.89" cy="63.39" fill="#fbcd59" r="4.01"/><circle cx="24.12" cy="87.52" fill="#276fa0" r="1.88"/><circle cx="75.7" cy="30.22" fill="#fff" r="1.8"/><circle cx="17.63" cy="51.28" fill="#fff" r="2.54"/><path d="m68.65 71.05c-.4-2.15-1.28-3.41-3.34-4l-.31-.15-.58-.24c-1.25-.53-8.68-3.27-8.68-3.27a1.87 1.87 0 0 1 -1.24-1.08 8.66 8.66 0 0 1 -.23-2.91 46.9 46.9 0 0 1 -5 1.42c-1.9.18-6-2.27-6-2.27s-.1 3-.23 3.71a1.67 1.67 0 0 1 -1.28 1.13l-7.19 2.61a8.11 8.11 0 0 0 -2.21.91 7.52 7.52 0 0 0 -3.16 4.16s-.47 3.31-.45 3.43c0 .47-.09 1-.14 1.51 7.77 5.26 14 6.73 24.7 6.26 4.87-.21 12.1-2.61 15.9-4.52-.21-4.25-.56-6.7-.56-6.7z" fill="#ce9065"/><path d="m29.81 69.5c.42-1 3.17-2.9 4.22-3.2l1.44-.53 5.73-2.21c1.49 3.83 5 19.61 6.73 23.33a33.2 33.2 0 0 1 -9.3-1.11 51.83 51.83 0 0 1 -10.05-5.19c.17-.8-.08-7.98 1.23-11.09z" fill="#195484"/><path d="m55.94 64.82-.88-.29a1.54 1.54 0 0 1 -.57-.29 15.52 15.52 0 0 1 -5.63 1 3.52 3.52 0 0 1 2 .42c-2.94.33-6.42.94-8.28-1.27a1.94 1.94 0 0 1 -.36.15l-.88.29-.27.09c1.48 4.06 3 8 4.46 12h7.93c1.75-3.71 3.06-7.6 4.56-11.43z" fill="#fdfcef"/><path d="m67.77 68.76c-.41-1-1.17-1.07-2.22-1.37l-1.44-.54-5.72-2.21c-1.5 3.83-7.19 18.7-8.94 22.42a33.72 33.72 0 0 0 11.07-1.32c6.23-1.76 8.7-3.34 8.69-3.41-.21-.8-.13-10.46-1.44-13.57z" fill="#195484"/><path d="m46.85 69.42-1.79-4h7.18l-1.79 4a2 2 0 0 1 -3.6 0z" fill="#e5304f"/><path d="m50.35 70.9 1.58 8.34h-7.18l2-8.34a2.05 2.05 0 0 1 3.6 0z" fill="#ee3e54"/><path d="m43.33 62.62-1.79 1.27 3.85 5.94 3.61-4.53s-5.4-1.41-5.67-2.68z" fill="#e1e0d8"/><path d="m54 62.62 1.8 1.27-3.85 5.94-3.61-4.53s5.37-1.41 5.66-2.68z" fill="#e1e0d8"/><path d="m55.67 63.56 6.33 2.36s-9.19 16.3-11 19.44h-5.71z" fill="#1c658e"/><path d="m42 63.26-6.24 2.52s8.32 18.14 10.15 21.28h5.69z" fill="#276fa0"/><g style="opacity:.49;fill:none;stroke-linejoin:round;stroke:#0b2e51;stroke-width:.7;stroke-linecap:round"><path d="m35.64 80.39v3.88"/><path d="m61.54 80.39v4.56"/></g><path d="m61 42.52h-.36c-1 0-1.24.34-1.2-.26.08-1.06-.07-5.36-.07-5.58 0-4.45-4.65-8.09-10.47-8.29h-.23c-5.81.2-10.47 3.84-10.47 8.29 0 .22-.14 4.52-.07 5.58.05.6-.23.21-1.19.26h-.36a2.22 2.22 0 0 0 -2.1 1.58c.13.08.61 3.73 1.39 5.17.44.8 1.12.91 1.82 1.43a1.56 1.56 0 0 1 .57 1 9 9 0 0 0 2.67 4.1c.59.57 4.5 4.74 7.86 4.52s7.27-4 7.86-4.52a9 9 0 0 0 2.67-4.1 1.56 1.56 0 0 1 .57-1c.7-.52 1.38-.63 1.81-1.43.78-1.44 1.26-5.09 1.39-5.17a2.21 2.21 0 0 0 -2.09-1.58z" fill="#ce9065"/><path d="m48.78 63.35c2 0 7.67-2.66 9.77-5.5 1.43-1.94.77-4.62.77-8.15 0-8.72 3.28-19.35-10.54-19.35s-10.54 10.65-10.54 19.35c0 3.59-.62 6.23.85 8.17 2.1 2.77 7.64 5.48 9.69 5.48z" fill="#ce9065"/><g clip-path="url(#a)"><path d="m59.27 45.76s-.39 5.5-1.87 6.48a13.11 13.11 0 0 1 -3.47 1.5h-10.29a13.25 13.25 0 0 1 -3.48-1.5c-1.48-1-1.87-6.48-1.87-6.48a44.09 44.09 0 0 0 -.21 9.24 6.45 6.45 0 0 0 1.16 3.07s5.88 6 6.34 6.3a12.91 12.91 0 0 0 3.2.11 12.89 12.89 0 0 0 3.2-.11c.46-.26 6.87-6.1 6.87-6.1a10.66 10.66 0 0 0 1.08-3.47 42.69 42.69 0 0 0 -.66-9.05z" fill="#512c2b"/></g><path d="m57.2 52.33c-2.14 1.11-2.33-1.13-4.59-1.7a3.64 3.64 0 0 0 -3.83 1.47 4.35 4.35 0 0 0 -3.78-1.47c-2.26.57-2.45 2.81-4.59 1.7-.2 0 5.69 5.88 8.42 1.78 2.74 4.1 8.63-1.78 8.42-1.78z" fill="#603535"/><path d="m48.8 50.58a2.36 2.36 0 0 0 1.77-.8.12.12 0 0 0 0-.17.12.12 0 0 0 -.17 0 2.32 2.32 0 0 1 -3.18 0 .15.15 0 0 0 -.09 0 .11.11 0 0 0 -.08 0 .12.12 0 0 0 0 .17 2.34 2.34 0 0 0 1.75.8z" fill="#512c2b"/><path d="m46.62 41.35.43-.83a11.25 11.25 0 0 0 -5.68.18l.55.81a8.91 8.91 0 0 1 4.7-.16z" fill="#603535"/><path d="m55.79 41.35.44-.83a11.29 11.29 0 0 0 -5.69.18l.55.81a8.91 8.91 0 0 1 4.7-.16z" fill="#603535"/><path d="m44 42.53a1.22 1.22 0 0 0 -1 .73h.18a.73.73 0 0 1 0 1.46.64.64 0 0 1 -.33-.1 1.35 1.35 0 0 0 1.15 1.11 1.65 1.65 0 0 0 0-3.2z" fill="#512c2b"/><path d="m53.56 42.53a1.15 1.15 0 0 0 -.94.54.59.59 0 0 1 .23 0 .73.73 0 0 1 0 1.45.64.64 0 0 1 -.54-.31 1.29 1.29 0 1 0 1.25-1.64z" fill="#512c2b"/><g fill="none" stroke-linejoin="round"><path d="m59.48 45.72 1.49-.65-.26 2.3" stroke="#895d3d" stroke-width=".6"/><path d="m38.32 45.37-1.49-.64.26 2.29" stroke="#895d3d" stroke-width=".6"/><path d="m68.65 71.31c-.4-2.15-1.28-3.4-3.34-4l-.31-.15-.58-.24c-1.25-.52-8.68-3.26-8.68-3.26a1.9 1.9 0 0 1 -1.24-1.08 3.57 3.57 0 0 1 -.21-1 14.31 14.31 0 0 0 4.3-3.48c1.19-1.61.94-3.75.82-6.46a1.23 1.23 0 0 1 .47-.68c.7-.52 1.38-.63 1.81-1.44a14.84 14.84 0 0 0 1.31-5.16 2.22 2.22 0 0 0 -2-1.58h-.36a4.69 4.69 0 0 0 -1 .08 23.89 23.89 0 0 0 -.29-5.36c0-.3 0-.51 0-.55 0-4.46-4.65-8.09-10.47-8.29h-.23c-5.81.2-10.47 3.83-10.47 8.29v1.14a25.58 25.58 0 0 0 -.19 4.77 8.59 8.59 0 0 0 -1-.08h-.36a2.23 2.23 0 0 0 -2.1 1.58 16.41 16.41 0 0 0 1.39 5.17c.44.81 1.12.92 1.82 1.44a1.48 1.48 0 0 1 .55 1c-.11 2.61-.29 4.64.9 6.21a14.45 14.45 0 0 0 4 3.28 10.11 10.11 0 0 1 -.11 1.1 1.7 1.7 0 0 1 -1.28 1.14l-7.13 2.58a8.44 8.44 0 0 0 -2.21.91 7.59 7.59 0 0 0 -3.16 4.16s-.55 9.09-.59 9.46c7.77 5.25 14 6.73 24.7 6.26 4.87-.21 12.1-2.61 15.9-4.53-.17-1.34-.66-11.23-.66-11.23z" stroke="#472b29" stroke-linecap="round"/></g><path d="m58.84 32.46a2.68 2.68 0 0 1 2.16 2.65c-.07 2.2-1.57 11.74-1.57 11.74l-3.08-9.8 2.52-4.59z" fill="#603535"/><path d="m47.21 26.33-1.16-1.62s13.06-1.44 13.05 5.75a11.63 11.63 0 0 1 -8.53 11.54l.65-2.58-5.1 2.71.64-1.55-4.26 1.57 1.55-3.55-3.81 1.4a43.51 43.51 0 0 0 -2 6.83s-3-10.12-1.06-10.9l-.71-.39.91-1.81-1.38-.56 1.16-1.68-.51-.71 2.58-1.48-1.36-.71s4.33-3.62 9.36-2.26z" fill="#512c2b"/></svg>