<svg height="100" viewBox="0 0 100 100" width="100" xmlns="http://www.w3.org/2000/svg"><circle cx="20.16" cy="56.35" fill="#fff" r=".89"/><circle cx="79.21" cy="31.48" fill="#fff" r=".68"/><circle cx="76.58" cy="12.44" fill="#f1bc19" r=".89"/><circle cx="20.66" cy="64.02" fill="#f1bc19" r=".89"/><circle cx="49.48" cy="49.67" fill="#fce0a2" r="37.45"/><circle cx="82.02" cy="14.6" fill="#f1bc19" r="4.01"/><circle cx="86.03" cy="23.67" fill="#db2e4c" r="1.88"/><circle cx="77.05" cy="76.08" fill="#fbcd59" r="1.88"/><circle cx="13.89" cy="63.14" fill="#fbcd59" r="4.01"/><circle cx="24.12" cy="87.27" fill="#db2e4c" r="1.88"/><circle cx="75.7" cy="29.96" fill="#fff" r="1.8"/><circle cx="17.63" cy="51.03" fill="#fff" r="2.54"/><path d="m68 70.89c-.41-2.15-1.28-3.41-3.35-4l-.34-.12-.59-.24c-1.28-.53-8.72-3.3-8.72-3.3a1.87 1.87 0 0 1 -1.24-1.08 8.66 8.66 0 0 1 -.23-2.91 47.65 47.65 0 0 1 -5 1.42c-1.9.18-6-2.27-6-2.27s-.09 3-.22 3.71a1.69 1.69 0 0 1 -1.31 1.13l-7.12 2.59a7.86 7.86 0 0 0 -2.21.91 7.52 7.52 0 0 0 -3.16 4.16s-.47 3.31-.45 3.43c-.05.47-.09 1-.14 1.51 7.76 5.26 14 6.73 24.7 6.26 4.86-.21 12.1-2.61 15.89-4.52-.19-4.23-.51-6.68-.51-6.68z" fill="#895f3f"/><path d="m55.09 63.94-.9-.3a1.67 1.67 0 0 1 -.58-.29c-1.74.67-1.59 1.43-3.67 1.43.83 0-.82-.42 0 0-3 .34-6.53 1-8.41-1.29a1.51 1.51 0 0 1 -.37.15l-.9.3-.26.06c1.5 4.14 4.94 18.83 6.4 22.92h3.38c1.77-3.79 5.93-18.39 7.45-22.29z" fill="#fdfcef"/><path d="m46.21 69.16-1.83-4.1h7.31l-1.83 4.1a2.08 2.08 0 0 1 -3.65 0z" fill="#fbcd59"/><path d="m49.58 70.66 1 15.87-5 .19 1.31-16.06c.75-1.45 1.88-1.45 2.69 0z" fill="#fbcd59"/><path d="m42.63 62.23-1.83 1.29 3.92 6 3.64-4.52s-5.46-1.48-5.73-2.77z" fill="#e1e0d8"/><path d="m53.44 62.23 1.83 1.29-3.92 6-3.63-4.52s5.46-1.48 5.72-2.77z" fill="#e1e0d8"/><path d="m28.83 69.23c.42-1 3.22-2.94 4.29-3.25l1.46-.54 5.82-2.25c1.51 3.89 5.07 20 6.84 23.75a33.59 33.59 0 0 1 -9.45-1.12 52.2 52.2 0 0 1 -10.21-5.29c.16-.81-.09-8.13 1.25-11.3z" fill="#836f61"/><path d="m67.41 68.48c-.42-1-1.19-1.09-2.26-1.4l-1.46-.54-8.21-2.74c-1.48 3.9-5.28 19.2-6.69 23.32a34.19 34.19 0 0 0 11.21-1.34c6.33-1.8 8.84-3.41 8.83-3.48-.12-.81-.09-10.65-1.42-13.82z" fill="#836f61"/><g style="opacity:.38;fill:none;stroke-linejoin:round;stroke:#472b29;stroke-linecap:round;stroke-width:.7"><path d="m34.75 80.32v3.95"/><path d="m61.08 80.32v4.65"/></g><path d="m60.26 44.36h-.36c-1-.05-1.24.34-1.19-.26.07-1.06-.07-5.36-.07-5.58 0-4.45-4.66-8.09-10.47-8.29h-.23c-5.82.2-10.47 3.84-10.47 8.29 0 .22-.15 4.52-.07 5.58 0 .6-.23.21-1.2.26h-.36a2.22 2.22 0 0 0 -2.09 1.58c.13.08.61 3.73 1.39 5.17.43.8 1.11.91 1.81 1.43a1.52 1.52 0 0 1 .57 1 8.93 8.93 0 0 0 2.68 4.1c.58.57 4.49 4.74 7.85 4.52s7.27-4 7.86-4.52a9.09 9.09 0 0 0 2.68-4.1 1.54 1.54 0 0 1 .56-1c.7-.52 1.38-.63 1.82-1.43.78-1.44 1.26-5.09 1.39-5.17a2.22 2.22 0 0 0 -2.1-1.58z" fill="#a3754f" stroke="#472b29" stroke-miterlimit="10" stroke-width=".7"/><g fill="#512c2b"><path d="m48.11 51.42a2.32 2.32 0 0 0 1.77-.8.12.12 0 0 0 0-.17.12.12 0 0 0 -.17 0 2.06 2.06 0 0 1 -1.59.63 2.09 2.09 0 0 1 -1.59-.63.13.13 0 0 0 -.09 0 .11.11 0 0 0 -.07 0 .13.13 0 0 0 0 .17 2.36 2.36 0 0 0 1.74.8z"/><path d="m45.94 42.19.43-.83a11.25 11.25 0 0 0 -5.68.18l.54.81a8.94 8.94 0 0 1 4.71-.16z"/><path d="m55.11 42.19.43-.83a11.25 11.25 0 0 0 -5.68.18l.55.81a8.91 8.91 0 0 1 4.7-.16z"/><path d="m43.3 43.37a1.21 1.21 0 0 0 -1 .73.51.51 0 0 1 .17 0 .73.73 0 0 1 0 1.46.63.63 0 0 1 -.32-.1 1.33 1.33 0 0 0 1.2 1.14 1.65 1.65 0 0 0 0-3.2z"/><path d="m52.88 43.37a1.16 1.16 0 0 0 -1 .55.48.48 0 0 1 .23-.05.73.73 0 0 1 0 1.46.62.62 0 0 1 -.53-.32 1.44 1.44 0 0 0 1.25 1.56 1.65 1.65 0 0 0 0-3.2z"/><path d="m53.41 53.27a.1.1 0 0 0 0-.16.11.11 0 0 0 -.16 0 8.5 8.5 0 0 1 -5.15 1.41 8.49 8.49 0 0 1 -5.1-1.43.11.11 0 0 0 -.07 0 .14.14 0 0 0 -.1 0 .11.11 0 0 0 0 .16 9.23 9.23 0 0 0 10.59 0z"/><path d="m38.22 40.8a23.6 23.6 0 0 1 2.28-6.21 1.35 1.35 0 0 0 -1.5-.49 16.91 16.91 0 0 0 -2.1 8.45 15.34 15.34 0 0 0 .71 4c.32-1.91.2-3.85.61-5.75z"/><path d="m58 40.8a23.27 23.27 0 0 0 -2.29-6.21 1.36 1.36 0 0 1 1.51-.49 16.82 16.82 0 0 1 2.11 8.45 15.34 15.34 0 0 1 -.71 4c-.32-1.91-.2-3.85-.62-5.75z"/><path d="m49.51 58.54a.14.14 0 0 0 .12-.15.15.15 0 0 0 -.12-.16h-2.57c-.06 0-.11.07-.11.16s.05.15.11.15z"/></g><path d="m68 71.06c-.41-2.14-1.28-3.4-3.35-4l-.34-.12-.59-.24c-1.28-.55-8.72-3.29-8.72-3.29a1.9 1.9 0 0 1 -1.24-1.08 6.5 6.5 0 0 1 -.26-2.3 26.43 26.43 0 0 0 2.39-1.86 9.18 9.18 0 0 0 2.7-4.17 1.57 1.57 0 0 1 .56-1c.7-.52 1.38-.64 1.82-1.45a15.35 15.35 0 0 0 1.39-5.23 2.23 2.23 0 0 0 -2.1-1.59h-.36c-1 0-1.24.34-1.19-.26.07-1.08-.07-5.43-.07-5.65 0-4.5-4.66-8.18-10.47-8.38h-.23c-5.82.2-10.47 3.88-10.47 8.38 0 .22-.15 4.57-.07 5.65 0 .6-.23.21-1.2.26h-.36a2.22 2.22 0 0 0 -2.09 1.59 15.71 15.71 0 0 0 1.39 5.23c.43.81 1.11.93 1.81 1.45a1.54 1.54 0 0 1 .57 1 9 9 0 0 0 2.68 4.15 26.63 26.63 0 0 0 2.27 1.72c0 .91-.1 2-.17 2.39a1.71 1.71 0 0 1 -1.3 1.15l-7.11 2.59a8.16 8.16 0 0 0 -2.21.91 6 6 0 0 0 -3.16 4.16c-.59 2.17-.54 8.88-.59 9.42 7.76 5.26 14 6.73 24.7 6.26 4.86-.21 12.1-2.61 15.89-4.53-.2-4.22-.52-11.16-.52-11.16z" fill="none" stroke="#472b29" stroke-linecap="round" stroke-linejoin="round"/><path d="m58.8 47.56 1.48-.65-.25 2.3" fill="none" stroke="#895d3d" stroke-linejoin="round" stroke-width=".6"/><path d="m37.63 47.22-1.48-.65.26 2.3" fill="none" stroke="#895d3d" stroke-linejoin="round" stroke-width=".6"/><path d="m37.61 44.49-.16 8.65" fill="none" stroke="#472b29" stroke-linecap="round" stroke-linejoin="round" stroke-width=".4"/><path d="m58.66 44.49.17 8.65" fill="none" stroke="#472b29" stroke-linecap="round" stroke-linejoin="round" stroke-width=".4"/><path d="m59.47 42c.47-4.94-.93-7.76-2-9.15a14.76 14.76 0 0 0 -9.47-3.45 15 15 0 0 0 -8.21 2.42c-1.94 2-4.23 5.68-3.08 10.13a43.58 43.58 0 0 0 1 6.51c.19-2.05.21-6.37.62-8.28a24.13 24.13 0 0 1 1.26-4.11c2.74-3 14.09-2.91 17 0a24.13 24.13 0 0 1 1.26 4.11c.41 1.91.43 6.28.76 8.19a41.39 41.39 0 0 0 .86-6.37z" fill="#512c2b"/><path d="m61.82 34.94a2.28 2.28 0 0 1 -1.37 1.06 2.78 2.78 0 0 0 -.29-.63 2.4 2.4 0 0 0 .45-1.83 2.42 2.42 0 0 0 -2.78-2 3.36 3.36 0 0 0 0-.95 3.09 3.09 0 0 0 -4.39-2.34s0-.08 0-.12a3.8 3.8 0 0 0 -4.43-3 4 4 0 0 0 -2.85 1.87 5.32 5.32 0 0 0 -3-.37c-2.55.41-4.34 2.46-4 4.58a2.29 2.29 0 0 0 .07.28 2.4 2.4 0 0 0 -1 1.62 3 3 0 0 0 2.77 3.18 3.68 3.68 0 0 0 2.33-.37 5.52 5.52 0 0 0 6 2.72 6.38 6.38 0 0 0 2.82-1.17 3.28 3.28 0 0 0 3.24 1.42 3.37 3.37 0 0 0 .9-.28 2.5 2.5 0 0 0 2.11.64 2.43 2.43 0 0 0 1.33-.65c1.1-.3 2.08-1.3 2.09-3.66z" fill="#5e2e2e"/></svg>