<svg height="100" viewBox="0 0 100 100" width="100" xmlns="http://www.w3.org/2000/svg"><circle cx="20.16" cy="57.12" fill="#fff" r=".89"/><circle cx="79.21" cy="32.25" fill="#fff" r=".68"/><circle cx="76.58" cy="13.21" fill="#f1bc19" r=".89"/><circle cx="20.66" cy="64.79" fill="#f1bc19" r=".89"/><circle cx="49.48" cy="50.44" fill="#cee1f4" r="37.45"/><circle cx="82.02" cy="15.37" fill="#f1bc19" r="4.01"/><circle cx="86.03" cy="24.44" fill="#78a0cf" r="1.88"/><circle cx="77.05" cy="76.85" fill="#fbcd59" r="1.88"/><circle cx="13.89" cy="63.91" fill="#fbcd59" r="4.01"/><circle cx="24.12" cy="88.04" fill="#78a0cf" r="1.88"/><circle cx="75.7" cy="30.73" fill="#fff" r="1.8"/><circle cx="17.63" cy="51.8" fill="#fff" r="2.54"/><path d="m68 71.65c-.41-2.14-1.28-3.4-3.35-4l-.34-.12-.59-.24c-1.28-.55-8.72-3.29-8.72-3.29a1.87 1.87 0 0 1 -1.24-1.08 8.72 8.72 0 0 1 -.21-2.92 46.76 46.76 0 0 1 -5 1.43c-1.9.18-6-2.27-6-2.27s-.09 3-.22 3.71a1.69 1.69 0 0 1 -1.33 1.13l-7.12 2.58a8.16 8.16 0 0 0 -2.21.91 7.59 7.59 0 0 0 -3.16 4.16s-.47 3.32-.45 3.44c-.05.46-.09 1-.14 1.51 7.76 5.26 14 6.73 24.7 6.26 4.86-.21 12.1-2.61 15.89-4.52-.19-4.23-.51-6.69-.51-6.69z" fill="#895f3f"/><path d="m64.62 67.67-.34-.12-.59-.24c-.77-.33-3.9-1.5-6.18-2.35h-.11c-2.51 1.29-6.09 3.22-9.38 3.22s-6.59-1.75-9.39-3.22l-.31.08-4.43 1.6a8.16 8.16 0 0 0 -2.21.91 7.59 7.59 0 0 0 -3.16 4.16s-.47 3.32-.45 3.44c-.05.46-.09 5.44-.14 6 7.76 5.26 14 6.73 24.7 6.26 4.86-.21 12.1-2.61 15.89-4.52-.2-4.23-.55-11.16-.55-11.16-.41-2.18-1.28-3.44-3.35-4.06z" fill="#a7c9ea"/><path d="m34.75 81.09v3.95" fill="none" stroke="#78a0cf" stroke-linecap="round" stroke-linejoin="round" stroke-width=".6"/><path d="m61.08 81.09v4.65" fill="none" stroke="#78a0cf" stroke-linecap="round" stroke-linejoin="round" stroke-width=".6"/><path d="m60.26 45.13h-.36c-1 0-1.24.34-1.19-.26.07-1.06-.07-5.36-.07-5.58 0-4.45-4.66-8.09-10.47-8.29h-.23c-5.82.2-10.47 3.84-10.47 8.29 0 .22-.15 4.52-.07 5.58 0 .6-.23.21-1.2.26h-.36a2.22 2.22 0 0 0 -2.09 1.58c.13.07.61 3.73 1.39 5.17.43.8 1.11.91 1.81 1.43a1.52 1.52 0 0 1 .57 1 8.93 8.93 0 0 0 2.68 4.1c.58.57 4.49 4.73 7.85 4.52s7.27-3.95 7.86-4.52a9.09 9.09 0 0 0 2.68-4.1 1.54 1.54 0 0 1 .56-1c.7-.52 1.38-.63 1.82-1.43.78-1.44 1.26-5.1 1.39-5.17a2.22 2.22 0 0 0 -2.1-1.58z" fill="#a3754f" stroke="#472b29" stroke-miterlimit="10" stroke-width=".7"/><path d="m48.11 51.19a2.32 2.32 0 0 0 1.77-.8.12.12 0 0 0 0-.17.12.12 0 0 0 -.17 0 2.06 2.06 0 0 1 -1.59.63 2.09 2.09 0 0 1 -1.59-.63.13.13 0 0 0 -.09 0 .11.11 0 0 0 -.07 0 .12.12 0 0 0 0 .17 2.36 2.36 0 0 0 1.74.8z" fill="#512c2b"/><path d="m45.94 43 .43-.83a11.25 11.25 0 0 0 -5.68.18l.54.81a8.94 8.94 0 0 1 4.71-.16z" fill="#512c2b"/><path d="m55.11 43 .43-.83a11.25 11.25 0 0 0 -5.68.18l.55.81a8.91 8.91 0 0 1 4.7-.16z" fill="#512c2b"/><path d="m43.3 44.14a1.21 1.21 0 0 0 -1 .73.51.51 0 0 1 .17 0 .73.73 0 0 1 0 1.46.63.63 0 0 1 -.32-.1 1.33 1.33 0 0 0 1.2 1.14 1.65 1.65 0 0 0 0-3.2z" fill="#512c2b"/><path d="m52.88 44.14a1.17 1.17 0 0 0 -1 .54.64.64 0 0 1 .23 0 .73.73 0 0 1 0 1.46.61.61 0 0 1 -.53-.31 1.44 1.44 0 0 0 1.25 1.56 1.65 1.65 0 0 0 0-3.2z" fill="#512c2b"/><path d="m49.89 73.78 2.11 13.67h-8.44l2.11-13.67a2.38 2.38 0 0 1 4.22 0z" fill="#f5921e"/><path d="m46.16 71.87-1.95-4.25h7.79l-2 4.25a2.25 2.25 0 0 1 -3.84 0z" fill="#f5921e"/><path d="m40.9 63.67-2.38 1.65 5.12 7.68 4.74-5.89s-7.13-1.79-7.48-3.44z" fill="#fdfcef"/><path d="m55 63.67 2.39 1.65-5.09 7.68-4.75-5.89s7.13-1.79 7.45-3.44z" fill="#fdfcef"/><g fill="none" stroke-linejoin="round"><path d="m68 71.83c-.41-2.14-1.28-3.4-3.35-4a3.19 3.19 0 0 1 -.34-.13l-.59-.23c-1.28-.55-8.72-3.29-8.72-3.29a1.9 1.9 0 0 1 -1.24-1.08 6.5 6.5 0 0 1 -.26-2.3 25.82 25.82 0 0 0 2.39-1.87 9.1 9.1 0 0 0 2.68-4.14 1.57 1.57 0 0 1 .56-1c.7-.53 1.38-.64 1.82-1.45a15.41 15.41 0 0 0 1.39-5.23 2.23 2.23 0 0 0 -2.1-1.59h-.34c-1-.05-1 .23-1-.38.08-1.07-.3-5.31-.3-5.53 0-4.5-4.66-8.18-10.47-8.38h-.23c-5.82.2-10.47 3.88-10.47 8.38 0 .22-.15 4.57-.07 5.64 0 .61-.23.22-1.2.27h-.36a2.22 2.22 0 0 0 -2.09 1.59 15.83 15.83 0 0 0 1.39 5.23c.43.81 1.11.92 1.81 1.45a1.54 1.54 0 0 1 .57 1 8.94 8.94 0 0 0 2.68 4.14 25.92 25.92 0 0 0 2.27 1.73c0 .91-.1 2-.17 2.39a1.71 1.71 0 0 1 -1.26 1.13l-7.12 2.58a8.16 8.16 0 0 0 -2.21.91 6 6 0 0 0 -3.16 4.16c-.59 2.17-.54 8.88-.59 9.42 7.76 5.26 14 6.73 24.7 6.26 4.86-.21 12.1-2.61 15.89-4.53-.19-4.22-.51-11.15-.51-11.15z" stroke="#472b29" stroke-linecap="round"/><path d="m58.8 48.33 1.48-.65-.25 2.3" stroke="#895d3d" stroke-width=".6"/><path d="m37.63 47.98-1.48-.64.26 2.29" stroke="#895d3d" stroke-width=".6"/><path d="m37.61 45.26-.16 8.65" stroke="#472b29" stroke-linecap="round" stroke-width=".4"/><path d="m58.66 45.26.17 8.65" stroke="#472b29" stroke-linecap="round" stroke-width=".4"/></g><path d="m50.26 60.22a3.53 3.53 0 0 1 -2.34-2.44 3.52 3.52 0 0 1 -2.33 2.44c-3 .59-5.9-2.2-8.06-5.11a7.62 7.62 0 0 0 1.36 2.69c2.4 2.52 6.16 7.51 9 7.51 2.61 0 6.64-5 9-7.51a7.79 7.79 0 0 0 1.36-2.69c-2.09 2.89-5.03 5.7-7.99 5.11z" fill="#512c2b"/><path d="m44.55 54.62a1.84 1.84 0 0 0 -.06.47c0 1.39 1.54 2.52 3.43 2.52s3.44-1.13 3.44-2.52a1.84 1.84 0 0 0 -.06-.47z" fill="#6d1b18"/><path d="m49.74 57.22a3 3 0 0 0 -3.63 0 4.37 4.37 0 0 0 1.81.39 4.42 4.42 0 0 0 1.82-.39z" fill="#ee3e54"/><path d="m45.53 54.62v.47c0 .37.49.67 1.09.67h2.61c.6 0 1.09-.3 1.09-.67v-.43s0 0 0 0z" fill="#fdfcef"/><path d="m44.55 54.62a1.84 1.84 0 0 0 -.06.47c0 1.39 1.54 2.52 3.43 2.52s3.44-1.13 3.44-2.52a1.84 1.84 0 0 0 -.06-.47z" fill="none" stroke="#472b29" stroke-linecap="round" stroke-linejoin="round" stroke-width=".4"/><path d="m48.18 26.32c-7.17 0-13 5.47-13 12.21a11.51 11.51 0 0 0 .94 4.58 12.25 12.25 0 0 0 1 1.82 21.63 21.63 0 0 0 .55 3.9 32.11 32.11 0 0 0 .33-3.71 30.41 30.41 0 0 1 .35-4.21 23.29 23.29 0 0 1 1.22-3.91 23.42 23.42 0 0 0 8.58 1.51 23.41 23.41 0 0 0 8.57-1.51 22.42 22.42 0 0 1 1.28 3.91 30.41 30.41 0 0 1 .35 4.21 34.54 34.54 0 0 0 .27 3.71 22.51 22.51 0 0 0 .57-4.22v.36a11.89 11.89 0 0 0 1-1.86 11.51 11.51 0 0 0 .95-4.58c.01-6.74-5.8-12.21-12.96-12.21z" fill="#512c2b"/></svg>