<svg height="100" viewBox="0 0 100 100" width="100" xmlns="http://www.w3.org/2000/svg"><circle cx="20.32" cy="55.99" fill="#fff" r=".89"/><circle cx="79.37" cy="31.12" fill="#fff" r=".68"/><circle cx="76.74" cy="12.08" fill="#f1bc19" r=".89"/><circle cx="20.81" cy="63.66" fill="#f1bc19" r=".89"/><circle cx="49.63" cy="49.32" fill="#e6edb7" r="37.45"/><circle cx="82.18" cy="14.24" fill="#f1bc19" r="4.01"/><circle cx="86.19" cy="23.31" fill="#88ae45" r="1.88"/><circle cx="77.2" cy="75.73" fill="#fbcd59" r="1.88"/><circle cx="14.04" cy="62.78" fill="#fbcd59" r="4.01"/><circle cx="24.28" cy="86.91" fill="#88ae45" r="1.88"/><circle cx="75.85" cy="29.6" fill="#fff" r="1.8"/><circle cx="17.78" cy="50.67" fill="#fff" r="2.54"/><path d="m68.12 70.53c-.4-2.15-1.28-3.41-3.34-4l-.35-.12-.58-.24c-1.25-.53-8.68-3.27-8.68-3.27a1.87 1.87 0 0 1 -1.24-1.08 8.66 8.66 0 0 1 -.23-2.91 46.9 46.9 0 0 1 -5 1.42c-1.9.18-6-2.27-6-2.27s-.1 3-.23 3.71a1.67 1.67 0 0 1 -1.28 1.13l-7.19 2.56a8.11 8.11 0 0 0 -2.21.91 7.52 7.52 0 0 0 -3.16 4.16s-.47 3.31-.45 3.43c0 .47-.09 1-.13 1.51 7.76 5.26 14 6.73 24.69 6.26 4.87-.21 12.1-2.61 15.9-4.52-.17-4.21-.52-6.68-.52-6.68z" fill="#e5ac80"/><path d="m64.78 66.68-.35-.12-.58-.24c-.77-.33-3.91-1.5-6.19-2.35h-.1c-2.52 1.29-6.1 3.23-9.39 3.23s-6.58-1.75-9.38-3.23l-.32.09-4.47 1.57a8.44 8.44 0 0 0 -2.21.91 7.59 7.59 0 0 0 -3.16 4.16s-.47 3.32-.45 3.44c0 .46-.09 5.44-.13 6 7.76 5.26 14 6.73 24.69 6.26 4.87-.21 12.1-2.61 15.9-4.53-.21-4.22-.56-11.15-.56-11.15-.36-2.16-1.24-3.42-3.3-4.04z" fill="#fdfcef"/><path d="m34.9 80.1v3.95" fill="none" stroke="#e1e0d8" stroke-linecap="round" stroke-linejoin="round" stroke-width=".6"/><path d="m61.23 80.1v4.65" fill="none" stroke="#e1e0d8" stroke-linecap="round" stroke-linejoin="round" stroke-width=".6"/><path d="m50.11 72.79 2.11 13.67h-8.44l2.11-13.67a2.38 2.38 0 0 1 4.22 0z" fill="#88ae45"/><path d="m46.05 70.88-1.95-4.25h7.8l-1.9 4.25a2.25 2.25 0 0 1 -3.95 0z" fill="#9abf4b"/><path d="m40.94 62.68-2.39 1.65 5.12 7.72 4.75-5.89s-7.13-1.83-7.48-3.48z" fill="#eaeae8"/><path d="m55.06 62.68 2.39 1.65-5.12 7.72-4.75-5.89s7.13-1.83 7.48-3.48z" fill="#eaeae8"/><path d="m60.42 44.17h-.36c-1 0-1.24.34-1.2-.25.08-1-.07-5.29-.07-5.51 0-4.39-4.65-8-10.46-8.18h-.24c-5.81.2-10.46 3.79-10.46 8.18 0 .22-.15 4.46-.07 5.51 0 .59-.24.21-1.2.25h-.36a2.23 2.23 0 0 0 -2.1 1.56c.13.08.61 3.68 1.39 5.1.44.79 1.12.91 1.82 1.42a1.51 1.51 0 0 1 .57 1 8.84 8.84 0 0 0 2.67 4c.59.56 4.5 4.67 7.86 4.46s7.27-3.9 7.86-4.46a8.84 8.84 0 0 0 2.67-4 1.51 1.51 0 0 1 .57-1c.7-.51 1.38-.63 1.81-1.42.78-1.42 1.26-5 1.39-5.1a2.21 2.21 0 0 0 -2.09-1.56z" fill="#edbc94"/><g fill="#512c2b"><path d="m48.27 52.06a2.36 2.36 0 0 0 1.77-.8.12.12 0 0 0 0-.17.12.12 0 0 0 -.17 0 2.32 2.32 0 0 1 -3.18 0 .15.15 0 0 0 -.09 0 .11.11 0 0 0 -.08 0 .12.12 0 0 0 0 .17 2.34 2.34 0 0 0 1.75.8z"/><path d="m46.09 41.83.43-.83a11.25 11.25 0 0 0 -5.68.18l.55.81a8.91 8.91 0 0 1 4.7-.16z"/><path d="m55.26 41.83.44-.83a11.29 11.29 0 0 0 -5.69.18l.55.81a8.91 8.91 0 0 1 4.7-.16z"/><path d="m43.45 43a1.22 1.22 0 0 0 -1.05.73.57.57 0 0 1 .18 0 .73.73 0 0 1 0 1.46.58.58 0 0 1 -.32-.1 1.33 1.33 0 0 0 1.19 1.14 1.65 1.65 0 0 0 0-3.2z"/><path d="m53 43a1.15 1.15 0 0 0 -.94.55.59.59 0 0 1 .23-.05.73.73 0 0 1 0 1.46.65.65 0 0 1 -.54-.32 1.29 1.29 0 1 0 1.25-1.64z"/><path d="m53.56 53.92a.13.13 0 0 0 0-.17.12.12 0 0 0 -.17 0 8.47 8.47 0 0 1 -5.14 1.41 8.47 8.47 0 0 1 -5.14-1.41.11.11 0 0 0 -.08 0 .12.12 0 0 0 -.09 0 .13.13 0 0 0 0 .17 9.26 9.26 0 0 0 10.58 0z"/></g><path d="m68.12 70.7c-.4-2.14-1.28-3.4-3.34-4l-.35-.12-.58-.24c-1.25-.53-8.68-3.27-8.68-3.27a1.87 1.87 0 0 1 -1.24-1.07 6.51 6.51 0 0 1 -.25-2.3 29.94 29.94 0 0 0 2.39-1.86 9.08 9.08 0 0 0 2.67-4.15 1.58 1.58 0 0 1 .57-1c.7-.52 1.38-.64 1.81-1.45a15.35 15.35 0 0 0 1.39-5.23 2.21 2.21 0 0 0 -2.09-1.59h-.36c-1 0-1.24.34-1.2-.26.08-1.08-.07-5.43-.07-5.64 0-4.51-4.65-8.19-10.46-8.39h-.24c-5.81.2-10.46 3.88-10.46 8.39 0 .21-.15 4.56-.07 5.64 0 .6-.24.21-1.2.26h-.36a2.23 2.23 0 0 0 -2.1 1.59 15.71 15.71 0 0 0 1.39 5.23c.44.81 1.12.93 1.82 1.45a1.58 1.58 0 0 1 .57 1 9.08 9.08 0 0 0 2.67 4.15 25.73 25.73 0 0 0 2.28 1.72c-.05.91-.11 2-.18 2.39a1.67 1.67 0 0 1 -1.28 1.13l-7.17 2.55a8.44 8.44 0 0 0 -2.21.91 6 6 0 0 0 -3.16 4.16c-.58 2.17-.54 8.88-.58 9.42 7.76 5.26 14 6.73 24.69 6.26 4.87-.21 12.1-2.61 15.9-4.53-.17-4.22-.52-11.15-.52-11.15z" fill="none" stroke="#472b29" stroke-linecap="round" stroke-linejoin="round" stroke-width=".8"/><path d="m58.95 47.2 1.49-.65-.26 2.3" fill="none" stroke="#d3a47d" stroke-linejoin="round" stroke-width=".6"/><path d="m37.79 46.85-1.49-.64.26 2.3" fill="none" stroke="#d3a47d" stroke-linejoin="round" stroke-width=".6"/><path d="m37.77 44.13-.17 8.65" fill="none" stroke="#472b29" stroke-linecap="round" stroke-linejoin="round" stroke-width=".4"/><path d="m58.82 44.13.16 8.65" fill="none" stroke="#472b29" stroke-linecap="round" stroke-linejoin="round" stroke-width=".4"/><path d="m54.73 58.4c-1.79 1.23-5.17 1.91-5.82.84-.48-.78-1.17-.78-1.65 0-.71 1.16-4.33 0-6.18-1.36-.52 0 0 .17-.42.54a38.44 38.44 0 0 0 7.41 4.82 43.31 43.31 0 0 0 6.93-4.39c-.39-.43.3-.44-.27-.45z" fill="#472b29"/><path d="m58.48 32.9a2.65 2.65 0 0 1 2.12 2.6c-.07 2.15-1.6 11.5-1.6 11.5l-3-9.6 2.51-4.5z" fill="#472b29"/><path d="m46.92 26.89-1.16-1.58s13-1.42 13 5.63a11.43 11.43 0 0 1 -8.47 11.33l.64-2.53-5.11 2.66.65-1.52-4.24 1.52 1.54-3.48-3.77 1.39a42.73 42.73 0 0 0 -2 6.69s-3-9.91-1.05-10.68l-.71-.38.9-1.77-1.35-.57 1.11-1.6-.52-.7 2.62-1.5-1.35-.69s4.31-3.55 9.32-2.22z" fill="#472b29"/><path d="m46.89 43.48c-2-2.43-9.49-.71-9.5-.71q.21.82.36 1.62c.56.06.59 1.31.65 1.77.27 2.21 1.75 3.84 4.87 3.77a3.92 3.92 0 0 0 4-3.85 5.41 5.41 0 0 0 -.38-2.6zm-.35 2.71a3.25 3.25 0 0 1 -3.35 3.24h-.58c-3.1 0-3.63-2.72-3.69-4.44a1.83 1.83 0 0 1 1.65-1.92 19.39 19.39 0 0 1 2-.06c2.32 0 3.33.56 3.6 1a4 4 0 0 1 .37 2.18z" fill="#8c9136"/><path d="m49.09 46.08a3.92 3.92 0 0 0 4 3.85c3.12.07 4.6-1.56 4.87-3.77.05-.46.09-1.71.64-1.77.11-.53.23-1.07.37-1.62 0 0-7.51-1.72-9.5.71a5.41 5.41 0 0 0 -.38 2.6zm1.13-2.08c.27-.44 1.28-1 3.6-1a19.39 19.39 0 0 1 2 .06 1.83 1.83 0 0 1 1.6 1.94c-.06 1.72-.59 4.43-3.69 4.44h-.58a3.25 3.25 0 0 1 -3.35-3.24 3.9 3.9 0 0 1 .42-2.2z" fill="#8c9136"/><path d="m49.52 45.38a2.4 2.4 0 0 0 -1.4-.4 2.08 2.08 0 0 0 -1.3.4c-.13-.37-.27-.75-.41-1.12h3.51z" fill="#8c9136"/></svg>