<svg height="100" viewBox="0 0 100 100" width="100" xmlns="http://www.w3.org/2000/svg" xmlns:xlink="http://www.w3.org/1999/xlink"><clipPath id="a"><path d="m67.59 68.69a15.69 15.69 0 0 0 -1.32-1.23l-2-.93c-1.27-.53-6.76-2.53-6.76-2.53-.22-.06-3.78 2.08-3.95 2-1.73.42-3.49 1.25-5.54 1.25s-3.9-.79-5.55-1.16c-.16.09-3.66-2.11-3.84-2.07l-6.17 2a8.37 8.37 0 0 0 -2.11 1.69c-3.24 2.29-2.44 10.18-2.42 10.29 0 .51.05 4.32 0 4.91l.55.4a63.91 63.91 0 0 0 19.78 3.1c7.15 0 14.34-2.29 20.62-4.39-.21-4.21-.46-7.48-.46-7.48-.42-2.34.1-4.14-.83-5.85z"/></clipPath><circle cx="20.16" cy="56.35" fill="#fff" r=".89"/><circle cx="79.21" cy="31.48" fill="#fff" r=".68"/><circle cx="76.58" cy="12.44" fill="#f1bc19" r=".89"/><circle cx="20.66" cy="64.02" fill="#f1bc19" r=".89"/><circle cx="49.48" cy="49.67" fill="#c0e5e4" r="37.45"/><circle cx="82.02" cy="14.6" fill="#f1bc19" r="4.01"/><circle cx="86.03" cy="23.67" fill="#9d9fce" r="1.88"/><circle cx="77.05" cy="76.08" fill="#fbcd59" r="1.88"/><circle cx="13.89" cy="63.14" fill="#fbcd59" r="4.01"/><circle cx="24.12" cy="87.27" fill="#9d9fce" r="1.88"/><circle cx="75.7" cy="29.96" fill="#fff" r="1.8"/><circle cx="17.63" cy="51.03" fill="#fff" r="2.54"/><path d="m68 70.64c-.41-2.14-1.28-3.4-3.35-4a3.19 3.19 0 0 1 -.34-.13l-.59-.23c-1.28-.55-8.72-3.28-8.72-3.28a1.9 1.9 0 0 1 -1.24-1.08 8.72 8.72 0 0 1 -.21-2.92 49.38 49.38 0 0 1 -5 1.43c-1.9.18-6-2.28-6-2.28s-.09 3-.22 3.72a1.71 1.71 0 0 1 -1.33 1.13l-7.12 2.58a8.16 8.16 0 0 0 -2.21.91 7.59 7.59 0 0 0 -3.16 4.16s-.47 3.32-.45 3.44c-.05.46-.09 1-.14 1.51 7.76 5.26 14 6.73 24.7 6.26 4.86-.21 12.1-2.61 15.89-4.53-.19-4.23-.51-6.69-.51-6.69z" fill="#ce9065"/><path d="m64.62 66.66a3.19 3.19 0 0 1 -.34-.13l-.59-.23c-.77-.33-3.9-1.5-6.18-2.35h-.11c-2.51 1.29-6.09 3.23-9.38 3.23s-6.59-1.75-9.39-3.23l-.31.09-4.43 1.6a8.16 8.16 0 0 0 -2.21.91 7.59 7.59 0 0 0 -3.16 4.16s-.47 3.32-.45 3.44c-.05.46-.09 5.44-.14 6 7.76 5.26 14 6.73 24.7 6.26 4.86-.21 12.1-2.61 15.89-4.53-.2-4.22-.55-11.15-.55-11.15-.41-2.19-1.28-3.45-3.35-4.07z" fill="#fdfcef"/><g clip-path="url(#a)" fill="#00a5a5"><path d="m47.67 75.06a56.49 56.49 0 0 1 -20.88-4.45l1-1.43c.2.09 19.57 9.22 41.2.4l1.01 1.49a54.69 54.69 0 0 1 -22.33 3.99z"/><path d="m48 79.57a60.72 60.72 0 0 1 -21.8-4.57l1-1.45c.2.1 20.51 9.46 42.15.64l.93 1.49a54.73 54.73 0 0 1 -22.28 3.89z"/><path d="m47.4 84.4a59.49 59.49 0 0 1 -21.47-4.46l1.07-1.44c.2.1 20.12 9.24 42.35.43l1 1.5a57.57 57.57 0 0 1 -22.95 3.97z"/><path d="m48.4 70.54a56.49 56.49 0 0 1 -20.88-4.45l1-1.44c.19.1 19.57 9.22 41.2.4l.94 1.5a54.69 54.69 0 0 1 -22.26 3.99z"/></g><path d="m60.26 44.12h-.36c-1 0-1.24.34-1.19-.26.07-1.06-.07-5.36-.07-5.58 0-4.46-4.66-8.09-10.47-8.29h-.23c-5.82.2-10.47 3.83-10.47 8.29 0 .22-.15 4.52-.07 5.58 0 .6-.23.21-1.2.26h-.36a2.22 2.22 0 0 0 -2.09 1.57c.13.08.61 3.73 1.39 5.17.43.81 1.11.92 1.81 1.44a1.5 1.5 0 0 1 .57 1 8.85 8.85 0 0 0 2.68 4.09c.58.57 4.49 4.74 7.85 4.53s7.27-4 7.86-4.53a9 9 0 0 0 2.68-4.09 1.52 1.52 0 0 1 .56-1c.7-.52 1.38-.63 1.82-1.44.78-1.44 1.26-5.09 1.39-5.17a2.22 2.22 0 0 0 -2.1-1.57z" fill="#db9e71"/><path d="m48.11 52.18a2.32 2.32 0 0 0 1.77-.8.12.12 0 0 0 0-.17.12.12 0 0 0 -.17 0 2.06 2.06 0 0 1 -1.59.63 2.09 2.09 0 0 1 -1.59-.63.1.1 0 0 0 -.09 0 .11.11 0 0 0 -.07 0 .12.12 0 0 0 0 .17 2.36 2.36 0 0 0 1.74.8z" fill="#512c2b"/><path d="m45.94 44 .43-.83a11.25 11.25 0 0 0 -5.68.18l.54.81a8.94 8.94 0 0 1 4.71-.16z" fill="#512c2b"/><path d="m55.11 44 .43-.83a11.25 11.25 0 0 0 -5.68.18l.55.81a8.91 8.91 0 0 1 4.7-.16z" fill="#512c2b"/><path d="m43.3 45.12a1.23 1.23 0 0 0 -1 .73h.17a.73.73 0 0 1 0 1.45.55.55 0 0 1 -.32-.1 1.33 1.33 0 0 0 1.2 1.15 1.66 1.66 0 0 0 0-3.21z" fill="#512c2b"/><path d="m52.88 45.12a1.18 1.18 0 0 0 -1 .55.64.64 0 0 1 .23-.05.73.73 0 0 1 0 1.46.6.6 0 0 1 -.53-.32 1.44 1.44 0 0 0 1.25 1.57 1.66 1.66 0 0 0 0-3.21z" fill="#512c2b"/><g fill="none" stroke-linejoin="round"><path d="m68 70.82c-.41-2.15-1.28-3.4-3.35-4a2.87 2.87 0 0 1 -.34-.12l-.59-.24c-1.28-.55-8.72-3.29-8.72-3.29a1.89 1.89 0 0 1 -1.24-1.09 6.47 6.47 0 0 1 -.26-2.29 27.8 27.8 0 0 0 2.39-1.87 9.1 9.1 0 0 0 2.68-4.14 1.57 1.57 0 0 1 .56-1.05c.7-.53 1.38-.64 1.82-1.45a15.47 15.47 0 0 0 1.39-5.23 2.24 2.24 0 0 0 -2.1-1.6h-.34c-1 0-1 .24-1-.37.08-1.07-.3-5.31-.3-5.53 0-4.51-4.66-8.18-10.47-8.38h-.23c-5.82.2-10.47 3.87-10.47 8.38 0 .22-.15 4.57-.07 5.64 0 .61-.23.22-1.2.26h-.36a2.23 2.23 0 0 0 -2.09 1.6 15.83 15.83 0 0 0 1.39 5.23c.43.81 1.11.92 1.81 1.45a1.54 1.54 0 0 1 .57 1.05 8.94 8.94 0 0 0 2.68 4.14 25.92 25.92 0 0 0 2.27 1.73c0 .91-.1 2-.17 2.38a1.72 1.72 0 0 1 -1.26 1.14l-7.12 2.58a8.16 8.16 0 0 0 -2.21.91 6 6 0 0 0 -3.16 4.16c-.59 2.17-.54 8.88-.59 9.42 7.76 5.25 14 6.73 24.7 6.26 4.86-.21 12.1-2.61 15.89-4.53-.19-4.22-.51-11.15-.51-11.15z" stroke="#472b29" stroke-linecap="round"/><path d="m58.8 47.31 1.48-.64-.25 2.29" stroke="#895d3d" stroke-width=".6"/><path d="m37.63 46.97-1.48-.64.26 2.29" stroke="#895d3d" stroke-width=".6"/><path d="m37.61 44.25-.16 8.65" stroke="#472b29" stroke-linecap="round" stroke-width=".4"/><path d="m58.66 44.25.17 8.65" stroke="#472b29" stroke-linecap="round" stroke-width=".4"/><path d="m42.64 59.53s3.8 2.65 5.74 2.43 5-2.31 5-2.31" stroke="#472b29" stroke-linecap="round" stroke-width=".5"/></g><path d="m59.92 34.28a2.2 2.2 0 0 0 -1.92-2.15 2.41 2.41 0 0 0 -1.19-1.67c0-.08 0-.16 0-.24a2.59 2.59 0 0 0 -2.61-2.58 2.33 2.33 0 0 0 -.7.11 2.68 2.68 0 0 0 -3.58-.75 2.5 2.5 0 0 0 -1.58-.52 2.57 2.57 0 0 0 -1.66.64 2.33 2.33 0 0 0 -1.33-.38 2.4 2.4 0 0 0 -2.08 1.26 1.92 1.92 0 0 0 -.89-.22 2 2 0 0 0 -1.9 1.82l-.09.13a2.41 2.41 0 0 0 -1.9 1.85h-.18a2.18 2.18 0 0 0 -2.12 2.23 2.25 2.25 0 0 0 .58 1.47 39.44 39.44 0 0 0 .57 11.12.38.38 0 0 0 .76-.09c.07-3 .67-8.66 3.6-8.27a40.94 40.94 0 0 0 6.44.45 41.74 41.74 0 0 0 6.41-.64c2.92-.48 3.68 5.18 3.83 8.15a.38.38 0 0 0 .76.07 40.39 40.39 0 0 0 .36-10.48 2.37 2.37 0 0 0 .42-1.34z" fill="#512c2b"/><path d="m52.84 56.15a.12.12 0 0 0 0-.16.11.11 0 0 0 -.16 0 7.93 7.93 0 0 1 -4.83 1.33 7.93 7.93 0 0 1 -4.85-1.32.1.1 0 0 0 -.09 0 .11.11 0 0 0 0 .16 8.71 8.71 0 0 0 10 0z" fill="#512c2b"/></svg>