<svg height="100" viewBox="0 0 100 100" width="100" xmlns="http://www.w3.org/2000/svg"><circle cx="20.32" cy="55.99" fill="#fff" r=".89"/><circle cx="79.37" cy="31.12" fill="#fff" r=".68"/><circle cx="76.74" cy="12.08" fill="#f1bc19" r=".89"/><circle cx="20.81" cy="63.66" fill="#f1bc19" r=".89"/><circle cx="49.63" cy="49.32" fill="#c0e5e4" r="37.45"/><circle cx="82.18" cy="14.24" fill="#f1bc19" r="4.01"/><circle cx="86.19" cy="23.31" fill="#77cbd2" r="1.88"/><circle cx="77.2" cy="75.73" fill="#fbcd59" r="1.88"/><circle cx="14.04" cy="62.78" fill="#fbcd59" r="4.01"/><circle cx="24.28" cy="86.91" fill="#77cbd2" r="1.88"/><circle cx="75.85" cy="29.6" fill="#fff" r="1.8"/><circle cx="17.78" cy="50.67" fill="#fff" r="2.54"/><path d="m68.12 70.53c-.4-2.15-1.28-3.41-3.34-4l-.35-.12-.58-.24c-1.25-.53-8.68-3.27-8.68-3.27a1.87 1.87 0 0 1 -1.24-1.08 8.66 8.66 0 0 1 -.23-2.91 46.9 46.9 0 0 1 -5 1.42c-1.9.18-6-2.27-6-2.27s-.1 3-.23 3.71a1.67 1.67 0 0 1 -1.28 1.13l-7.19 2.56a8.11 8.11 0 0 0 -2.21.91 7.52 7.52 0 0 0 -3.16 4.16s-.47 3.31-.45 3.43c0 .47-.09 1-.13 1.51 7.76 5.26 14 6.73 24.69 6.26 4.87-.21 12.1-2.61 15.9-4.52-.17-4.21-.52-6.68-.52-6.68z" fill="#dba179"/><path d="m64.78 66.54-.35-.12-.58-.24c-.77-.33-3.91-1.5-6.19-2.34h-.1c-2.56 1.26-6.1 3.16-9.39 3.16s-6.58-1.75-9.38-3.22l-.32.08-4.47 1.64a8.11 8.11 0 0 0 -2.21.91 7.55 7.55 0 0 0 -3.16 4.16s-.47 3.31-.45 3.43c0 .47-.09 5.45-.13 6 7.76 5.26 14 6.73 24.69 6.26 4.87-.21 12.1-2.61 15.9-4.52-.21-4.23-.56-11.15-.56-11.15-.36-2.17-1.24-3.43-3.3-4.05z" fill="#77cbd2"/><path d="m34.9 79.96v3.95" fill="none" stroke="#00a5a5" stroke-linecap="round" stroke-linejoin="round" stroke-width=".6"/><path d="m61.23 79.96v4.65" fill="none" stroke="#00a5a5" stroke-linecap="round" stroke-linejoin="round" stroke-width=".6"/><path d="m60.42 44h-.36c-1-.05-.89.32-.84-.28.08-1.06-.43-5.34-.43-5.56 0-4.45-4.65-8.09-10.46-8.29h-.24c-5.81.2-10.46 3.84-10.46 8.29 0 .22-.15 4.52-.07 5.58 0 .6-.24.21-1.2.26h-.36a2.22 2.22 0 0 0 -2.1 1.58c.13.08.61 3.73 1.39 5.17.44.8 1.12.91 1.82 1.43a1.56 1.56 0 0 1 .57 1 9 9 0 0 0 2.67 4.1c.59.57 4.5 4.74 7.86 4.52s7.27-4 7.86-4.52a9 9 0 0 0 2.67-4.1 1.56 1.56 0 0 1 .57-1c.7-.52 1.38-.63 1.81-1.43.78-1.44 1.26-5.09 1.39-5.17a2.21 2.21 0 0 0 -2.09-1.58z" fill="#edbc94"/><g fill="#512c2b"><path d="m48.27 51.06a2.36 2.36 0 0 0 1.77-.8.12.12 0 0 0 0-.17.12.12 0 0 0 -.17 0 2.32 2.32 0 0 1 -3.18 0 .15.15 0 0 0 -.09 0 .11.11 0 0 0 -.08 0 .12.12 0 0 0 0 .17 2.34 2.34 0 0 0 1.75.8z"/><path d="m46.09 41.83.43-.83a11.25 11.25 0 0 0 -5.68.18l.55.81a8.91 8.91 0 0 1 4.7-.16z"/><path d="m55.26 41.83.44-.83a11.29 11.29 0 0 0 -5.69.18l.55.81a8.91 8.91 0 0 1 4.7-.16z"/><path d="m43.45 43a1.22 1.22 0 0 0 -1.05.73.57.57 0 0 1 .18 0 .73.73 0 0 1 0 1.46.58.58 0 0 1 -.32-.1 1.33 1.33 0 0 0 1.19 1.14 1.65 1.65 0 0 0 0-3.2z"/><path d="m53 43a1.15 1.15 0 0 0 -.94.55.59.59 0 0 1 .23-.05.73.73 0 0 1 0 1.46.65.65 0 0 1 -.54-.32 1.29 1.29 0 1 0 1.25-1.64z"/><path d="m53.56 52.92a.13.13 0 0 0 0-.17.12.12 0 0 0 -.17 0 8.47 8.47 0 0 1 -5.14 1.41 8.47 8.47 0 0 1 -5.14-1.41.11.11 0 0 0 -.08 0 .12.12 0 0 0 -.09 0 .13.13 0 0 0 0 .17 9.26 9.26 0 0 0 10.58 0z"/><path d="m49.67 58.19c.06 0 .11-.08.11-.16s-.05-.16-.11-.16h-2.58c-.06 0-.11.07-.11.16s.05.16.11.16z"/></g><path d="m68.12 70.7c-.4-2.14-1.28-3.4-3.34-4l-.35-.12-.58-.24c-1.25-.53-8.68-3.27-8.68-3.27a1.87 1.87 0 0 1 -1.24-1.07 6.51 6.51 0 0 1 -.25-2.3 29.94 29.94 0 0 0 2.39-1.86 9.08 9.08 0 0 0 2.67-4.15 1.58 1.58 0 0 1 .57-1c.7-.52 1.38-.64 1.81-1.45a15.35 15.35 0 0 0 1.39-5.23 2.21 2.21 0 0 0 -2.09-1.59h-.36c-1 0-.89 0-.84-.62.08-1.07-.43-5.07-.43-5.28 0-4.51-4.65-8.19-10.46-8.39h-.24c-5.81.2-10.46 3.88-10.46 8.39 0 .21-.15 4.56-.07 5.64 0 .6-.24.21-1.2.26h-.36a2.23 2.23 0 0 0 -2.1 1.59 15.71 15.71 0 0 0 1.39 5.23c.44.81 1.12.93 1.82 1.45a1.58 1.58 0 0 1 .57 1 9.08 9.08 0 0 0 2.67 4.15 25.73 25.73 0 0 0 2.28 1.72c-.05.91-.11 2-.18 2.39a1.67 1.67 0 0 1 -1.28 1.13l-7.17 2.55a8.44 8.44 0 0 0 -2.21.91 6 6 0 0 0 -3.16 4.16c-.58 2.17-.54 8.88-.58 9.42 7.76 5.26 14 6.73 24.69 6.26 4.87-.21 12.1-2.61 15.9-4.53-.17-4.22-.52-11.15-.52-11.15z" fill="none" stroke="#472b29" stroke-linecap="round" stroke-linejoin="round"/><path d="m58.95 47.2 1.49-.65-.26 2.3" fill="none" stroke="#895d3d" stroke-linejoin="round" stroke-width=".6"/><path d="m37.79 46.85-1.49-.64.26 2.3" fill="none" stroke="#895d3d" stroke-linejoin="round" stroke-width=".6"/><path d="m37.77 44.13-.17 8.65" fill="none" stroke="#472b29" stroke-linecap="round" stroke-linejoin="round" stroke-width=".4"/><path d="m58.82 44.13.16 8.65" fill="none" stroke="#472b29" stroke-linecap="round" stroke-linejoin="round" stroke-width=".4"/><path d="m42.61 59.17s3.94 2.89 5.94 2.66 5.13-2.44 5.13-2.44" fill="none" stroke="#472b29" stroke-linecap="round" stroke-linejoin="round" stroke-width=".5"/><path d="m60.67 30.75c-.07-.56-.68-.48-1.28-.44-1.87.11-2.33-.49-6.15-2.62a9.56 9.56 0 0 0 -10.3.55c-11.94 2.61-4.94 17.97-4.94 17.97s0-8.08 3.65-10.54c6.19 4 12.09 4.47 15.69 2.09 1.39 3.07 1.35 8.45 1.35 8.45a14.43 14.43 0 0 0 1.09-10.75c-.44-1.44 1.15-2.87.9-4.71z" fill="#472b29"/></svg>