<svg height="100" viewBox="0 0 100 100" width="100" xmlns="http://www.w3.org/2000/svg"><circle cx="20.16" cy="56.35" fill="#fff" r=".89"/><circle cx="79.21" cy="31.48" fill="#fff" r=".68"/><circle cx="76.58" cy="12.44" fill="#f1bc19" r=".89"/><circle cx="20.66" cy="64.02" fill="#f1bc19" r=".89"/><circle cx="49.48" cy="49.67" fill="#e6edb7" r="37.45"/><circle cx="82.02" cy="14.6" fill="#f1bc19" r="4.01"/><circle cx="86.03" cy="23.67" fill="#88ae45" r="1.88"/><circle cx="77.05" cy="76.08" fill="#fbcd59" r="1.88"/><circle cx="13.89" cy="63.14" fill="#fbcd59" r="4.01"/><circle cx="24.12" cy="87.27" fill="#88ae45" r="1.88"/><circle cx="75.7" cy="29.96" fill="#fff" r="1.8"/><circle cx="17.63" cy="51.03" fill="#fff" r="2.54"/><path d="m68 70.89c-.41-2.15-1.28-3.41-3.35-4l-.34-.12-.59-.24c-1.28-.53-8.72-3.3-8.72-3.3a1.87 1.87 0 0 1 -1.24-1.08 8.66 8.66 0 0 1 -.23-2.91 47.65 47.65 0 0 1 -5 1.42c-1.9.18-6-2.27-6-2.27s-.09 3-.22 3.71a1.69 1.69 0 0 1 -1.31 1.13l-7.12 2.59a7.86 7.86 0 0 0 -2.21.91 7.52 7.52 0 0 0 -3.16 4.16s-.47 3.31-.45 3.43c-.05.47-.09 1-.14 1.51 7.76 5.26 14 6.73 24.7 6.26 4.86-.21 12.1-2.61 15.89-4.52-.19-4.23-.51-6.68-.51-6.68z" fill="#ce9065"/><path d="m64.62 66.9-.34-.12-.59-.24c-.77-.33-3.9-1.5-6.18-2.35h-.11c-2.51 1.29-6.09 3.22-9.38 3.22s-6.59-1.75-9.39-3.22l-.31.08-4.43 1.61a7.86 7.86 0 0 0 -2.21.91 7.52 7.52 0 0 0 -3.16 4.16s-.47 3.31-.45 3.43c-.05.47-.09 5.45-.14 6 7.76 5.26 14 6.73 24.7 6.26 4.86-.21 12.1-2.61 15.89-4.52-.2-4.23-.55-11.15-.55-11.15-.41-2.19-1.28-3.45-3.35-4.07z" fill="#88ae45"/><path d="m34.9 80.34v3.91" fill="none" stroke="#6f913d" stroke-linecap="round" stroke-linejoin="round" stroke-width=".7"/><path d="m61.06 80.34v4.6" fill="none" stroke="#6f913d" stroke-linecap="round" stroke-linejoin="round" stroke-width=".7"/><path d="m60.26 44.36h-.36c-1-.05-1.24.34-1.19-.26.07-1.06-.07-5.36-.07-5.58 0-4.45-4.66-8.09-10.47-8.29h-.23c-5.82.2-10.47 3.84-10.47 8.29 0 .22-.15 4.52-.07 5.58 0 .6-.23.21-1.2.26h-.36a2.22 2.22 0 0 0 -2.09 1.58c.13.08.61 3.73 1.39 5.17.43.8 1.11.91 1.81 1.43a1.52 1.52 0 0 1 .57 1 8.93 8.93 0 0 0 2.68 4.1c.58.57 4.49 4.74 7.85 4.52s7.27-4 7.86-4.52a9.09 9.09 0 0 0 2.68-4.1 1.54 1.54 0 0 1 .56-1c.7-.52 1.38-.63 1.82-1.43.78-1.44 1.26-5.09 1.39-5.17a2.22 2.22 0 0 0 -2.1-1.58z" fill="#db9e71"/><path d="m48.11 51.42a2.32 2.32 0 0 0 1.77-.8.12.12 0 0 0 0-.17.12.12 0 0 0 -.17 0 2.06 2.06 0 0 1 -1.59.63 2.09 2.09 0 0 1 -1.59-.63.13.13 0 0 0 -.09 0 .11.11 0 0 0 -.07 0 .13.13 0 0 0 0 .17 2.36 2.36 0 0 0 1.74.8z" fill="#512c2b"/><path d="m45.94 42.19.43-.83a11.25 11.25 0 0 0 -5.68.18l.54.81a8.94 8.94 0 0 1 4.71-.16z" fill="#512c2b"/><path d="m55.11 42.19.43-.83a11.25 11.25 0 0 0 -5.68.18l.55.81a8.91 8.91 0 0 1 4.7-.16z" fill="#512c2b"/><path d="m43.3 43.37a1.21 1.21 0 0 0 -1 .73.51.51 0 0 1 .17 0 .73.73 0 0 1 0 1.46.63.63 0 0 1 -.32-.1 1.33 1.33 0 0 0 1.2 1.14 1.65 1.65 0 0 0 0-3.2z" fill="#512c2b"/><path d="m52.88 43.37a1.16 1.16 0 0 0 -1 .55.48.48 0 0 1 .23-.05.73.73 0 0 1 0 1.46.62.62 0 0 1 -.53-.32 1.44 1.44 0 0 0 1.25 1.56 1.65 1.65 0 0 0 0-3.2z" fill="#512c2b"/><path d="m53.41 53.27a.1.1 0 0 0 0-.16.11.11 0 0 0 -.16 0 8.5 8.5 0 0 1 -5.15 1.41 8.49 8.49 0 0 1 -5.1-1.43.11.11 0 0 0 -.07 0 .14.14 0 0 0 -.1 0 .11.11 0 0 0 0 .16 9.23 9.23 0 0 0 10.59 0z" fill="#512c2b"/><path d="m38.22 40.8a23.6 23.6 0 0 1 2.28-6.21 1.35 1.35 0 0 0 -1.5-.49 16.91 16.91 0 0 0 -2.1 8.45 15.34 15.34 0 0 0 .71 4c.32-1.91.2-3.85.61-5.75z" fill="#512c2b"/><path d="m58 40.8a23.27 23.27 0 0 0 -2.29-6.21 1.36 1.36 0 0 1 1.51-.49 16.82 16.82 0 0 1 2.11 8.45 15.34 15.34 0 0 1 -.71 4c-.32-1.91-.2-3.85-.62-5.75z" fill="#512c2b"/><path d="m49.51 58.54a.14.14 0 0 0 .12-.15.15.15 0 0 0 -.12-.16h-2.57c-.06 0-.11.07-.11.16s.05.15.11.15z" fill="#512c2b"/><path d="m68 71.06c-.41-2.14-1.28-3.4-3.35-4l-.34-.12-.59-.24c-1.28-.55-8.72-3.29-8.72-3.29a1.9 1.9 0 0 1 -1.24-1.08 6.5 6.5 0 0 1 -.26-2.3 26.43 26.43 0 0 0 2.39-1.86 9.18 9.18 0 0 0 2.7-4.17 1.57 1.57 0 0 1 .56-1c.7-.52 1.38-.64 1.82-1.45a15.35 15.35 0 0 0 1.39-5.23 2.23 2.23 0 0 0 -2.1-1.59h-.36c-1 0-1.24.34-1.19-.26.07-1.08-.07-5.43-.07-5.65 0-4.5-4.66-8.18-10.47-8.38h-.23c-5.82.2-10.47 3.88-10.47 8.38 0 .22-.15 4.57-.07 5.65 0 .6-.23.21-1.2.26h-.36a2.22 2.22 0 0 0 -2.09 1.59 15.71 15.71 0 0 0 1.39 5.23c.43.81 1.11.93 1.81 1.45a1.54 1.54 0 0 1 .57 1 9 9 0 0 0 2.68 4.15 26.63 26.63 0 0 0 2.27 1.72c0 .91-.1 2-.17 2.39a1.71 1.71 0 0 1 -1.3 1.15l-7.11 2.59a8.16 8.16 0 0 0 -2.21.91 6 6 0 0 0 -3.16 4.16c-.59 2.17-.54 8.88-.59 9.42 7.76 5.26 14 6.73 24.7 6.26 4.86-.21 12.1-2.61 15.89-4.53-.2-4.22-.52-11.16-.52-11.16z" fill="none" stroke="#472b29" stroke-linecap="round" stroke-linejoin="round"/><path d="m58.8 47.56 1.48-.65-.25 2.3" fill="none" stroke="#895d3d" stroke-linejoin="round" stroke-width=".6"/><path d="m37.63 47.22-1.48-.65.26 2.3" fill="none" stroke="#895d3d" stroke-linejoin="round" stroke-width=".6"/><path d="m37.61 44.49-.16 8.65" fill="none" stroke="#472b29" stroke-linecap="round" stroke-linejoin="round" stroke-width=".4"/><path d="m58.66 44.49.17 8.65" fill="none" stroke="#472b29" stroke-linecap="round" stroke-linejoin="round" stroke-width=".4"/><path d="m59.47 41.25c.47-4.71-.93-7.39-2-8.72a15.22 15.22 0 0 0 -9.47-3.24 15.48 15.48 0 0 0 -8.21 2.31c-1.94 1.91-4.23 5.41-3.08 9.65a39.65 39.65 0 0 0 1 6.21c.19-2 .21-6.07.62-7.89a22.39 22.39 0 0 1 1.26-3.92c2.74-2.91 14.09-2.78 17 0a22.39 22.39 0 0 1 1.26 3.92c.41 1.82.43 6 .76 7.8a37.6 37.6 0 0 0 .86-6.12z" fill="#512c2b"/><path d="m54.94 66.75a12.69 12.69 0 0 1 -6.94 1.72 13.39 13.39 0 0 1 -7-1.72c-1-.53-1.6-.82-1.6-1.81a1.71 1.71 0 0 1 1.6-1.8s4.43 1.54 6.91 1.54 7-1.54 7-1.54a1.71 1.71 0 0 1 1.6 1.8c.03.99-.46 1.19-1.57 1.81z" fill="#6f913d" stroke="#472b29" stroke-miterlimit="10" stroke-width=".7"/><g fill="#c0d078"><path d="m43.86 75.37h1.44v1.44h-1.44z"/><path d="m45.3 76.8h1.44v1.44h-1.44z"/><path d="m46.74 78.24h1.44v1.44h-1.44z"/><path d="m48.17 79.67h1.44v1.44h-1.44z"/><path d="m49.61 81.11h1.44v1.44h-1.44z"/><path d="m51.04 82.54h1.44v1.44h-1.44z"/><path d="m52.48 83.98h1.44v1.44h-1.44z"/><path d="m52.48 75.37h1.44v1.44h-1.44z" transform="matrix(0 1 -1 0 129.28 22.89)"/><path d="m51.04 76.8h1.44v1.44h-1.44z" transform="matrix(0 1 -1 0 129.28 25.76)"/><path d="m49.61 78.24h1.44v1.44h-1.44z" transform="matrix(0 1 -1 0 129.28 28.63)"/><path d="m48.17 79.67h1.44v1.44h-1.44z" transform="matrix(0 1 -1 0 129.28 31.5)"/><path d="m46.74 81.11h1.44v1.44h-1.44z" transform="matrix(0 1 -1 0 129.28 34.37)"/><path d="m45.3 82.54h1.44v1.44h-1.44z" transform="matrix(0 1 -1 0 129.28 37.24)"/><path d="m43.86 83.98h1.44v1.44h-1.44z" transform="matrix(0 1 -1 0 129.28 40.11)"/></g><path d="m42.58 59.73s3.77 2.9 5.68 2.67 4.91-2.4 4.91-2.4" fill="none" stroke="#472b29" stroke-linecap="round" stroke-linejoin="round" stroke-width=".5"/><path d="m53.81 33.1a15.82 15.82 0 0 1 2.14.72c1-1.06 1.92-3.53 1.67-4.65a9.58 9.58 0 0 0 -5.62-6.65c-.69 3.44-4.25 3.8-6.38 5.71-.39.35-2.36 2.93-2.06 4.61 3.44-.13 6.82-.65 10.25.26z" fill="#512c2b"/></svg>