<svg height="100" viewBox="0 0 100 100" width="100" xmlns="http://www.w3.org/2000/svg"><circle cx="20.16" cy="56.87" fill="#fff" r=".89"/><circle cx="79.21" cy="31.99" fill="#fff" r=".68"/><circle cx="76.58" cy="12.96" fill="#f1bc19" r=".89"/><circle cx="20.66" cy="64.54" fill="#f1bc19" r=".89"/><circle cx="49.48" cy="50.19" fill="#c0e5e4" r="37.45"/><circle cx="82.02" cy="15.12" fill="#f1bc19" r="4.01"/><circle cx="86.03" cy="24.19" fill="#00a5a5" r="1.88"/><circle cx="77.05" cy="76.6" fill="#fbcd59" r="1.88"/><circle cx="13.89" cy="63.65" fill="#fbcd59" r="4.01"/><circle cx="24.12" cy="87.79" fill="#00a5a5" r="1.88"/><circle cx="75.7" cy="30.48" fill="#fff" r="1.8"/><circle cx="17.63" cy="51.54" fill="#fff" r="2.54"/><path d="m65.42 43.46a1.11 1.11 0 0 0 .15-.74.6.6 0 0 0 -.06-.47 1.54 1.54 0 0 0 -.28-.34l.11-.18a1.76 1.76 0 0 0 .17-.77 1.78 1.78 0 0 0 -.13-.78 3.24 3.24 0 0 0 -.28-.47l-.1-.15a.64.64 0 0 0 -.08-.14.57.57 0 0 0 -.33-.35l-.14-.07a1.36 1.36 0 0 0 -.12-.12 1.11 1.11 0 0 0 -.43-.28 2.34 2.34 0 0 0 .76-.87c.59-1.2-.25-2.58-1.59-3.17a2.21 2.21 0 0 0 -.15-.94c0-.11-.05-.22-.07-.31a2.39 2.39 0 0 0 -.34-.7 3.17 3.17 0 0 0 -.51-.61 2.85 2.85 0 0 0 -1-.63l-.41-.16a1.89 1.89 0 0 0 .1-.89l-.15-.54a2.57 2.57 0 0 0 -1.2-1.24 1.89 1.89 0 0 0 -.87-.24 1.79 1.79 0 0 0 -.89.05 2.13 2.13 0 0 0 -1.32-.51 1.66 1.66 0 0 0 -.94.25 1.43 1.43 0 0 0 -.14-.2 1.76 1.76 0 0 0 -.66-.48l-.66-.29a1.71 1.71 0 0 0 -1.24 0l-.17.08a.61.61 0 0 0 -.3-.27 1.87 1.87 0 0 0 -.5-.51 1.91 1.91 0 0 0 -1.75-.19 1.2 1.2 0 0 0 -.61-.09 1.56 1.56 0 0 0 -.37.1 1 1 0 0 0 -.37-.5 1.32 1.32 0 0 0 -.83-.23h-.29a1.17 1.17 0 0 0 -.78.4 1.05 1.05 0 0 0 -.22.45 1.94 1.94 0 0 0 -2 .06 2 2 0 0 0 -.49.51.57.57 0 0 0 -.3.27l-.17-.08a1.79 1.79 0 0 0 -1.25 0l-.65.29a1.76 1.76 0 0 0 -.66.48 2.43 2.43 0 0 0 -.14.2 1.77 1.77 0 0 0 -1-.24 2.07 2.07 0 0 0 -1.31.51 1.71 1.71 0 0 0 -.9-.05 2 2 0 0 0 -.87.24 2.58 2.58 0 0 0 -1.19 1.23c0 .18-.1.37-.16.55a1.79 1.79 0 0 0 .11.89 3.12 3.12 0 0 0 -.41.16 2.71 2.71 0 0 0 -1.04.62 3.93 3.93 0 0 0 -.53.63 2.7 2.7 0 0 0 -.33.71c0 .09 0 .19-.08.3a2.42 2.42 0 0 0 -.15 1c-1.33.58-2.17 2-1.58 3.16a2.25 2.25 0 0 0 .75.87 1.52 1.52 0 0 0 -.43.28l-.11.12-.12.07a.53.53 0 0 0 -.33.34 1.09 1.09 0 0 0 -.08.15l-.11.11a2.13 2.13 0 0 0 -.27.46 1.79 1.79 0 0 0 -.14.78 1.88 1.88 0 0 0 .17.77l.11.18a1.6 1.6 0 0 0 -.28.35.62.62 0 0 0 -.05.46 1.05 1.05 0 0 0 .14.74 1.74 1.74 0 0 0 -.92 1.77l.08.46a1.79 1.79 0 0 0 .67 1.07 2.29 2.29 0 0 0 .69.66 1.54 1.54 0 0 0 -.46.89 1.47 1.47 0 0 0 -.2.54 1.66 1.66 0 0 0 .23 1.13 2 2 0 0 0 .86.74 1.57 1.57 0 0 0 .43.42 2.81 2.81 0 0 0 1 .42 2.25 2.25 0 0 0 1.19-.13c0 .06.09.11.13.18a1.74 1.74 0 0 0 -.5.35 1.61 1.61 0 0 0 .1 2.38 1.14 1.14 0 0 0 .25.18c0 .19.07.38.1.57a2.7 2.7 0 0 0 .69 1.09l.15.15a2.09 2.09 0 0 0 .84.54 2.19 2.19 0 0 0 1 .26 1.91 1.91 0 0 0 1-.17 1.86 1.86 0 0 0 .81-.48l.18-.21a16.5 16.5 0 0 0 7.1 2.87 2.44 2.44 0 0 0 4.2.23 2.14 2.14 0 0 0 .17-.3 16.44 16.44 0 0 0 6.74-2.83 2 2 0 0 0 .18.21 1.6 1.6 0 0 0 .81.48 1.89 1.89 0 0 0 1 .17 2.14 2.14 0 0 0 1-.25 2.29 2.29 0 0 0 .85-.54l.14-.16a2.69 2.69 0 0 0 .7-1.08l.1-.57.25-.18a1.65 1.65 0 0 0 .55-1 1.63 1.63 0 0 0 -.49-1.34 1.92 1.92 0 0 0 -.5-.36l.13-.18a2.25 2.25 0 0 0 1.19.13 2.61 2.61 0 0 0 1-.41 1.72 1.72 0 0 0 .43-.42 2 2 0 0 0 .86-.75 1.66 1.66 0 0 0 .28-1.13 1.54 1.54 0 0 0 -.2-.54 1.49 1.49 0 0 0 -.46-.88 2.42 2.42 0 0 0 .69-.66 1.92 1.92 0 0 0 .68-1.07c0-.16 0-.31.08-.46a1.75 1.75 0 0 0 -.96-1.81z" fill="#512c2b"/><path d="m68 71.4c-.41-2.14-1.28-3.4-3.35-4a3.19 3.19 0 0 1 -.34-.13l-.62-.27c-1.25-.51-8.69-3.25-8.69-3.25a1.9 1.9 0 0 1 -1.24-1.08 8.72 8.72 0 0 1 -.23-2.92 49.38 49.38 0 0 1 -5 1.43c-1.9.18-6-2.28-6-2.28s-.09 3-.22 3.72a1.71 1.71 0 0 1 -1.31 1.13l-7.12 2.58a8.16 8.16 0 0 0 -2.21.91 7.59 7.59 0 0 0 -3.16 4.16s-.47 3.32-.45 3.44c-.05.46-.09 1-.14 1.51 7.76 5.26 14 6.73 24.7 6.26 4.86-.21 12.1-2.61 15.89-4.53-.19-4.22-.51-6.68-.51-6.68z" fill="#895f3f"/><path d="m28.83 69.75c.42-1 3.22-3 4.29-3.25l1.46-.5 5.82-2.3c1.51 3.9 5.07 20 6.84 23.76a33.78 33.78 0 0 1 -9.45-1.13 52.2 52.2 0 0 1 -10.21-5.33c.16-.77-.09-8.08 1.25-11.25z" fill="#407990"/><path d="m55.39 65-.9-.3a1.68 1.68 0 0 1 -.58-.3 15.59 15.59 0 0 1 -5.72 1 3.55 3.55 0 0 1 2.05.43c-3 .34-6.53 1-8.41-1.29a2 2 0 0 1 -.37.15l-.9.3-.27.09c1.5 4.14 3.08 8.18 4.53 12.26h8.07c1.77-3.78 3.11-7.74 4.62-11.64z" fill="#fdfcef"/><path d="m67.41 69c-.42-1-1.19-1.09-2.26-1.4l-1.46-.54-5.82-2.25c-1.51 3.89-7.3 19-9.08 22.83a34.39 34.39 0 0 0 11.21-1.35c6.33-1.79 8.84-3.4 8.83-3.48-.12-.81-.09-10.64-1.42-13.81z" fill="#407990"/><path d="m46.15 69.67-1.83-4.1h7.31l-1.83 4.1a2.08 2.08 0 0 1 -3.65 0z" fill="#b2cbcc"/><path d="m49.7 71.18 1.61 8.49h-7.31l2-8.49a2.08 2.08 0 0 1 3.7 0z" fill="#b2cbcc"/><path d="m42.57 62.75-1.83 1.25 3.92 6 3.64-4.61s-5.46-1.39-5.73-2.64z" fill="#e1e0d8"/><path d="m53.39 62.75 1.83 1.25-3.92 6-3.64-4.61s5.46-1.39 5.73-2.64z" fill="#e1e0d8"/><path d="m54.87 63.7 6.47 2.41s-9.34 16.59-11.23 19.79h-5.79z" fill="#038e8a"/><path d="m41 63.4-6.34 2.6s8.46 18.44 10.34 21.64h5.78z" fill="#00a5a5"/><path d="m34.75 80.84v3.95" fill="none" stroke="#2b6172" stroke-linecap="round" stroke-linejoin="round" stroke-width=".7"/><path d="m61.08 80.84v4.64" fill="none" stroke="#2b6172" stroke-linecap="round" stroke-linejoin="round" stroke-width=".7"/><path d="m60.26 44.88h-.36c-1 0-1.24.34-1.19-.26.07-1.06-.07-5.36-.07-5.58 0-4.46-4.66-8.09-10.47-8.29h-.23c-5.82.2-10.47 3.83-10.47 8.29 0 .22-.15 4.52-.07 5.58 0 .6-.23.21-1.2.26h-.36a2.22 2.22 0 0 0 -2.09 1.57c.13.08.61 3.73 1.39 5.17.43.81 1.11.92 1.81 1.44a1.5 1.5 0 0 1 .57 1 8.85 8.85 0 0 0 2.68 4.09c.58.57 4.49 4.74 7.85 4.53s7.27-4 7.86-4.53a9 9 0 0 0 2.68-4.09 1.52 1.52 0 0 1 .56-1c.7-.52 1.38-.63 1.82-1.44.78-1.44 1.26-5.09 1.39-5.17a2.22 2.22 0 0 0 -2.1-1.57z" fill="#a3754f" stroke="#472b29" stroke-miterlimit="10" stroke-width=".7"/><g fill="#512c2b"><path d="m48.11 51.93a2.32 2.32 0 0 0 1.77-.79.12.12 0 0 0 0-.17.12.12 0 0 0 -.17 0 2.05 2.05 0 0 1 -1.59.62 2.08 2.08 0 0 1 -1.6-.59.1.1 0 0 0 -.09 0 .11.11 0 0 0 -.07 0 .12.12 0 0 0 0 .17 2.35 2.35 0 0 0 1.75.76z"/><path d="m45.94 42.71.43-.83a11.25 11.25 0 0 0 -5.68.18l.54.81a8.94 8.94 0 0 1 4.71-.16z"/><path d="m55.11 42.71.43-.83a11.25 11.25 0 0 0 -5.68.18l.55.81a8.91 8.91 0 0 1 4.7-.16z"/><path d="m43.3 43.88a1.21 1.21 0 0 0 -1 .73 1 1 0 0 1 .17 0 .73.73 0 0 1 0 1.46.55.55 0 0 1 -.32-.1 1.33 1.33 0 0 0 1.2 1.15 1.66 1.66 0 0 0 0-3.21z"/><path d="m52.88 43.88a1.18 1.18 0 0 0 -1 .55.64.64 0 0 1 .23 0 .73.73 0 0 1 0 1.46.6.6 0 0 1 -.53-.32 1.44 1.44 0 0 0 1.25 1.57 1.66 1.66 0 0 0 0-3.21z"/><path d="m53.41 53.79a.12.12 0 0 0 0-.17.11.11 0 0 0 -.16 0 8.5 8.5 0 0 1 -5.14 1.38 8.49 8.49 0 0 1 -5.11-1.4h-.07a.13.13 0 0 0 -.1 0 .12.12 0 0 0 0 .17 9.27 9.27 0 0 0 10.59 0z"/><path d="m38.22 41.31a23.86 23.86 0 0 1 2.28-6.21 1.36 1.36 0 0 0 -1.5-.48 16.89 16.89 0 0 0 -2.1 8.45 15.5 15.5 0 0 0 .71 4c.32-1.92.2-3.86.61-5.76z"/><path d="m58 41.31a23.53 23.53 0 0 0 -2.29-6.21 1.37 1.37 0 0 1 1.51-.48 16.8 16.8 0 0 1 2.11 8.45 15.5 15.5 0 0 1 -.71 4c-.32-1.92-.2-3.86-.62-5.76z"/><path d="m49.51 59.06a.15.15 0 0 0 .12-.16.14.14 0 0 0 -.12-.15h-2.57c-.06 0-.11.07-.11.15s.05.16.11.16z"/></g><path d="m68 71.58c-.41-2.15-1.28-3.4-3.35-4a2.87 2.87 0 0 1 -.34-.12l-.59-.24c-1.28-.55-8.72-3.29-8.72-3.29a1.89 1.89 0 0 1 -1.24-1.09 6.47 6.47 0 0 1 -.26-2.29 27.8 27.8 0 0 0 2.39-1.87 9.15 9.15 0 0 0 2.68-4.14 1.57 1.57 0 0 1 .56-1c.7-.53 1.38-.64 1.82-1.45a15.47 15.47 0 0 0 1.39-5.23 2.24 2.24 0 0 0 -2.1-1.6h-.34c-1 0-1.24.35-1.19-.26.07-1.07-.07-5.42-.07-5.64 0-4.51-4.66-8.18-10.47-8.38h-.23c-5.82.2-10.47 3.87-10.47 8.38 0 .22-.15 4.57-.07 5.64 0 .61-.23.22-1.2.26h-.36a2.23 2.23 0 0 0 -2.09 1.6 15.83 15.83 0 0 0 1.39 5.14c.43.81 1.11.92 1.81 1.45a1.54 1.54 0 0 1 .57 1 9 9 0 0 0 2.68 4.14 25.92 25.92 0 0 0 2.27 1.73c0 .91-.1 2-.17 2.38a1.72 1.72 0 0 1 -1.3 1.23l-7.12 2.58a8.16 8.16 0 0 0 -2.21.91 6 6 0 0 0 -3.16 4.16c-.59 2.17-.54 8.88-.59 9.42 7.76 5.25 14 6.73 24.7 6.26 4.86-.22 12.1-2.62 15.89-4.53-.19-4.22-.51-11.15-.51-11.15z" fill="none" stroke="#472b29" stroke-linecap="round" stroke-linejoin="round"/><path d="m58.8 48.07 1.48-.64-.25 2.29" fill="none" stroke="#895d3d" stroke-linejoin="round" stroke-width=".6"/><path d="m37.63 47.73-1.48-.64.26 2.29" fill="none" stroke="#895d3d" stroke-linejoin="round" stroke-width=".6"/><path d="m37.61 45.01-.16 8.65" fill="none" stroke="#472b29" stroke-linecap="round" stroke-linejoin="round" stroke-width=".4"/><path d="m58.66 45.01.17 8.65" fill="none" stroke="#472b29" stroke-linecap="round" stroke-linejoin="round" stroke-width=".4"/><path d="m59.47 42.46c.47-4.94-.93-7.75-2-9.14a14.71 14.71 0 0 0 -9.47-3.4 14.94 14.94 0 0 0 -8.21 2.41c-1.94 2-4.23 5.69-3.08 10.13a43.92 43.92 0 0 0 1 6.52c.19-2 .21-6.37.62-8.29a24.3 24.3 0 0 1 1.26-4.1c2.74-3.06 14.09-2.92 17 0a24.3 24.3 0 0 1 1.26 4.1c.41 1.92.43 6.29.76 8.19a41.23 41.23 0 0 0 .86-6.42z" fill="#512c2b"/><path d="m46.86 44.5c-2-2.4-9.37-.7-9.38-.7.14.54.26 1.07.36 1.6.55.06.59 1.29.64 1.74.27 2.19 1.73 3.79 4.8 3.72a3.86 3.86 0 0 0 3.93-3.8 5.62 5.62 0 0 0 -.35-2.56zm-.36 2.68a3.2 3.2 0 0 1 -3.3 3.19 5.42 5.42 0 0 1 -.57 0c-3.05 0-3.58-2.68-3.64-4.37a1.82 1.82 0 0 1 1.63-1.9c.56-.05 1.2-.05 1.93-.05 2.28 0 3.28.54 3.54 1a3.84 3.84 0 0 1 .41 2.13z" fill="#f1bc19"/><path d="m49 47.06a3.86 3.86 0 0 0 4 3.8c3.07.07 4.53-1.54 4.8-3.72 0-.45.08-1.68.63-1.74.11-.53.23-1.06.36-1.6 0 0-7.4-1.7-9.37.7a5.31 5.31 0 0 0 -.42 2.56zm1.12-2c.26-.44 1.26-1 3.54-1 .73 0 1.36 0 1.93.05a1.81 1.81 0 0 1 1.64 1.89c-.06 1.69-.58 4.37-3.64 4.37a5.42 5.42 0 0 1 -.57 0 3.22 3.22 0 0 1 -3.3-3.19 3.91 3.91 0 0 1 .42-2.18z" fill="#f1bc19"/><path d="m49.44 46.38a2.33 2.33 0 0 0 -1.38-.4 2 2 0 0 0 -1.27.4c-.14-.38-.27-.75-.41-1.12h3.46c-.13.37-.26.74-.4 1.12z" fill="#f1bc19"/></svg>