<svg height="100" viewBox="0 0 100 100" width="100" xmlns="http://www.w3.org/2000/svg" xmlns:xlink="http://www.w3.org/1999/xlink"><clipPath id="a"><path d="m68 70.93c-.41-2.15-1.28-3.41-3.35-4l-.34-.12-.59-.24c-.67-.29-3.76-1.3-5.9-2.1-2.83 2.25-6 6.1-9.56 6.1s-9.57-6.36-9.57-6.36l-.31.08-4.43 1.61a7.86 7.86 0 0 0 -2.21.91 7.52 7.52 0 0 0 -3.16 4.16s-.47 3.31-.45 3.43c-.05.47-.09 5.45-.14 6 7.76 5.26 14 6.73 24.7 6.26 4.86-.21 12.1-2.61 15.89-4.52-.26-4.29-.58-11.21-.58-11.21z"/></clipPath><circle cx="20.16" cy="56.35" fill="#fff" r=".89"/><circle cx="79.21" cy="31.48" fill="#fff" r=".68"/><circle cx="76.58" cy="12.44" fill="#f1bc19" r=".89"/><circle cx="20.66" cy="64.02" fill="#f1bc19" r=".89"/><circle cx="49.48" cy="49.67" fill="#fce0a2" r="37.45"/><circle cx="82.02" cy="14.6" fill="#f1bc19" r="4.01"/><circle cx="86.03" cy="23.67" fill="#ee3e54" r="1.88"/><circle cx="77.05" cy="76.08" fill="#fbcd59" r="1.88"/><circle cx="13.89" cy="63.14" fill="#fbcd59" r="4.01"/><circle cx="24.12" cy="87.27" fill="#ee3e54" r="1.88"/><circle cx="75.7" cy="29.96" fill="#fff" r="1.8"/><circle cx="17.63" cy="51.03" fill="#fff" r="2.54"/><path d="m68 70.89c-.41-2.15-1.28-3.41-3.35-4l-.34-.12-.59-.24c-1.28-.53-8.72-3.3-8.72-3.3a1.87 1.87 0 0 1 -1.24-1.08 8.66 8.66 0 0 1 -.23-2.91 47.65 47.65 0 0 1 -5 1.42c-1.9.18-6-2.27-6-2.27s-.09 3-.22 3.71a1.69 1.69 0 0 1 -1.31 1.13l-7.12 2.59a7.86 7.86 0 0 0 -2.21.91 7.52 7.52 0 0 0 -3.16 4.16s-.47 3.31-.45 3.43c-.05.47-.09 1-.14 1.51 7.76 5.26 14 6.73 24.7 6.26 4.86-.21 12.1-2.61 15.89-4.52-.19-4.23-.51-6.68-.51-6.68z" fill="#e5ac80"/><path d="m64.62 66.9-.34-.12-.59-.24c-.77-.33-3.9-1.5-6.18-2.35h-.11c-2.51 1.29-6.09 3.22-9.38 3.22s-6.59-1.75-9.39-3.22l-.31.08-4.43 1.61a7.86 7.86 0 0 0 -2.21.91 7.52 7.52 0 0 0 -3.16 4.16s-.47 3.31-.45 3.43c-.05.47-.09 5.45-.14 6 7.76 5.26 14 6.73 24.7 6.26 4.86-.21 12.1-2.61 15.89-4.52-.2-4.23-.55-11.15-.55-11.15-.41-2.19-1.28-3.45-3.35-4.07z" fill="#fdfcef"/><g clip-path="url(#a)"><path d="m47.93 88.05a40.49 40.49 0 0 0 22.5-6.05c-.36-4.59-1-10.57-1.68-11.63a20.2 20.2 0 0 0 -5.1-4.72 26.69 26.69 0 0 0 -6.77-3.27l-8.79 17.5-7.83-18a26.63 26.63 0 0 0 -7.13 3 20.28 20.28 0 0 0 -5.13 4.37c-.77 1-1.68 6.9-2.28 11.46a40.55 40.55 0 0 0 22.21 7.34z" fill="#eae6d0"/><g fill="#f1bc19"><path d="m56.82 62.45-.35.7 2.79.08c-.64-.27-1.31-.53-2-.76z"/><path d="m37.82 62.66 2.81.08-.32-.74h-.45q-1.06.3-2.04.66z"/><path d="m55.89 64.32-.35.7 7.51.2c-.39-.25-.81-.5-1.25-.74z"/><path d="m33.92 64.45 7.54.2-.31-.72-5.94-.16c-.45.23-.88.45-1.29.68z"/><path d="m64.82 66.45-9.82-.26-.35.7 11.14.3c-.34-.25-.65-.49-.97-.74z"/><path d="m31.14 66.27 11.15.3-.29-.72-9.89-.27c-.36.24-.68.42-.97.69z"/><path d="m53.66 68.76 14.12.37-.7-.72-13.08-.35z"/><path d="m43.13 68.48-.31-.72-13.09-.34c-.27.24-.51.47-.73.69z"/><path d="m68.76 70.34-15.68-.41-.35.7 16.32.43a3.1 3.1 0 0 0 -.29-.72z"/><path d="m27.63 70 16.37.4-.31-.72-15.69-.42a3.38 3.38 0 0 0 -.37.74z"/><path d="m69.33 72.25-17.19-.45-.35.7 17.66.5c-.04-.29-.08-.52-.12-.75z"/><path d="m27.12 71.84 17.68.47-.32-.72-17.2-.45c-.05.22-.11.45-.16.7z"/><path d="m69.64 74.15-18.44-.49-.35.71 18.88.5q-.04-.37-.09-.72z"/><path d="m26.74 73.73 18.89.5-.31-.72-18.45-.51c-.04.25-.08.48-.13.73z"/><path d="m69.87 76.05-19.6-.52-.36.7 20 .53c.02-.24-.01-.47-.04-.71z"/><path d="m26.42 75.61 20 .53-.31-.72-19.58-.52c-.04.24-.07.47-.11.71z"/><path d="m70.08 78-20.75-.6-.35.7 21.17.56c-.03-.24-.05-.47-.07-.66z"/><path d="m26.13 77.5 21.17.56-.3-.72-20.75-.55c-.05.21-.09.47-.12.71z"/><path d="m25.86 79.38 44.46 1.18c0-.24 0-.47-.07-.71l-21.86-.58-.3.61-.27-.63-21.82-.58c-.08.24-.11.48-.14.71z"/><path d="m25.68 80.71.86.58 43.11 1.15.78-.48c0-.07 0-.14 0-.21l-44.73-1.19a.77.77 0 0 0 -.02.15z"/><path d="m29.86 83.27 36.37 1c.47-.22.93-.44 1.39-.68l-39.11-1c.49.2.9.41 1.35.68z"/><path d="m34.22 85.28 27.55.72c.62-.2 1.24-.42 1.85-.66l-31.21-.82c.59.27 1.2.48 1.81.76z"/><path d="m54.36 87.71c1.18-.15 2.34-.36 3.48-.62l-19.76-.52c1.14.31 2.28.58 3.45.8z"/></g></g><path d="m60.26 44.36h-.36c-1-.05-1.24.34-1.19-.26.07-1.06-.07-5.36-.07-5.58 0-4.45-4.66-8.09-10.47-8.29h-.23c-5.82.2-10.47 3.84-10.47 8.29 0 .22-.15 4.52-.07 5.58 0 .6-.23.21-1.2.26h-.36a2.22 2.22 0 0 0 -2.09 1.58c.13.08.61 3.73 1.39 5.17.43.8 1.11.91 1.81 1.43a1.52 1.52 0 0 1 .57 1 8.93 8.93 0 0 0 2.68 4.1c.58.57 4.49 4.74 7.85 4.52s7.27-4 7.86-4.52a9.09 9.09 0 0 0 2.68-4.1 1.54 1.54 0 0 1 .56-1c.7-.52 1.38-.63 1.82-1.43.78-1.44 1.26-5.09 1.39-5.17a2.22 2.22 0 0 0 -2.1-1.58z" fill="#edbc94"/><g fill="#512c2b"><path d="m48.11 51.42a2.32 2.32 0 0 0 1.77-.8.12.12 0 0 0 0-.17.12.12 0 0 0 -.17 0 2.06 2.06 0 0 1 -1.59.63 2.09 2.09 0 0 1 -1.59-.63.13.13 0 0 0 -.09 0 .11.11 0 0 0 -.07 0 .13.13 0 0 0 0 .17 2.36 2.36 0 0 0 1.74.8z"/><path d="m45.94 42.19.43-.83a11.25 11.25 0 0 0 -5.68.18l.54.81a8.94 8.94 0 0 1 4.71-.16z"/><path d="m55.11 42.19.43-.83a11.25 11.25 0 0 0 -5.68.18l.55.81a8.91 8.91 0 0 1 4.7-.16z"/><path d="m43.3 43.37a1.21 1.21 0 0 0 -1 .73.51.51 0 0 1 .17 0 .73.73 0 0 1 0 1.46.63.63 0 0 1 -.32-.1 1.33 1.33 0 0 0 1.2 1.14 1.65 1.65 0 0 0 0-3.2z"/><path d="m52.88 43.37a1.16 1.16 0 0 0 -1 .55.48.48 0 0 1 .23-.05.73.73 0 0 1 0 1.46.62.62 0 0 1 -.53-.32 1.44 1.44 0 0 0 1.25 1.56 1.65 1.65 0 0 0 0-3.2z"/><path d="m53.41 53.27a.1.1 0 0 0 0-.16.11.11 0 0 0 -.16 0 8.5 8.5 0 0 1 -5.15 1.41 8.49 8.49 0 0 1 -5.1-1.43.11.11 0 0 0 -.07 0 .14.14 0 0 0 -.1 0 .11.11 0 0 0 0 .16 9.23 9.23 0 0 0 10.59 0z"/><path d="m49.51 58.54a.14.14 0 0 0 .12-.15.15.15 0 0 0 -.12-.16h-2.57c-.06 0-.11.07-.11.16s.05.15.11.15z"/></g><path d="m68 71.06c-.41-2.14-1.28-3.4-3.35-4l-.34-.12-.59-.24c-1.28-.55-8.72-3.29-8.72-3.29a1.9 1.9 0 0 1 -1.24-1.08 6.5 6.5 0 0 1 -.26-2.3 26.43 26.43 0 0 0 2.39-1.86 9.18 9.18 0 0 0 2.7-4.17 1.57 1.57 0 0 1 .56-1c.7-.52 1.38-.64 1.82-1.45a15.35 15.35 0 0 0 1.39-5.23 2.23 2.23 0 0 0 -2.1-1.59h-.36c-1 0-1.24.34-1.19-.26.07-1.08-.07-5.43-.07-5.65 0-4.5-4.66-8.18-10.47-8.38h-.23c-5.82.2-10.47 3.88-10.47 8.38 0 .22-.15 4.57-.07 5.65 0 .6-.23.21-1.2.26h-.36a2.22 2.22 0 0 0 -2.09 1.59 15.71 15.71 0 0 0 1.39 5.23c.43.81 1.11.93 1.81 1.45a1.54 1.54 0 0 1 .57 1 9 9 0 0 0 2.68 4.15 26.63 26.63 0 0 0 2.27 1.72c0 .91-.1 2-.17 2.39a1.71 1.71 0 0 1 -1.3 1.15l-7.11 2.59a8.16 8.16 0 0 0 -2.21.91 6 6 0 0 0 -3.16 4.16c-.59 2.17-.54 8.88-.59 9.42 7.76 5.26 14 6.73 24.7 6.26 4.86-.21 12.1-2.61 15.89-4.53-.2-4.22-.52-11.16-.52-11.16z" fill="none" stroke="#472b29" stroke-linecap="round" stroke-linejoin="round"/><path d="m58.8 47.56 1.48-.65-.25 2.3" fill="none" stroke="#895d3d" stroke-linejoin="round" stroke-width=".6"/><path d="m37.63 47.22-1.48-.65.26 2.3" fill="none" stroke="#895d3d" stroke-linejoin="round" stroke-width=".6"/><path d="m37.61 44.49-.16 8.65" fill="none" stroke="#472b29" stroke-linecap="round" stroke-linejoin="round" stroke-width=".4"/><path d="m58.66 44.49.17 8.65" fill="none" stroke="#472b29" stroke-linecap="round" stroke-linejoin="round" stroke-width=".4"/><path d="m42.46 59.53s3.93 2.89 5.93 2.66 5.13-2.44 5.13-2.44" fill="none" stroke="#472b29" stroke-linecap="round" stroke-linejoin="round" stroke-width=".5"/><path d="m35.75 34.12a1.91 1.91 0 0 1 1.59-1s-1.06-1.34-.7-2 4.13-5 13.32-4 10.33 6.93 10.33 6.93l-1.87 10.95s-3.67-10.82-18.48-8.78c0 0 .64 1.38-2.49 6.84l-1.7-8.91z" fill="#512c2b"/></svg>