<svg height="100" viewBox="0 0 100 100" width="100" xmlns="http://www.w3.org/2000/svg"><circle cx="20.16" cy="56.35" fill="#fff" r=".89"/><circle cx="79.21" cy="31.48" fill="#fff" r=".68"/><circle cx="76.58" cy="12.44" fill="#f1bc19" r=".89"/><circle cx="20.66" cy="64.02" fill="#f1bc19" r=".89"/><circle cx="49.48" cy="49.67" fill="#e4e4f9" r="37.45"/><circle cx="82.02" cy="14.6" fill="#f1bc19" r="4.01"/><circle cx="86.03" cy="23.67" fill="#e47d25" r="1.88"/><circle cx="77.05" cy="76.08" fill="#fbcd59" r="1.88"/><circle cx="13.89" cy="63.14" fill="#fbcd59" r="4.01"/><circle cx="24.12" cy="87.27" fill="#e47d25" r="1.88"/><circle cx="75.7" cy="29.96" fill="#fff" r="1.8"/><circle cx="17.63" cy="51.03" fill="#fff" r="2.54"/><path d="m68 70.89c-.41-2.15-1.28-3.41-3.35-4l-.34-.12-.59-.24c-1.28-.53-8.72-3.3-8.72-3.3a1.87 1.87 0 0 1 -1.24-1.08 8.66 8.66 0 0 1 -.23-2.91 47.65 47.65 0 0 1 -5 1.42c-1.9.18-6-2.27-6-2.27s-.09 3-.22 3.71a1.69 1.69 0 0 1 -1.31 1.13l-7.12 2.59a7.86 7.86 0 0 0 -2.21.91 7.52 7.52 0 0 0 -3.16 4.16s-.47 3.31-.45 3.43c-.05.47-.09 1-.14 1.51 7.76 5.26 14 6.73 24.7 6.26 4.86-.21 12.1-2.61 15.89-4.52-.19-4.23-.51-6.68-.51-6.68z" fill="#ce9065"/><path d="m64.62 66.9-.34-.12-.59-.24c-.77-.33-3.9-1.5-6.18-2.35h-.11c-2.51 1.29-6.09 3.22-9.38 3.22s-6.59-1.75-9.39-3.22l-.31.08-4.43 1.61a7.86 7.86 0 0 0 -2.21.91 7.52 7.52 0 0 0 -3.16 4.16s-.47 3.31-.45 3.43c-.05.47-.09 5.45-.14 6 7.76 5.26 14 6.73 24.7 6.26 4.86-.21 12.1-2.61 15.89-4.52-.2-4.23-.55-11.15-.55-11.15-.41-2.19-1.28-3.45-3.35-4.07z" fill="#cacaea"/><path d="m40.52 63.84-3 1.1 6 7.61 5.24-5.47s-7.85-1.71-8.24-3.24z" fill="#8889b9"/><path d="m56.11 63.84 2.63 1.53-5.65 7.18-5.24-5.47s7.87-1.71 8.26-3.24z" fill="#8889b9"/><path d="m34.75 80.32v3.95" fill="none" stroke="#a1a1ca" stroke-linecap="round" stroke-linejoin="round" stroke-width=".6"/><path d="m61.08 80.32v4.65" fill="none" stroke="#a1a1ca" stroke-linecap="round" stroke-linejoin="round" stroke-width=".6"/><path d="m60.26 44.36h-.36c-1-.05-1.24.34-1.19-.26.07-1.06-.07-5.36-.07-5.58 0-4.45-4.66-8.09-10.47-8.29h-.23c-5.82.2-10.47 3.84-10.47 8.29 0 .22-.15 4.52-.07 5.58 0 .6-.23.21-1.2.26h-.36a2.22 2.22 0 0 0 -2.09 1.58c.13.08.61 3.73 1.39 5.17.43.8 1.11.91 1.81 1.43a1.52 1.52 0 0 1 .57 1 8.93 8.93 0 0 0 2.68 4.1c.58.57 4.49 4.74 7.85 4.52s7.27-4 7.86-4.52a9.09 9.09 0 0 0 2.68-4.1 1.54 1.54 0 0 1 .56-1c.7-.52 1.38-.63 1.82-1.43.78-1.44 1.26-5.09 1.39-5.17a2.22 2.22 0 0 0 -2.1-1.58z" fill="#db9e71"/><g fill="#512c2b"><path d="m48.11 51.42a2.32 2.32 0 0 0 1.77-.8.12.12 0 0 0 0-.17.12.12 0 0 0 -.17 0 2.06 2.06 0 0 1 -1.59.63 2.09 2.09 0 0 1 -1.59-.63.13.13 0 0 0 -.09 0 .11.11 0 0 0 -.07 0 .13.13 0 0 0 0 .17 2.36 2.36 0 0 0 1.74.8z"/><path d="m45.94 42.19.43-.83a11.25 11.25 0 0 0 -5.68.18l.54.81a8.94 8.94 0 0 1 4.71-.16z"/><path d="m55.11 42.19.43-.83a11.25 11.25 0 0 0 -5.68.18l.55.81a8.91 8.91 0 0 1 4.7-.16z"/><path d="m43.3 43.37a1.21 1.21 0 0 0 -1 .73.51.51 0 0 1 .17 0 .73.73 0 0 1 0 1.46.63.63 0 0 1 -.32-.1 1.33 1.33 0 0 0 1.2 1.14 1.65 1.65 0 0 0 0-3.2z"/><path d="m52.88 43.37a1.16 1.16 0 0 0 -1 .55.48.48 0 0 1 .23-.05.73.73 0 0 1 0 1.46.62.62 0 0 1 -.53-.32 1.44 1.44 0 0 0 1.25 1.56 1.65 1.65 0 0 0 0-3.2z"/><path d="m49.51 58.54a.14.14 0 0 0 .12-.15.15.15 0 0 0 -.12-.16h-2.57c-.06 0-.11.07-.11.16s.05.15.11.15z"/></g><path d="m68 71.06c-.41-2.14-1.28-3.4-3.35-4l-.34-.12-.59-.24c-1.28-.55-8.72-3.29-8.72-3.29a1.9 1.9 0 0 1 -1.24-1.08 6.5 6.5 0 0 1 -.26-2.3 26.43 26.43 0 0 0 2.39-1.86 9.18 9.18 0 0 0 2.7-4.17 1.57 1.57 0 0 1 .56-1c.7-.52 1.38-.64 1.82-1.45a15.35 15.35 0 0 0 1.39-5.23 2.23 2.23 0 0 0 -2.1-1.59h-.36c-1 0-1.24.34-1.19-.26.07-1.08-.07-5.43-.07-5.65 0-4.5-4.66-8.18-10.47-8.38h-.23c-5.82.2-10.47 3.88-10.47 8.38 0 .22-.15 4.57-.07 5.65 0 .6-.23.21-1.2.26h-.36a2.22 2.22 0 0 0 -2.09 1.59 15.71 15.71 0 0 0 1.39 5.23c.43.81 1.11.93 1.81 1.45a1.54 1.54 0 0 1 .57 1 9 9 0 0 0 2.68 4.15 26.63 26.63 0 0 0 2.27 1.72c0 .91-.1 2-.17 2.39a1.71 1.71 0 0 1 -1.3 1.15l-7.11 2.59a8.16 8.16 0 0 0 -2.21.91 6 6 0 0 0 -3.16 4.16c-.59 2.17-.54 8.88-.59 9.42 7.76 5.26 14 6.73 24.7 6.26 4.86-.21 12.1-2.61 15.89-4.53-.2-4.22-.52-11.16-.52-11.16z" fill="none" stroke="#472b29" stroke-linecap="round" stroke-linejoin="round"/><path d="m58.8 47.56 1.48-.65-.25 2.3" fill="none" stroke="#895d3d" stroke-linejoin="round" stroke-width=".6"/><path d="m37.63 47.22-1.48-.65.26 2.3" fill="none" stroke="#895d3d" stroke-linejoin="round" stroke-width=".6"/><path d="m37.61 44.49-.16 8.65" fill="none" stroke="#472b29" stroke-linecap="round" stroke-linejoin="round" stroke-width=".4"/><path d="m58.66 44.49.17 8.65" fill="none" stroke="#472b29" stroke-linecap="round" stroke-linejoin="round" stroke-width=".4"/><path d="m38.67 39.63a16.73 16.73 0 0 1 2.19-4.91 1.46 1.46 0 0 0 -1.45-.39 11.59 11.59 0 0 0 -2 6.69 10.53 10.53 0 0 0 .67 3.15c.31-1.5.2-3.03.59-4.54z" fill="#512c2b"/><path d="m57.52 39.63a16.47 16.47 0 0 0 -2.19-4.91 1.47 1.47 0 0 1 1.45-.39 11.61 11.61 0 0 1 2 6.69 10.54 10.54 0 0 1 -.68 3.15c-.29-1.5-.18-3.03-.58-4.54z" fill="#512c2b"/><path d="m49.3 35.93a10.14 10.14 0 0 0 6 .11 6.75 6.75 0 0 0 4-4.6c-1.75.85-3.66-.51-5.4-1.37a11.32 11.32 0 0 0 -13.1 2.56c-1.76 1.88-2.61 3.55.3 3.07a18.2 18.2 0 0 1 8.2.23z" fill="#512c2b"/><path d="m58.73 47.49s-.39 5.16-1.89 6.09a13.76 13.76 0 0 1 -3.5 1.42h-10.34a13.9 13.9 0 0 1 -3.51-1.41c-1.49-.93-1.89-6.09-1.89-6.09-.47 1.76-.4 7-.21 8.68s6.75 7.82 10.76 7.82 11.06-6.3 11.25-8a37.74 37.74 0 0 0 -.67-8.5z" fill="#512c2b"/><path d="m56 54c-2 1-2.14-.93-4.21-1.4a3.47 3.47 0 0 0 -3.5 1.28 4.17 4.17 0 0 0 -3.52-1.21c-2.07.51-2.23 2.41-4.19 1.48-.19 0 5.25 5 7.72 1.44 2.57 3.5 7.92-1.59 7.7-1.59z" fill="#603535"/></svg>