<svg height="100" viewBox="0 0 100 100" width="100" xmlns="http://www.w3.org/2000/svg"><circle cx="20.92" cy="56.96" fill="#fff" r=".89"/><circle cx="79.97" cy="32.09" fill="#fff" r=".68"/><circle cx="77.34" cy="13.06" fill="#f1bc19" r=".89"/><circle cx="21.41" cy="64.63" fill="#f1bc19" r=".89"/><circle cx="50.23" cy="50.29" fill="#e6edb7" r="37.45"/><circle cx="82.78" cy="15.21" fill="#f1bc19" r="4.01"/><circle cx="86.79" cy="24.28" fill="#88ae45" r="1.88"/><circle cx="77.8" cy="76.7" fill="#fbcd59" r="1.88"/><circle cx="14.64" cy="63.75" fill="#fbcd59" r="4.01"/><circle cx="24.88" cy="87.88" fill="#88ae45" r="1.88"/><circle cx="76.45" cy="30.58" fill="#fff" r="1.8"/><circle cx="18.38" cy="51.64" fill="#fff" r="2.54"/><path d="m68.86 71.79c-.41-2.14-1.28-3.4-3.34-4l-.35-.12-.59-.24c-1.24-.53-8.67-3.27-8.67-3.27a1.87 1.87 0 0 1 -1.24-1.08 8.66 8.66 0 0 1 -.23-2.91 47.65 47.65 0 0 1 -5 1.42c-1.9.18-6-2.27-6-2.27s-.09 3-.22 3.71a1.67 1.67 0 0 1 -1.29 1.13l-7.12 2.58a8.3 8.3 0 0 0 -2.21.91 7.59 7.59 0 0 0 -3.16 4.16s-.47 3.32-.45 3.44c-.05.46-.09 1-.14 1.51 7.77 5.26 14 6.73 24.7 6.26 4.86-.21 12.1-2.61 15.89-4.52-.23-4.25-.58-6.71-.58-6.71z" fill="#ce9065"/><path d="m68.86 71.84c-.41-2.15-1.28-3.41-3.34-4l-.35-.12-.59-.24c-.67-.29-7.32-2.61-9.46-3.4-2.92 2-4.23 2.84-6.18 2.84s-4-.9-6.15-3l-3.24 1.2-.32.08-4.43 1.6a8.32 8.32 0 0 0 -2.21.92 7.52 7.52 0 0 0 -3.16 4.16s-.47 3.31-.45 3.43c-.05.46-.09 5.44-.14 6 7.77 5.26 14 6.73 24.7 6.26 4.86-.21 12.1-2.61 15.89-4.52-.22-4.29-.57-11.21-.57-11.21z" fill="#88ae45"/><path d="m55.84 74.46c-.73-.92-1.25-2-2-2.9a.52.52 0 0 1 0-.71 4.1 4.1 0 0 1 1.58-.95c.63-.26 1.24-.54 1.87-.78a13.38 13.38 0 0 0 -2.18-4.57.39.39 0 0 1 0-.5c-2.91 2-4.22 2.84-6.17 2.84a7.75 7.75 0 0 1 -5.8-2.77c-.24 1.52-1.62 3.57-.6 5.06.41.59 1.24.8 1.5 1.53.39 1-.18 2.51-.21 3.56a13 13 0 0 0 1.32 5.65.49.49 0 0 1 0 .23 39.1 39.1 0 0 1 1.85 3.85 30.89 30.89 0 0 1 1 3.49h1.47c.48-2.29 1.83-4.44 2.74-6.58a23.6 23.6 0 0 1 3.63-6.45z" fill="#fdfcef"/><path d="m50.77 73.39-.53 12.11-.82 2-.59.1h-.63l-1.14-2.39.13-11.79a1.91 1.91 0 0 1 3.58-.03z" fill="#d5e27b"/><path d="m47.33 71.54-1.66-4.11h6.62l-1.65 4.11a1.8 1.8 0 0 1 -3.31 0z" fill="#d5e27b"/><path d="m43 63.61-1.4 1.12 3.67 7.94 4-5.69s-6.01-1.78-6.27-3.37z" fill="#e1e0d8"/><path d="m54.73 63.61 1.62 1-3.89 8.09-3.96-5.7s5.94-1.8 6.23-3.39z" fill="#e1e0d8"/><g style="opacity:.59;fill:none;stroke-linejoin:round;stroke:#6f913d;stroke-linecap:round;stroke-width:.6"><path d="m35.64 82.29v3.05"/><path d="m61.97 82.29v3.59"/></g><path d="m54.47 63.12s2.37 1 4.09 6.53l-4.09 1.51 2.63 3-7.78 13.57a222.86 222.86 0 0 0 5.15-24.61z" fill="#6f913d"/><path d="m43.19 63.12s-2.37 1-4.09 6.53l4.09 1.51-2.64 3 7.65 13.57a238.92 238.92 0 0 1 -5.01-24.61z" fill="#6f913d"/><path d="m61.15 45.27h-.36c-1 0-1.24.34-1.19-.26.08-1.06-.07-5.36-.07-5.58 0-4.45-4.65-8.09-10.47-8.29h-.23c-5.83.19-10.47 3.86-10.47 8.28 0 .22-.15 4.52-.07 5.58.05.6-.23.21-1.19.26h-.36a2.22 2.22 0 0 0 -2.1 1.58c.13.08.61 3.73 1.39 5.17.44.8 1.12.91 1.82 1.43a1.54 1.54 0 0 1 .56 1 8.93 8.93 0 0 0 2.68 4.1c.59.57 4.5 4.73 7.85 4.52s7.27-4 7.86-4.52a9 9 0 0 0 2.68-4.1 1.54 1.54 0 0 1 .56-1c.7-.52 1.38-.63 1.82-1.43.78-1.44 1.26-5.09 1.39-5.17a2.22 2.22 0 0 0 -2.1-1.57z" fill="#db9e71"/><path d="m49 52.33a2.36 2.36 0 0 0 1.77-.8.12.12 0 0 0 0-.17.12.12 0 0 0 -.17 0 2.31 2.31 0 0 1 -3.17 0 .18.18 0 0 0 -.09 0 .11.11 0 0 0 -.08 0 .12.12 0 0 0 0 .17 2.36 2.36 0 0 0 1.74.8z" fill="#512c2b"/><path d="m46.83 43.1.43-.83a11.25 11.25 0 0 0 -5.68.18l.54.81a8.94 8.94 0 0 1 4.71-.16z" fill="#512c2b"/><path d="m56 43.1.43-.83a11.25 11.25 0 0 0 -5.68.18l.55.81a8.91 8.91 0 0 1 4.7-.16z" fill="#512c2b"/><path d="m44.19 44.28a1.21 1.21 0 0 0 -1 .73.51.51 0 0 1 .17 0 .73.73 0 0 1 0 1.46.63.63 0 0 1 -.32-.1 1.34 1.34 0 0 0 1.2 1.14 1.65 1.65 0 0 0 0-3.2z" fill="#512c2b"/><path d="m53.77 44.28a1.15 1.15 0 0 0 -.94.54.56.56 0 0 1 .23 0 .73.73 0 0 1 0 1.45.62.62 0 0 1 -.54-.31 1.29 1.29 0 1 0 1.25-1.64z" fill="#512c2b"/><g fill="none" stroke-linejoin="round"><path d="m68.86 72c-.41-2.14-1.28-3.4-3.34-4l-.35-.13-.59-.23c-1.24-.53-8.67-3.27-8.67-3.27a1.9 1.9 0 0 1 -1.24-1.08 6.5 6.5 0 0 1 -.26-2.3 24.12 24.12 0 0 0 2.39-1.87 9 9 0 0 0 2.68-4.14 1.57 1.57 0 0 1 .56-1c.7-.52 1.38-.64 1.82-1.45a15.41 15.41 0 0 0 1.39-5.23 2.23 2.23 0 0 0 -2.1-1.59h-.36c-1-.05-1.24.34-1.19-.27.08-1.07-.07-5.42-.07-5.64 0-4.5-4.65-8.18-10.47-8.38h-.23c-5.82.2-10.47 3.88-10.47 8.38 0 .22-.15 4.57-.07 5.64.05.61-.23.22-1.19.27h-.36a2.23 2.23 0 0 0 -2.1 1.59 15.83 15.83 0 0 0 1.36 5.13c.44.81 1.12.93 1.82 1.45a1.57 1.57 0 0 1 .56 1 8.94 8.94 0 0 0 2.68 4.14 25.92 25.92 0 0 0 2.27 1.73c0 .91-.1 2-.17 2.39a1.69 1.69 0 0 1 -1.29 1.13l-7.09 2.63a8.3 8.3 0 0 0 -2.21.91 6 6 0 0 0 -3.16 4.19c-.59 2.17-.54 8.88-.59 9.42 7.77 5.26 14 6.73 24.7 6.26 4.86-.21 12.1-2.61 15.89-4.53-.2-4.25-.55-11.15-.55-11.15z" stroke="#472b29" stroke-linecap="round"/><path d="m59.69 48.47 1.49-.65-.26 2.3" stroke="#895d3d" stroke-width=".6"/><path d="m38.52 48.12-1.48-.64.26 2.29" stroke="#895d3d" stroke-width=".6"/><path d="m38.5 45.4-.16 8.65" stroke="#472b29" stroke-linecap="round" stroke-width=".4"/><path d="m59.55 45.4.17 8.65" stroke="#472b29" stroke-linecap="round" stroke-width=".4"/></g><path d="m45.52 55.54a1.91 1.91 0 0 0 -.06.48c0 1.39 1.55 2.53 3.45 2.53s3.45-1.14 3.45-2.53a1.91 1.91 0 0 0 -.06-.48z" fill="#6d1b18"/><path d="m50.73 58.16a3.06 3.06 0 0 0 -3.64 0 4.44 4.44 0 0 0 3.64 0z" fill="#ee3e54"/><path d="m46.51 55.54v.46c0 .38.49.68 1.09.68h2.62c.6 0 1.1-.3 1.1-.68v-.42s0 0 0-.05z" fill="#fdfcef"/><path d="m45.52 55.54a1.91 1.91 0 0 0 -.06.48c0 1.39 1.55 2.53 3.45 2.53s3.45-1.14 3.45-2.53a1.91 1.91 0 0 0 -.06-.48z" fill="none" stroke="#472b29" stroke-linecap="round" stroke-linejoin="round" stroke-width=".4"/><path d="m59.77 51.53c-.73 2.12-1.5 4-2.06 5.29a.75.75 0 0 1 -1.32 0 5.44 5.44 0 0 0 -2.39-2.28 4.93 4.93 0 0 0 -4.8.28c1.12 0 2.58.26 3.2 1.28 2.16 3.57-3.08 4.15-3.28 4-.21.19-5.44-.39-3.28-4 .61-1 2.07-1.25 3.2-1.28a4.93 4.93 0 0 0 -4.8-.28 5.47 5.47 0 0 0 -2.42 2.33.75.75 0 0 1 -1.32 0c-.5-1.22-1.21-2.87-1.89-4.81-.09 1.14-.27 2.28-.37 3.43 0 .14.07.29.1.44.57 2.45 1.31 8.33 9.12 10.91a6.22 6.22 0 0 0 3.26 0c7.39-2.41 8.44-7.7 9-10.39a47.71 47.71 0 0 1 .05-4.92z" fill="#512c2b"/></svg>