<svg height="100" viewBox="0 0 100 100" width="100" xmlns="http://www.w3.org/2000/svg"><circle cx="20.92" cy="56.96" fill="#fff" r=".89"/><circle cx="79.97" cy="32.09" fill="#fff" r=".68"/><circle cx="77.34" cy="13.06" fill="#f1bc19" r=".89"/><circle cx="21.41" cy="64.63" fill="#f1bc19" r=".89"/><circle cx="50.23" cy="50.29" fill="#f9dbd2" r="37.45"/><circle cx="82.78" cy="15.21" fill="#f1bc19" r="4.01"/><circle cx="86.79" cy="24.28" fill="#ee3e54" r="1.88"/><circle cx="77.8" cy="76.7" fill="#fbcd59" r="1.88"/><circle cx="14.64" cy="63.75" fill="#fbcd59" r="4.01"/><circle cx="24.88" cy="87.88" fill="#ee3e54" r="1.88"/><circle cx="76.45" cy="30.58" fill="#fff" r="1.8"/><circle cx="18.38" cy="51.64" fill="#fff" r="2.54"/><path d="m68.72 71.5c-.4-2.15-1.28-3.41-3.34-4-.09 0-.21-.07-.35-.12l-.58-.24c-1.25-.53-8.68-3.27-8.68-3.27a1.87 1.87 0 0 1 -1.24-1.08 8.66 8.66 0 0 1 -.23-2.91 46.9 46.9 0 0 1 -5 1.42c-1.9.19-6-2.27-6-2.27s-.1 3-.23 3.71a1.67 1.67 0 0 1 -1.28 1.13l-7.13 2.59a8.11 8.11 0 0 0 -2.21.91 7.55 7.55 0 0 0 -3.16 4.16s-.47 3.31-.45 3.43c0 .47-.09 1-.14 1.51 7.77 5.26 14 6.73 24.7 6.27 4.87-.22 12.1-2.62 15.9-4.53-.23-4.21-.58-6.71-.58-6.71z" fill="#ce9065"/><path d="m65.38 67.51c-.09 0-.21-.07-.35-.12l-.58-.24c-.77-.32-3.91-1.5-6.19-2.34h-.1c-2.52 1.26-6.1 3.19-9.39 3.19s-6.58-1.75-9.38-3.22l-.32.08-4.43 1.61a8.11 8.11 0 0 0 -2.21.91 7.55 7.55 0 0 0 -3.16 4.16s-.47 3.31-.45 3.43c0 .47-.09 5.45-.14 6 7.77 5.26 14 6.73 24.7 6.27 4.87-.22 12.1-2.62 15.9-4.53-.21-4.23-.56-11.15-.56-11.15-.4-2.17-1.28-3.42-3.34-4.05z" fill="#fdfcef"/><path d="m29.77 70c.42-1 3.23-3 4.23-3.27l1.45-.53s0 0 0 0l5.82-2.2c1.5 3.86 5 19.78 6.8 23.54a33.66 33.66 0 0 1 -9.4-1.12 52.58 52.58 0 0 1 -10.15-5.24c.17-.83-.08-8.08 1.25-11.18z" fill="#ee3e54"/><path d="m68.08 69.94a3.15 3.15 0 0 0 -2.21-2.11l-1.45-.54-5.79-2.23c-1.5 3.86-7.25 18.87-9 22.62a33.84 33.84 0 0 0 11.17-1.33c6.3-1.78 8.67-3.27 8.66-3.34-.19-.8-.34-9.53-1.38-13.07z" fill="#ee3e54"/><path d="m55.65 64 6.43 2.38s-9.31 16.42-11.16 19.62h-5.75z" fill="#ce942b"/><path d="m41.87 63.67-6.31 2.54s8.44 18.3 10.26 21.47h5.75z" fill="#e0a825"/><path d="m35.65 80.95v3.91" fill="none" stroke="#d12845" stroke-linecap="round" stroke-linejoin="round" stroke-width=".7"/><path d="m61.82 80.95v4.6" fill="none" stroke="#d12845" stroke-linecap="round" stroke-linejoin="round" stroke-width=".7"/><path d="m61 45h-.36c-1 0-1.24.34-1.2-.26.08-1.06-.07-5.36-.07-5.57 0-4.46-4.65-8.1-10.46-8.3h-.24c-5.81.2-10.46 3.84-10.46 8.3 0 .21-.15 4.51-.07 5.57 0 .6-.24.22-1.2.26h-.34a2.23 2.23 0 0 0 -2.1 1.58c.13.08.61 3.73 1.39 5.17.44.8 1.12.91 1.82 1.43a1.56 1.56 0 0 1 .57 1 8.93 8.93 0 0 0 2.72 4.11c.59.57 4.5 4.74 7.86 4.53s7.27-4 7.86-4.53a8.93 8.93 0 0 0 2.67-4.1 1.56 1.56 0 0 1 .57-1c.7-.52 1.38-.63 1.81-1.43.78-1.44 1.26-5.09 1.39-5.17a2.22 2.22 0 0 0 -2.16-1.59z" fill="#db9e71"/><g fill="#512c2b"><path d="m48.87 52a2.36 2.36 0 0 0 1.77-.8.12.12 0 0 0 0-.17.12.12 0 0 0 -.17 0 2.35 2.35 0 0 1 -3.18 0 .12.12 0 0 0 -.09 0 .11.11 0 0 0 -.08 0 .12.12 0 0 0 0 .17 2.34 2.34 0 0 0 1.75.8z"/><path d="m46.69 42.8.43-.83a11.25 11.25 0 0 0 -5.68.18l.56.85a8.91 8.91 0 0 1 4.69-.2z"/><path d="m55.86 42.8.44-.8a11.29 11.29 0 0 0 -5.69.18l.55.81a8.91 8.91 0 0 1 4.7-.19z"/><path d="m44.05 44a1.22 1.22 0 0 0 -1 .73.57.57 0 0 1 .18 0 .73.73 0 0 1 0 1.46.58.58 0 0 1 -.32-.1 1.33 1.33 0 0 0 1.19 1.14 1.65 1.65 0 0 0 0-3.2z"/><path d="m53.63 44a1.15 1.15 0 0 0 -.94.55.59.59 0 0 1 .23-.05.73.73 0 0 1 0 1.46.65.65 0 0 1 -.54-.32 1.29 1.29 0 1 0 1.25-1.64z"/><path d="m54.16 53.89a.12.12 0 0 0 0-.17.12.12 0 0 0 -.17 0 8.47 8.47 0 0 1 -5.14 1.42 8.47 8.47 0 0 1 -5.14-1.42.11.11 0 0 0 -.08 0 .12.12 0 0 0 -.09 0 .12.12 0 0 0 0 .17 9.26 9.26 0 0 0 10.58 0z"/><path d="m50.27 59.16c.06 0 .11-.08.11-.16s-.05-.16-.11-.16h-2.58c-.06 0-.11.07-.11.16s.05.16.11.16z"/></g><path d="m68.72 71.68c-.4-2.15-1.28-3.41-3.34-4l-.38-.15-.58-.24c-1.22-.53-8.65-3.29-8.65-3.29a1.87 1.87 0 0 1 -1.24-1.08 6.51 6.51 0 0 1 -.25-2.3 29.94 29.94 0 0 0 2.39-1.86 9.1 9.1 0 0 0 2.67-4.14 1.58 1.58 0 0 1 .57-1.06c.7-.52 1.38-.64 1.81-1.45a15.35 15.35 0 0 0 1.39-5.23 2.21 2.21 0 0 0 -2.11-1.57h-.36c-1 0-1.24.34-1.2-.26.08-1.07-.07-5.42-.07-5.64 0-4.51-4.65-8.19-10.46-8.39h-.24c-5.81.2-10.46 3.88-10.46 8.39 0 .22-.15 4.57-.07 5.64 0 .6-.24.21-1.2.26h-.34a2.23 2.23 0 0 0 -2.1 1.59 15.71 15.71 0 0 0 1.39 5.23c.44.81 1.12.93 1.82 1.45a1.58 1.58 0 0 1 .57 1.06 9.1 9.1 0 0 0 2.72 4.14 25.07 25.07 0 0 0 2.28 1.73c0 .9-.11 2-.18 2.38a1.67 1.67 0 0 1 -1.33 1.11l-7.13 2.6a8.46 8.46 0 0 0 -2.21.92 6 6 0 0 0 -3.16 4.16c-.59 2.16-.54 8.87-.59 9.41 7.77 5.26 14 6.73 24.7 6.26 4.87-.21 12.1-2.61 15.9-4.52-.21-4.23-.56-11.15-.56-11.15z" fill="none" stroke="#472b29" stroke-linecap="round" stroke-linejoin="round"/><path d="m59.55 48.17 1.49-.65-.26 2.3" fill="none" stroke="#895d3d" stroke-linejoin="round" stroke-width=".6"/><path d="m38.39 47.83-1.49-.65.26 2.3" fill="none" stroke="#895d3d" stroke-linejoin="round" stroke-width=".6"/><path d="m38.37 45.1-.17 8.65" fill="none" stroke="#472b29" stroke-linecap="round" stroke-linejoin="round" stroke-width=".4"/><path d="m59.42 45.1.16 8.65" fill="none" stroke="#472b29" stroke-linecap="round" stroke-linejoin="round" stroke-width=".4"/><path d="m43.34 60.35s3.76 2.89 5.66 2.65 4.91-2.45 4.91-2.45" fill="none" stroke="#472b29" stroke-linecap="round" stroke-linejoin="round" stroke-width=".5"/></svg>