<svg id="svg" version="1.1" xmlns="http://www.w3.org/2000/svg" xmlns:xlink="http://www.w3.org/1999/xlink" width="400" height="400" viewBox="0, 0, 400,400"><g id="svgg"><path id="path0" d="M41.680 0.342 C 41.098 0.711,40.918 7.550,41.480 7.964 C 41.656 8.094,41.843 8.998,41.896 9.974 C 41.949 10.950,42.129 11.850,42.296 11.974 C 42.463 12.098,42.591 12.830,42.581 13.600 C 42.555 15.527,42.801 16.240,43.250 15.534 C 43.485 15.162,43.605 15.334,43.644 16.100 C 43.697 17.137,43.770 17.594,43.996 18.300 C 44.049 18.465,44.057 18.935,44.014 19.344 C 43.970 19.753,44.112 19.978,44.328 19.844 C 44.650 19.645,45.748 21.796,45.483 22.106 C 45.038 22.628,51.253 29.200,52.191 29.200 C 52.526 29.200,52.800 29.380,52.800 29.600 C 52.800 29.820,53.160 30.000,53.600 30.000 C 54.040 30.000,54.400 30.180,54.400 30.400 C 54.400 30.620,54.749 30.800,55.176 30.800 C 55.603 30.800,56.064 30.980,56.200 31.200 C 56.336 31.420,57.067 31.600,57.824 31.600 C 58.581 31.600,59.200 31.764,59.200 31.965 C 59.200 32.168,62.127 32.352,65.800 32.380 C 70.130 32.414,72.400 32.288,72.400 32.015 C 72.400 31.787,73.041 31.600,73.824 31.600 C 74.671 31.600,75.147 31.438,75.000 31.200 C 74.860 30.973,75.196 30.800,75.776 30.800 C 76.339 30.800,76.800 30.620,76.800 30.400 C 76.800 30.180,77.263 30.000,77.829 30.000 C 80.076 30.000,80.449 28.699,79.605 23.800 C 78.803 19.150,78.154 13.266,77.364 3.500 L 77.081 0.000 59.641 0.006 C 50.048 0.009,41.966 0.161,41.680 0.342 M322.656 5.300 C 322.333 12.522,321.652 19.511,320.574 26.656 C 320.262 28.728,320.885 30.000,322.214 30.000 C 322.756 30.000,323.200 30.180,323.200 30.400 C 323.200 30.620,323.740 30.800,324.400 30.800 C 325.060 30.800,325.600 30.980,325.600 31.200 C 325.600 31.420,326.050 31.600,326.600 31.600 C 327.150 31.600,327.600 31.771,327.600 31.980 C 327.600 32.206,330.292 32.360,334.200 32.358 C 338.069 32.356,340.800 32.199,340.800 31.978 C 340.800 31.770,341.192 31.600,341.672 31.600 C 342.544 31.600,345.223 30.783,345.600 30.402 C 346.224 29.771,348.336 28.865,348.608 29.111 C 348.784 29.270,348.799 29.175,348.641 28.900 C 348.482 28.625,348.555 28.400,348.802 28.400 C 349.432 28.400,353.253 24.410,353.007 24.011 C 352.896 23.831,353.054 23.588,353.358 23.471 C 353.971 23.236,355.200 20.997,355.200 20.115 C 355.200 19.806,355.392 19.671,355.627 19.817 C 355.861 19.962,356.012 19.837,355.962 19.540 C 355.849 18.879,356.304 16.950,356.889 15.600 C 357.128 15.050,357.364 14.060,357.413 13.400 C 357.462 12.740,357.650 11.841,357.831 11.403 C 358.012 10.965,358.156 9.975,358.151 9.203 C 358.146 8.431,358.285 7.703,358.460 7.583 C 359.052 7.179,358.954 0.743,358.349 0.360 C 358.047 0.169,349.946 0.009,340.346 0.006 L 322.893 0.000 322.656 5.300 M63.000 282.080 C 59.997 283.791,59.298 288.408,61.700 290.664 C 63.330 292.195,63.896 292.405,67.600 292.858 C 71.881 293.382,80.701 294.515,85.700 295.185 C 87.405 295.413,90.105 295.767,91.700 295.972 C 93.295 296.176,96.130 296.549,98.000 296.800 C 99.870 297.051,102.705 297.424,104.300 297.628 C 105.895 297.833,108.505 298.167,110.100 298.372 C 111.695 298.576,114.530 298.941,116.400 299.184 C 118.270 299.426,121.060 299.783,122.600 299.976 C 132.173 301.176,152.307 303.836,155.800 304.361 C 169.077 306.359,174.244 310.777,180.872 325.800 C 182.988 330.596,185.453 332.900,187.730 332.209 C 187.988 332.131,188.662 331.967,189.226 331.844 C 192.377 331.161,193.792 326.878,192.038 323.338 C 191.619 322.492,190.365 319.868,189.251 317.506 C 182.893 304.029,175.205 297.232,163.200 294.478 C 159.149 293.548,156.922 293.185,150.400 292.390 C 148.750 292.189,146.005 291.839,144.300 291.612 C 142.595 291.386,139.805 291.014,138.100 290.788 C 136.395 290.561,133.650 290.206,132.000 290.000 C 130.350 289.794,127.605 289.439,125.900 289.212 C 124.195 288.986,121.405 288.614,119.700 288.388 C 116.712 287.990,113.328 287.552,107.400 286.796 C 105.860 286.599,103.250 286.250,101.600 286.019 C 99.950 285.789,97.160 285.421,95.400 285.201 C 91.125 284.668,87.954 284.264,76.722 282.819 C 66.464 281.500,64.230 281.379,63.000 282.080 M325.600 282.439 C 319.968 283.214,315.346 283.818,310.600 284.400 C 309.060 284.589,306.270 284.949,304.400 285.200 C 302.530 285.451,299.695 285.824,298.100 286.028 C 296.505 286.233,293.850 286.580,292.200 286.800 C 284.388 287.842,282.796 288.050,280.000 288.400 C 278.350 288.606,275.560 288.968,273.800 289.203 C 270.690 289.618,268.434 289.912,261.800 290.764 C 258.833 291.145,257.441 291.329,249.500 292.386 C 242.963 293.257,240.933 293.544,239.600 293.790 C 227.863 295.951,220.807 300.532,214.628 310.000 C 212.374 313.453,211.525 315.053,208.259 322.000 C 205.562 327.737,207.332 332.101,212.340 332.062 C 215.436 332.038,216.221 331.288,218.673 326.011 C 226.598 308.959,230.597 306.025,249.200 303.615 C 250.850 303.401,257.150 302.584,263.200 301.800 C 278.516 299.813,279.784 299.650,283.400 299.199 C 285.160 298.979,287.950 298.620,289.600 298.400 C 291.250 298.180,294.040 297.820,295.800 297.600 C 299.412 297.148,303.111 296.656,307.800 296.004 C 309.560 295.759,312.260 295.399,313.800 295.203 C 319.117 294.527,323.011 294.023,326.100 293.612 C 327.805 293.386,330.505 293.041,332.100 292.847 C 338.476 292.070,341.136 288.802,338.954 284.427 C 337.464 281.441,335.256 281.112,325.600 282.439 " stroke="none" fill="#ec846c" fill-rule="evenodd"></path><path id="path1" d="M78.221 4.900 C 78.338 7.595,78.603 11.196,78.810 12.901 C 79.647 19.823,80.108 23.070,80.443 24.400 C 80.916 26.279,80.893 28.400,80.400 28.400 C 79.889 28.400,79.872 31.489,80.382 31.667 C 80.593 31.740,80.804 32.520,80.851 33.400 C 80.898 34.280,81.080 35.192,81.256 35.427 C 81.432 35.661,81.620 36.426,81.673 37.127 C 81.727 37.827,81.912 38.400,82.085 38.400 C 82.258 38.400,82.400 39.030,82.400 39.800 C 82.400 40.570,82.580 41.200,82.800 41.200 C 83.020 41.200,83.200 41.830,83.200 42.600 C 83.200 43.370,83.342 44.000,83.515 44.000 C 83.688 44.000,83.874 44.578,83.928 45.284 C 83.982 45.991,84.194 46.673,84.400 46.800 C 84.606 46.927,84.818 47.609,84.872 48.316 C 84.926 49.022,85.112 49.600,85.285 49.600 C 85.458 49.600,85.600 50.140,85.600 50.800 C 85.600 51.460,85.780 52.000,86.000 52.000 C 86.220 52.000,86.400 52.439,86.400 52.976 C 86.400 53.513,86.580 54.064,86.800 54.200 C 87.020 54.336,87.200 54.876,87.200 55.400 C 87.200 55.924,87.380 56.464,87.600 56.600 C 87.820 56.736,88.000 57.287,88.000 57.824 C 88.000 58.361,88.180 58.800,88.400 58.800 C 88.620 58.800,88.800 59.149,88.800 59.576 C 88.800 60.003,88.980 60.464,89.200 60.600 C 89.420 60.736,89.600 61.287,89.600 61.824 C 89.600 62.361,89.735 62.801,89.900 62.803 C 90.301 62.807,91.200 64.781,91.200 65.656 C 91.200 66.039,91.380 66.464,91.600 66.600 C 91.820 66.736,92.000 67.163,92.000 67.550 C 92.000 67.936,92.703 69.636,93.563 71.326 C 94.422 73.017,95.058 74.400,94.976 74.400 C 94.769 74.400,97.267 78.954,97.609 79.200 C 97.762 79.310,98.129 80.075,98.424 80.900 C 98.719 81.725,99.105 82.400,99.280 82.400 C 99.456 82.400,99.600 82.760,99.600 83.200 C 99.600 83.640,99.780 84.000,100.000 84.000 C 100.220 84.000,100.400 84.317,100.400 84.704 C 100.400 85.091,100.760 85.632,101.200 85.907 C 101.640 86.182,102.000 86.776,102.000 87.227 C 102.000 87.678,102.180 87.936,102.400 87.800 C 102.620 87.664,102.800 87.923,102.800 88.376 C 102.800 88.829,102.980 89.200,103.200 89.200 C 103.420 89.200,103.600 89.436,103.600 89.725 C 103.600 90.013,103.960 90.636,104.400 91.108 C 104.840 91.580,105.200 92.204,105.200 92.495 C 105.200 92.786,105.560 93.283,106.000 93.600 C 106.440 93.917,106.800 94.457,106.800 94.800 C 106.800 95.143,107.160 95.683,107.600 96.000 C 108.040 96.317,108.400 96.875,108.400 97.239 C 108.400 97.604,108.675 98.130,109.011 98.409 C 109.772 99.041,112.000 102.313,112.000 102.800 C 112.000 102.998,112.315 103.344,112.700 103.568 C 113.085 103.792,113.267 103.981,113.104 103.988 C 112.808 104.000,113.199 104.536,115.341 107.057 C 115.969 107.796,116.355 108.400,116.199 108.400 C 116.043 108.400,116.474 108.922,117.158 109.560 C 117.841 110.199,118.400 110.924,118.400 111.173 C 118.400 111.422,118.669 111.728,118.998 111.854 C 119.326 111.981,119.496 112.245,119.374 112.442 C 119.252 112.639,119.343 112.800,119.576 112.800 C 119.809 112.800,120.000 113.025,120.000 113.300 C 120.001 113.575,120.447 114.318,120.992 114.952 C 121.537 115.586,121.881 116.269,121.757 116.470 C 121.633 116.671,121.721 117.064,121.953 117.343 C 122.219 117.664,122.389 121.273,122.414 127.126 C 122.437 132.226,122.611 136.400,122.802 136.400 C 122.993 136.400,123.166 140.933,123.187 146.474 C 123.208 152.355,123.386 156.742,123.613 157.016 C 124.155 157.668,124.149 194.575,123.607 195.587 C 123.383 196.005,123.200 197.249,123.200 198.350 C 123.200 199.452,123.020 200.464,122.800 200.600 C 122.580 200.736,122.400 201.647,122.400 202.624 C 122.400 203.601,122.220 204.400,122.000 204.400 C 121.780 204.400,121.600 205.120,121.600 206.000 C 121.600 206.880,121.420 207.600,121.200 207.600 C 120.980 207.600,120.800 208.241,120.800 209.024 C 120.800 209.871,120.638 210.347,120.400 210.200 C 120.174 210.060,120.000 210.388,120.000 210.953 C 120.000 211.503,119.820 212.064,119.600 212.200 C 119.380 212.336,119.200 212.887,119.200 213.424 C 119.200 213.961,119.020 214.400,118.800 214.400 C 118.580 214.400,118.400 214.665,118.400 214.988 C 118.400 215.311,118.042 216.212,117.605 216.991 C 117.168 217.769,116.808 218.495,116.805 218.603 C 116.802 218.711,116.800 218.946,116.800 219.125 C 116.800 219.303,116.433 219.843,115.984 220.325 C 115.536 220.806,115.279 221.200,115.413 221.200 C 115.547 221.200,115.419 221.464,115.129 221.786 C 113.863 223.189,113.600 223.602,113.600 224.183 C 113.600 224.522,113.423 224.800,113.208 224.800 C 112.992 224.800,112.704 225.244,112.568 225.787 C 112.431 226.329,112.182 226.734,112.014 226.687 C 111.586 226.565,108.400 230.470,108.400 231.116 C 108.400 231.408,108.220 231.536,108.000 231.400 C 107.780 231.264,107.600 231.331,107.600 231.550 C 107.600 232.030,103.983 235.600,103.497 235.600 C 103.308 235.600,103.281 235.808,103.438 236.062 C 103.610 236.340,103.548 236.415,103.283 236.251 C 103.040 236.101,102.029 236.792,101.032 237.789 C 100.036 238.785,99.081 239.601,98.911 239.602 C 98.740 239.603,98.025 240.143,97.322 240.802 C 96.619 241.461,95.932 242.000,95.795 242.000 C 95.658 242.000,94.957 242.450,94.236 243.000 C 93.514 243.550,92.756 244.000,92.551 244.000 C 92.345 244.000,91.917 244.360,91.600 244.800 C 91.283 245.240,90.791 245.600,90.506 245.600 C 90.022 245.600,88.445 246.355,88.000 246.800 C 87.534 247.266,85.967 248.000,85.439 248.000 C 85.124 248.000,84.807 248.135,84.733 248.300 C 84.541 248.732,81.228 250.400,80.562 250.400 C 80.253 250.400,80.000 250.580,80.000 250.800 C 80.000 251.020,79.640 251.200,79.200 251.200 C 78.760 251.200,78.400 251.380,78.400 251.600 C 78.400 251.820,78.051 252.000,77.624 252.000 C 77.197 252.000,76.736 252.180,76.600 252.400 C 76.464 252.620,76.003 252.800,75.576 252.800 C 75.149 252.800,74.800 252.980,74.800 253.200 C 74.800 253.420,74.451 253.600,74.024 253.600 C 73.597 253.600,73.136 253.780,73.000 254.000 C 72.864 254.220,72.328 254.400,71.810 254.400 C 71.291 254.400,70.807 254.578,70.733 254.797 C 70.660 255.015,70.118 255.233,69.529 255.281 C 68.940 255.330,68.545 255.512,68.652 255.685 C 68.760 255.858,68.207 256.000,67.424 256.000 C 66.641 256.000,66.000 256.180,66.000 256.400 C 66.000 256.620,65.475 256.800,64.833 256.800 C 64.192 256.800,63.603 256.991,63.525 257.224 C 63.448 257.457,62.809 257.665,62.106 257.685 C 61.403 257.705,60.922 257.874,61.037 258.060 C 61.153 258.247,60.734 258.400,60.108 258.400 C 59.481 258.400,57.909 258.676,56.614 259.013 C 55.319 259.351,53.936 259.676,53.540 259.736 C 53.144 259.797,52.696 259.971,52.544 260.123 C 52.391 260.275,51.577 260.400,50.733 260.400 C 49.890 260.400,49.200 260.580,49.200 260.800 C 49.200 261.020,48.581 261.200,47.824 261.200 C 47.067 261.200,46.357 261.346,46.247 261.524 C 46.137 261.702,45.185 261.893,44.133 261.947 C 43.080 262.002,42.124 262.189,42.009 262.363 C 41.894 262.537,40.990 262.811,40.000 262.970 C 39.010 263.129,37.300 263.436,36.200 263.650 C 35.100 263.865,33.480 264.132,32.600 264.243 C 31.720 264.354,30.640 264.593,30.200 264.774 C 29.045 265.248,25.599 265.996,24.200 266.076 C 23.540 266.114,22.811 266.284,22.581 266.455 C 22.350 266.625,21.495 266.809,20.681 266.864 C 19.866 266.919,19.200 267.107,19.200 267.282 C 19.200 267.457,18.300 267.600,17.200 267.600 C 16.100 267.600,15.200 267.780,15.200 268.000 C 15.200 268.220,14.480 268.400,13.600 268.400 C 12.720 268.400,12.000 268.580,12.000 268.800 C 12.000 269.020,11.190 269.200,10.200 269.200 C 9.210 269.200,8.400 269.380,8.400 269.600 C 8.400 269.820,7.781 270.000,7.024 270.000 C 6.267 270.000,5.536 270.180,5.400 270.400 C 5.264 270.620,4.623 270.800,3.976 270.800 C 3.329 270.800,2.800 270.980,2.800 271.200 C 2.800 271.420,2.263 271.600,1.608 271.600 C -0.116 271.600,-0.029 267.838,0.091 336.600 L 0.200 399.800 187.900 399.900 L 375.600 400.001 375.586 344.300 C 375.570 283.489,375.686 286.588,373.223 281.324 C 369.723 273.843,363.539 269.473,353.800 267.597 C 352.480 267.343,350.680 266.978,349.800 266.787 C 345.790 265.915,343.686 265.478,336.200 263.966 C 327.471 262.201,318.085 259.983,314.000 258.718 C 308.787 257.104,301.756 254.688,300.000 253.907 C 299.010 253.467,297.570 252.836,296.800 252.505 C 276.598 243.820,261.580 229.501,255.439 213.069 C 250.828 200.730,250.208 191.543,251.450 153.900 C 251.586 149.775,251.574 146.400,251.423 146.400 C 251.271 146.400,250.778 146.598,250.327 146.839 C 247.823 148.179,241.600 150.071,236.000 151.195 C 233.213 151.754,216.284 152.213,212.700 151.827 C 210.008 151.537,208.927 150.800,211.194 150.800 C 221.577 150.800,240.157 139.729,247.239 129.322 C 247.959 128.265,248.650 127.310,248.775 127.200 C 249.386 126.664,272.536 91.357,274.215 88.400 C 276.934 83.613,281.651 74.249,282.780 71.400 C 283.303 70.080,283.860 68.820,284.018 68.600 C 284.892 67.383,290.067 52.270,291.825 45.800 C 293.167 40.862,293.871 37.754,295.224 30.800 C 296.298 25.282,297.066 18.798,297.570 11.000 C 297.797 7.480,298.060 3.565,298.154 2.300 L 298.324 -0.000 188.165 -0.000 L 78.007 0.000 78.221 4.900 M359.043 2.633 C 358.712 3.495,358.738 4.000,359.113 4.000 C 359.285 4.000,359.463 3.550,359.508 3.000 C 359.602 1.862,359.400 1.702,359.043 2.633 M277.067 135.467 C 276.920 135.613,276.800 136.093,276.800 136.533 C 276.800 137.536,277.329 137.065,277.408 135.992 C 277.473 135.115,277.451 135.082,277.067 135.467 M290.628 230.129 C 290.731 230.398,291.176 230.842,291.617 231.118 C 292.357 231.580,292.380 231.557,291.918 230.817 C 291.355 229.917,290.338 229.374,290.628 230.129 M342.800 259.093 C 343.350 259.194,344.070 259.484,344.400 259.738 C 344.922 260.140,344.929 260.109,344.451 259.500 C 344.148 259.114,343.430 258.824,342.851 258.854 L 341.800 258.909 342.800 259.093 M69.000 281.231 C 75.940 282.036,91.641 284.032,103.600 285.631 C 106.490 286.017,109.743 286.440,115.900 287.228 C 120.508 287.819,124.338 288.319,128.000 288.809 C 132.415 289.399,135.800 289.844,140.000 290.385 C 150.790 291.775,154.944 292.336,158.000 292.815 C 159.430 293.040,161.320 293.326,162.200 293.453 C 163.080 293.579,163.971 293.844,164.180 294.041 C 164.389 294.238,165.053 294.400,165.656 294.400 C 166.259 294.400,166.864 294.580,167.000 294.800 C 167.136 295.020,167.524 295.200,167.862 295.200 C 172.562 295.200,182.576 303.968,187.278 312.200 C 193.512 323.115,194.679 328.041,191.728 330.992 C 187.894 334.826,183.697 333.233,180.714 326.811 C 174.731 313.932,171.015 309.534,163.800 306.795 C 160.891 305.690,157.461 305.112,142.400 303.188 C 137.656 302.582,133.906 302.097,130.400 301.635 C 128.750 301.417,122.360 300.594,116.200 299.806 C 101.556 297.933,99.146 297.622,95.800 297.175 C 94.260 296.969,91.470 296.609,89.600 296.376 C 85.590 295.875,81.547 295.353,77.400 294.800 C 75.750 294.580,73.095 294.227,71.500 294.016 C 69.905 293.804,67.512 293.482,66.182 293.299 C 62.310 292.766,59.200 289.961,59.200 287.000 C 59.200 284.916,61.784 281.598,63.800 281.093 C 65.036 280.784,65.167 280.787,69.000 281.231 M335.613 281.063 C 343.078 282.556,340.988 292.410,333.000 293.382 C 331.900 293.516,329.695 293.800,328.100 294.013 C 320.737 294.996,319.010 295.224,316.300 295.572 C 313.612 295.916,310.564 296.319,304.000 297.200 C 302.570 297.392,299.960 297.730,298.200 297.952 C 296.440 298.173,291.400 298.822,287.000 299.392 C 282.600 299.963,277.605 300.603,275.900 300.815 C 274.195 301.027,271.315 301.393,269.500 301.628 C 267.685 301.864,264.850 302.230,263.200 302.441 C 247.639 304.433,243.240 305.047,240.800 305.571 C 239.810 305.783,238.460 306.070,237.800 306.209 C 231.283 307.575,225.636 312.986,221.319 322.000 C 220.423 323.870,219.110 326.617,218.401 328.104 C 214.347 336.610,203.028 332.294,206.841 323.696 C 211.960 312.152,214.654 307.705,219.382 302.989 C 222.956 299.425,226.405 297.154,230.600 295.603 C 231.040 295.440,231.850 295.117,232.400 294.884 C 232.950 294.651,233.940 294.347,234.600 294.209 C 235.260 294.070,236.610 293.776,237.600 293.555 C 239.821 293.058,243.145 292.534,247.600 291.978 C 249.470 291.745,252.170 291.396,253.600 291.203 C 255.030 291.011,257.730 290.649,259.600 290.400 C 261.470 290.151,264.170 289.791,265.600 289.600 C 269.389 289.094,274.357 288.455,277.900 288.016 C 279.605 287.806,282.260 287.457,283.800 287.242 C 286.502 286.865,290.319 286.366,296.200 285.621 C 297.740 285.426,304.040 284.604,310.200 283.796 C 316.360 282.987,322.840 282.150,324.600 281.936 C 326.360 281.722,328.880 281.403,330.200 281.228 C 333.559 280.782,334.124 280.765,335.613 281.063 " stroke="none" fill="#fcbc94" fill-rule="evenodd"></path><path id="path2" d="M298.792 3.100 C 298.771 10.873,296.846 26.694,294.739 36.400 C 294.524 37.390,294.251 38.876,294.132 39.703 C 294.013 40.529,293.755 41.305,293.558 41.426 C 293.361 41.548,293.200 42.256,293.200 43.000 C 293.200 43.744,293.020 44.464,292.800 44.600 C 292.580 44.736,292.400 45.366,292.400 46.000 C 292.400 46.634,292.220 47.264,292.000 47.400 C 291.780 47.536,291.600 48.089,291.600 48.629 C 291.600 49.169,291.440 49.923,291.245 50.305 C 291.049 50.687,290.320 52.800,289.624 55.000 C 288.526 58.471,287.612 61.091,286.414 64.200 C 283.996 70.472,278.225 82.649,275.276 87.700 C 274.794 88.525,274.062 89.785,273.650 90.500 C 266.327 103.188,246.269 132.080,241.922 136.200 C 234.220 143.500,226.573 147.812,216.779 150.376 L 213.800 151.156 222.800 151.171 C 231.396 151.185,235.032 150.871,240.426 149.645 C 242.563 149.159,249.218 146.859,249.800 146.405 C 250.020 146.233,250.742 145.977,251.403 145.836 L 252.607 145.579 252.101 154.689 C 251.385 167.585,251.288 190.425,251.929 195.200 C 252.567 199.956,253.139 203.364,253.624 205.300 C 254.504 208.811,254.915 210.258,255.299 211.200 C 255.523 211.750,255.863 212.605,256.054 213.100 C 256.244 213.595,256.557 214.405,256.749 214.900 C 257.560 216.987,259.044 219.913,260.084 221.472 C 260.698 222.392,261.200 223.322,261.200 223.539 C 261.200 223.756,261.338 223.993,261.507 224.067 C 261.677 224.140,262.705 225.460,263.792 227.000 C 265.924 230.019,272.676 237.005,275.600 239.217 C 276.590 239.966,277.490 240.688,277.600 240.822 C 277.890 241.174,283.588 244.972,285.646 246.185 C 288.416 247.819,296.364 251.747,299.000 252.785 C 300.320 253.305,301.580 253.849,301.800 253.993 C 302.020 254.138,303.010 254.500,304.000 254.798 C 304.990 255.095,305.971 255.488,306.180 255.670 C 306.389 255.851,306.963 256.000,307.456 256.000 C 307.949 256.000,308.464 256.180,308.600 256.400 C 308.736 256.620,309.276 256.800,309.800 256.800 C 310.324 256.800,310.864 256.980,311.000 257.200 C 311.136 257.420,311.689 257.600,312.229 257.600 C 312.769 257.600,313.523 257.758,313.905 257.951 C 315.061 258.535,317.404 259.200,318.305 259.200 C 318.771 259.200,319.264 259.380,319.400 259.600 C 319.536 259.820,320.256 260.000,321.000 260.000 C 321.744 260.000,322.464 260.180,322.600 260.400 C 322.736 260.620,323.368 260.800,324.005 260.800 C 324.641 260.800,325.576 260.960,326.081 261.155 C 326.587 261.350,327.990 261.719,329.200 261.975 C 330.410 262.230,332.120 262.596,333.000 262.787 C 333.880 262.978,335.680 263.344,337.000 263.600 C 338.320 263.856,340.120 264.224,341.000 264.419 C 341.880 264.614,345.930 265.418,350.000 266.206 C 361.219 268.376,364.065 269.557,368.552 273.907 C 370.538 275.832,372.988 279.228,373.957 281.400 C 374.252 282.060,374.652 282.913,374.847 283.295 C 375.041 283.677,375.200 284.431,375.200 284.971 C 375.200 285.511,375.380 286.064,375.600 286.200 C 375.864 286.363,376.000 305.804,376.000 343.224 L 376.000 400.000 386.520 400.000 C 397.760 400.000,398.668 399.864,399.526 398.046 C 401.106 394.698,400.015 271.602,398.414 272.591 C 398.236 272.701,397.880 272.537,397.622 272.226 C 397.356 271.906,396.726 271.739,396.168 271.840 C 395.579 271.947,395.100 271.806,394.979 271.489 C 394.863 271.188,394.166 270.960,393.361 270.960 C 392.583 270.960,391.801 270.725,391.623 270.437 C 391.426 270.118,390.974 270.018,390.465 270.179 C 390.006 270.325,389.218 270.219,388.715 269.945 C 388.212 269.670,387.329 269.491,386.753 269.547 C 386.177 269.603,385.408 269.351,385.043 268.986 C 384.678 268.621,384.100 268.430,383.758 268.561 C 382.962 268.866,381.141 268.419,381.409 267.985 C 381.521 267.804,381.443 267.550,381.234 267.421 C 381.026 267.292,380.742 267.370,380.604 267.593 C 380.236 268.189,378.409 268.090,378.168 267.462 C 378.023 267.083,377.435 266.977,376.184 267.102 C 374.867 267.233,374.347 267.126,374.180 266.691 C 374.012 266.255,373.510 266.154,372.229 266.298 C 371.188 266.415,370.395 266.315,370.229 266.046 C 370.077 265.801,369.160 265.600,368.190 265.600 C 366.808 265.600,366.331 265.419,365.977 264.757 C 365.647 264.141,365.407 264.033,365.083 264.357 C 364.486 264.954,362.507 264.921,362.303 264.310 C 362.199 263.997,361.517 263.865,360.414 263.945 C 359.051 264.043,358.734 263.949,358.907 263.498 C 359.082 263.042,358.771 262.963,357.353 263.105 C 356.241 263.216,355.346 263.087,354.950 262.759 C 354.603 262.470,353.620 262.286,352.760 262.349 C 351.843 262.415,351.200 262.284,351.200 262.031 C 351.200 261.794,350.480 261.600,349.600 261.600 C 348.720 261.600,348.000 261.420,348.000 261.200 C 348.000 260.980,347.280 260.800,346.400 260.800 C 345.520 260.800,344.800 260.620,344.800 260.400 C 344.800 260.180,344.061 260.000,343.157 260.000 C 341.850 260.000,341.562 259.875,341.748 259.391 C 341.933 258.909,341.831 258.862,341.259 259.168 C 340.755 259.438,340.198 259.380,339.422 258.978 C 338.810 258.660,337.879 258.400,337.354 258.400 C 336.641 258.400,336.392 258.173,336.368 257.500 C 336.351 257.005,336.246 256.825,336.135 257.100 C 335.897 257.691,333.600 257.782,333.600 257.200 C 333.600 256.980,333.150 256.800,332.600 256.800 C 332.050 256.800,331.600 256.632,331.600 256.427 C 331.600 256.221,331.052 256.069,330.381 256.088 C 329.711 256.107,328.955 255.915,328.701 255.661 C 328.448 255.408,327.905 255.200,327.496 255.200 C 327.087 255.200,326.864 255.020,327.000 254.800 C 327.140 254.574,326.812 254.400,326.247 254.400 C 325.697 254.400,325.128 254.208,324.983 253.973 C 324.838 253.738,324.437 253.654,324.092 253.786 C 323.746 253.919,323.342 253.829,323.192 253.587 C 323.042 253.345,322.668 253.096,322.360 253.034 C 321.354 252.831,320.213 252.290,319.500 251.677 C 319.115 251.347,318.800 251.212,318.800 251.378 C 318.800 251.543,318.160 251.301,317.377 250.840 C 316.595 250.378,315.695 250.000,315.377 250.000 C 315.060 250.000,314.800 249.854,314.800 249.675 C 314.800 249.496,314.170 249.102,313.400 248.800 C 312.630 248.498,312.000 248.138,312.000 248.000 C 312.000 247.862,311.370 247.502,310.600 247.200 C 309.830 246.898,309.200 246.504,309.200 246.325 C 309.200 246.146,308.964 246.000,308.675 246.000 C 308.387 246.000,307.802 245.685,307.375 245.300 C 306.949 244.915,306.060 244.330,305.400 244.000 C 304.740 243.670,303.660 242.906,303.000 242.302 C 302.340 241.698,301.682 241.203,301.537 241.202 C 300.632 241.195,289.600 230.823,289.600 229.979 C 289.600 229.815,288.970 229.050,288.200 228.280 C 287.430 227.510,286.800 226.716,286.800 226.515 C 286.800 226.315,286.485 225.794,286.100 225.358 C 285.212 224.353,284.017 222.409,283.729 221.500 C 283.607 221.115,283.369 220.800,283.200 220.800 C 282.919 220.800,282.384 219.379,282.535 219.033 C 282.571 218.951,282.315 218.550,281.966 218.142 C 280.583 216.524,279.525 213.574,280.081 212.887 C 280.374 212.526,280.402 212.365,280.145 212.519 C 279.550 212.876,278.645 211.774,279.027 211.157 C 279.195 210.884,279.016 210.455,278.611 210.159 C 278.174 209.839,277.999 209.380,278.157 208.969 C 278.298 208.600,278.194 208.033,277.925 207.709 C 277.656 207.385,277.478 206.567,277.530 205.891 C 277.581 205.215,277.420 204.536,277.172 204.382 C 276.923 204.229,276.721 203.405,276.722 202.552 C 276.723 201.698,276.550 200.788,276.337 200.529 C 276.124 200.270,275.950 198.833,275.950 197.337 C 275.950 195.841,275.772 194.506,275.555 194.372 C 274.953 194.000,274.989 160.536,275.592 159.810 C 275.894 159.446,276.027 157.798,275.970 155.124 C 275.793 146.832,275.959 141.072,276.383 140.810 C 276.852 140.520,276.747 124.084,276.271 123.314 C 275.897 122.710,276.380 121.580,277.428 120.609 C 277.908 120.164,278.293 119.710,278.282 119.600 C 278.250 119.249,280.506 115.805,280.860 115.667 C 281.047 115.593,281.200 115.356,281.200 115.139 C 281.200 114.777,283.445 111.266,283.974 110.800 C 284.099 110.690,284.456 110.105,284.768 109.500 C 285.080 108.895,285.485 108.400,285.668 108.400 C 285.850 108.400,286.000 108.192,286.000 107.938 C 286.000 107.231,288.007 104.757,288.389 104.993 C 288.574 105.107,288.631 104.841,288.516 104.401 C 288.399 103.953,288.504 103.600,288.753 103.600 C 288.999 103.600,289.200 103.412,289.200 103.183 C 289.200 102.954,289.560 102.380,290.000 101.908 C 290.440 101.436,290.800 100.813,290.800 100.525 C 290.800 100.236,290.980 100.000,291.200 100.000 C 291.420 100.000,291.600 99.816,291.600 99.591 C 291.600 99.139,293.512 96.029,294.177 95.400 C 294.410 95.180,295.018 94.145,295.528 93.100 C 296.038 92.055,296.589 91.200,296.751 91.200 C 296.913 91.200,297.382 90.435,297.792 89.500 C 298.203 88.565,298.822 87.581,299.169 87.313 C 299.516 87.045,299.670 86.820,299.510 86.813 C 299.351 86.806,299.756 85.892,300.410 84.782 C 301.065 83.673,301.600 82.593,301.600 82.382 C 301.600 82.172,301.780 82.000,302.000 82.000 C 302.220 82.000,302.400 81.640,302.400 81.200 C 302.400 80.760,302.580 80.400,302.800 80.400 C 303.020 80.400,303.200 80.148,303.200 79.841 C 303.200 79.533,303.740 78.255,304.400 77.000 C 305.060 75.745,305.600 74.467,305.600 74.159 C 305.600 73.852,305.780 73.600,306.000 73.600 C 306.220 73.600,306.400 73.361,306.400 73.068 C 306.400 72.775,306.849 71.650,307.398 70.568 C 307.947 69.486,308.397 68.319,308.398 67.976 C 308.399 67.634,308.664 67.004,308.987 66.576 C 309.310 66.149,309.580 65.485,309.587 65.100 C 309.594 64.715,309.791 64.400,310.024 64.400 C 310.257 64.400,310.356 64.252,310.244 64.071 C 310.132 63.891,310.302 63.240,310.620 62.626 C 310.939 62.011,311.200 61.259,311.200 60.954 C 311.200 60.649,311.392 60.400,311.627 60.400 C 311.864 60.400,311.947 60.063,311.813 59.642 C 311.675 59.207,311.834 58.623,312.186 58.271 C 312.524 57.933,312.800 57.284,312.800 56.829 C 312.800 56.308,313.061 55.998,313.500 55.994 C 313.895 55.990,314.026 55.860,313.800 55.694 C 313.130 55.202,313.350 53.821,314.122 53.672 C 314.683 53.564,314.742 53.412,314.388 52.986 C 313.908 52.408,314.212 50.800,314.800 50.800 C 314.991 50.800,315.065 50.346,314.964 49.791 C 314.844 49.130,314.990 48.702,315.388 48.549 C 315.802 48.390,315.918 48.012,315.752 47.353 C 315.613 46.798,315.736 46.118,316.041 45.750 C 316.333 45.398,316.520 44.501,316.455 43.755 C 316.372 42.788,316.504 42.400,316.915 42.400 C 317.322 42.400,317.478 41.960,317.446 40.900 C 317.420 40.042,317.581 39.432,317.824 39.475 C 318.075 39.519,318.237 38.786,318.224 37.675 C 318.209 36.553,318.372 35.830,318.627 35.876 C 318.881 35.921,318.985 35.476,318.883 34.781 C 318.684 33.429,319.088 31.483,319.512 31.746 C 319.670 31.844,319.740 30.997,319.666 29.862 C 319.549 28.071,319.602 27.893,320.066 28.507 C 320.538 29.132,320.609 28.992,320.675 27.307 C 320.716 26.258,320.936 24.050,321.164 22.400 C 321.824 17.631,322.399 11.032,322.656 5.300 L 322.893 0.000 310.846 0.000 L 298.800 0.000 298.792 3.100 M77.324 2.600 C 77.326 3.920,77.401 4.412,77.490 3.693 C 77.579 2.974,77.577 1.894,77.486 1.293 C 77.395 0.692,77.322 1.280,77.324 2.600 M78.093 13.200 C 78.093 13.970,78.175 14.285,78.276 13.900 C 78.376 13.515,78.376 12.885,78.276 12.500 C 78.175 12.115,78.093 12.430,78.093 13.200 M79.656 24.800 C 79.656 25.130,79.811 25.760,80.000 26.200 C 80.217 26.704,80.344 26.778,80.344 26.400 C 80.344 26.070,80.189 25.440,80.000 25.000 C 79.783 24.496,79.656 24.422,79.656 24.800 M64.900 281.487 C 65.505 281.578,66.495 281.578,67.100 281.487 C 67.705 281.395,67.210 281.320,66.000 281.320 C 64.790 281.320,64.295 281.395,64.900 281.487 M332.905 281.487 C 333.514 281.579,334.414 281.577,334.905 281.482 C 335.397 281.387,334.900 281.311,333.800 281.314 C 332.700 281.317,332.297 281.395,332.905 281.487 M60.114 287.000 C 60.117 288.100,60.195 288.503,60.287 287.895 C 60.379 287.286,60.377 286.386,60.282 285.895 C 60.187 285.403,60.111 285.900,60.114 287.000 M138.100 302.276 C 138.485 302.376,139.115 302.376,139.500 302.276 C 139.885 302.175,139.570 302.093,138.800 302.093 C 138.030 302.093,137.715 302.175,138.100 302.276 M260.500 302.276 C 260.885 302.376,261.515 302.376,261.900 302.276 C 262.285 302.175,261.970 302.093,261.200 302.093 C 260.430 302.093,260.115 302.175,260.500 302.276 M144.100 303.076 C 144.485 303.176,145.115 303.176,145.500 303.076 C 145.885 302.975,145.570 302.893,144.800 302.893 C 144.030 302.893,143.715 302.975,144.100 303.076 M254.100 303.076 C 254.485 303.176,255.115 303.176,255.500 303.076 C 255.885 302.975,255.570 302.893,254.800 302.893 C 254.030 302.893,253.715 302.975,254.100 303.076 M150.500 303.876 C 150.885 303.976,151.515 303.976,151.900 303.876 C 152.285 303.775,151.970 303.693,151.200 303.693 C 150.430 303.693,150.115 303.775,150.500 303.876 M228.575 310.500 L 227.400 311.800 228.700 310.625 C 229.415 309.979,230.000 309.394,230.000 309.325 C 230.000 309.016,229.670 309.288,228.575 310.500 " stroke="none" fill="#fb9c7c" fill-rule="evenodd"></path><path id="path3" d="M77.693 1.200 C 77.693 1.970,77.775 2.285,77.876 1.900 C 77.976 1.515,77.976 0.885,77.876 0.500 C 77.775 0.115,77.693 0.430,77.693 1.200 M298.441 0.000 C 298.377 0.110,298.076 3.980,297.770 8.600 C 297.132 18.269,296.370 24.914,295.224 30.800 C 293.871 37.754,293.167 40.862,291.825 45.800 C 290.067 52.270,284.892 67.383,284.018 68.600 C 283.860 68.820,283.303 70.080,282.780 71.400 C 281.651 74.249,276.934 83.613,274.215 88.400 C 272.536 91.357,249.386 126.664,248.775 127.200 C 248.650 127.310,247.959 128.265,247.239 129.322 C 240.157 139.729,221.577 150.800,211.194 150.800 C 208.927 150.800,210.008 151.537,212.700 151.827 C 216.284 152.213,233.213 151.754,236.000 151.195 C 241.600 150.071,247.823 148.179,250.327 146.839 C 250.778 146.598,251.271 146.400,251.423 146.400 C 251.574 146.400,251.586 149.775,251.450 153.900 C 250.208 191.543,250.828 200.730,255.439 213.069 C 261.580 229.501,276.598 243.820,296.800 252.505 C 297.570 252.836,299.010 253.467,300.000 253.907 C 301.756 254.688,308.787 257.104,314.000 258.718 C 318.085 259.983,327.471 262.201,336.200 263.966 C 343.686 265.478,345.790 265.915,349.800 266.787 C 350.680 266.978,352.480 267.343,353.800 267.597 C 365.012 269.757,372.013 275.694,374.933 285.518 C 375.240 286.551,375.439 304.165,375.591 343.600 L 375.808 400.200 375.904 343.324 C 375.967 305.734,375.864 286.363,375.600 286.200 C 375.380 286.064,375.200 285.511,375.200 284.971 C 375.200 284.431,375.041 283.677,374.847 283.295 C 374.652 282.913,374.252 282.060,373.957 281.400 C 372.988 279.228,370.538 275.832,368.552 273.907 C 364.065 269.557,361.219 268.376,350.000 266.206 C 345.930 265.418,341.880 264.614,341.000 264.419 C 340.120 264.224,338.320 263.856,337.000 263.600 C 335.680 263.344,333.880 262.978,333.000 262.787 C 332.120 262.596,330.410 262.230,329.200 261.975 C 327.990 261.719,326.587 261.350,326.081 261.155 C 325.576 260.960,324.641 260.800,324.005 260.800 C 323.368 260.800,322.736 260.620,322.600 260.400 C 322.464 260.180,321.744 260.000,321.000 260.000 C 320.256 260.000,319.536 259.820,319.400 259.600 C 319.264 259.380,318.771 259.200,318.305 259.200 C 317.404 259.200,315.061 258.535,313.905 257.951 C 313.523 257.758,312.769 257.600,312.229 257.600 C 311.689 257.600,311.136 257.420,311.000 257.200 C 310.864 256.980,310.324 256.800,309.800 256.800 C 309.276 256.800,308.736 256.620,308.600 256.400 C 308.464 256.180,307.949 256.000,307.456 256.000 C 306.963 256.000,306.389 255.851,306.180 255.670 C 305.971 255.488,304.990 255.095,304.000 254.798 C 303.010 254.500,302.020 254.138,301.800 253.993 C 301.580 253.849,300.320 253.305,299.000 252.785 C 296.364 251.747,288.416 247.819,285.646 246.185 C 283.588 244.972,277.890 241.174,277.600 240.822 C 277.490 240.688,276.590 239.966,275.600 239.217 C 272.676 237.005,265.924 230.019,263.792 227.000 C 262.705 225.460,261.677 224.140,261.507 224.067 C 261.338 223.993,261.200 223.756,261.200 223.539 C 261.200 223.322,260.698 222.392,260.084 221.472 C 259.041 219.908,257.478 216.825,256.803 215.000 C 256.640 214.560,256.303 213.705,256.054 213.100 C 254.902 210.307,254.784 209.930,253.624 205.300 C 253.139 203.364,252.567 199.956,251.929 195.200 C 251.288 190.425,251.385 167.585,252.101 154.689 L 252.607 145.579 251.403 145.836 C 250.742 145.977,250.020 146.233,249.800 146.405 C 249.218 146.859,242.563 149.159,240.426 149.645 C 235.032 150.871,231.396 151.185,222.800 151.171 L 213.800 151.156 216.779 150.376 C 226.573 147.812,234.220 143.500,241.922 136.200 C 245.740 132.581,247.036 130.814,259.383 112.400 C 268.849 98.282,271.560 94.121,273.650 90.500 C 274.062 89.785,274.794 88.525,275.276 87.700 C 278.225 82.649,283.996 70.472,286.414 64.200 C 287.612 61.091,288.526 58.471,289.624 55.000 C 290.320 52.800,291.049 50.687,291.245 50.305 C 291.440 49.923,291.600 49.169,291.600 48.629 C 291.600 48.089,291.780 47.536,292.000 47.400 C 292.220 47.264,292.400 46.634,292.400 46.000 C 292.400 45.366,292.580 44.736,292.800 44.600 C 293.020 44.464,293.200 43.744,293.200 43.000 C 293.200 42.256,293.361 41.548,293.558 41.426 C 293.755 41.305,294.012 40.529,294.130 39.703 C 294.247 38.876,294.552 37.210,294.807 36.000 C 296.625 27.368,297.147 23.708,298.210 12.156 C 298.734 6.452,298.871 -0.743,298.441 0.000 M78.137 6.200 C 78.139 7.960,78.209 8.630,78.293 7.689 C 78.378 6.749,78.377 5.309,78.291 4.489 C 78.205 3.670,78.136 4.440,78.137 6.200 M78.901 15.400 C 78.905 16.280,78.987 16.593,79.083 16.095 C 79.179 15.598,79.175 14.878,79.075 14.495 C 78.975 14.113,78.896 14.520,78.901 15.400 M79.693 21.600 C 79.693 22.370,79.775 22.685,79.876 22.300 C 79.976 21.915,79.976 21.285,79.876 20.900 C 79.775 20.515,79.693 20.830,79.693 21.600 M80.509 26.800 C 80.509 27.790,80.587 28.195,80.682 27.700 C 80.778 27.205,80.778 26.395,80.682 25.900 C 80.587 25.405,80.509 25.810,80.509 26.800 M319.456 29.869 C 318.985 33.914,318.706 35.412,318.359 35.780 C 317.884 36.283,317.896 38.800,318.373 38.800 C 318.886 38.800,319.228 37.582,319.019 36.498 C 318.924 36.004,319.026 35.600,319.247 35.600 C 319.467 35.600,319.536 35.420,319.400 35.200 C 319.264 34.980,319.321 34.800,319.527 34.800 C 319.733 34.800,319.891 34.084,319.878 33.209 C 319.865 32.335,320.089 31.181,320.376 30.646 C 320.813 29.828,320.799 29.534,320.289 28.805 C 319.703 27.970,319.673 28.008,319.456 29.869 M317.354 39.776 C 317.222 40.120,317.227 40.851,317.364 41.401 C 317.549 42.138,317.456 42.400,317.008 42.400 C 316.232 42.400,316.173 44.627,316.940 44.922 C 317.312 45.064,317.490 44.774,317.513 43.989 C 317.530 43.363,317.737 42.491,317.973 42.051 C 318.511 41.045,318.524 39.724,317.997 39.398 C 317.776 39.261,317.486 39.431,317.354 39.776 M316.016 45.781 C 315.440 46.474,315.600 47.667,316.300 47.900 C 316.638 48.013,316.800 47.602,316.800 46.633 C 316.800 45.037,316.712 44.942,316.016 45.781 M315.048 48.723 C 314.938 48.900,314.899 49.392,314.961 49.815 C 315.023 50.237,314.823 50.834,314.517 51.140 C 313.891 51.767,313.966 52.856,314.652 53.084 C 314.901 53.167,315.216 52.687,315.352 52.017 C 315.488 51.348,315.710 50.260,315.845 49.600 C 316.073 48.487,315.549 47.911,315.048 48.723 M313.567 53.700 C 313.280 54.561,313.444 55.600,313.867 55.600 C 314.169 55.600,314.400 55.166,314.400 54.600 C 314.400 53.833,313.755 53.136,313.567 53.700 M312.800 57.000 C 312.800 57.550,312.639 58.000,312.443 58.000 C 311.880 58.000,311.531 59.291,311.974 59.734 C 312.240 60.000,312.455 59.878,312.616 59.367 C 312.749 58.945,313.025 58.287,313.229 57.905 C 313.717 56.991,313.702 56.000,313.200 56.000 C 312.980 56.000,312.800 56.450,312.800 57.000 M311.200 60.954 C 311.200 61.259,310.939 62.011,310.620 62.626 C 310.041 63.743,310.116 64.400,310.824 64.400 C 311.031 64.400,311.200 63.860,311.200 63.200 C 311.200 62.540,311.380 62.000,311.600 62.000 C 311.820 62.000,312.000 61.640,312.000 61.200 C 312.000 60.760,311.820 60.400,311.600 60.400 C 311.380 60.400,311.200 60.649,311.200 60.954 M309.587 65.100 C 309.580 65.485,309.310 66.149,308.987 66.576 C 308.664 67.004,308.399 67.634,308.398 67.976 C 308.397 68.319,307.947 69.486,307.398 70.568 C 306.849 71.650,306.400 72.775,306.400 73.068 C 306.400 73.361,306.220 73.600,306.000 73.600 C 305.780 73.600,305.600 73.852,305.600 74.159 C 305.600 74.467,305.060 75.745,304.400 77.000 C 303.740 78.255,303.200 79.533,303.200 79.841 C 303.200 80.148,303.020 80.400,302.800 80.400 C 302.580 80.400,302.400 80.760,302.400 81.200 C 302.400 81.640,302.220 82.000,302.000 82.000 C 301.780 82.000,301.600 82.172,301.600 82.382 C 301.600 82.593,301.065 83.673,300.410 84.782 C 299.756 85.892,299.351 86.806,299.510 86.813 C 299.670 86.820,299.516 87.045,299.169 87.313 C 298.822 87.581,298.203 88.565,297.792 89.500 C 297.382 90.435,296.913 91.200,296.751 91.200 C 296.589 91.200,296.038 92.055,295.528 93.100 C 295.018 94.145,294.410 95.180,294.177 95.400 C 293.512 96.029,291.600 99.139,291.600 99.591 C 291.600 99.816,291.420 100.000,291.200 100.000 C 290.980 100.000,290.800 100.236,290.800 100.525 C 290.800 100.813,290.440 101.436,290.000 101.908 C 289.560 102.380,289.200 102.954,289.200 103.183 C 289.200 103.412,289.020 103.600,288.800 103.600 C 288.580 103.600,288.393 103.825,288.384 104.100 C 288.375 104.375,287.835 105.223,287.184 105.985 C 286.533 106.747,286.000 107.602,286.000 107.885 C 286.000 108.168,285.850 108.400,285.668 108.400 C 285.485 108.400,285.080 108.895,284.768 109.500 C 284.456 110.105,284.099 110.690,283.974 110.800 C 283.445 111.266,281.200 114.777,281.200 115.139 C 281.200 115.356,281.058 115.593,280.884 115.667 C 279.782 116.131,278.083 119.571,278.707 120.076 C 279.063 120.365,279.231 120.396,279.081 120.145 C 278.931 119.895,279.077 119.468,279.404 119.196 C 279.732 118.924,280.000 118.456,280.000 118.154 C 280.000 117.853,280.360 117.382,280.800 117.107 C 281.240 116.832,281.601 116.336,281.602 116.004 C 281.603 115.672,282.143 114.825,282.802 114.122 C 283.461 113.419,284.000 112.654,284.000 112.422 C 284.000 112.190,284.180 112.000,284.400 112.000 C 284.620 112.000,284.800 111.764,284.800 111.475 C 284.800 111.187,285.205 110.516,285.700 109.985 C 286.195 109.453,286.521 109.015,286.425 109.009 C 286.205 108.998,287.617 106.780,288.298 106.068 C 288.578 105.775,288.705 105.370,288.580 105.168 C 288.455 104.965,288.644 104.800,289.000 104.800 C 289.356 104.800,289.536 104.620,289.400 104.400 C 289.264 104.180,289.343 104.000,289.576 104.000 C 289.809 104.000,290.000 103.730,290.000 103.400 C 290.000 103.070,290.158 102.800,290.351 102.800 C 290.545 102.800,290.927 102.260,291.200 101.600 C 291.473 100.940,291.855 100.400,292.049 100.400 C 292.242 100.400,292.400 100.122,292.400 99.783 C 292.400 99.443,292.858 98.678,293.419 98.083 C 293.979 97.487,294.737 96.370,295.104 95.600 C 295.470 94.830,296.003 93.960,296.289 93.668 C 296.574 93.375,296.725 93.003,296.625 92.841 C 296.525 92.678,296.793 92.293,297.221 91.985 C 297.650 91.676,298.000 91.103,298.000 90.712 C 298.000 90.320,298.180 90.000,298.400 90.000 C 298.620 90.000,298.800 89.836,298.800 89.636 C 298.800 89.436,299.285 88.531,299.878 87.625 C 300.471 86.719,300.999 85.686,301.052 85.329 C 301.104 84.972,301.308 84.572,301.505 84.440 C 301.703 84.308,302.119 83.615,302.430 82.900 C 302.741 82.185,303.131 81.600,303.298 81.600 C 303.464 81.600,303.600 81.347,303.600 81.038 C 303.600 80.383,305.235 77.120,305.751 76.745 C 305.944 76.604,305.986 76.302,305.845 76.072 C 305.703 75.843,305.770 75.542,305.993 75.404 C 306.217 75.266,306.400 74.803,306.400 74.376 C 306.400 73.949,306.536 73.600,306.702 73.600 C 307.019 73.600,307.573 72.422,308.443 69.900 C 308.728 69.075,309.105 68.400,309.280 68.400 C 309.456 68.400,309.600 67.939,309.600 67.376 C 309.600 66.796,309.773 66.460,310.000 66.600 C 310.233 66.744,310.400 66.337,310.400 65.624 C 310.400 64.361,309.610 63.852,309.587 65.100 M277.169 120.764 C 276.305 121.720,275.940 122.781,276.286 123.336 C 276.444 123.591,276.593 126.325,276.617 129.411 C 276.685 138.251,277.474 138.036,277.567 129.152 C 277.609 125.108,277.813 121.629,278.022 121.420 C 278.472 120.968,278.527 119.986,278.100 120.033 C 277.935 120.052,277.516 120.380,277.169 120.764 M275.951 142.500 C 275.758 149.217,275.944 155.600,276.332 155.600 C 276.514 155.600,276.704 152.270,276.754 148.200 C 276.816 143.212,276.707 140.800,276.423 140.800 C 276.190 140.800,275.978 141.565,275.951 142.500 M275.435 159.943 C 275.318 160.132,275.210 163.147,275.195 166.643 C 275.154 176.091,275.226 178.031,275.604 177.797 C 275.952 177.582,276.180 159.600,275.835 159.600 C 275.732 159.600,275.552 159.754,275.435 159.943 M275.200 180.553 C 275.200 180.883,275.380 181.264,275.600 181.400 C 275.820 181.536,276.000 181.377,276.000 181.047 C 276.000 180.717,275.820 180.336,275.600 180.200 C 275.380 180.064,275.200 180.223,275.200 180.553 M275.208 184.900 C 275.189 186.495,275.161 188.430,275.147 189.200 C 275.083 192.765,275.233 194.400,275.626 194.400 C 275.913 194.400,276.011 192.393,275.926 188.200 C 275.800 181.944,275.275 179.529,275.208 184.900 M275.988 196.200 C 275.866 198.324,276.056 200.190,276.433 200.580 C 276.902 201.065,276.873 196.901,276.400 195.800 C 276.101 195.104,276.047 195.156,275.988 196.200 M276.883 201.838 C 276.468 202.579,276.727 204.400,277.247 204.400 C 277.441 204.400,277.600 203.680,277.600 202.800 C 277.600 201.067,277.437 200.848,276.883 201.838 M277.476 206.030 C 277.346 206.527,277.538 207.138,277.956 207.556 C 278.489 208.089,278.553 208.415,278.227 208.938 C 277.904 209.457,277.946 209.714,278.400 210.001 C 278.880 210.303,279.026 210.123,279.132 209.100 C 279.205 208.397,279.070 207.757,278.832 207.677 C 278.594 207.598,278.400 207.008,278.400 206.367 C 278.400 205.023,277.797 204.803,277.476 206.030 M279.245 210.940 C 278.767 211.520,278.782 211.717,279.346 212.340 C 279.707 212.739,279.901 213.166,279.778 213.289 C 279.523 213.544,281.075 217.095,281.837 218.000 C 282.115 218.330,282.372 218.731,282.407 218.891 C 282.696 220.216,282.939 220.800,283.200 220.800 C 283.369 220.800,283.607 221.115,283.729 221.500 C 284.017 222.409,285.212 224.353,286.100 225.358 C 286.485 225.794,286.800 226.305,286.800 226.493 C 286.800 227.145,288.717 228.899,289.142 228.636 C 289.534 228.393,288.958 227.496,287.319 225.794 C 287.055 225.520,286.950 225.184,287.086 225.048 C 287.222 224.911,287.144 224.800,286.913 224.800 C 286.682 224.800,286.383 224.485,286.248 224.100 C 286.020 223.452,284.557 221.245,283.607 220.117 C 283.383 219.851,283.200 219.288,283.200 218.866 C 283.200 218.444,282.935 217.878,282.611 217.609 C 282.286 217.340,281.906 216.508,281.766 215.760 C 281.626 215.012,281.351 214.400,281.155 214.400 C 280.960 214.400,280.800 214.040,280.800 213.600 C 280.800 213.160,280.631 212.800,280.425 212.800 C 280.219 212.800,279.994 212.230,279.925 211.533 C 279.812 210.389,279.746 210.332,279.245 210.940 M289.206 229.100 C 289.233 230.417,297.664 238.691,301.600 241.263 C 302.150 241.622,302.960 242.250,303.400 242.658 C 303.840 243.066,304.740 243.670,305.400 244.000 C 306.060 244.330,306.949 244.915,307.375 245.300 C 307.802 245.685,308.387 246.000,308.675 246.000 C 308.964 246.000,309.200 246.146,309.200 246.325 C 309.200 246.504,309.830 246.898,310.600 247.200 C 311.370 247.502,312.000 247.862,312.000 248.000 C 312.000 248.138,312.630 248.498,313.400 248.800 C 314.170 249.102,314.800 249.496,314.800 249.675 C 314.800 249.854,315.060 250.000,315.377 250.000 C 315.695 250.000,316.595 250.378,317.377 250.840 C 318.160 251.301,318.800 251.543,318.800 251.378 C 318.800 251.212,319.115 251.347,319.500 251.677 C 320.213 252.290,321.354 252.831,322.360 253.034 C 322.668 253.096,323.042 253.345,323.192 253.587 C 323.342 253.829,323.746 253.919,324.092 253.786 C 324.437 253.654,324.838 253.738,324.983 253.973 C 325.317 254.513,326.800 254.535,326.800 254.000 C 326.800 253.780,326.440 253.600,326.000 253.600 C 325.560 253.600,325.200 253.459,325.200 253.287 C 325.200 253.115,324.705 252.934,324.100 252.884 C 323.495 252.834,322.940 252.615,322.867 252.397 C 322.793 252.178,322.381 252.000,321.950 252.000 C 321.519 252.000,320.780 251.640,320.308 251.200 C 319.836 250.760,319.123 250.400,318.725 250.400 C 318.326 250.400,317.999 250.265,317.997 250.100 C 317.993 249.741,316.056 248.800,315.320 248.800 C 315.034 248.800,314.800 248.641,314.800 248.447 C 314.800 248.089,313.502 247.536,312.400 247.424 C 312.070 247.390,311.845 247.146,311.900 246.881 C 311.955 246.617,311.653 246.400,311.229 246.400 C 310.804 246.400,310.208 246.151,309.903 245.846 C 309.599 245.542,308.641 244.931,307.775 244.489 C 306.909 244.047,305.857 243.306,305.438 242.843 C 305.019 242.379,304.436 242.000,304.143 242.000 C 303.535 242.000,302.649 241.319,300.110 238.900 C 299.129 237.965,298.062 237.200,297.740 237.200 C 297.417 237.200,297.264 237.020,297.400 236.800 C 297.536 236.580,297.442 236.400,297.191 236.400 C 296.648 236.400,290.000 229.725,290.000 229.179 C 290.000 228.970,289.820 228.800,289.600 228.800 C 289.380 228.800,289.203 228.935,289.206 229.100 M326.996 254.806 C 326.862 255.023,327.013 255.200,327.331 255.200 C 327.649 255.200,328.411 255.461,329.026 255.780 C 330.143 256.359,330.800 256.284,330.800 255.576 C 330.800 255.369,330.339 255.200,329.776 255.200 C 329.213 255.200,328.840 255.058,328.948 254.885 C 329.055 254.712,328.714 254.534,328.191 254.491 C 327.668 254.448,327.130 254.589,326.996 254.806 M331.484 256.275 C 331.595 256.564,332.116 256.800,332.643 256.800 C 333.169 256.800,333.600 256.980,333.600 257.200 C 333.600 257.420,334.140 257.600,334.800 257.600 C 335.460 257.600,336.000 257.420,336.000 257.200 C 336.000 256.980,335.460 256.800,334.800 256.800 C 334.140 256.800,333.600 256.640,333.600 256.445 C 333.600 256.250,333.079 256.014,332.441 255.921 C 331.603 255.798,331.339 255.896,331.484 256.275 M336.400 258.000 C 336.400 258.220,336.839 258.400,337.376 258.400 C 337.913 258.400,338.464 258.220,338.600 258.000 C 338.744 257.767,338.337 257.600,337.624 257.600 C 336.951 257.600,336.400 257.780,336.400 258.000 M339.000 258.736 C 339.578 259.310,340.607 259.467,340.724 259.000 C 340.780 258.780,340.324 258.541,339.712 258.469 C 338.974 258.382,338.735 258.472,339.000 258.736 M341.600 259.611 C 341.600 259.922,342.150 260.032,343.200 259.931 C 344.311 259.826,344.800 259.935,344.800 260.289 C 344.800 260.618,345.369 260.800,346.400 260.800 C 347.280 260.800,348.000 260.980,348.000 261.200 C 348.000 261.420,348.720 261.600,349.600 261.600 C 350.480 261.600,351.200 261.794,351.200 262.031 C 351.200 262.285,351.852 262.414,352.795 262.346 C 353.673 262.283,354.609 262.449,354.875 262.715 C 355.142 262.982,355.999 263.186,356.780 263.168 C 357.561 263.151,357.974 263.046,357.698 262.934 C 357.421 262.823,357.268 262.612,357.357 262.466 C 357.446 262.320,356.895 262.167,356.133 262.127 C 355.370 262.086,354.533 261.883,354.273 261.674 C 353.869 261.351,351.128 260.862,348.700 260.681 C 348.315 260.652,348.000 260.477,348.000 260.291 C 348.000 260.105,347.832 260.056,347.628 260.183 C 347.423 260.309,347.147 260.238,347.015 260.024 C 346.883 259.810,346.508 259.737,346.182 259.862 C 345.856 259.987,345.367 259.923,345.095 259.719 C 344.326 259.144,341.600 259.060,341.600 259.611 M358.694 263.502 C 358.836 263.870,359.427 264.016,360.476 263.940 C 361.439 263.871,362.170 264.027,362.366 264.345 C 362.759 264.981,364.875 264.791,365.102 264.100 C 365.216 263.756,364.766 263.600,363.657 263.600 C 362.772 263.600,361.949 263.441,361.828 263.246 C 361.445 262.626,358.452 262.870,358.694 263.502 M366.024 264.844 C 366.326 265.410,366.872 265.600,368.190 265.600 C 369.160 265.600,370.064 265.780,370.200 266.000 C 370.576 266.609,373.200 266.499,373.200 265.875 C 373.200 265.528,372.553 265.317,371.300 265.253 C 370.255 265.200,369.340 264.986,369.266 264.776 C 369.192 264.566,369.002 264.475,368.844 264.573 C 368.685 264.671,367.895 264.602,367.088 264.420 C 365.727 264.113,365.649 264.144,366.024 264.844 M374.088 266.471 C 374.183 266.762,374.852 267.058,375.574 267.129 C 376.521 267.221,376.837 267.110,376.712 266.729 C 376.617 266.438,375.948 266.142,375.226 266.071 C 374.279 265.979,373.963 266.090,374.088 266.471 M378.100 267.300 C 378.192 267.575,378.777 267.800,379.400 267.800 C 380.023 267.800,380.608 267.575,380.700 267.300 C 380.813 266.961,380.396 266.800,379.400 266.800 C 378.404 266.800,377.987 266.961,378.100 267.300 M381.433 267.947 C 381.308 268.149,381.640 268.424,382.171 268.557 C 383.170 268.808,384.400 268.522,384.400 268.039 C 384.400 267.615,381.690 267.530,381.433 267.947 M384.800 268.757 C 384.800 268.954,385.085 269.224,385.433 269.357 C 386.556 269.788,387.600 269.616,387.600 269.000 C 387.600 268.581,387.178 268.400,386.200 268.400 C 385.430 268.400,384.800 268.561,384.800 268.757 M388.576 269.813 C 389.509 270.518,390.251 270.564,390.637 269.939 C 390.839 269.613,391.057 269.663,391.386 270.113 C 392.018 270.978,394.174 271.525,393.921 270.756 C 393.820 270.450,393.301 270.140,392.769 270.066 C 392.236 269.993,391.629 269.768,391.420 269.566 C 391.211 269.365,390.311 269.206,389.420 269.213 C 387.909 269.225,387.852 269.265,388.576 269.813 M394.900 271.300 C 395.128 271.986,396.800 272.026,396.800 271.345 C 396.800 271.026,396.373 270.800,395.767 270.800 C 395.118 270.800,394.795 270.986,394.900 271.300 M397.597 272.196 C 397.868 272.523,398.251 272.692,398.446 272.572 C 398.642 272.451,399.009 272.858,399.264 273.476 C 399.614 274.329,399.765 274.436,399.888 273.921 C 400.149 272.829,399.354 271.787,398.186 271.691 C 397.268 271.615,397.178 271.692,397.597 272.196 M64.900 281.076 C 65.285 281.176,65.915 281.176,66.300 281.076 C 66.685 280.975,66.370 280.893,65.600 280.893 C 64.830 280.893,64.515 280.975,64.900 281.076 M333.105 281.083 C 333.602 281.179,334.322 281.175,334.705 281.075 C 335.087 280.975,334.680 280.896,333.800 280.901 C 332.920 280.905,332.607 280.987,333.105 281.083 M321.000 282.400 C 319.930 282.672,319.908 282.705,320.800 282.705 C 321.350 282.705,322.340 282.568,323.000 282.400 C 324.070 282.128,324.092 282.095,323.200 282.095 C 322.650 282.095,321.660 282.232,321.000 282.400 M84.500 283.476 C 84.885 283.576,85.515 283.576,85.900 283.476 C 86.285 283.375,85.970 283.293,85.200 283.293 C 84.430 283.293,84.115 283.375,84.500 283.476 M313.700 283.476 C 314.085 283.576,314.715 283.576,315.100 283.476 C 315.485 283.375,315.170 283.293,314.400 283.293 C 313.630 283.293,313.315 283.375,313.700 283.476 M90.705 284.283 C 91.202 284.379,91.922 284.375,92.305 284.275 C 92.687 284.175,92.280 284.096,91.400 284.101 C 90.520 284.105,90.207 284.187,90.705 284.283 M307.505 284.283 C 308.002 284.379,308.722 284.375,309.105 284.275 C 309.487 284.175,309.080 284.096,308.200 284.101 C 307.320 284.105,307.007 284.187,307.505 284.283 M97.105 285.083 C 97.602 285.179,98.322 285.175,98.705 285.075 C 99.087 284.975,98.680 284.896,97.800 284.901 C 96.920 284.905,96.607 284.987,97.105 285.083 M301.300 285.076 C 301.685 285.176,302.315 285.176,302.700 285.076 C 303.085 284.975,302.770 284.893,302.000 284.893 C 301.230 284.893,300.915 284.975,301.300 285.076 M59.358 286.225 C 59.216 286.789,59.258 287.603,59.450 288.034 C 59.718 288.633,59.809 288.391,59.838 287.009 C 59.882 284.965,59.734 284.725,59.358 286.225 M103.105 285.883 C 103.602 285.979,104.322 285.975,104.705 285.875 C 105.087 285.775,104.680 285.696,103.800 285.701 C 102.920 285.705,102.607 285.787,103.105 285.883 M295.100 285.882 C 295.595 285.978,296.405 285.978,296.900 285.882 C 297.395 285.787,296.990 285.709,296.000 285.709 C 295.010 285.709,294.605 285.787,295.100 285.882 M109.505 286.683 C 110.002 286.779,110.722 286.775,111.105 286.675 C 111.487 286.575,111.080 286.496,110.200 286.501 C 109.320 286.505,109.007 286.587,109.505 286.683 M288.705 286.683 C 289.202 286.779,289.922 286.775,290.305 286.675 C 290.687 286.575,290.280 286.496,289.400 286.501 C 288.520 286.505,288.207 286.587,288.705 286.683 M115.905 287.483 C 116.402 287.579,117.122 287.575,117.505 287.475 C 117.887 287.375,117.480 287.296,116.600 287.301 C 115.720 287.305,115.407 287.387,115.905 287.483 M282.705 287.483 C 283.202 287.579,283.922 287.575,284.305 287.475 C 284.687 287.375,284.280 287.296,283.400 287.301 C 282.520 287.305,282.207 287.387,282.705 287.483 M121.905 288.283 C 122.402 288.379,123.122 288.375,123.505 288.275 C 123.887 288.175,123.480 288.096,122.600 288.101 C 121.720 288.105,121.407 288.187,121.905 288.283 M276.305 288.283 C 276.802 288.379,277.522 288.375,277.905 288.275 C 278.287 288.175,277.880 288.096,277.000 288.101 C 276.120 288.105,275.807 288.187,276.305 288.283 M128.305 289.083 C 128.802 289.179,129.522 289.175,129.905 289.075 C 130.287 288.975,129.880 288.896,129.000 288.901 C 128.120 288.905,127.807 288.987,128.305 289.083 M268.600 289.203 C 268.085 289.426,268.513 289.467,269.800 289.318 C 270.900 289.191,271.875 289.023,271.967 288.944 C 272.314 288.645,269.364 288.872,268.600 289.203 M134.305 289.883 C 134.802 289.979,135.522 289.975,135.905 289.875 C 136.287 289.775,135.880 289.696,135.000 289.701 C 134.120 289.705,133.807 289.787,134.305 289.883 M262.600 289.996 C 262.102 290.208,262.631 290.251,264.000 290.112 C 265.210 289.989,266.275 289.823,266.367 289.744 C 266.711 289.447,263.367 289.670,262.600 289.996 M140.305 290.683 C 140.802 290.779,141.522 290.775,141.905 290.675 C 142.287 290.575,141.880 290.496,141.000 290.501 C 140.120 290.505,139.807 290.587,140.305 290.683 M256.600 290.810 C 256.066 291.047,256.398 291.086,257.600 290.927 C 258.590 290.796,259.475 290.624,259.567 290.544 C 259.914 290.243,257.364 290.472,256.600 290.810 M146.433 291.344 C 146.525 291.424,147.410 291.596,148.400 291.727 C 149.602 291.886,149.934 291.847,149.400 291.610 C 148.636 291.272,146.086 291.043,146.433 291.344 M251.700 291.476 C 252.085 291.576,252.715 291.576,253.100 291.476 C 253.485 291.375,253.170 291.293,252.400 291.293 C 251.630 291.293,251.315 291.375,251.700 291.476 M152.433 292.144 C 152.525 292.224,153.410 292.396,154.400 292.527 C 155.602 292.686,155.934 292.647,155.400 292.410 C 154.636 292.072,152.086 291.843,152.433 292.144 M244.200 292.410 C 243.666 292.647,243.998 292.686,245.200 292.527 C 246.190 292.396,247.075 292.224,247.167 292.144 C 247.514 291.843,244.964 292.072,244.200 292.410 M63.600 292.782 C 63.930 293.005,64.545 293.191,64.967 293.194 C 65.990 293.202,65.671 292.973,64.200 292.644 C 63.324 292.448,63.162 292.485,63.600 292.782 M158.033 292.943 C 158.125 293.021,158.830 293.201,159.600 293.342 C 160.585 293.523,160.822 293.482,160.400 293.206 C 159.858 292.850,157.637 292.603,158.033 292.943 M239.200 293.218 C 238.762 293.515,238.924 293.552,239.800 293.356 C 241.271 293.027,241.590 292.798,240.567 292.806 C 240.145 292.809,239.530 292.995,239.200 293.218 M69.700 293.876 C 70.085 293.976,70.715 293.976,71.100 293.876 C 71.485 293.775,71.170 293.693,70.400 293.693 C 69.630 293.693,69.315 293.775,69.700 293.876 M328.500 293.876 C 328.885 293.976,329.515 293.976,329.900 293.876 C 330.285 293.775,329.970 293.693,329.200 293.693 C 328.430 293.693,328.115 293.775,328.500 293.876 M75.905 294.683 C 76.402 294.779,77.122 294.775,77.505 294.675 C 77.887 294.575,77.480 294.496,76.600 294.501 C 75.720 294.505,75.407 294.587,75.905 294.683 M322.305 294.683 C 322.802 294.779,323.522 294.775,323.905 294.675 C 324.287 294.575,323.880 294.496,323.000 294.501 C 322.120 294.505,321.807 294.587,322.305 294.683 M316.800 295.200 L 315.000 295.480 316.600 295.500 C 317.480 295.511,318.650 295.376,319.200 295.200 C 320.463 294.795,319.402 294.795,316.800 295.200 M82.105 295.487 C 82.714 295.579,83.614 295.577,84.105 295.482 C 84.597 295.387,84.100 295.311,83.000 295.314 C 81.900 295.317,81.497 295.395,82.105 295.487 M88.300 296.282 C 88.795 296.378,89.605 296.378,90.100 296.282 C 90.595 296.187,90.190 296.109,89.200 296.109 C 88.210 296.109,87.805 296.187,88.300 296.282 M309.905 296.283 C 310.402 296.379,311.122 296.375,311.505 296.275 C 311.887 296.175,311.480 296.096,310.600 296.101 C 309.720 296.105,309.407 296.187,309.905 296.283 M94.705 297.083 C 95.202 297.179,95.922 297.175,96.305 297.075 C 96.687 296.975,96.280 296.896,95.400 296.901 C 94.520 296.905,94.207 296.987,94.705 297.083 M303.905 297.083 C 304.402 297.179,305.122 297.175,305.505 297.075 C 305.887 296.975,305.480 296.896,304.600 296.901 C 303.720 296.905,303.407 296.987,303.905 297.083 M100.705 297.883 C 101.202 297.979,101.922 297.975,102.305 297.875 C 102.687 297.775,102.280 297.696,101.400 297.701 C 100.520 297.705,100.207 297.787,100.705 297.883 M297.500 297.882 C 297.995 297.978,298.805 297.978,299.300 297.882 C 299.795 297.787,299.390 297.709,298.400 297.709 C 297.410 297.709,297.005 297.787,297.500 297.882 M107.100 298.682 C 107.595 298.778,108.405 298.778,108.900 298.682 C 109.395 298.587,108.990 298.509,108.000 298.509 C 107.010 298.509,106.605 298.587,107.100 298.682 M291.105 298.683 C 291.602 298.779,292.322 298.775,292.705 298.675 C 293.087 298.575,292.680 298.496,291.800 298.501 C 290.920 298.505,290.607 298.587,291.105 298.683 M113.300 299.476 C 113.685 299.576,114.315 299.576,114.700 299.476 C 115.085 299.375,114.770 299.293,114.000 299.293 C 113.230 299.293,112.915 299.375,113.300 299.476 M285.105 299.483 C 285.602 299.579,286.322 299.575,286.705 299.475 C 287.087 299.375,286.680 299.296,285.800 299.301 C 284.920 299.305,284.607 299.387,285.105 299.483 M119.905 300.283 C 120.402 300.379,121.122 300.375,121.505 300.275 C 121.887 300.175,121.480 300.096,120.600 300.101 C 119.720 300.105,119.407 300.187,119.905 300.283 M180.200 303.200 C 181.506 304.520,182.665 305.600,182.775 305.600 C 182.885 305.600,181.906 304.520,180.600 303.200 C 179.294 301.880,178.135 300.800,178.025 300.800 C 177.915 300.800,178.894 301.880,180.200 303.200 M219.200 303.000 C 218.228 303.990,217.523 304.800,217.633 304.800 C 217.743 304.800,218.628 303.990,219.600 303.000 C 220.572 302.010,221.277 301.200,221.167 301.200 C 221.057 301.200,220.172 302.010,219.200 303.000 M133.200 302.000 C 133.750 302.176,134.650 302.317,135.200 302.313 C 136.098 302.306,136.078 302.274,135.000 302.000 C 133.308 301.569,131.856 301.569,133.200 302.000 M139.400 302.800 C 141.092 303.231,142.544 303.231,141.200 302.800 C 140.650 302.624,139.750 302.483,139.200 302.487 C 138.302 302.494,138.322 302.526,139.400 302.800 M258.800 302.800 C 258.008 303.054,257.967 303.120,258.600 303.120 C 259.040 303.120,259.850 302.976,260.400 302.800 C 261.192 302.546,261.233 302.480,260.600 302.480 C 260.160 302.480,259.350 302.624,258.800 302.800 M145.600 303.600 C 146.150 303.776,146.960 303.920,147.400 303.920 C 148.033 303.920,147.992 303.854,147.200 303.600 C 146.650 303.424,145.840 303.280,145.400 303.280 C 144.767 303.280,144.808 303.346,145.600 303.600 M252.400 303.600 L 251.400 303.920 252.400 303.932 C 252.950 303.938,253.760 303.789,254.200 303.600 L 255.000 303.256 254.200 303.268 C 253.760 303.274,252.950 303.424,252.400 303.600 M246.400 304.400 L 245.400 304.720 246.400 304.732 C 246.950 304.738,247.760 304.589,248.200 304.400 L 249.000 304.056 248.200 304.068 C 247.760 304.074,246.950 304.224,246.400 304.400 M241.200 305.200 C 240.396 305.457,240.357 305.523,241.000 305.532 C 241.440 305.538,242.160 305.389,242.600 305.200 C 243.619 304.762,242.568 304.762,241.200 305.200 M184.036 307.700 C 184.751 308.745,185.401 309.600,185.482 309.600 C 185.753 309.600,184.846 308.208,183.788 307.000 C 182.992 306.092,183.052 306.262,184.036 307.700 M171.183 311.300 C 172.841 313.066,173.200 313.384,173.200 313.083 C 173.200 313.019,172.345 312.164,171.300 311.183 L 169.400 309.400 171.183 311.300 M227.978 311.500 L 226.600 313.000 228.196 311.600 C 229.073 310.830,229.868 310.155,229.962 310.100 C 230.056 310.045,229.959 310.000,229.745 310.000 C 229.532 310.000,228.737 310.675,227.978 311.500 M206.243 325.033 C 205.901 325.923,205.940 328.316,206.300 328.537 C 206.465 328.638,206.600 327.748,206.600 326.560 C 206.600 324.171,206.590 324.128,206.243 325.033 M193.293 326.800 C 193.293 327.570,193.375 327.885,193.476 327.500 C 193.576 327.115,193.576 326.485,193.476 326.100 C 193.375 325.715,193.293 326.030,193.293 326.800 M399.405 398.263 C 399.252 398.738,398.738 399.252,398.263 399.405 C 397.472 399.661,397.463 399.701,398.147 399.881 C 398.558 399.989,399.161 399.811,399.486 399.486 C 399.811 399.161,399.989 398.558,399.881 398.147 C 399.701 397.463,399.661 397.472,399.405 398.263 " stroke="none" fill="#fba184" fill-rule="evenodd"></path><path id="path4" d="M77.720 4.400 C 77.720 5.610,77.795 6.105,77.887 5.500 C 77.978 4.895,77.978 3.905,77.887 3.300 C 77.795 2.695,77.720 3.190,77.720 4.400 M78.101 10.600 C 78.105 11.480,78.187 11.793,78.283 11.295 C 78.379 10.798,78.375 10.078,78.275 9.695 C 78.175 9.313,78.096 9.720,78.101 10.600 M78.893 18.000 C 78.893 18.770,78.975 19.085,79.076 18.700 C 79.176 18.315,79.176 17.685,79.076 17.300 C 78.975 16.915,78.893 17.230,78.893 18.000 M75.000 282.400 C 75.660 282.568,76.650 282.705,77.200 282.705 C 78.092 282.705,78.070 282.672,77.000 282.400 C 76.340 282.232,75.350 282.095,74.800 282.095 C 73.908 282.095,73.930 282.128,75.000 282.400 M81.400 283.200 C 83.092 283.631,84.544 283.631,83.200 283.200 C 82.650 283.024,81.750 282.883,81.200 282.887 C 80.302 282.894,80.322 282.926,81.400 283.200 M339.667 286.726 C 339.594 288.599,339.167 289.650,337.850 291.200 L 337.000 292.200 338.068 291.260 C 339.482 290.017,340.090 288.448,339.894 286.551 L 339.734 285.000 339.667 286.726 M278.900 288.276 C 279.285 288.376,279.915 288.376,280.300 288.276 C 280.685 288.175,280.370 288.093,279.600 288.093 C 278.830 288.093,278.515 288.175,278.900 288.276 M272.500 289.076 C 272.885 289.176,273.515 289.176,273.900 289.076 C 274.285 288.975,273.970 288.893,273.200 288.893 C 272.430 288.893,272.115 288.975,272.500 289.076 M131.700 289.876 C 132.085 289.976,132.715 289.976,133.100 289.876 C 133.485 289.775,133.170 289.693,132.400 289.693 C 131.630 289.693,131.315 289.775,131.700 289.876 M260.100 290.676 C 260.485 290.776,261.115 290.776,261.500 290.676 C 261.885 290.575,261.570 290.493,260.800 290.493 C 260.030 290.493,259.715 290.575,260.100 290.676 M144.305 291.483 C 144.802 291.579,145.522 291.575,145.905 291.475 C 146.287 291.375,145.880 291.296,145.000 291.301 C 144.120 291.305,143.807 291.387,144.305 291.483 M254.100 291.476 C 254.485 291.576,255.115 291.576,255.500 291.476 C 255.885 291.375,255.570 291.293,254.800 291.293 C 254.030 291.293,253.715 291.375,254.100 291.476 M150.500 292.276 C 150.885 292.376,151.515 292.376,151.900 292.276 C 152.285 292.175,151.970 292.093,151.200 292.093 C 150.430 292.093,150.115 292.175,150.500 292.276 M247.700 292.276 C 248.085 292.376,248.715 292.376,249.100 292.276 C 249.485 292.175,249.170 292.093,248.400 292.093 C 247.630 292.093,247.315 292.175,247.700 292.276 M66.100 293.076 C 66.485 293.176,67.115 293.176,67.500 293.076 C 67.885 292.975,67.570 292.893,66.800 292.893 C 66.030 292.893,65.715 292.975,66.100 293.076 M241.700 293.076 C 242.085 293.176,242.715 293.176,243.100 293.076 C 243.485 292.975,243.170 292.893,242.400 292.893 C 241.630 292.893,241.315 292.975,241.700 293.076 M332.305 293.083 C 332.802 293.179,333.522 293.175,333.905 293.075 C 334.287 292.975,333.880 292.896,333.000 292.901 C 332.120 292.905,331.807 292.987,332.305 293.083 M72.100 293.876 C 72.485 293.976,73.115 293.976,73.500 293.876 C 73.885 293.775,73.570 293.693,72.800 293.693 C 72.030 293.693,71.715 293.775,72.100 293.876 M326.100 293.876 C 326.485 293.976,327.115 293.976,327.500 293.876 C 327.885 293.775,327.570 293.693,326.800 293.693 C 326.030 293.693,325.715 293.775,326.100 293.876 M78.500 294.676 C 78.885 294.776,79.515 294.776,79.900 294.676 C 80.285 294.575,79.970 294.493,79.200 294.493 C 78.430 294.493,78.115 294.575,78.500 294.676 M281.400 299.600 C 280.330 299.872,280.308 299.905,281.200 299.905 C 281.750 299.905,282.740 299.768,283.400 299.600 C 284.470 299.328,284.492 299.295,283.600 299.295 C 283.050 299.295,282.060 299.432,281.400 299.600 M128.800 301.200 C 129.350 301.376,130.250 301.517,130.800 301.513 C 131.698 301.506,131.678 301.474,130.600 301.200 C 128.908 300.769,127.456 300.769,128.800 301.200 M219.387 303.300 L 217.000 305.800 219.500 303.413 C 220.875 302.099,222.000 300.974,222.000 300.913 C 222.000 300.617,221.605 300.978,219.387 303.300 M269.400 301.200 C 268.322 301.474,268.302 301.506,269.200 301.513 C 269.750 301.517,270.650 301.376,271.200 301.200 C 272.544 300.769,271.092 300.769,269.400 301.200 M170.400 310.125 C 170.400 310.194,170.985 310.779,171.700 311.425 L 173.000 312.600 171.825 311.300 C 170.730 310.088,170.400 309.816,170.400 310.125 M190.428 319.400 C 190.428 319.620,190.686 320.250,191.000 320.800 C 191.314 321.350,191.572 321.620,191.572 321.400 C 191.572 321.180,191.314 320.550,191.000 320.000 C 190.686 319.450,190.428 319.180,190.428 319.400 M211.700 332.676 C 212.085 332.776,212.715 332.776,213.100 332.676 C 213.485 332.575,213.170 332.493,212.400 332.493 C 211.630 332.493,211.315 332.575,211.700 332.676 " stroke="none" fill="#f4a47c" fill-rule="evenodd"></path></g></svg>