<svg enable-background="new 0 0 512 512" height="512" viewBox="0 0 512 512" width="512" xmlns="http://www.w3.org/2000/svg"><path d="m96 80-8-40 120-24h104l112 32-8 32-160 32z" fill="#efeeef"/><path d="m255.9999847 488h152.0000153v-48l-32-56 8-16-8-56 16-32v-96.0000153l24-23.9999847v-80l-16-16-80-24-8-24h-104l-8 24-88.0000076 24-15.9999924 16v80l24 24v96l16 32-8 56 8 16-32 56v48h152z" fill="#fac8b2"/><path d="m288 456 88-72 24 40-112 56z" fill="#eaaa94"/><path d="m120 280 96-72 16 16h56v-16h40l64 32v16l-64-24h-24v8h-80l-8-8-88 64z" fill="#eaaa94"/><path d="m488 304v-192l-40-32h-32s-64 16-160 16-160-16-160-16h-32l-40 32v184l56 16 40-32v-32l72-40h136l72 40 24 56z" fill="#ccc"/><path d="m224 208h-40l-72 40 56-72h56 64 56l56 72-72-40h-40z" fill="#efeeef"/><path d="m256 176v-16h88l56 80v8l-64-72z" fill="#e6e6e6"/><path d="m80 488 8-56 136 24h64l136-24 8 56z" fill="#35495e"/><g fill="#eaaa94"><path d="m360 272h-72c-2.121582 0-4.1567383-.8427734-5.6567383-2.3427734l-26.3432617-26.34375-26.3432617 26.34375c-1.5 1.5-3.5351563 2.3427734-5.6567383 2.3427734h-80v-16h76.6865234l29.6567383-29.6572266c3.1240234-3.1230469 8.1894531-3.1230469 11.3134766 0l29.6567383 29.6572266h66.2641602l21.9848632-14.65625 8.875 13.3125-24 16c-1.3139648.8759766-2.8579102 1.34375-4.4375 1.34375z"/><path d="m240 312h-48c-2.121582 0-4.1567383-.8427734-5.6567383-2.3427734l-16-16 11.3134766-11.3144531 13.6567383 13.6572265h41.3730469l13.6567383-13.6572266 11.3134766 11.3144531-16 16c-1.5000001 1.5000001-3.5351564 2.3427735-5.6567384 2.3427735z"/><path d="m240 352h-40c-2.121582 0-4.1567383-.8427734-5.6567383-2.3427734l-16-16 11.3134766-11.3144531 13.6567383 13.6572265h33.3730469l13.6567383-13.6572266 11.3134766 11.3144531-16 16c-1.5000001 1.5000001-3.5351564 2.3427735-5.6567384 2.3427735z"/><path d="m240 392h-40c-2.121582 0-4.1567383-.8427734-5.6567383-2.3427734l-16-16 11.3134766-11.3144531 13.6567383 13.6572265h33.3730469l13.6567383-13.6572266 11.3134766 11.3144531-16 16c-1.5000001 1.5000001-3.5351564 2.3427735-5.6567384 2.3427735z"/><path d="m169.34375 428.4375-15.112793-22.6689453-22.668457-15.1123047 8.875-13.3125 24 16c.8789063.5859375 1.6328125 1.3398438 2.21875 2.21875l16 24z"/><path d="m135.351 300h25.298v16.001h-25.298z" transform="matrix(.949 -.316 .316 .949 -89.799 62.603)"/><path d="m126.459 336h43.081v16h-43.081z" transform="matrix(.928 -.371 .371 .928 -117.176 79.573)"/><g><path d="m320 312h-48c-2.121582 0-4.1567383-.8427734-5.6567383-2.3427734l-16-16 11.3134766-11.3144531 13.6567383 13.6572265h41.3730469l13.6567383-13.6572266 11.3134766 11.3144531-16 16c-1.5000001 1.5000001-3.5351564 2.3427735-5.6567384 2.3427735z"/><path d="m312 352h-40c-2.121582 0-4.1567383-.8427734-5.6567383-2.3427734l-16-16 11.3134766-11.3144531 13.6567383 13.6572265h33.3730469l13.6567383-13.6572266 11.3134766 11.3144531-16 16c-1.5000001 1.5000001-3.5351564 2.3427735-5.6567384 2.3427735z"/><path d="m312 392h-40c-2.121582 0-4.1567383-.8427734-5.6567383-2.3427734l-16-16 11.3134766-11.3144531 13.6567383 13.6572265h33.3730469l13.6567383-13.6572266 11.3134766 11.3144531-16 16c-1.5000001 1.5000001-3.5351564 2.3427735-5.6567384 2.3427735z"/><path d="m356 295.351h16.001v25.298h-16.001z" transform="matrix(.316 -.949 .949 .316 -43.301 555.923)"/><path d="m248 280h16v96h-16z"/><path d="m248 400h16v16h-16z"/><path d="m240.0004883 80c-.3764648 0-.7539063-.0263672-1.1318359-.0800781l-56-8 2.2626953-15.8398438 45.4404297 6.4921875-6.4912109-45.4404297 15.8388672-2.2636719 8 56c.3564453 2.4931641-.4819336 5.0078125-2.2626953 6.7890625-1.5107423 1.5107423-3.5502931 2.3427735-5.6562501 2.3427735z"/><path d="m271.9995117 80c-2.105957 0-4.1455078-.8320313-5.65625-2.3427734-1.7807617-1.78125-2.6191406-4.2958984-2.2626953-6.7890625l8-56 15.8388672 2.2636719-6.4912109 45.4404297 45.4404297-6.4921875 2.2626953 15.8398438-56 8c-.3774414.0537108-.7558594.080078-1.131836.080078z"/></g></g><path d="m456 256h-16v-52.6865234l-13.6567383-13.65625 11.3134766-11.3144531 16 16c1.5004883 1.5009765 2.3432617 3.5351562 2.3432617 5.6572265z" fill="#999"/><path d="m135.5893555 130.5302734-15.178711-5.0605468-11.9067382 35.7202148-14.847168-14.847168-11.3134766 11.3144532 21.6567383 21.65625v12.6865234h16v-14.7016602z" fill="#999"/><path d="m408 179.3134766 21.6567383-21.65625-11.3134766-11.3144531-14.847168 14.847168-11.9067383-35.7202148-15.1787109 5.0605469 15.5893555 46.7680662v70.7016602c0 1.0175781.1943359 2.0263672.5722656 2.9707031l25 61 14.8554688-5.9414063-24.4277344-59.5703124z" fill="#999"/><path d="m224 456v32h64v-32l200-96v-64l-56-16-160 136-56 8-16 24z" fill="#fad6c6"/><path d="m324.6499023 422.5097656-9.2998047-13.0195313 112-80c1.3569337-.9687499 2.9824219-1.4902343 4.6499024-1.4902343h16v16h-13.4365234z" fill="#eaaa94"/><path d="m288 488 120-24 8 8z" fill="#2c3f51"/><path d="m224 488-120-24-8 8z" fill="#2c3f51"/><path d="m88 432 136 24v16z" fill="#2c3f51"/><path d="m288 456v16l136-40z" fill="#2c3f51"/><path d="m288 152-32-8v-16h-32l-32 23.3600006-168 80.6399994v64l56 16 136-104 16 16h56z" fill="#fad6c6"/><path d="m63.1552734 283.578125-14.3105469-7.15625 8-16c.7416992-1.4833984 1.9267578-2.7001953 3.390625-3.4804688l120-64 7.5292969 14.1171875-117.7495117 62.7998047z" fill="#eaaa94"/><path d="m111.9999924 64 144.0000076 32 144-32 16 16-160 32-160-32z" fill="#efeeef"/><path d="m88 40-24 40h32z" fill="#e6e6e6"/><path d="m424 48 24 32h-32z" fill="#e6e6e6"/><path d="m312 88h16v56h-16z" fill="#e6e6e6"/><path d="m176 88h16v56h-16z" fill="#e6e6e6"/></svg>