<svg enable-background="new 0 0 497 497" height="512" viewBox="0 0 497 497" width="512" xmlns="http://www.w3.org/2000/svg"><path d="m370.327 49.699c3.048-18.608 6.577-33.744 8.725-42.237.958-3.79-1.91-7.462-5.819-7.462h-124.733-124.733c-3.91 0-6.777 3.672-5.819 7.462 2.148 8.493 5.677 23.63 8.725 42.239l5.86 66.265c0 99.4-54.618 157.509-61.848 185.973h.001c-2.872 9.29-4.42 19.161-4.42 29.394 0 71.859 25.199 144.38 31.646 161.756.873 2.354 3.114 3.911 5.625 3.911h114.836c3.026 0 5.58-2.248 5.954-5.25 3.904-31.338 7.606-78.901 7.606-78.901h33.133s3.702 47.563 7.606 78.901c.374 3.003 2.928 5.25 5.954 5.25h114.836c2.51 0 4.752-1.557 5.625-3.911 6.446-17.376 31.646-89.897 31.646-161.756 0-10.233-1.548-20.104-4.42-29.394h.001c-7.23-28.463-61.848-86.573-61.848-185.973z" fill="#ffe0cf"/><g fill="#ffc8ba"><path d="m200.65 497h17.723c3.026 0 5.58-2.248 5.954-5.25 3.904-31.338 7.606-78.901 7.606-78.901l-21.3-17.272c.001-.001-5.841 70.482-9.983 101.423z"/><path d="m430.733 331.333c0-10.233-1.548-20.104-4.42-29.394h.001c-7.23-28.463-61.848-86.573-61.848-185.973l5.86-66.268c3.049-18.609 6.577-33.744 8.725-42.237.959-3.789-1.909-7.461-5.818-7.461h-15.199s-5.94 20.605-10.706 49.699l-5.86 66.268c0 99.4 54.618 157.509 61.848 185.973h-.001c2.872 9.29 4.42 19.161 4.42 29.394-.002 82.398-33.135 165.666-33.135 165.666h18.863c2.51 0 4.752-1.557 5.625-3.911 6.446-17.376 31.645-89.896 31.645-161.756z"/></g><path d="m248.5 222.867c-4.143 0-7.5-3.357-7.5-7.5v-8.283c0-4.143 3.357-7.5 7.5-7.5s7.5 3.357 7.5 7.5v8.283c0 4.143-3.357 7.5-7.5 7.5z" fill="#ffc8ba"/><path d="m408.167 115.967h-319.334c-3.314 0-6-2.686-6-6v-54.267c0-3.314 2.686-6 6-6h319.333c3.314 0 6 2.686 6 6v54.267c.001 3.314-2.686 6-5.999 6z" fill="#ffda45"/><g fill="#717891"><path d="m123.467 49.7v16.566c0 4.143-3.357 7.5-7.5 7.5s-7.5-3.357-7.5-7.5v-16.566z"/><path d="m189.734 49.7v16.566c0 4.143-3.357 7.5-7.5 7.5s-7.5-3.357-7.5-7.5v-16.566z"/><path d="m256 49.7v16.566c0 4.143-3.357 7.5-7.5 7.5s-7.5-3.357-7.5-7.5v-16.566z"/><path d="m322.267 49.7v16.566c0 4.143-3.357 7.5-7.5 7.5s-7.5-3.357-7.5-7.5v-16.566z"/></g><path d="m474.433 149.1h-21.358c-3.19 0-5.775-2.586-5.775-5.775 0-4.613-5.141-7.364-8.979-4.805l-33.513 22.342c-3.429 2.286-3.429 7.325 0 9.611l33.513 22.342c3.838 2.559 8.979-.193 8.979-4.805 0-3.19 2.586-5.775 5.775-5.775h21.358c3.314 0 6-2.686 6-6v-21.135c0-3.314-2.686-6-6-6z" fill="#06ccab"/><path d="m22.567 182.233h21.358c3.19 0 5.775 2.586 5.775 5.775 0 4.613 5.141 7.364 8.979 4.805l33.513-22.342c3.429-2.286 3.429-7.325 0-9.611l-33.513-22.342c-3.838-2.559-8.979.193-8.979 4.805 0 3.19-2.586 5.775-5.775 5.775h-21.358c-3.314 0-6 2.686-6 6v21.133c0 3.316 2.686 6.002 6 6.002z" fill="#06ccab"/><path d="m408.167 49.7h-23c3.314 0 6 2.686 6 6v54.267c0 3.314-2.686 6-6 6h23c3.314 0 6-2.686 6-6v-54.267c0-3.314-2.687-6-6-6z" fill="#ffae4d"/><path d="m224.025 409.382c2.491 1.507 5.161 2.664 7.932 3.466h33.085c2.771-.803 5.441-1.959 7.933-3.466l156.367-94.606c-.735-4.381-1.741-8.67-3.029-12.836h.001c-1.421-5.593-4.676-12.336-8.982-20.306h-337.665c-4.306 7.97-7.561 14.713-8.981 20.306h.001c-1.288 4.167-2.294 8.456-3.029 12.836z" fill="#ff7045"/><path d="m429.342 314.773c-.183-1.089-.383-2.172-.599-3.249-.004-.022-.009-.044-.014-.066-.209-1.037-.434-2.068-.675-3.094-.057-.242-.121-.482-.18-.723-.199-.821-.402-1.64-.621-2.452-.296-1.09-.607-2.175-.939-3.249h.001c-.159-.626-.349-1.272-.553-1.927-.044-.142-.088-.284-.135-.428-.21-.652-.437-1.314-.688-1.994-.03-.081-.063-.163-.093-.244-.242-.645-.502-1.304-.778-1.975-.048-.116-.094-.23-.142-.347-.306-.732-.63-1.479-.974-2.242-.046-.101-.094-.204-.14-.306-.351-.771-.716-1.555-1.103-2.357-.008-.016-.015-.032-.023-.049-.409-.846-.838-1.711-1.284-2.592-.038-.076-.077-.152-.116-.228-.915-1.801-1.901-3.672-2.953-5.618h-23c4.306 7.97 7.561 14.713 8.982 20.306h-.001c2.548 8.243 4.048 16.945 4.355 25.95l21.674-13.113c-.001 0-.001-.002-.001-.003z" fill="#f44945"/><path d="m388.533 49.7v16.566c0 4.143-3.357 7.5-7.5 7.5s-7.5-3.357-7.5-7.5v-16.566z" fill="#717891"/></svg>