<svg enable-background="new 0 0 512 512" height="512" viewBox="0 0 512 512" width="512" xmlns="http://www.w3.org/2000/svg"><path d="m456 344-120-56v-16l96-16-40-24-88 16v56l144 72z" fill="#ccc"/><path d="m240 224 24 24 16-8 8-8h16v16l-24 24-24 8-24-24v32l32 25v31l24 8v16h-56v-40l-40-16-16 40h-40l-8 16h-16v-48h40l8-24v-40l-16 8-8 16v16h-24v-24l16-32 32-16z" fill="#fad6c6"/><path d="m488 424-56-168 56-16-8-24-88 16 32 152-32 40-368 16v32h15.9999962v16h32.0000038v-16h368v16h32v-16h16z" fill="#35495e"/><path d="m160 296-8 24h-8v32h32l16-40 40 16v8h32v-23l-32-25h-72z" fill="#05a2d3"/><path d="m240 224h-80l-32 16 16 24 16-8v32h72v-32l12 12 20-20z" fill="#f249b4"/><path d="m136 80-28.461525-27.7157593c-15.4827423-15.6209526-40.5852203-15.6209526-56.067955.0000038l-.0000381.0000381c-7.4350739 7.5014497-11.6120529 17.6755944-11.6120529 28.2842446v32.8040771c0 14.4880753-5.7044411 28.3827667-15.8584137 38.6273804l-.0000153.0000153h25.1481018c14.3598824 0 28.1316223-5.7553711 38.2855911-15.9999847l.0000153-.0000153h48.5662918z" fill="#5b0b3c"/><path d="m128 160h-20.0000229c-11.0456848 0-19.9999771-8.9542999-19.9999771-19.9999847v-.0000305c0-11.0456849 8.9542923-19.9999848 19.9999771-19.9999848h20.0000229z" fill="#eaaa94"/><path d="m272 120h20.0000305c11.0456848 0 19.9999695 8.9542999 19.9999695 19.9999847v.0000305c0 11.0456849-8.9542847 19.9999848-19.9999695 19.9999848h-20.0000305z" fill="#eaaa94"/><path d="m104 120c0-9.5400391 1.3901367-18.75 3.9799805-27.4400024 4.6101074-15.4800415 13.0100098-29.3200073 24.1401367-40.4400024 17.369873-17.380005 41.369873-28.1199952 67.8798828-28.1199952s50.5100098 10.7399902 67.8798828 28.1199951c11.130127 11.1199951 19.5300293 24.9599609 24.1401367 40.4400024 2.5898438 8.6900025 3.9799805 17.8999634 3.9799805 27.4400025z" fill="#fbc6ea"/><path d="m282.0500488 112.1099854c-.0100098-.0100098-.0100098-.0100098-.0100098-.0100098-12.7800292-32.8299561-44.6899413-56.0999756-82.040039-56.0999756-37.8901367 0-70.1899414 23.9499512-82.5800781 57.5400391-3.5100098 9.4899902-5.4199219 19.75-5.4199219 30.4599609 0 48.5999756 39.3999023 88 88 88s88-39.4000244 88-88c0-11.25-2.1098633-22-5.9499512-31.8900146z" fill="#fad6c6"/><path d="m160 184c0 12.1099854-8.9799805 22.1300049-20.6499023 23.7600098-10.630127-10.1100464-18.7299805-22.8500366-23.25-37.1700439 4.3098144-6.3899537 11.619873-10.5899659 19.8999023-10.5899659 13.25 0 24 10.75 24 24z" fill="#f48da1"/><path d="m283.8999023 170.5899658c-4.5200195 14.3200073-12.619873 27.0599976-23.25 37.1700439-11.6699218-1.6300048-20.6499023-11.6500243-20.6499023-23.7600097 0-13.25 10.75-24 24-24 8.2800293 0 15.5900879 4.2000122 19.8999023 10.5899658z" fill="#f48da1"/><g fill="#5b0b3c"><path d="m288 118.3983307c-6.2651978-8.1862946-14.1124268-14.7264481-22.9006348-19.2867279-9.3762817-4.8828812-19.8323822-7.518959-30.5985718-7.518959l-17.1060638-17.7963181-17.1060486 17.796318h-25.6590729c-23.9055633 0-46.5605773 10.3996964-62.6296081 28.4073563 13.2466431-37.3611145 47.7792816-64 88.288681-64 39.9320374 0 74.0478363 25.8824768 87.711319 62.3983307z"/><path d="m240 120h16v16h-16z"/><path d="m144 120h16v16h-16z"/></g><path d="m215.9999847 144-.0000153.0000153c-10.0722198 5.0361023-21.9277496 5.0361023-31.9999695 0l-.0000152-.0000153v8.0000153c0 8.8365479 7.1634369 15.9999847 15.9999847 15.9999847h.0000306c8.8365479 0 15.9999847-7.1634369 15.9999847-15.9999847z" fill="#e22526"/><path d="m136 352v-32h-24v48h16z" fill="#f249b4"/><path d="m264 344h-32v24h56v-16z" fill="#f249b4"/><g fill="#2c3f51"><path d="m488 424-40 32-416 16h456z"/><path d="m392 424h64l-64-192 32 152z"/><path d="m39.9999962 488 32.0000038-16v16z"/><path d="m440 488 32-16v16z"/><path d="m432 256 48-40 8 24z"/></g></svg>