<svg id="svg" version="1.1" xmlns="http://www.w3.org/2000/svg" xmlns:xlink="http://www.w3.org/1999/xlink" width="400" height="400" viewBox="0, 0, 400,400"><g id="svgg"><path id="path0" d="M21.600 12.800 C 21.600 13.240,21.780 13.600,22.000 13.600 C 22.220 13.600,22.400 14.410,22.400 15.400 C 22.400 16.390,22.580 17.200,22.800 17.200 C 23.020 17.200,23.200 17.830,23.200 18.600 C 23.200 19.370,23.401 20.000,23.647 20.000 C 23.910 20.000,24.013 20.420,23.898 21.023 C 23.783 21.625,23.945 22.288,24.294 22.637 C 24.620 22.962,24.793 23.585,24.679 24.021 C 24.564 24.457,24.723 25.066,25.032 25.374 C 25.347 25.690,25.530 26.465,25.451 27.149 C 25.364 27.890,25.483 28.332,25.755 28.282 C 26.011 28.235,26.154 28.648,26.092 29.254 C 26.028 29.884,26.216 30.397,26.561 30.530 C 26.917 30.666,27.055 31.067,26.922 31.576 C 26.800 32.045,26.899 32.400,27.153 32.400 C 27.399 32.400,27.600 32.850,27.600 33.400 C 27.600 33.950,27.780 34.400,28.000 34.400 C 28.220 34.400,28.400 34.940,28.400 35.600 C 28.400 36.260,28.580 36.800,28.800 36.800 C 29.020 36.800,29.200 37.160,29.200 37.600 C 29.200 38.040,29.380 38.400,29.600 38.400 C 29.820 38.400,30.000 38.850,30.000 39.400 C 30.000 39.950,30.180 40.400,30.400 40.400 C 30.620 40.400,30.800 40.850,30.800 41.400 C 30.800 41.950,30.980 42.400,31.200 42.400 C 31.420 42.400,31.600 42.760,31.600 43.200 C 31.600 43.640,31.780 44.000,32.000 44.000 C 32.220 44.000,32.400 44.360,32.400 44.800 C 32.400 45.240,32.580 45.600,32.800 45.600 C 33.020 45.600,33.200 45.960,33.200 46.400 C 33.200 46.840,33.380 47.200,33.600 47.200 C 33.820 47.200,34.000 47.560,34.000 48.000 C 34.000 48.440,34.180 48.800,34.400 48.800 C 34.620 48.800,34.800 49.160,34.800 49.600 C 34.800 50.040,34.980 50.400,35.200 50.400 C 35.420 50.400,35.600 50.771,35.600 51.224 C 35.600 51.677,35.780 51.936,36.000 51.800 C 36.220 51.664,36.400 51.923,36.400 52.376 C 36.400 52.829,36.580 53.200,36.800 53.200 C 37.020 53.200,37.200 53.545,37.200 53.967 C 37.200 54.388,37.425 54.825,37.700 54.936 C 38.086 55.093,38.074 55.227,37.647 55.526 C 37.204 55.836,37.264 55.966,37.947 56.183 C 38.416 56.332,38.800 56.736,38.800 57.080 C 38.800 57.424,39.184 58.040,39.654 58.447 C 40.373 59.071,40.426 59.287,39.986 59.816 C 39.699 60.162,39.630 60.414,39.832 60.375 C 40.761 60.199,41.200 60.463,41.200 61.200 C 41.200 61.640,41.401 62.000,41.647 62.000 C 41.896 62.000,42.001 62.353,41.884 62.800 C 41.749 63.315,41.872 63.600,42.227 63.600 C 42.624 63.600,42.725 63.967,42.586 64.900 C 42.479 65.615,42.499 65.975,42.629 65.700 C 42.959 65.006,43.736 65.068,43.468 65.767 C 43.348 66.079,43.511 66.434,43.829 66.556 C 44.147 66.678,44.386 66.918,44.360 67.089 C 44.269 67.698,44.899 69.200,45.247 69.200 C 45.441 69.200,45.600 69.560,45.600 70.000 C 45.600 70.440,45.780 70.800,46.000 70.800 C 46.220 70.800,46.400 71.070,46.400 71.400 C 46.400 71.730,46.580 72.000,46.800 72.000 C 47.020 72.000,47.200 72.360,47.200 72.800 C 47.200 73.240,47.367 73.600,47.571 73.600 C 47.775 73.600,48.000 73.872,48.071 74.204 C 48.286 75.210,352.000 75.306,352.000 74.300 C 352.000 73.915,352.180 73.600,352.400 73.600 C 352.620 73.600,352.800 73.240,352.800 72.800 C 352.800 72.360,352.980 72.000,353.200 72.000 C 353.420 72.000,353.600 71.730,353.600 71.400 C 353.600 71.070,353.853 70.800,354.163 70.800 C 354.542 70.800,354.652 70.519,354.500 69.937 C 354.345 69.346,354.420 69.165,354.737 69.361 C 355.030 69.542,355.200 69.346,355.200 68.824 C 355.200 68.371,355.374 68.000,355.587 68.000 C 355.801 68.000,355.872 67.732,355.746 67.403 C 355.617 67.068,355.787 66.703,356.133 66.570 C 356.472 66.440,356.652 66.079,356.532 65.767 C 356.264 65.068,357.041 65.006,357.371 65.700 C 357.501 65.975,357.521 65.615,357.414 64.900 C 357.275 63.967,357.376 63.600,357.773 63.600 C 358.128 63.600,358.251 63.315,358.116 62.800 C 357.999 62.353,358.104 62.000,358.353 62.000 C 358.599 62.000,358.800 61.640,358.800 61.200 C 358.800 60.760,358.980 60.400,359.200 60.400 C 359.420 60.400,359.600 60.122,359.600 59.783 C 359.600 59.444,359.960 58.780,360.400 58.308 C 360.840 57.836,361.200 57.213,361.200 56.925 C 361.200 56.636,361.380 56.400,361.600 56.400 C 361.820 56.400,362.000 56.040,362.000 55.600 C 362.000 55.160,362.180 54.800,362.400 54.800 C 362.620 54.800,362.800 54.440,362.800 54.000 C 362.800 53.560,362.980 53.200,363.200 53.200 C 363.420 53.200,363.600 52.829,363.600 52.376 C 363.600 51.923,363.780 51.664,364.000 51.800 C 364.220 51.936,364.400 51.677,364.400 51.224 C 364.400 50.771,364.580 50.400,364.800 50.400 C 365.020 50.400,365.200 50.061,365.200 49.647 C 365.200 49.205,365.573 48.791,366.100 48.647 C 366.862 48.438,366.908 48.334,366.400 47.970 C 365.948 47.645,365.924 47.489,366.300 47.336 C 366.575 47.225,366.800 46.788,366.800 46.367 C 366.800 45.945,366.980 45.600,367.200 45.600 C 367.420 45.600,367.600 45.240,367.600 44.800 C 367.600 44.360,367.780 44.000,368.000 44.000 C 368.220 44.000,368.400 43.640,368.400 43.200 C 368.400 42.760,368.580 42.400,368.800 42.400 C 369.020 42.400,369.200 41.950,369.200 41.400 C 369.200 40.850,369.380 40.400,369.600 40.400 C 369.820 40.400,370.000 39.950,370.000 39.400 C 370.000 38.850,370.180 38.400,370.400 38.400 C 370.620 38.400,370.800 37.939,370.800 37.376 C 370.800 36.813,370.935 36.435,371.100 36.534 C 371.265 36.634,371.632 36.465,371.916 36.158 C 372.213 35.836,372.256 35.600,372.016 35.600 C 371.787 35.600,371.600 35.330,371.600 35.000 C 371.600 34.670,371.780 34.400,372.000 34.400 C 372.220 34.400,372.400 33.950,372.400 33.400 C 372.400 32.850,372.587 32.400,372.815 32.400 C 373.043 32.400,373.178 31.905,373.115 31.300 C 373.039 30.570,373.174 30.235,373.516 30.305 C 373.859 30.375,373.993 30.040,373.916 29.305 C 373.848 28.661,373.985 28.234,374.243 28.281 C 374.517 28.331,374.630 27.856,374.539 27.033 C 374.450 26.222,374.612 25.522,374.955 25.237 C 375.264 24.981,375.427 24.424,375.316 24.000 C 375.205 23.576,375.380 22.962,375.706 22.637 C 376.055 22.288,376.217 21.625,376.102 21.023 C 375.987 20.420,376.090 20.000,376.353 20.000 C 376.599 20.000,376.800 19.370,376.800 18.600 C 376.800 17.830,376.980 17.200,377.200 17.200 C 377.420 17.200,377.600 16.390,377.600 15.400 C 377.600 14.410,377.780 13.600,378.000 13.600 C 378.220 13.600,378.400 13.240,378.400 12.800 C 378.400 12.001,378.133 12.000,200.000 12.000 C 21.867 12.000,21.600 12.001,21.600 12.800 M19.200 365.624 C 19.200 367.671,19.054 368.757,18.800 368.600 C 18.537 368.438,18.400 371.729,18.400 378.176 L 18.400 388.000 200.000 388.000 L 381.600 388.000 381.600 378.200 C 381.600 371.933,381.456 368.400,381.200 368.400 C 380.969 368.400,380.800 367.133,380.800 365.400 L 380.800 362.400 352.958 362.400 L 325.116 362.400 313.058 371.462 C 299.307 381.797,300.069 381.383,298.570 379.334 C 294.922 374.350,293.956 373.083,291.482 370.043 C 289.979 368.197,287.906 365.724,286.875 364.548 L 285.000 362.410 200.000 362.410 L 115.000 362.410 113.125 364.548 C 112.094 365.724,110.021 368.197,108.518 370.043 C 106.044 373.083,105.078 374.350,101.430 379.334 C 99.936 381.376,100.725 381.805,86.945 371.455 L 74.889 362.400 47.045 362.400 L 19.200 362.400 19.200 365.624 " stroke="none" fill="#697179" fill-rule="evenodd"></path><path id="path1" d="M58.400 199.995 C 58.400 200.218,58.040 200.400,57.600 200.400 C 57.160 200.400,56.800 200.580,56.800 200.800 C 56.800 201.020,56.566 201.200,56.280 201.200 C 55.544 201.200,53.607 202.141,53.603 202.500 C 53.601 202.665,53.327 202.800,52.993 202.800 C 52.151 202.800,47.457 207.572,46.768 209.127 C 46.458 209.827,46.069 210.400,45.902 210.400 C 45.736 210.400,45.600 210.749,45.600 211.176 C 45.600 211.603,45.420 212.064,45.200 212.200 C 44.980 212.336,44.800 212.876,44.800 213.400 C 44.800 213.924,44.620 214.464,44.400 214.600 C 44.180 214.736,44.000 215.816,44.000 217.000 C 44.000 218.184,43.850 219.246,43.666 219.359 C 43.483 219.472,43.292 220.698,43.243 222.083 C 43.194 223.467,42.984 224.771,42.777 224.980 C 42.570 225.189,42.400 226.105,42.400 227.015 C 42.400 227.925,42.131 230.454,41.802 232.635 C 41.474 234.816,41.204 237.635,41.202 238.900 C 41.201 240.165,41.020 241.200,40.800 241.200 C 40.574 241.200,40.400 242.333,40.400 243.800 C 40.400 245.267,40.226 246.400,40.000 246.400 C 39.751 246.400,39.600 248.725,39.600 252.576 C 39.600 256.263,39.761 258.852,40.000 259.000 C 40.220 259.136,40.400 259.687,40.400 260.224 C 40.400 260.761,40.580 261.200,40.800 261.200 C 41.020 261.200,41.200 261.770,41.200 262.467 C 41.200 263.163,41.324 263.610,41.475 263.459 C 41.626 263.308,42.071 263.887,42.465 264.745 C 43.123 266.182,46.436 270.000,47.023 270.000 C 47.163 270.000,47.797 270.370,48.433 270.823 C 49.068 271.276,50.446 271.799,51.494 271.985 C 53.128 272.276,75.121 277.242,79.800 278.377 C 81.712 278.841,88.447 280.389,93.800 281.596 C 94.680 281.794,97.020 282.336,99.000 282.800 C 102.789 283.688,105.152 284.227,107.800 284.806 C 108.680 284.999,111.020 285.536,113.000 286.000 C 114.980 286.464,117.320 287.006,118.200 287.204 C 119.080 287.403,120.970 287.836,122.400 288.168 C 123.830 288.499,126.710 289.147,128.800 289.607 C 133.588 290.662,142.158 292.691,144.000 293.206 C 145.390 293.595,153.509 295.471,156.958 296.200 C 158.489 296.523,158.242 296.713,152.600 299.557 C 132.404 309.737,113.910 322.724,97.857 338.000 C 87.831 347.541,74.690 362.076,75.449 362.786 C 76.709 363.963,99.127 380.546,99.653 380.690 C 100.061 380.802,100.674 380.367,101.283 379.534 C 106.339 372.627,108.049 370.481,114.657 362.745 C 122.008 354.140,136.967 340.702,147.129 333.574 C 150.970 330.880,159.696 325.221,160.603 324.835 C 161.045 324.647,162.395 323.905,163.603 323.187 C 167.426 320.913,174.761 317.097,179.000 315.177 C 188.108 311.050,198.149 307.196,199.767 307.204 C 201.143 307.212,214.057 312.042,218.561 314.235 C 219.200 314.546,219.897 314.800,220.111 314.800 C 220.516 314.800,233.105 321.055,233.800 321.602 C 234.020 321.775,235.100 322.415,236.200 323.024 C 237.300 323.633,238.830 324.482,239.600 324.910 C 240.370 325.339,241.720 326.164,242.600 326.744 C 243.480 327.325,244.650 328.034,245.200 328.321 C 245.750 328.607,248.277 330.317,250.815 332.121 C 270.338 345.993,284.234 359.747,298.717 379.534 C 299.319 380.358,299.944 380.803,300.347 380.697 C 300.873 380.559,323.292 363.970,324.551 362.787 C 325.402 361.988,309.236 344.382,299.500 335.503 C 284.321 321.662,264.912 308.155,247.760 299.498 C 244.610 297.908,242.161 296.503,242.316 296.377 C 242.472 296.250,243.500 295.942,244.600 295.692 C 245.700 295.443,248.220 294.870,250.200 294.420 C 252.180 293.970,258.210 292.604,263.600 291.385 C 268.990 290.165,274.525 288.905,275.900 288.584 C 279.958 287.636,284.651 286.567,288.900 285.622 C 289.835 285.414,292.220 284.864,294.200 284.400 C 296.180 283.936,298.520 283.394,299.400 283.196 C 300.280 282.997,302.215 282.557,303.700 282.218 C 305.185 281.878,307.615 281.322,309.100 280.982 C 310.585 280.643,312.520 280.201,313.400 280.000 C 314.280 279.799,316.170 279.364,317.600 279.032 C 319.030 278.701,321.820 278.066,323.800 277.622 C 325.780 277.178,331.720 275.804,337.000 274.570 C 342.280 273.336,347.451 272.175,348.491 271.989 C 352.241 271.319,358.000 266.129,358.000 263.420 C 358.000 263.079,358.180 262.800,358.400 262.800 C 358.620 262.800,358.800 262.440,358.800 262.000 C 358.800 261.560,358.980 261.200,359.200 261.200 C 359.420 261.200,359.600 260.761,359.600 260.224 C 359.600 259.687,359.780 259.136,360.000 259.000 C 360.239 258.852,360.400 256.263,360.400 252.576 C 360.400 248.725,360.249 246.400,360.000 246.400 C 359.774 246.400,359.600 245.267,359.600 243.800 C 359.600 242.333,359.426 241.200,359.200 241.200 C 358.980 241.200,358.799 240.165,358.798 238.900 C 358.796 237.635,358.526 234.816,358.198 232.635 C 357.869 230.454,357.600 227.925,357.600 227.015 C 357.600 226.105,357.430 225.189,357.223 224.980 C 357.016 224.771,356.806 223.467,356.757 222.083 C 356.708 220.698,356.517 219.472,356.334 219.359 C 356.150 219.246,356.000 218.184,356.000 217.000 C 356.000 215.816,355.820 214.736,355.600 214.600 C 355.380 214.464,355.200 214.029,355.200 213.633 C 355.200 211.252,348.807 202.800,347.007 202.800 C 346.673 202.800,346.400 202.662,346.400 202.494 C 346.400 202.184,344.149 201.076,341.600 200.131 C 339.273 199.269,313.660 199.379,313.325 200.253 C 313.088 200.869,313.603 204.263,314.471 207.800 C 315.117 210.435,315.641 212.507,316.090 214.200 C 316.581 216.056,318.649 222.489,319.272 224.100 L 319.697 225.200 329.249 225.200 C 335.350 225.200,338.800 225.345,338.800 225.600 C 338.800 225.822,339.868 226.000,341.205 226.000 C 342.528 226.000,343.968 226.180,344.405 226.400 C 344.842 226.620,345.558 226.980,345.995 227.200 C 346.432 227.420,347.022 227.600,347.306 227.600 C 347.591 227.600,348.083 227.960,348.400 228.400 C 348.717 228.840,349.211 229.200,349.497 229.200 C 350.478 229.200,354.400 233.513,354.400 234.591 C 354.400 235.146,354.220 235.600,354.000 235.600 C 353.780 235.600,353.600 235.920,353.600 236.312 C 353.600 236.703,353.240 237.283,352.800 237.600 C 352.360 237.917,352.000 238.426,352.000 238.731 C 352.000 239.447,348.147 243.068,346.707 243.705 C 346.098 243.975,345.600 244.331,345.600 244.498 C 345.600 244.664,345.240 244.800,344.800 244.800 C 344.360 244.800,344.000 244.980,344.000 245.200 C 344.000 245.420,343.550 245.600,343.000 245.600 C 342.450 245.600,342.000 245.780,342.000 246.000 C 342.000 246.220,341.280 246.400,340.400 246.400 C 339.520 246.400,338.800 246.580,338.800 246.800 C 338.800 247.020,338.181 247.200,337.424 247.200 C 336.667 247.200,335.936 247.380,335.800 247.600 C 335.664 247.820,334.942 248.000,334.195 248.000 C 333.279 248.000,332.510 248.326,331.836 249.000 C 331.286 249.550,330.436 250.000,329.947 250.000 C 329.457 250.000,328.504 250.168,327.828 250.373 C 327.153 250.578,325.835 250.938,324.900 251.173 C 323.965 251.408,322.525 251.776,321.700 251.991 C 320.875 252.206,315.250 253.577,309.200 255.037 C 303.150 256.497,292.350 259.116,285.200 260.857 C 278.050 262.598,271.390 264.218,270.400 264.457 C 269.410 264.696,268.060 265.045,267.400 265.233 C 266.740 265.420,264.580 265.948,262.600 266.406 C 260.620 266.864,258.370 267.398,257.600 267.594 C 256.830 267.789,255.300 268.162,254.200 268.421 C 253.100 268.680,251.660 269.050,251.000 269.243 C 250.340 269.436,244.850 270.787,238.800 272.244 C 218.762 277.070,205.019 280.409,203.554 280.807 C 201.728 281.303,198.628 281.313,197.028 280.827 C 195.856 280.471,194.196 280.039,190.900 279.233 C 189.438 278.875,187.545 278.397,184.500 277.615 C 183.675 277.403,181.380 276.865,179.400 276.419 C 168.608 273.990,152.103 270.086,145.600 268.424 C 144.830 268.227,143.480 267.886,142.600 267.666 C 141.720 267.446,140.280 267.078,139.400 266.848 C 138.520 266.618,134.830 265.710,131.200 264.829 C 127.570 263.948,119.380 261.952,113.000 260.393 C 106.620 258.834,98.790 256.931,95.600 256.166 C 92.410 255.400,88.990 254.579,88.000 254.341 C 87.010 254.103,85.660 253.754,85.000 253.565 C 84.340 253.376,81.460 252.672,78.600 252.000 C 75.740 251.328,72.847 250.604,72.172 250.389 C 71.496 250.175,70.565 250.000,70.102 250.000 C 69.640 250.000,68.727 249.550,68.073 249.000 C 67.374 248.412,66.382 248.000,65.666 248.000 C 64.996 248.000,64.336 247.820,64.200 247.600 C 64.064 247.380,63.333 247.200,62.576 247.200 C 61.819 247.200,61.200 247.020,61.200 246.800 C 61.200 246.580,60.480 246.400,59.600 246.400 C 58.720 246.400,58.000 246.220,58.000 246.000 C 58.000 245.780,57.638 245.600,57.195 245.600 C 56.434 245.600,54.837 244.889,54.400 244.356 C 54.290 244.222,53.660 243.834,53.000 243.494 C 51.411 242.677,48.000 239.425,48.000 238.728 C 48.000 238.425,47.640 237.917,47.200 237.600 C 46.760 237.283,46.400 236.703,46.400 236.312 C 46.400 235.920,46.220 235.600,46.000 235.600 C 45.780 235.600,45.600 235.146,45.600 234.591 C 45.600 233.572,49.499 229.200,50.408 229.200 C 50.642 229.200,51.220 228.840,51.692 228.400 C 52.164 227.960,52.888 227.600,53.299 227.600 C 53.711 227.600,53.936 227.420,53.800 227.200 C 53.660 226.974,53.988 226.800,54.553 226.800 C 55.103 226.800,55.664 226.620,55.800 226.400 C 55.936 226.180,57.207 226.000,58.624 226.000 C 60.075 226.000,61.200 225.825,61.200 225.600 C 61.200 225.345,64.650 225.200,70.751 225.200 L 80.303 225.200 80.733 224.100 C 83.263 217.621,86.455 205.182,86.557 201.400 L 86.600 199.800 72.500 199.695 C 63.179 199.625,58.400 199.727,58.400 199.995 " stroke="none" fill="#f0e168" fill-rule="evenodd"></path><path id="path2" d="M21.600 14.600 C 21.600 14.930,21.780 15.200,22.000 15.200 C 22.220 15.200,22.400 14.930,22.400 14.600 C 22.400 14.270,22.220 14.000,22.000 14.000 C 21.780 14.000,21.600 14.270,21.600 14.600 M22.400 18.176 C 22.400 18.493,22.580 18.864,22.800 19.000 C 23.020 19.136,23.200 18.877,23.200 18.424 C 23.200 17.971,23.020 17.600,22.800 17.600 C 22.580 17.600,22.400 17.859,22.400 18.176 M68.093 112.800 C 68.368 113.240,68.729 113.600,68.896 113.600 C 69.063 113.600,69.200 113.960,69.200 114.400 C 69.200 114.840,69.380 115.200,69.600 115.200 C 69.820 115.200,70.000 115.560,70.000 116.000 C 70.000 116.440,70.180 116.800,70.400 116.800 C 70.620 116.800,70.800 117.160,70.800 117.600 C 70.800 118.040,70.946 118.400,71.125 118.400 C 71.304 118.400,71.698 119.030,72.000 119.800 C 72.302 120.570,72.696 121.200,72.875 121.200 C 73.054 121.200,73.200 121.560,73.200 122.000 C 73.200 122.440,73.380 122.800,73.600 122.800 C 73.820 122.800,74.000 123.160,74.000 123.600 C 74.000 124.040,74.180 124.400,74.400 124.400 C 74.620 124.400,74.800 124.760,74.800 125.200 C 74.800 125.640,74.980 126.000,75.200 126.000 C 75.420 126.000,75.600 126.236,75.600 126.525 C 75.600 126.814,76.050 127.983,76.600 129.123 C 77.150 130.263,77.600 131.467,77.600 131.798 C 77.600 132.129,77.791 132.400,78.024 132.400 C 78.257 132.400,78.359 132.542,78.252 132.716 C 78.144 132.890,78.333 133.655,78.672 134.416 C 79.010 135.177,79.468 136.250,79.690 136.800 C 79.912 137.350,80.252 138.113,80.447 138.495 C 80.641 138.877,80.800 139.552,80.800 139.995 C 80.800 140.438,80.980 140.800,81.200 140.800 C 81.420 140.800,81.600 141.340,81.600 142.000 C 81.600 142.660,81.780 143.200,82.000 143.200 C 82.220 143.200,82.400 143.729,82.400 144.376 C 82.400 145.023,82.580 145.664,82.800 145.800 C 83.020 145.936,83.200 146.667,83.200 147.424 C 83.200 148.181,83.380 148.800,83.600 148.800 C 83.820 148.800,84.000 149.520,84.000 150.400 C 84.000 151.280,84.180 152.000,84.400 152.000 C 84.620 152.000,84.800 152.810,84.800 153.800 C 84.800 154.790,84.980 155.600,85.200 155.600 C 85.420 155.600,85.600 156.500,85.600 157.600 C 85.600 158.700,85.780 159.600,86.000 159.600 C 86.225 159.600,86.400 160.725,86.400 162.176 C 86.400 163.593,86.580 164.864,86.800 165.000 C 87.025 165.139,87.200 167.071,87.200 169.424 C 87.200 171.941,87.359 173.600,87.600 173.600 C 87.850 173.600,88.000 176.059,88.000 180.176 C 88.000 184.129,87.840 186.851,87.600 187.000 C 87.373 187.140,87.200 189.137,87.200 191.624 C 87.200 194.641,87.058 196.000,86.743 196.000 C 86.417 196.000,86.362 196.830,86.553 198.882 C 86.800 201.541,86.566 203.670,85.596 207.600 C 85.406 208.370,85.038 209.900,84.779 211.000 C 84.239 213.295,83.982 214.187,82.592 218.600 C 80.990 223.687,80.367 225.200,79.867 225.207 C 79.610 225.211,78.962 226.246,78.427 227.507 C 75.580 234.215,73.140 239.340,72.702 239.533 C 72.536 239.607,72.400 240.012,72.400 240.433 C 72.400 240.855,72.220 241.200,72.000 241.200 C 71.780 241.200,71.600 241.478,71.600 241.817 C 71.600 242.156,71.240 242.820,70.800 243.292 C 70.360 243.764,70.000 244.387,70.000 244.675 C 70.000 244.964,69.820 245.200,69.600 245.200 C 69.380 245.200,69.200 245.470,69.200 245.800 C 69.200 246.130,69.020 246.400,68.800 246.400 C 68.580 246.400,68.400 246.655,68.400 246.967 C 68.400 247.278,68.175 247.615,67.900 247.715 C 67.145 247.990,68.071 249.340,69.241 249.672 C 71.021 250.177,73.378 250.762,78.600 251.994 C 81.460 252.669,84.340 253.376,85.000 253.565 C 85.660 253.754,87.010 254.103,88.000 254.341 C 88.990 254.579,92.410 255.400,95.600 256.166 C 104.210 258.232,124.161 263.106,127.600 263.983 C 131.339 264.936,131.170 265.202,130.759 259.000 C 129.317 237.232,126.278 217.377,121.577 199.000 C 119.198 189.700,119.155 189.512,119.359 189.308 C 119.589 189.077,130.034 186.021,130.633 186.009 C 130.871 186.004,131.355 187.125,131.708 188.500 C 132.061 189.875,132.735 192.440,133.206 194.200 C 133.676 195.960,134.245 198.210,134.470 199.200 C 134.695 200.190,135.024 201.630,135.202 202.400 C 139.512 221.072,141.944 238.450,143.239 259.831 L 143.726 267.862 145.363 268.314 C 149.508 269.458,167.340 273.704,179.400 276.419 C 181.380 276.865,183.675 277.403,184.500 277.615 C 185.325 277.827,186.675 278.165,187.500 278.367 C 188.325 278.569,189.765 278.929,190.700 279.167 C 191.635 279.405,193.165 279.792,194.100 280.027 C 195.035 280.262,196.353 280.622,197.028 280.827 C 198.628 281.313,201.728 281.303,203.554 280.807 C 205.019 280.409,218.762 277.070,238.800 272.244 C 244.850 270.787,250.340 269.432,251.000 269.234 C 251.660 269.036,253.117 268.651,254.238 268.377 L 256.277 267.880 256.756 259.840 C 257.943 239.936,260.571 220.371,264.044 205.600 C 264.484 203.730,265.005 201.480,265.203 200.600 C 265.844 197.746,266.722 194.265,267.576 191.200 C 268.035 189.550,268.521 187.705,268.656 187.100 C 268.790 186.495,269.103 186.004,269.350 186.009 C 269.960 186.021,280.406 189.073,280.641 189.308 C 280.838 189.504,280.598 190.579,279.196 195.800 C 278.272 199.241,278.298 199.134,276.475 207.200 C 272.755 223.670,270.593 239.105,269.222 259.000 C 268.821 264.806,268.859 264.936,270.810 264.395 C 272.241 263.999,289.819 259.714,309.200 255.037 C 315.250 253.577,320.830 252.221,321.600 252.024 C 322.370 251.827,323.810 251.459,324.800 251.206 C 325.790 250.953,327.153 250.578,327.828 250.373 C 328.504 250.168,329.429 250.000,329.884 250.000 C 331.486 250.000,332.498 248.754,331.913 247.503 C 331.631 246.900,331.265 246.405,331.100 246.403 C 330.935 246.401,330.800 246.145,330.800 245.833 C 330.800 245.522,330.665 245.207,330.500 245.133 C 330.124 244.966,328.825 242.836,328.529 241.900 C 328.407 241.515,328.148 241.200,327.953 241.200 C 327.759 241.200,327.600 240.855,327.600 240.433 C 327.600 240.012,327.459 239.607,327.286 239.533 C 326.922 239.378,324.473 234.401,323.185 231.200 C 321.462 226.915,320.594 225.214,320.129 225.207 C 319.618 225.199,318.618 222.729,317.210 218.000 C 316.719 216.350,316.170 214.550,315.990 214.000 C 315.697 213.102,314.980 210.126,313.621 204.158 C 313.331 202.884,313.260 200.967,313.433 199.058 C 313.622 196.974,313.574 196.000,313.281 196.000 C 312.530 196.000,311.660 174.180,312.381 173.459 C 312.616 173.224,312.800 171.324,312.800 169.144 C 312.800 166.977,312.978 165.137,313.200 165.000 C 313.420 164.864,313.600 163.593,313.600 162.176 C 313.600 160.725,313.775 159.600,314.000 159.600 C 314.220 159.600,314.400 158.700,314.400 157.600 C 314.400 156.500,314.580 155.600,314.800 155.600 C 315.020 155.600,315.200 154.801,315.200 153.824 C 315.200 152.847,315.380 151.936,315.600 151.800 C 315.820 151.664,316.000 150.933,316.000 150.176 C 316.000 149.419,316.180 148.800,316.400 148.800 C 316.620 148.800,316.800 148.271,316.800 147.624 C 316.800 146.977,316.980 146.336,317.200 146.200 C 317.420 146.064,317.600 145.333,317.600 144.576 C 317.600 143.819,317.780 143.200,318.000 143.200 C 318.220 143.200,318.400 142.660,318.400 142.000 C 318.400 141.340,318.580 140.800,318.800 140.800 C 319.020 140.800,319.200 140.438,319.200 139.995 C 319.200 139.552,319.359 138.877,319.553 138.495 C 320.446 136.739,321.808 133.056,321.695 132.700 C 321.643 132.535,321.780 132.400,322.000 132.400 C 322.220 132.400,322.400 132.129,322.400 131.798 C 322.400 131.467,322.850 130.263,323.400 129.123 C 323.950 127.983,324.400 126.814,324.400 126.525 C 324.400 126.236,324.580 126.000,324.800 126.000 C 325.020 126.000,325.200 125.640,325.200 125.200 C 325.200 124.760,325.380 124.400,325.600 124.400 C 325.820 124.400,326.000 124.040,326.000 123.600 C 326.000 123.160,326.180 122.800,326.400 122.800 C 326.620 122.800,326.800 122.440,326.800 122.000 C 326.800 121.560,326.946 121.200,327.125 121.200 C 327.304 121.200,327.698 120.570,328.000 119.800 C 328.302 119.030,328.696 118.400,328.875 118.400 C 329.054 118.400,329.200 118.040,329.200 117.600 C 329.200 117.160,329.380 116.800,329.600 116.800 C 329.820 116.800,330.000 116.440,330.000 116.000 C 330.000 115.560,330.150 115.200,330.332 115.200 C 331.087 115.200,331.799 113.171,331.182 112.779 C 330.830 112.557,278.802 112.410,199.636 112.408 C 127.605 112.406,68.580 112.314,68.469 112.202 C 67.927 111.660,67.653 112.096,68.093 112.800 M132.358 137.300 C 134.355 140.220,134.886 140.876,137.836 144.060 C 144.008 150.720,152.211 156.077,160.974 159.169 C 167.535 161.484,170.910 162.049,180.000 162.353 L 187.400 162.600 187.511 168.753 L 187.621 174.906 179.111 174.687 C 162.637 174.262,150.146 169.974,137.400 160.370 C 130.506 155.175,119.464 142.541,120.228 140.721 C 120.390 140.335,129.758 134.456,130.288 134.408 C 130.336 134.404,131.268 135.705,132.358 137.300 M274.457 137.200 C 276.947 138.740,279.104 140.000,279.250 140.000 C 279.899 140.000,279.930 141.338,279.303 142.321 C 266.517 162.386,245.315 174.097,220.689 174.697 L 212.379 174.900 212.489 168.750 L 212.600 162.600 220.000 162.353 C 239.049 161.715,251.952 155.629,264.718 141.260 C 265.235 140.677,266.551 138.895,267.642 137.300 C 270.012 133.834,269.035 133.848,274.457 137.200 M206.200 256.200 L 206.200 262.200 200.000 262.200 L 193.800 262.200 193.688 256.619 C 193.541 249.278,192.873 249.959,200.091 250.090 L 206.200 250.200 206.200 256.200 M50.400 272.558 C 50.400 272.911,50.250 273.200,50.068 273.200 C 49.885 273.200,49.480 273.695,49.168 274.300 C 48.855 274.905,48.285 275.749,47.900 276.175 C 47.515 276.602,47.200 277.187,47.200 277.475 C 47.200 277.764,47.065 278.001,46.900 278.003 C 46.735 278.005,46.399 278.410,46.154 278.903 C 44.499 282.230,41.807 287.022,41.531 287.133 C 41.349 287.207,41.200 287.612,41.200 288.033 C 41.200 288.455,41.020 288.800,40.800 288.800 C 40.580 288.800,40.400 289.160,40.400 289.600 C 40.400 290.040,40.220 290.400,40.000 290.400 C 39.780 290.400,39.600 290.760,39.600 291.200 C 39.600 291.640,39.465 292.001,39.300 292.003 C 38.941 292.007,38.000 293.944,38.000 294.680 C 38.000 294.966,37.820 295.200,37.600 295.200 C 37.380 295.200,37.200 295.560,37.200 296.000 C 37.200 296.440,37.040 296.800,36.844 296.800 C 36.648 296.800,36.249 297.610,35.957 298.600 C 35.665 299.590,35.285 300.400,35.113 300.400 C 34.941 300.400,34.800 300.760,34.800 301.200 C 34.800 301.640,34.620 302.000,34.400 302.000 C 34.180 302.000,34.000 302.450,34.000 303.000 C 34.000 303.550,33.820 304.000,33.600 304.000 C 33.380 304.000,33.200 304.450,33.200 305.000 C 33.200 305.550,33.020 306.000,32.800 306.000 C 32.580 306.000,32.400 306.360,32.400 306.800 C 32.400 307.240,32.220 307.600,32.000 307.600 C 31.780 307.600,31.600 308.140,31.600 308.800 C 31.600 309.460,31.420 310.000,31.200 310.000 C 30.980 310.000,30.800 310.435,30.800 310.967 C 30.800 311.498,30.660 311.993,30.488 312.067 C 30.146 312.213,26.400 323.302,26.400 324.169 C 26.400 325.153,27.957 325.189,70.140 325.195 L 112.080 325.200 108.940 327.745 C 107.213 329.145,105.440 330.705,105.000 331.212 C 104.560 331.718,106.450 330.248,109.200 327.943 C 114.918 323.152,120.302 319.111,126.715 314.800 L 131.177 311.800 131.188 300.964 L 131.200 290.127 128.900 289.629 C 127.635 289.355,125.070 288.780,123.200 288.350 C 121.330 287.920,119.080 287.406,118.200 287.206 C 117.320 287.007,114.980 286.464,113.000 286.000 C 111.020 285.536,108.680 284.999,107.800 284.806 C 105.152 284.227,102.789 283.688,99.000 282.800 C 97.020 282.336,94.680 281.794,93.800 281.596 C 92.920 281.397,90.985 280.957,89.500 280.618 C 88.015 280.278,85.585 279.722,84.100 279.382 C 82.615 279.043,80.680 278.590,79.800 278.377 C 59.600 273.477,50.400 271.656,50.400 272.558 M346.719 272.214 C 346.535 272.398,335.989 274.887,323.800 277.622 C 321.820 278.066,319.030 278.701,317.600 279.032 C 316.170 279.364,314.280 279.799,313.400 280.000 C 312.520 280.201,310.540 280.654,309.000 281.008 C 305.564 281.796,301.534 282.715,299.400 283.196 C 298.520 283.394,296.180 283.936,294.200 284.400 C 292.220 284.864,289.880 285.401,289.000 285.594 C 288.120 285.786,286.590 286.129,285.600 286.354 C 281.592 287.268,278.270 288.030,275.900 288.578 C 274.525 288.897,272.365 289.375,271.100 289.642 L 268.800 290.127 268.803 300.964 L 268.805 311.800 273.282 314.800 C 279.649 319.067,285.055 323.126,290.700 327.878 C 293.395 330.147,295.600 331.907,295.600 331.789 C 295.600 331.524,293.577 329.739,290.358 327.166 L 287.898 325.200 330.249 325.172 C 353.542 325.156,372.891 325.021,373.246 324.872 C 373.972 324.567,372.282 318.304,370.421 314.400 C 370.263 314.070,369.885 312.945,369.580 311.900 C 369.275 310.855,368.885 310.000,368.713 310.000 C 368.541 310.000,368.400 309.460,368.400 308.800 C 368.400 308.140,368.220 307.600,368.000 307.600 C 367.780 307.600,367.600 307.240,367.600 306.800 C 367.600 306.360,367.420 306.000,367.200 306.000 C 366.980 306.000,366.800 305.561,366.800 305.024 C 366.800 304.487,366.620 303.936,366.400 303.800 C 366.180 303.664,366.000 303.203,366.000 302.776 C 366.000 302.349,365.820 302.000,365.600 302.000 C 365.380 302.000,365.200 301.640,365.200 301.200 C 365.200 300.760,365.020 300.400,364.800 300.400 C 364.580 300.400,364.400 300.051,364.400 299.624 C 364.400 299.197,364.220 298.736,364.000 298.600 C 363.780 298.464,363.600 298.003,363.600 297.576 C 363.600 297.149,363.420 296.800,363.200 296.800 C 362.980 296.800,362.800 296.440,362.800 296.000 C 362.800 295.560,362.620 295.200,362.400 295.200 C 362.180 295.200,362.000 294.840,362.000 294.400 C 362.000 293.960,361.820 293.600,361.600 293.600 C 361.380 293.600,361.200 293.240,361.200 292.800 C 361.200 292.360,361.020 292.000,360.800 292.000 C 360.580 292.000,360.400 291.640,360.400 291.200 C 360.400 290.760,360.220 290.400,360.000 290.400 C 359.780 290.400,359.600 290.055,359.600 289.633 C 359.600 289.212,359.457 288.807,359.282 288.733 C 359.013 288.621,356.036 283.107,354.622 280.103 C 354.390 279.610,354.065 279.205,353.900 279.203 C 353.735 279.201,353.600 278.930,353.600 278.600 C 353.600 278.270,353.420 278.000,353.200 278.000 C 352.980 278.000,352.800 277.730,352.800 277.400 C 352.800 277.070,352.620 276.800,352.400 276.800 C 352.180 276.800,352.000 276.530,352.000 276.200 C 352.000 275.870,351.820 275.600,351.600 275.600 C 351.380 275.600,351.200 275.364,351.200 275.075 C 351.200 274.787,350.840 274.164,350.400 273.692 C 349.960 273.220,349.600 272.646,349.600 272.417 C 349.600 271.995,347.114 271.820,346.719 272.214 M143.833 293.858 C 143.449 294.859,143.570 303.534,143.972 303.783 C 144.176 303.909,145.275 303.463,146.414 302.792 C 147.552 302.120,150.490 300.573,152.942 299.354 C 158.214 296.732,158.482 296.522,156.958 296.200 C 153.881 295.549,145.131 293.572,144.533 293.391 C 144.276 293.314,143.961 293.524,143.833 293.858 M254.600 293.395 C 254.380 293.468,252.490 293.912,250.400 294.383 C 248.310 294.853,245.700 295.443,244.600 295.692 C 243.500 295.942,242.472 296.250,242.316 296.377 C 242.161 296.503,244.681 297.937,247.916 299.563 C 251.152 301.189,254.270 302.848,254.845 303.248 C 256.328 304.281,256.400 304.052,256.400 298.333 C 256.400 292.962,256.348 292.818,254.600 293.395 M194.000 308.943 C 183.632 312.755,172.005 318.214,163.333 323.341 C 161.976 324.144,160.758 324.800,160.627 324.800 C 160.307 324.800,156.000 327.668,156.000 327.880 C 156.000 328.088,156.544 327.773,158.672 326.332 L 160.344 325.200 199.964 325.200 L 239.584 325.200 241.792 326.612 C 243.007 327.389,244.000 327.931,244.000 327.817 C 244.000 327.703,243.268 327.148,242.374 326.584 C 240.764 325.567,240.082 325.174,236.200 323.024 C 235.100 322.415,234.020 321.775,233.800 321.602 C 233.105 321.055,220.516 314.800,220.111 314.800 C 219.897 314.800,219.200 314.546,218.561 314.235 C 213.630 311.835,201.080 307.198,199.600 307.230 C 199.050 307.242,196.530 308.013,194.000 308.943 M152.353 329.952 C 150.677 331.026,149.170 332.126,149.002 332.396 C 148.742 332.817,154.299 329.276,155.380 328.332 C 156.268 327.556,155.204 328.126,152.353 329.952 M244.433 328.135 C 245.724 329.177,252.476 333.647,252.280 333.329 C 251.960 332.811,244.995 328.000,244.565 328.000 C 244.401 328.000,244.342 328.061,244.433 328.135 M102.199 333.500 C 98.838 336.520,94.429 340.800,94.680 340.800 C 94.825 340.800,96.305 339.492,97.971 337.893 C 99.637 336.294,101.694 334.393,102.542 333.668 C 103.390 332.944,104.019 332.286,103.941 332.207 C 103.862 332.128,103.078 332.710,102.199 333.500 M300.188 336.081 C 302.395 338.215,304.316 339.970,304.457 339.981 C 304.735 340.002,299.893 335.364,297.586 333.400 C 296.810 332.740,297.982 333.946,300.188 336.081 M143.968 335.902 C 140.734 338.353,137.267 341.216,138.604 340.332 C 140.308 339.204,147.200 333.951,147.200 333.780 C 147.200 333.466,147.062 333.557,143.968 335.902 M252.905 333.847 C 253.031 334.051,253.991 334.832,255.037 335.584 C 256.084 336.335,256.809 336.739,256.650 336.480 C 256.490 336.222,255.531 335.440,254.518 334.743 C 253.505 334.047,252.780 333.643,252.905 333.847 M258.400 337.997 C 260.007 339.445,262.000 340.934,262.000 340.686 C 262.000 340.594,260.875 339.667,259.500 338.627 C 258.125 337.586,257.630 337.303,258.400 337.997 M262.426 341.071 C 262.441 341.252,263.913 342.570,265.699 344.000 C 267.485 345.430,272.500 350.110,276.846 354.400 C 281.191 358.690,284.595 361.929,284.411 361.597 C 283.350 359.687,262.347 340.078,262.426 341.071 M134.473 343.411 C 133.083 344.615,132.061 345.600,132.202 345.600 C 132.343 345.600,133.626 344.610,135.052 343.400 C 136.479 342.190,137.500 341.205,137.323 341.211 C 137.145 341.217,135.863 342.207,134.473 343.411 M88.561 346.722 C 86.120 349.295,83.432 352.210,82.587 353.200 L 81.051 355.000 82.656 353.400 C 87.485 348.588,93.683 342.003,93.366 342.022 C 93.165 342.034,91.003 344.149,88.561 346.722 M311.204 347.100 C 318.392 354.525,319.281 355.378,316.102 351.800 C 312.177 347.384,306.942 342.000,306.572 342.000 C 306.404 342.000,308.488 344.295,311.204 347.100 M20.934 346.227 C 20.802 346.572,20.898 347.058,21.147 347.307 C 21.484 347.644,21.600 347.484,21.600 346.680 C 21.600 345.477,21.301 345.273,20.934 346.227 M123.587 353.475 C 119.385 357.587,115.758 361.322,115.527 361.775 C 115.296 362.229,116.034 361.574,117.167 360.320 C 118.301 359.066,122.050 355.331,125.498 352.020 C 128.946 348.709,131.645 346.000,131.497 346.000 C 131.348 346.000,127.789 349.364,123.587 353.475 M78.881 357.422 C 76.655 360.243,76.965 360.229,79.382 357.400 C 80.416 356.190,81.113 355.210,80.931 355.222 C 80.749 355.235,79.826 356.225,78.881 357.422 M320.618 357.400 C 321.651 358.610,322.574 359.600,322.667 359.600 C 322.983 359.600,319.403 355.245,319.069 355.222 C 318.887 355.210,319.584 356.190,320.618 357.400 M75.626 361.322 L 74.651 362.600 75.926 361.425 C 77.251 360.203,77.403 359.985,76.900 360.022 C 76.735 360.034,76.162 360.619,75.626 361.322 M322.800 360.125 C 322.800 360.194,323.373 360.779,324.074 361.425 L 325.349 362.600 324.374 361.322 C 323.547 360.237,322.800 359.669,322.800 360.125 M18.691 363.900 C 18.319 364.613,18.409 367.200,18.806 367.200 C 19.064 367.200,19.199 366.477,19.144 365.400 C 19.050 363.588,18.978 363.349,18.691 363.900 M380.800 365.553 C 380.800 366.433,380.980 367.264,381.200 367.400 C 381.441 367.549,381.600 367.012,381.600 366.047 C 381.600 365.167,381.420 364.336,381.200 364.200 C 380.959 364.051,380.800 364.588,380.800 365.553 " stroke="none" fill="#fbc4cb" fill-rule="evenodd"></path><path id="path3" d="M24.006 23.700 C 24.011 24.428,24.086 24.485,24.400 24.000 C 24.901 23.224,24.901 22.800,24.400 22.800 C 24.180 22.800,24.003 23.205,24.006 23.700 M375.206 23.100 C 375.224 23.977,375.988 24.559,375.994 23.700 C 375.997 23.205,375.820 22.800,375.600 22.800 C 375.380 22.800,375.203 22.935,375.206 23.100 M359.600 59.376 C 359.600 60.267,360.226 60.444,360.292 59.572 C 360.324 59.148,360.181 58.800,359.975 58.800 C 359.769 58.800,359.600 59.059,359.600 59.376 M125.323 137.308 C 118.968 141.077,119.092 140.340,123.758 146.600 C 136.908 164.242,156.334 174.099,179.111 174.687 L 187.621 174.906 187.511 168.753 L 187.400 162.600 180.000 162.353 C 162.337 161.762,148.796 155.887,137.836 144.060 C 134.886 140.876,134.355 140.220,132.358 137.300 C 131.268 135.705,130.336 134.404,130.288 134.408 C 130.240 134.412,128.005 135.717,125.323 137.308 M267.642 137.300 C 265.645 140.220,265.114 140.876,262.164 144.060 C 254.869 151.932,244.851 157.891,234.323 160.620 C 229.628 161.837,227.418 162.104,220.000 162.353 L 212.600 162.600 212.489 168.750 L 212.379 174.900 220.689 174.697 C 245.315 174.097,266.517 162.386,279.303 142.321 C 279.930 141.338,279.899 140.000,279.250 140.000 C 279.104 140.000,276.947 138.740,274.457 137.200 C 269.035 133.848,270.012 133.834,267.642 137.300 M124.677 187.596 C 121.859 188.431,119.467 189.199,119.363 189.304 C 119.154 189.512,119.195 189.688,121.577 199.000 C 126.134 216.814,129.683 239.740,130.678 257.800 C 130.848 260.880,130.990 263.670,130.994 264.000 C 131.001 264.728,131.514 264.953,135.051 265.784 C 138.647 266.628,140.731 267.165,142.174 267.618 C 143.816 268.133,143.777 268.417,143.251 259.903 C 141.912 238.234,139.507 221.052,135.202 202.400 C 135.024 201.630,134.695 200.190,134.470 199.200 C 134.245 198.210,133.676 195.960,133.206 194.200 C 132.735 192.440,132.061 189.875,131.708 188.500 C 130.948 185.540,131.416 185.600,124.677 187.596 M268.656 187.100 C 268.521 187.705,268.035 189.550,267.576 191.200 C 266.722 194.265,265.844 197.746,265.203 200.600 C 265.005 201.480,264.484 203.730,264.044 205.600 C 260.585 220.312,257.969 239.743,256.760 259.707 C 256.230 268.452,256.187 268.138,257.826 267.604 C 258.472 267.393,260.620 266.848,262.600 266.392 C 268.556 265.019,269.028 264.833,269.013 263.865 C 268.926 258.101,270.551 241.552,272.473 228.616 C 273.636 220.790,275.075 213.169,276.820 205.600 C 277.301 203.510,277.840 201.170,278.016 200.400 C 278.192 199.630,278.723 197.560,279.196 195.800 C 280.598 190.579,280.838 189.504,280.641 189.308 C 280.406 189.073,269.960 186.021,269.350 186.009 C 269.103 186.004,268.790 186.495,268.656 187.100 M193.780 250.509 C 193.668 250.800,193.627 253.550,193.688 256.619 L 193.800 262.200 200.000 262.200 L 206.200 262.200 206.200 256.200 L 206.200 250.200 200.091 250.090 C 195.312 250.003,193.939 250.094,193.780 250.509 M131.200 300.873 C 131.200 310.997,131.241 311.605,131.900 311.242 C 132.285 311.029,135.083 309.357,138.118 307.526 L 143.636 304.197 143.663 298.600 L 143.689 293.003 142.144 292.712 C 141.295 292.551,138.485 291.902,135.900 291.269 L 131.200 290.118 131.200 300.873 M261.920 291.735 L 256.440 292.993 256.320 298.512 L 256.200 304.031 261.600 307.290 C 264.570 309.083,267.405 310.806,267.900 311.121 L 268.800 311.692 268.800 301.046 C 268.800 291.159,268.750 290.403,268.100 290.438 C 267.715 290.459,264.934 291.043,261.920 291.735 M18.400 367.776 C 18.400 368.093,18.580 368.464,18.800 368.600 C 19.020 368.736,19.200 368.477,19.200 368.024 C 19.200 367.571,19.020 367.200,18.800 367.200 C 18.580 367.200,18.400 367.459,18.400 367.776 " stroke="none" fill="#fc949c" fill-rule="evenodd"></path><path id="path4" d="M48.800 75.271 C 48.209 75.519,48.005 75.768,48.300 75.879 C 48.575 75.982,48.800 76.372,48.800 76.745 C 48.800 77.118,49.160 77.683,49.600 78.000 C 50.040 78.317,50.400 78.976,50.400 79.465 C 50.400 79.953,50.580 80.464,50.800 80.600 C 51.020 80.736,51.200 81.114,51.200 81.440 C 51.200 81.767,51.560 82.420,52.000 82.892 C 52.440 83.364,52.800 83.987,52.800 84.275 C 52.800 84.564,52.980 84.800,53.200 84.800 C 53.420 84.800,53.600 85.081,53.600 85.424 C 53.600 85.767,53.750 85.955,53.933 85.841 C 54.117 85.728,54.284 85.852,54.304 86.118 C 54.353 86.740,55.559 89.906,55.582 89.471 C 55.620 88.766,56.800 90.390,56.800 91.148 C 56.800 91.591,56.980 92.064,57.200 92.200 C 57.420 92.336,57.600 92.714,57.600 93.040 C 57.600 93.600,57.869 94.017,59.129 95.414 C 59.567 95.900,59.567 96.001,59.129 96.006 C 58.744 96.011,58.728 96.094,59.068 96.310 C 59.325 96.474,59.595 96.876,59.668 97.204 C 59.741 97.532,60.122 98.098,60.516 98.461 C 61.055 98.958,61.105 99.174,60.716 99.330 C 60.321 99.488,60.317 99.544,60.700 99.568 C 60.975 99.586,61.200 99.960,61.200 100.400 C 61.200 100.840,61.346 101.200,61.525 101.200 C 61.704 101.200,62.098 101.830,62.400 102.600 C 62.702 103.370,63.084 104.000,63.249 104.000 C 63.413 104.000,63.773 104.620,64.047 105.379 C 64.321 106.137,64.665 106.683,64.812 106.592 C 65.097 106.417,65.903 107.805,66.089 108.790 C 66.150 109.115,66.427 109.625,66.704 109.923 C 66.981 110.221,67.088 110.658,66.942 110.894 C 66.785 111.149,66.864 111.207,67.138 111.038 C 67.406 110.873,67.600 110.996,67.600 111.334 C 67.600 112.395,68.174 112.400,200.533 112.405 C 331.630 112.409,332.201 112.406,332.400 111.613 C 332.510 111.176,332.915 110.452,333.300 110.004 C 333.685 109.557,334.000 108.923,334.000 108.595 C 334.000 108.268,334.180 108.000,334.400 108.000 C 334.620 108.000,334.800 107.629,334.800 107.176 C 334.800 106.723,334.980 106.464,335.200 106.600 C 335.420 106.736,335.600 106.591,335.600 106.278 C 335.600 105.964,335.934 105.279,336.342 104.754 C 336.750 104.229,337.304 103.123,337.574 102.296 C 337.844 101.469,338.185 100.867,338.332 100.958 C 338.480 101.049,338.628 100.651,338.663 100.074 C 338.698 99.497,338.923 98.959,339.163 98.879 C 339.403 98.799,339.600 98.454,339.600 98.114 C 339.600 97.773,339.972 97.171,340.426 96.777 C 340.881 96.383,341.243 95.912,341.231 95.730 C 341.187 95.047,341.668 94.000,342.027 94.000 C 342.232 94.000,342.400 93.449,342.400 92.776 C 342.400 92.063,342.567 91.656,342.800 91.800 C 343.027 91.940,343.200 91.604,343.200 91.024 C 343.200 90.461,343.380 90.000,343.600 90.000 C 343.820 90.000,344.000 89.758,344.000 89.462 C 344.000 89.166,344.360 88.598,344.800 88.200 C 345.240 87.802,345.600 87.133,345.600 86.714 C 345.600 86.296,345.780 86.064,346.000 86.200 C 346.220 86.336,346.400 86.149,346.400 85.785 C 346.400 85.114,347.910 82.711,348.486 82.467 C 348.658 82.393,348.800 81.988,348.800 81.567 C 348.800 81.145,348.980 80.800,349.200 80.800 C 349.420 80.800,349.600 80.339,349.600 79.776 C 349.600 79.196,349.773 78.860,350.000 79.000 C 350.228 79.141,350.400 78.795,350.400 78.195 C 350.400 77.616,350.670 76.873,351.000 76.543 C 351.829 75.714,351.752 75.334,350.700 75.052 C 349.014 74.600,49.880 74.817,48.800 75.271 M25.999 324.600 C 25.947 325.260,25.927 325.935,25.953 326.100 C 25.979 326.265,25.799 326.400,25.553 326.400 C 25.293 326.400,25.186 326.816,25.298 327.400 C 25.403 327.950,25.334 328.400,25.145 328.400 C 24.955 328.400,24.800 329.221,24.800 330.224 C 24.800 331.337,24.644 331.951,24.400 331.800 C 24.153 331.647,23.998 332.364,23.994 333.676 C 23.989 335.195,23.877 335.629,23.600 335.200 C 23.316 334.761,23.211 335.055,23.206 336.300 C 23.202 337.387,23.020 338.002,22.700 338.006 C 22.332 338.011,22.343 338.103,22.743 338.356 C 23.121 338.596,23.151 338.783,22.843 338.974 C 22.599 339.124,22.400 340.047,22.400 341.024 C 22.400 342.001,22.220 342.800,22.000 342.800 C 21.777 342.800,21.600 343.875,21.600 345.224 C 21.600 346.737,21.450 347.554,21.200 347.400 C 20.953 347.247,20.800 347.937,20.800 349.200 C 20.800 350.326,20.640 351.149,20.445 351.028 C 20.250 350.907,20.098 351.032,20.108 351.304 C 20.215 354.274,19.946 356.415,19.500 356.147 C 19.209 355.972,19.250 356.161,19.600 356.600 C 19.950 357.039,19.991 357.228,19.700 357.053 C 19.319 356.824,19.200 357.424,19.200 359.576 L 19.200 362.400 46.936 362.400 L 74.671 362.400 75.836 361.099 C 76.476 360.383,77.810 358.808,78.800 357.599 C 86.253 348.492,99.844 335.089,109.737 327.090 L 112.073 325.200 70.137 325.195 C 27.054 325.189,26.565 325.176,26.268 324.059 C 26.172 323.697,26.051 323.940,25.999 324.600 M330.451 325.100 L 287.903 325.204 290.423 327.218 C 299.813 334.724,313.742 348.473,321.202 357.599 C 322.191 358.808,323.524 360.383,324.164 361.099 L 325.329 362.400 353.064 362.400 L 380.800 362.400 380.800 359.800 C 380.800 358.333,380.626 357.200,380.400 357.200 C 380.169 357.200,380.000 355.933,380.000 354.200 C 380.000 352.070,379.855 351.198,379.500 351.194 C 379.167 351.190,379.200 351.058,379.600 350.800 C 380.000 350.542,380.033 350.410,379.700 350.406 C 379.399 350.402,379.200 349.857,379.200 349.033 C 379.200 348.282,378.975 347.591,378.700 347.498 C 378.304 347.365,378.308 347.199,378.719 346.701 C 379.068 346.278,379.101 345.986,378.819 345.812 C 378.589 345.669,378.400 344.933,378.400 344.176 C 378.400 343.419,378.220 342.800,378.000 342.800 C 377.778 342.800,377.600 341.733,377.600 340.400 C 377.600 339.067,377.422 338.000,377.200 338.000 C 376.980 338.000,376.800 337.381,376.800 336.624 C 376.800 335.867,376.620 335.136,376.400 335.000 C 376.180 334.864,376.000 334.043,376.000 333.176 C 376.000 332.309,375.840 331.600,375.644 331.600 C 375.297 331.600,374.800 329.411,374.781 327.800 C 374.767 326.656,373.877 324.782,373.402 324.898 C 373.181 324.952,353.853 325.043,330.451 325.100 M158.000 326.709 C 156.790 327.511,153.938 329.403,151.663 330.913 C 148.118 333.267,138.200 340.519,137.600 341.198 C 137.490 341.322,135.690 342.856,133.600 344.608 C 131.510 346.359,126.560 351.034,122.600 354.996 L 115.400 362.200 157.700 362.302 C 180.965 362.358,219.035 362.358,242.300 362.302 L 284.600 362.200 277.800 355.370 C 270.968 348.508,265.972 343.980,260.581 339.764 C 254.898 335.320,247.889 330.374,242.868 327.264 L 239.537 325.200 199.868 325.225 L 160.200 325.250 158.000 326.709 " stroke="none" fill="#d4e3f3" fill-rule="evenodd"></path></g></svg>