<svg id="svg" version="1.1" xmlns="http://www.w3.org/2000/svg" xmlns:xlink="http://www.w3.org/1999/xlink" width="400" height="400" viewBox="0, 0, 400,400"><g id="svgg"><path id="path0" d="M115.200 71.200 C 115.200 71.420,114.390 71.600,113.400 71.600 C 112.410 71.600,111.600 71.780,111.600 72.000 C 111.600 72.220,110.880 72.400,110.000 72.400 C 109.120 72.400,108.400 72.580,108.400 72.800 C 108.400 73.020,107.680 73.200,106.800 73.200 C 105.920 73.200,105.200 73.380,105.200 73.600 C 105.200 73.820,104.480 74.000,103.600 74.000 C 102.720 74.000,102.000 74.161,102.000 74.358 C 102.000 74.555,101.235 74.820,100.300 74.948 C 99.365 75.076,98.330 75.244,98.000 75.323 C 97.670 75.402,96.631 75.610,95.691 75.786 C 94.751 75.961,93.886 76.261,93.768 76.453 C 93.649 76.644,93.171 76.800,92.705 76.800 C 91.804 76.800,89.461 77.465,88.305 78.049 C 87.923 78.242,87.158 78.400,86.605 78.400 C 86.052 78.400,85.600 78.580,85.600 78.800 C 85.600 79.020,85.161 79.200,84.624 79.200 C 84.087 79.200,83.536 79.380,83.400 79.600 C 83.264 79.820,82.623 80.000,81.976 80.000 C 81.329 80.000,80.800 80.180,80.800 80.400 C 80.800 80.620,80.348 80.800,79.795 80.800 C 79.242 80.800,78.432 80.980,77.995 81.200 C 77.558 81.420,76.842 81.780,76.405 82.000 C 75.968 82.220,75.259 82.400,74.829 82.400 C 74.399 82.400,73.936 82.580,73.800 82.800 C 73.664 83.020,73.113 83.200,72.576 83.200 C 72.039 83.200,71.600 83.380,71.600 83.600 C 71.600 83.820,71.060 84.000,70.400 84.000 C 69.740 84.000,69.200 84.180,69.200 84.400 C 69.200 84.620,68.761 84.800,68.224 84.800 C 67.687 84.800,67.136 84.980,67.000 85.200 C 66.864 85.420,66.313 85.600,65.776 85.600 C 65.239 85.600,64.800 85.780,64.800 86.000 C 64.800 86.220,64.451 86.400,64.024 86.400 C 63.597 86.400,63.136 86.580,63.000 86.800 C 62.864 87.020,62.313 87.200,61.776 87.200 C 61.239 87.200,60.800 87.380,60.800 87.600 C 60.800 87.820,60.440 88.000,60.000 88.000 C 59.560 88.000,59.200 88.180,59.200 88.400 C 59.200 88.620,58.660 88.800,58.000 88.800 C 57.340 88.800,56.800 88.980,56.800 89.200 C 56.800 89.420,56.440 89.600,56.000 89.600 C 55.560 89.600,55.200 89.780,55.200 90.000 C 55.200 90.220,54.660 90.400,54.000 90.400 C 53.340 90.400,52.800 90.580,52.800 90.800 C 52.800 91.020,52.440 91.200,52.000 91.200 C 51.560 91.200,51.200 91.356,51.200 91.548 C 51.200 91.739,50.581 91.996,49.824 92.119 C 48.601 92.317,46.577 93.173,41.462 95.654 C 40.616 96.064,39.671 96.400,39.362 96.400 C 39.053 96.400,38.800 96.580,38.800 96.800 C 38.800 97.020,38.440 97.200,38.000 97.200 C 37.560 97.200,37.200 97.380,37.200 97.600 C 37.200 97.820,36.840 98.000,36.400 98.000 C 35.960 98.000,35.600 98.180,35.600 98.400 C 35.600 98.620,35.364 98.800,35.075 98.800 C 34.786 98.800,33.805 99.160,32.894 99.600 C 31.984 100.040,31.050 100.400,30.819 100.400 C 30.589 100.400,30.400 100.580,30.400 100.800 C 30.400 101.020,30.040 101.200,29.600 101.200 C 29.160 101.200,28.800 101.346,28.800 101.525 C 28.800 101.704,28.170 102.098,27.400 102.400 C 26.630 102.702,26.000 103.096,26.000 103.275 C 26.000 103.454,25.730 103.600,25.400 103.600 C 25.070 103.600,24.800 103.780,24.800 104.000 C 24.800 104.220,24.530 104.400,24.200 104.400 C 23.870 104.400,23.600 104.580,23.600 104.800 C 23.600 105.020,23.370 105.200,23.088 105.200 C 22.807 105.200,22.317 105.560,22.000 106.000 C 21.683 106.440,21.199 106.800,20.925 106.800 C 19.808 106.800,12.069 114.441,10.000 117.586 C 9.670 118.088,9.175 118.733,8.900 119.020 C 8.625 119.308,8.400 119.786,8.400 120.083 C 8.400 120.380,8.040 120.883,7.600 121.200 C 7.160 121.517,6.800 122.097,6.800 122.488 C 6.800 122.880,6.620 123.200,6.400 123.200 C 6.180 123.200,6.000 123.545,6.000 123.967 C 6.000 124.388,5.865 124.793,5.700 124.867 C 5.268 125.059,3.600 128.372,3.600 129.038 C 3.600 129.347,3.420 129.600,3.200 129.600 C 2.980 129.600,2.800 130.039,2.800 130.576 C 2.800 131.113,2.620 131.664,2.400 131.800 C 2.180 131.936,2.000 132.487,2.000 133.024 C 2.000 133.561,1.820 134.000,1.600 134.000 C 1.380 134.000,1.200 134.705,1.200 135.567 C 1.200 136.464,0.987 137.204,0.700 137.300 C 0.314 137.429,0.200 140.409,0.200 150.400 C 0.200 160.391,0.314 163.371,0.700 163.500 C 0.985 163.595,1.200 164.331,1.200 165.210 C 1.200 166.058,1.380 166.864,1.600 167.000 C 1.820 167.136,2.000 167.946,2.000 168.800 C 2.000 169.654,2.180 170.464,2.400 170.600 C 2.620 170.736,2.800 171.546,2.800 172.400 C 2.800 173.254,2.980 174.064,3.200 174.200 C 3.420 174.336,3.600 175.157,3.600 176.024 C 3.600 176.891,3.780 177.600,4.000 177.600 C 4.220 177.600,4.400 178.410,4.400 179.400 C 4.400 180.390,4.580 181.200,4.800 181.200 C 5.020 181.200,5.200 182.010,5.200 183.000 C 5.200 183.990,5.380 184.800,5.600 184.800 C 5.820 184.800,6.000 185.509,6.000 186.376 C 6.000 187.243,6.180 188.064,6.400 188.200 C 6.620 188.336,6.800 189.157,6.800 190.024 C 6.800 190.891,6.980 191.600,7.200 191.600 C 7.420 191.600,7.600 192.500,7.600 193.600 C 7.600 194.700,7.762 195.600,7.960 195.600 C 8.158 195.600,8.412 196.365,8.524 197.300 C 8.917 200.562,9.160 201.990,9.749 204.487 C 10.075 205.869,10.454 207.540,10.592 208.200 C 10.838 209.376,11.172 210.890,12.026 214.700 C 12.260 215.745,12.549 217.276,12.668 218.103 C 12.787 218.929,13.045 219.705,13.242 219.826 C 13.439 219.948,13.600 220.847,13.600 221.824 C 13.600 222.801,13.780 223.600,14.000 223.600 C 14.220 223.600,14.400 224.399,14.400 225.376 C 14.400 226.353,14.580 227.264,14.800 227.400 C 15.020 227.536,15.200 228.357,15.200 229.224 C 15.200 230.091,15.380 230.800,15.600 230.800 C 15.820 230.800,16.000 231.509,16.000 232.376 C 16.000 233.243,16.180 234.064,16.400 234.200 C 16.620 234.336,16.800 235.247,16.800 236.224 C 16.800 237.201,16.980 238.000,17.200 238.000 C 17.420 238.000,17.600 238.709,17.600 239.576 C 17.600 240.443,17.780 241.264,18.000 241.400 C 18.220 241.536,18.400 242.346,18.400 243.200 C 18.400 244.054,18.580 244.864,18.800 245.000 C 19.020 245.136,19.200 245.946,19.200 246.800 C 19.200 247.654,19.380 248.464,19.600 248.600 C 19.820 248.736,20.000 249.546,20.000 250.400 C 20.000 251.254,20.180 252.064,20.400 252.200 C 20.620 252.336,20.800 253.146,20.800 254.000 C 20.800 254.854,20.980 255.664,21.200 255.800 C 21.420 255.936,21.600 256.746,21.600 257.600 C 21.600 258.454,21.780 259.264,22.000 259.400 C 22.220 259.536,22.400 260.357,22.400 261.224 C 22.400 262.091,22.580 262.800,22.800 262.800 C 23.020 262.800,23.200 263.610,23.200 264.600 C 23.200 265.590,23.380 266.400,23.600 266.400 C 23.820 266.400,24.000 267.210,24.000 268.200 C 24.000 269.190,24.180 270.000,24.400 270.000 C 24.620 270.000,24.800 270.780,24.800 271.733 C 24.800 272.687,24.925 273.591,25.077 273.744 C 25.229 273.896,25.410 274.421,25.478 274.910 C 25.579 275.639,26.080 278.306,26.962 282.800 C 27.026 283.130,27.183 283.670,27.310 284.000 C 27.587 284.721,27.974 286.783,28.266 289.100 C 28.384 290.035,28.642 290.800,28.840 290.800 C 29.038 290.800,29.200 291.599,29.200 292.576 C 29.200 293.553,29.380 294.464,29.600 294.600 C 29.820 294.736,30.000 295.546,30.000 296.400 C 30.000 297.254,30.180 298.064,30.400 298.200 C 30.620 298.336,30.800 299.146,30.800 300.000 C 30.800 300.854,30.961 301.652,31.158 301.774 C 31.494 301.982,31.706 303.011,32.253 307.100 C 32.378 308.035,32.624 308.800,32.800 308.800 C 32.976 308.800,33.228 309.610,33.360 310.600 C 33.492 311.590,33.708 313.210,33.840 314.200 C 33.972 315.190,34.242 316.000,34.440 316.000 C 34.638 316.000,34.800 316.799,34.800 317.776 C 34.800 318.753,34.980 319.664,35.200 319.800 C 35.420 319.936,35.600 320.656,35.600 321.400 C 35.600 322.144,35.780 322.864,36.000 323.000 C 36.220 323.136,36.400 324.047,36.400 325.024 C 36.400 326.001,36.580 326.800,36.800 326.800 C 37.020 326.800,37.200 327.520,37.200 328.400 C 37.200 329.280,37.380 330.000,37.600 330.000 C 37.820 330.000,38.000 330.900,38.000 332.000 C 38.000 333.100,38.180 334.000,38.400 334.000 C 38.620 334.000,38.800 334.630,38.800 335.400 C 38.800 336.170,38.980 336.800,39.200 336.800 C 39.420 336.800,39.600 337.329,39.600 337.976 C 39.600 338.623,39.780 339.264,40.000 339.400 C 40.220 339.536,40.400 340.087,40.400 340.624 C 40.400 341.161,40.580 341.600,40.800 341.600 C 41.020 341.600,41.200 342.140,41.200 342.800 C 41.200 343.460,41.380 344.000,41.600 344.000 C 41.820 344.000,42.001 344.315,42.001 344.700 C 42.003 345.615,46.301 354.067,46.900 354.333 C 47.065 354.407,47.200 354.682,47.200 354.945 C 47.200 355.208,47.560 355.683,48.000 356.000 C 48.440 356.317,48.800 356.778,48.800 357.025 C 48.800 357.271,49.610 358.330,50.600 359.378 C 51.590 360.426,52.400 361.442,52.400 361.636 C 52.400 363.292,66.841 375.200,68.850 375.200 C 69.043 375.200,69.200 375.380,69.200 375.600 C 69.200 375.820,69.560 376.000,70.000 376.000 C 70.440 376.000,70.800 376.180,70.800 376.400 C 70.800 376.620,71.160 376.800,71.600 376.800 C 72.040 376.800,72.400 376.980,72.400 377.200 C 72.400 377.420,72.760 377.600,73.200 377.600 C 73.640 377.600,74.000 377.780,74.000 378.000 C 74.000 378.220,74.360 378.400,74.800 378.400 C 75.240 378.400,75.600 378.580,75.600 378.800 C 75.600 379.020,75.960 379.200,76.400 379.200 C 76.840 379.200,77.200 379.380,77.200 379.600 C 77.200 379.820,77.639 380.000,78.176 380.000 C 78.713 380.000,79.264 380.180,79.400 380.400 C 79.536 380.620,80.076 380.800,80.600 380.800 C 81.124 380.800,81.664 380.980,81.800 381.200 C 81.936 381.420,82.476 381.600,83.000 381.600 C 83.524 381.600,84.064 381.780,84.200 382.000 C 84.336 382.220,85.067 382.400,85.824 382.400 C 86.581 382.400,87.200 382.580,87.200 382.800 C 87.200 383.020,88.100 383.200,89.200 383.200 C 90.300 383.200,91.200 383.380,91.200 383.600 C 91.200 383.835,92.592 384.000,94.576 384.000 C 96.433 384.000,98.064 384.180,98.200 384.400 C 98.543 384.954,301.457 384.954,301.800 384.400 C 301.936 384.180,303.567 384.000,305.424 384.000 C 307.408 384.000,308.800 383.835,308.800 383.600 C 308.800 383.380,309.599 383.200,310.576 383.200 C 311.553 383.200,312.464 383.020,312.600 382.800 C 312.736 382.580,313.456 382.400,314.200 382.400 C 314.944 382.400,315.664 382.220,315.800 382.000 C 315.936 381.780,316.577 381.600,317.224 381.600 C 317.871 381.600,318.400 381.420,318.400 381.200 C 318.400 380.980,318.762 380.800,319.205 380.800 C 319.648 380.800,320.368 380.620,320.805 380.400 C 321.242 380.180,321.958 379.820,322.395 379.600 C 322.832 379.380,323.462 379.200,323.795 379.200 C 324.128 379.200,324.400 379.020,324.400 378.800 C 324.400 378.580,324.760 378.400,325.200 378.400 C 325.640 378.400,326.000 378.220,326.000 378.000 C 326.000 377.780,326.360 377.600,326.800 377.600 C 327.240 377.600,327.600 377.420,327.600 377.200 C 327.600 376.980,327.960 376.800,328.400 376.800 C 328.840 376.800,329.200 376.620,329.200 376.400 C 329.200 376.180,329.560 376.000,330.000 376.000 C 330.440 376.000,330.800 375.841,330.800 375.647 C 330.800 375.452,331.115 375.187,331.500 375.058 C 334.863 373.925,348.000 362.839,348.000 361.133 C 348.000 360.906,348.540 360.217,349.200 359.600 C 349.860 358.983,350.400 358.373,350.400 358.244 C 350.400 358.011,351.335 356.800,352.300 355.784 C 352.575 355.494,352.800 355.064,352.800 354.829 C 352.800 354.593,352.935 354.399,353.100 354.397 C 353.265 354.395,353.606 353.990,353.859 353.497 C 356.614 348.111,358.000 345.142,358.000 344.624 C 358.000 344.281,358.180 344.000,358.400 344.000 C 358.620 344.000,358.800 343.460,358.800 342.800 C 358.800 342.140,358.980 341.600,359.200 341.600 C 359.420 341.600,359.600 341.161,359.600 340.624 C 359.600 340.087,359.780 339.536,360.000 339.400 C 360.220 339.264,360.400 338.623,360.400 337.976 C 360.400 337.329,360.580 336.800,360.800 336.800 C 361.020 336.800,361.200 336.170,361.200 335.400 C 361.200 334.630,361.380 334.000,361.600 334.000 C 361.820 334.000,362.000 333.201,362.000 332.224 C 362.000 331.247,362.180 330.336,362.400 330.200 C 362.620 330.064,362.800 329.243,362.800 328.376 C 362.800 327.509,362.980 326.800,363.200 326.800 C 363.420 326.800,363.600 326.001,363.600 325.024 C 363.600 324.047,363.780 323.136,364.000 323.000 C 364.220 322.864,364.400 322.144,364.400 321.400 C 364.400 320.656,364.580 319.936,364.800 319.800 C 365.020 319.664,365.200 318.753,365.200 317.776 C 365.200 316.799,365.362 316.000,365.560 316.000 C 365.758 316.000,366.028 315.190,366.160 314.200 C 366.292 313.210,366.508 311.590,366.640 310.600 C 366.772 309.610,367.042 308.800,367.240 308.800 C 367.438 308.800,367.600 307.990,367.600 307.000 C 367.600 306.010,367.762 305.200,367.960 305.200 C 368.158 305.200,368.422 304.435,368.547 303.500 C 369.094 299.411,369.306 298.382,369.642 298.174 C 369.839 298.052,370.000 297.254,370.000 296.400 C 370.000 295.546,370.180 294.736,370.400 294.600 C 370.620 294.464,370.800 293.679,370.800 292.856 C 370.800 292.033,370.962 291.189,371.159 290.980 C 371.356 290.771,371.616 289.880,371.736 289.000 C 372.064 286.602,372.432 284.672,372.690 284.000 C 372.817 283.670,372.974 283.130,373.038 282.800 C 373.920 278.306,374.421 275.639,374.522 274.910 C 374.590 274.421,374.771 273.896,374.923 273.744 C 375.075 273.591,375.200 272.687,375.200 271.733 C 375.200 270.780,375.380 270.000,375.600 270.000 C 375.820 270.000,376.000 269.100,376.000 268.000 C 376.000 266.900,376.180 266.000,376.400 266.000 C 376.620 266.000,376.800 265.280,376.800 264.400 C 376.800 263.520,376.980 262.800,377.200 262.800 C 377.420 262.800,377.600 262.091,377.600 261.224 C 377.600 260.357,377.780 259.536,378.000 259.400 C 378.220 259.264,378.400 258.454,378.400 257.600 C 378.400 256.746,378.580 255.936,378.800 255.800 C 379.020 255.664,379.200 254.854,379.200 254.000 C 379.200 253.146,379.380 252.336,379.600 252.200 C 379.820 252.064,380.000 251.254,380.000 250.400 C 380.000 249.546,380.180 248.736,380.400 248.600 C 380.620 248.464,380.800 247.654,380.800 246.800 C 380.800 245.946,380.980 245.136,381.200 245.000 C 381.420 244.864,381.600 244.043,381.600 243.176 C 381.600 242.309,381.780 241.600,382.000 241.600 C 382.220 241.600,382.400 240.790,382.400 239.800 C 382.400 238.810,382.580 238.000,382.800 238.000 C 383.020 238.000,383.200 237.201,383.200 236.224 C 383.200 235.247,383.380 234.336,383.600 234.200 C 383.820 234.064,384.000 233.243,384.000 232.376 C 384.000 231.509,384.162 230.800,384.360 230.800 C 384.698 230.800,384.816 230.219,385.432 225.500 C 385.569 224.455,385.824 223.600,386.000 223.600 C 386.176 223.600,386.416 222.835,386.534 221.900 C 386.872 219.222,387.226 217.466,387.602 216.600 C 387.794 216.160,388.043 215.170,388.156 214.400 C 388.519 211.931,388.853 210.216,389.091 209.600 C 389.219 209.270,389.390 208.550,389.471 208.000 C 389.553 207.450,389.878 205.920,390.193 204.600 C 390.969 201.357,391.189 200.167,391.472 197.700 C 391.604 196.545,391.867 195.600,392.056 195.600 C 392.245 195.600,392.400 194.700,392.400 193.600 C 392.400 192.500,392.580 191.600,392.800 191.600 C 393.020 191.600,393.200 190.880,393.200 190.000 C 393.200 189.120,393.380 188.400,393.600 188.400 C 393.820 188.400,394.000 187.605,394.000 186.633 C 394.000 185.662,394.170 184.807,394.379 184.733 C 394.587 184.660,394.800 183.745,394.853 182.700 C 394.906 181.655,395.096 180.800,395.275 180.800 C 395.454 180.800,395.600 180.080,395.600 179.200 C 395.600 178.320,395.780 177.600,396.000 177.600 C 396.220 177.600,396.400 176.891,396.400 176.024 C 396.400 175.157,396.580 174.336,396.800 174.200 C 397.020 174.064,397.200 173.254,397.200 172.400 C 397.200 171.546,397.380 170.736,397.600 170.600 C 397.820 170.464,398.000 169.654,398.000 168.800 C 398.000 167.946,398.180 167.136,398.400 167.000 C 398.620 166.864,398.800 166.079,398.800 165.256 C 398.800 164.433,399.025 163.535,399.300 163.260 C 399.678 162.882,399.800 159.755,399.800 150.400 C 399.800 141.045,399.678 137.918,399.300 137.540 C 399.025 137.265,398.800 136.356,398.800 135.520 C 398.800 134.684,398.620 134.000,398.400 134.000 C 398.180 134.000,398.000 133.638,398.000 133.195 C 398.000 132.752,397.841 132.077,397.647 131.695 C 397.304 131.022,397.059 130.450,395.936 127.700 C 395.644 126.985,395.269 126.400,395.102 126.400 C 394.936 126.400,394.800 126.040,394.800 125.600 C 394.800 125.160,394.620 124.800,394.400 124.800 C 394.180 124.800,394.000 124.440,394.000 124.000 C 394.000 123.560,393.820 123.200,393.600 123.200 C 393.380 123.200,393.200 122.964,393.200 122.675 C 393.200 122.387,392.840 121.764,392.400 121.292 C 391.960 120.820,391.600 120.233,391.600 119.988 C 391.600 119.743,391.375 119.308,391.100 119.020 C 390.825 118.733,390.330 118.088,390.000 117.586 C 388.934 115.966,387.067 113.854,384.606 111.483 C 380.646 107.670,379.644 106.800,379.208 106.800 C 378.979 106.800,378.228 106.260,377.537 105.600 C 376.846 104.940,376.038 104.400,375.741 104.400 C 375.443 104.400,375.200 104.220,375.200 104.000 C 375.200 103.780,374.964 103.600,374.675 103.600 C 374.387 103.600,373.764 103.240,373.292 102.800 C 372.820 102.360,372.156 102.000,371.817 102.000 C 371.478 102.000,371.199 101.865,371.197 101.700 C 371.193 101.341,369.256 100.400,368.520 100.400 C 368.234 100.400,367.999 100.265,367.997 100.100 C 367.993 99.694,366.014 98.800,365.120 98.800 C 364.724 98.800,364.400 98.620,364.400 98.400 C 364.400 98.180,364.040 98.000,363.600 98.000 C 363.160 98.000,362.800 97.820,362.800 97.600 C 362.800 97.380,362.440 97.200,362.000 97.200 C 361.560 97.200,361.200 97.020,361.200 96.800 C 361.200 96.580,360.964 96.400,360.675 96.400 C 360.386 96.400,359.261 95.974,358.175 95.453 C 353.912 93.408,350.427 92.000,349.633 92.000 C 349.175 92.000,348.800 91.820,348.800 91.600 C 348.800 91.380,348.440 91.200,348.000 91.200 C 347.560 91.200,347.200 91.020,347.200 90.800 C 347.200 90.580,346.761 90.400,346.224 90.400 C 345.687 90.400,345.136 90.220,345.000 90.000 C 344.864 89.780,344.403 89.600,343.976 89.600 C 343.549 89.600,343.200 89.453,343.200 89.272 C 343.200 89.092,342.300 88.700,341.200 88.400 C 340.100 88.100,339.200 87.708,339.200 87.528 C 339.200 87.347,338.750 87.200,338.200 87.200 C 337.650 87.200,337.200 87.053,337.200 86.872 C 337.200 86.692,336.289 86.296,335.175 85.993 C 334.061 85.690,333.060 85.297,332.951 85.121 C 332.842 84.944,332.313 84.800,331.776 84.800 C 331.239 84.800,330.800 84.620,330.800 84.400 C 330.800 84.180,330.260 84.000,329.600 84.000 C 328.940 84.000,328.400 83.859,328.400 83.687 C 328.400 83.515,327.545 83.140,326.500 82.854 C 324.604 82.334,323.219 81.821,321.905 81.153 C 321.523 80.959,320.859 80.800,320.429 80.800 C 319.999 80.800,319.536 80.620,319.400 80.400 C 319.264 80.180,318.724 80.000,318.200 80.000 C 317.676 80.000,317.136 79.820,317.000 79.600 C 316.864 79.380,316.223 79.200,315.576 79.200 C 314.929 79.200,314.400 79.020,314.400 78.800 C 314.400 78.580,313.860 78.400,313.200 78.400 C 312.540 78.400,312.000 78.240,312.000 78.044 C 312.000 77.848,311.415 77.600,310.700 77.494 C 309.985 77.387,307.735 76.846,305.700 76.291 C 303.665 75.737,302.000 75.390,302.000 75.522 C 302.000 75.653,301.784 75.544,301.520 75.280 C 301.256 75.016,300.356 74.800,299.520 74.800 C 298.684 74.800,298.000 74.620,298.000 74.400 C 298.000 74.180,297.280 74.000,296.400 74.000 C 295.520 74.000,294.800 73.820,294.800 73.600 C 294.800 73.380,294.080 73.200,293.200 73.200 C 292.320 73.200,291.600 73.020,291.600 72.800 C 291.600 72.580,290.880 72.400,290.000 72.400 C 289.120 72.400,288.400 72.220,288.400 72.000 C 288.400 71.780,287.605 71.600,286.633 71.600 C 285.595 71.600,284.783 71.394,284.664 71.100 C 284.511 70.723,284.353 70.748,284.025 71.200 C 283.522 71.893,283.491 71.758,285.360 77.000 C 292.612 97.336,291.925 121.327,283.524 141.157 C 283.115 142.123,282.864 142.997,282.967 143.100 C 283.228 143.361,284.175 140.997,285.964 135.616 C 287.712 130.359,288.124 128.762,289.398 122.300 L 289.615 121.200 293.788 121.200 C 308.817 121.200,323.865 129.381,332.049 142.000 C 339.763 153.895,341.088 166.088,337.158 189.000 C 336.577 192.390,335.381 197.784,334.808 199.600 C 334.635 200.150,334.264 201.410,333.985 202.400 C 324.693 235.318,303.948 264.065,281.315 275.383 C 264.598 283.744,247.553 281.929,238.000 270.771 C 235.528 267.884,235.619 268.020,232.875 263.100 C 225.988 250.754,224.203 227.965,228.231 203.800 C 229.872 193.954,230.297 192.531,231.760 191.983 C 250.058 185.136,267.653 170.698,276.953 154.900 C 277.789 153.479,276.720 154.691,275.452 156.601 C 274.648 157.811,273.733 159.116,273.418 159.501 C 273.102 159.885,271.983 161.370,270.929 162.800 C 268.693 165.835,260.057 174.708,257.167 176.940 C 250.954 181.738,244.082 186.088,239.300 188.250 C 238.145 188.773,236.255 189.626,235.100 190.147 C 229.120 192.845,222.096 194.981,215.200 196.200 C 203.137 198.331,190.014 197.772,177.354 194.586 C 173.515 193.620,167.390 191.425,166.620 190.739 C 166.411 190.552,165.985 190.400,165.674 190.400 C 164.257 190.400,151.767 183.608,148.000 180.789 C 147.230 180.212,145.525 178.944,144.212 177.970 C 134.685 170.907,125.015 158.922,118.740 146.400 C 117.472 143.870,116.427 142.005,116.417 142.256 C 116.381 143.209,121.537 152.784,124.344 156.977 C 134.864 172.690,150.177 185.045,167.240 191.586 L 169.480 192.444 170.124 195.122 C 173.321 208.407,174.917 232.359,173.260 242.200 C 171.955 249.953,170.926 254.027,169.116 258.600 C 167.888 261.706,167.536 262.422,165.584 265.800 C 152.802 287.918,122.239 284.997,97.556 259.298 C 92.178 253.698,82.000 240.411,82.000 238.989 C 82.000 238.843,81.646 238.227,81.214 237.620 C 77.757 232.765,71.626 219.492,68.270 209.600 C 66.093 203.183,64.677 198.118,63.627 193.000 C 63.356 191.680,62.979 189.880,62.789 189.000 C 62.598 188.120,62.254 185.960,62.025 184.200 C 61.796 182.440,61.426 179.598,61.204 177.884 C 57.396 148.511,72.153 127.064,99.920 121.616 C 106.741 120.278,110.800 121.150,110.800 123.955 C 110.800 124.619,110.960 125.576,111.155 126.081 C 111.350 126.587,111.729 127.990,111.997 129.200 C 112.670 132.244,115.584 140.913,116.097 141.400 C 116.388 141.677,116.426 141.554,116.218 141.000 C 114.639 136.783,112.316 129.002,111.621 125.600 C 111.149 123.290,110.600 120.770,110.400 120.000 C 109.182 115.298,109.201 100.827,110.435 93.000 C 111.424 86.725,114.899 74.346,116.071 72.919 C 116.516 72.377,116.146 70.800,115.573 70.800 C 115.368 70.800,115.200 70.980,115.200 71.200 M184.398 86.295 C 182.607 86.773,180.842 87.783,180.475 88.540 C 178.460 92.697,178.854 93.421,188.313 102.928 C 197.956 112.620,199.060 113.304,202.355 111.623 C 204.362 110.599,205.200 109.240,205.200 107.009 C 205.200 104.429,205.088 104.286,195.967 95.188 C 187.888 87.129,186.182 85.818,184.398 86.295 M280.627 147.526 C 279.550 149.657,278.338 151.878,277.934 152.462 C 277.046 153.747,276.972 154.526,277.846 153.400 C 278.624 152.398,282.896 143.963,282.717 143.784 C 282.644 143.711,281.704 145.395,280.627 147.526 M153.645 307.606 C 162.813 309.331,170.358 321.017,166.446 327.432 C 163.529 332.215,155.632 329.652,155.607 323.914 C 155.593 320.944,151.911 318.336,149.075 319.286 C 146.647 320.099,145.200 322.081,145.200 324.591 C 145.200 329.968,136.763 331.355,134.200 326.399 C 129.749 317.793,142.467 305.501,153.645 307.606 M253.323 307.797 C 263.843 310.537,270.447 323.558,263.863 328.579 C 260.601 331.067,254.800 328.514,254.800 324.591 C 254.800 320.957,251.481 318.298,248.201 319.304 C 246.245 319.904,244.400 322.053,244.400 323.729 C 244.400 329.585,236.510 332.279,233.554 327.432 C 232.683 326.004,232.503 321.176,233.251 319.319 C 236.924 310.196,244.918 305.608,253.323 307.797 M137.415 330.005 C 139.474 330.685,141.666 330.162,143.561 328.540 C 145.373 326.990,146.265 327.044,149.600 328.910 C 168.738 339.618,159.990 362.633,136.800 362.586 C 111.486 362.534,104.843 334.590,128.400 327.250 C 132.635 325.931,132.812 325.948,134.506 327.851 C 135.335 328.781,136.644 329.750,137.415 330.005 M272.200 327.414 C 295.142 335.141,288.132 362.535,263.200 362.586 C 238.871 362.635,230.873 336.845,252.475 328.005 L 254.750 327.073 256.220 328.364 C 259.376 331.135,262.259 331.030,265.161 328.037 C 267.212 325.922,267.656 325.883,272.200 327.414 M190.743 331.971 C 191.574 332.395,192.509 333.049,192.821 333.425 C 193.729 334.519,196.046 335.817,198.100 336.382 C 200.907 337.153,205.262 335.736,207.179 333.425 C 211.825 327.827,220.718 334.736,216.497 340.664 C 209.467 350.536,190.525 350.525,183.490 340.646 C 180.056 335.823,185.509 329.301,190.743 331.971 " stroke="none" fill="#99a9b9" fill-rule="evenodd"></path><path id="path1" d="M194.200 49.437 C 191.310 49.655,185.726 50.802,182.600 51.820 C 177.614 53.444,171.606 56.137,171.267 56.900 C 171.193 57.065,170.958 57.200,170.745 57.200 C 170.384 57.200,165.649 60.251,165.200 60.772 C 165.090 60.900,164.300 61.526,163.445 62.164 C 162.590 62.802,160.790 64.440,159.445 65.803 C 153.325 72.009,149.203 78.398,145.900 86.800 C 145.684 87.350,145.348 88.113,145.153 88.495 C 144.959 88.877,144.800 89.631,144.800 90.171 C 144.800 90.711,144.620 91.264,144.400 91.400 C 144.180 91.536,144.000 92.231,144.000 92.944 C 144.000 93.657,143.837 94.411,143.639 94.620 C 142.737 95.568,141.956 114.116,142.783 114.943 C 143.012 115.172,143.200 116.213,143.200 117.256 C 143.200 118.299,143.380 119.264,143.600 119.400 C 143.820 119.536,144.000 120.267,144.000 121.024 C 144.000 121.781,144.180 122.400,144.400 122.400 C 144.620 122.400,144.800 122.929,144.800 123.576 C 144.800 124.223,144.980 124.864,145.200 125.000 C 145.420 125.136,145.600 125.687,145.600 126.224 C 145.600 126.761,145.780 127.200,146.000 127.200 C 146.220 127.200,146.400 127.531,146.400 127.936 C 146.400 129.144,150.132 136.101,152.943 140.133 C 156.089 144.645,161.458 150.195,165.200 152.803 C 165.970 153.339,166.918 154.069,167.307 154.425 C 167.695 154.781,168.505 155.326,169.107 155.635 C 169.708 155.945,170.290 156.289,170.400 156.399 C 170.711 156.711,172.423 157.670,174.400 158.638 C 179.644 161.206,182.656 162.123,191.931 163.975 C 194.691 164.526,205.321 164.524,208.069 163.972 C 217.928 161.992,220.407 161.229,225.800 158.511 C 226.900 157.957,228.204 157.300,228.697 157.052 C 229.190 156.803,229.595 156.465,229.597 156.300 C 229.599 156.135,229.790 156.000,230.022 156.000 C 230.554 156.000,234.945 153.032,236.800 151.418 C 243.817 145.313,248.118 139.744,251.947 131.800 C 252.901 129.820,253.843 127.887,254.041 127.505 C 254.238 127.123,254.400 126.459,254.400 126.029 C 254.400 125.599,254.580 125.136,254.800 125.000 C 255.020 124.864,255.200 124.324,255.200 123.800 C 255.200 123.276,255.380 122.736,255.600 122.600 C 255.820 122.464,256.000 121.769,256.000 121.056 C 256.000 120.343,256.163 119.589,256.361 119.380 C 257.265 118.429,258.047 99.487,257.216 98.656 C 256.987 98.427,256.800 97.387,256.800 96.344 C 256.800 95.301,256.620 94.336,256.400 94.200 C 256.180 94.064,256.000 93.571,256.000 93.105 C 256.000 92.204,255.335 89.861,254.751 88.705 C 254.558 88.323,254.400 87.736,254.400 87.400 C 254.400 87.064,254.238 86.477,254.041 86.095 C 253.843 85.713,252.898 83.783,251.941 81.806 C 247.355 72.337,240.697 64.631,232.122 58.866 C 230.759 57.950,229.469 57.200,229.255 57.200 C 229.042 57.200,228.807 57.044,228.733 56.853 C 228.348 55.852,218.168 51.781,213.600 50.802 C 212.390 50.543,210.762 50.170,209.983 49.974 C 208.410 49.578,197.330 49.201,194.200 49.437 M195.967 95.188 C 205.088 104.286,205.200 104.429,205.200 107.009 C 205.200 111.055,201.249 113.483,197.684 111.628 C 195.241 110.356,180.529 95.301,179.872 93.400 C 178.989 90.843,180.093 88.017,182.346 87.067 C 186.126 85.474,186.380 85.626,195.967 95.188 M99.800 121.623 C 92.846 123.111,90.568 123.891,85.000 126.689 C 66.978 135.744,58.192 154.646,61.204 177.884 C 61.426 179.598,61.796 182.440,62.025 184.200 C 62.254 185.960,62.598 188.120,62.789 189.000 C 62.979 189.880,63.356 191.680,63.627 193.000 C 65.822 203.702,70.060 215.958,75.221 226.529 C 77.880 231.976,80.037 235.966,81.214 237.620 C 81.646 238.227,82.000 238.843,82.000 238.989 C 82.000 240.411,92.178 253.698,97.556 259.298 C 122.239 284.997,152.802 287.918,165.584 265.800 C 167.536 262.422,167.888 261.706,169.116 258.600 C 170.926 254.027,171.955 249.953,173.260 242.200 C 174.917 232.359,173.321 208.407,170.124 195.122 L 169.480 192.444 167.240 191.586 C 140.432 181.310,117.949 155.919,112.000 129.200 C 111.730 127.990,111.350 126.587,111.155 126.081 C 110.960 125.576,110.800 124.619,110.800 123.955 C 110.800 121.393,110.429 121.196,105.686 121.240 C 103.329 121.262,100.680 121.434,99.800 121.623 M289.398 122.300 C 287.497 131.943,285.418 138.344,281.637 146.203 C 272.586 165.014,258.254 179.455,239.800 188.358 C 234.502 190.914,233.938 191.168,231.760 191.983 C 230.297 192.531,229.872 193.954,228.231 203.800 C 226.120 216.467,225.437 234.308,226.753 242.400 C 228.179 251.163,230.394 258.652,232.875 263.100 C 235.619 268.020,235.528 267.884,238.000 270.771 C 247.553 281.929,264.598 283.744,281.315 275.383 C 303.948 264.065,324.693 235.318,333.985 202.400 C 334.264 201.410,334.635 200.150,334.808 199.600 C 334.982 199.050,335.333 197.700,335.590 196.600 C 343.287 163.580,338.804 143.378,320.798 129.944 C 314.115 124.958,302.507 121.200,293.788 121.200 L 289.615 121.200 289.398 122.300 M132.000 326.300 C 125.701 327.186,118.174 332.125,115.693 337.000 C 109.250 349.659,119.886 362.551,136.800 362.586 C 159.990 362.633,168.738 339.618,149.600 328.910 C 146.265 327.044,145.373 326.990,143.561 328.540 C 140.551 331.117,137.187 330.861,134.506 327.851 C 133.354 326.557,132.765 326.192,132.000 326.300 M265.161 328.037 C 262.259 331.030,259.376 331.135,256.220 328.364 L 254.750 327.073 252.475 328.005 C 230.873 336.845,238.871 362.635,263.200 362.586 C 288.132 362.535,295.142 335.141,272.200 327.414 C 267.656 325.883,267.212 325.922,265.161 328.037 " stroke="none" fill="#ebc91d" fill-rule="evenodd"></path><path id="path2" d="M160.600 24.400 C 160.736 24.620,160.477 24.800,160.024 24.800 C 159.571 24.800,159.200 24.980,159.200 25.200 C 159.200 25.420,159.065 25.570,158.900 25.534 C 158.371 25.419,156.400 26.077,156.400 26.369 C 156.400 26.746,153.275 28.400,152.562 28.400 C 152.253 28.400,152.000 28.580,152.000 28.800 C 152.000 29.020,151.719 29.200,151.376 29.200 C 151.033 29.200,150.864 29.380,151.000 29.600 C 151.136 29.820,150.877 30.000,150.424 30.000 C 149.971 30.000,149.600 30.136,149.600 30.302 C 149.600 30.469,149.059 30.844,148.398 31.137 C 147.736 31.430,147.297 31.834,147.421 32.035 C 147.546 32.236,147.356 32.400,147.000 32.400 C 146.644 32.400,146.464 32.580,146.600 32.800 C 146.741 33.028,146.396 33.200,145.800 33.200 C 145.204 33.200,144.859 33.372,145.000 33.600 C 145.136 33.820,145.065 34.000,144.842 34.000 C 144.288 34.000,142.430 35.896,142.709 36.176 C 142.832 36.299,142.630 36.400,142.258 36.400 C 141.887 36.400,140.318 37.660,138.772 39.200 C 137.226 40.740,135.700 42.000,135.381 42.000 C 135.061 42.000,134.800 42.160,134.800 42.354 C 134.800 42.549,133.720 43.830,132.400 45.200 C 131.080 46.570,130.000 47.844,130.000 48.031 C 130.000 48.219,129.640 48.565,129.200 48.800 C 128.760 49.035,128.400 49.403,128.400 49.618 C 128.400 49.832,127.860 50.572,127.200 51.263 C 126.540 51.954,126.000 52.740,126.000 53.010 C 126.000 53.281,125.730 53.726,125.400 54.000 C 125.070 54.274,124.800 54.764,124.800 55.088 C 124.800 55.413,124.260 56.183,123.600 56.800 C 122.940 57.417,122.400 58.209,122.400 58.560 C 122.400 58.912,122.220 59.200,122.000 59.200 C 121.780 59.200,121.600 59.470,121.600 59.800 C 121.600 60.130,121.420 60.400,121.200 60.400 C 120.980 60.400,120.800 60.771,120.800 61.224 C 120.800 61.677,120.620 61.936,120.400 61.800 C 120.180 61.664,120.000 61.833,120.000 62.176 C 120.000 62.519,119.820 62.800,119.600 62.800 C 119.380 62.800,119.221 62.935,119.247 63.100 C 119.390 64.004,119.148 64.815,118.800 64.600 C 118.580 64.464,118.400 64.723,118.400 65.176 C 118.400 65.629,118.220 66.000,118.000 66.000 C 117.780 66.000,117.600 66.360,117.600 66.800 C 117.600 67.240,117.420 67.600,117.200 67.600 C 116.980 67.600,116.800 67.949,116.800 68.376 C 116.800 68.803,116.600 69.276,116.356 69.427 C 116.089 69.592,116.004 70.270,116.143 71.126 C 116.270 71.909,116.217 72.741,116.025 72.975 C 114.893 74.354,111.403 86.858,110.435 93.000 C 109.019 101.991,109.276 120.058,110.835 121.022 C 111.036 121.146,111.200 121.801,111.200 122.477 C 111.200 123.154,111.394 124.448,111.632 125.354 C 111.869 126.259,112.243 127.720,112.463 128.600 C 114.717 137.625,119.670 149.256,123.647 154.862 C 124.061 155.446,124.400 156.121,124.400 156.362 C 124.400 156.603,124.550 156.800,124.732 156.800 C 124.915 156.800,125.320 157.292,125.632 157.894 C 125.945 158.496,126.415 159.261,126.677 159.594 C 132.977 167.597,139.191 174.060,143.988 177.600 C 144.733 178.150,145.822 178.997,146.407 179.482 C 148.539 181.247,155.526 185.452,159.810 187.547 C 163.850 189.523,164.684 189.903,167.000 190.826 C 167.440 191.001,168.970 191.678,170.400 192.330 C 179.061 196.279,195.803 198.339,208.400 197.004 C 218.385 195.947,230.044 193.147,231.016 191.574 C 231.143 191.368,231.509 191.200,231.828 191.200 C 234.467 191.200,252.991 180.771,256.000 177.591 C 256.110 177.474,257.010 176.755,258.000 175.992 C 262.261 172.708,271.921 162.161,271.267 161.507 C 271.083 161.323,267.708 160.999,263.766 160.786 C 253.244 160.219,246.781 159.323,237.633 157.162 C 233.177 156.109,231.410 156.004,230.800 156.754 C 230.233 157.451,225.041 160.068,221.400 161.491 C 217.175 163.142,214.622 163.873,209.600 164.867 C 206.138 165.552,193.791 165.557,190.400 164.875 C 185.742 163.938,181.566 162.805,181.020 162.330 C 180.811 162.149,180.314 162.000,179.915 162.000 C 179.516 162.000,178.877 161.826,178.495 161.612 C 178.113 161.399,176.450 160.591,174.800 159.816 C 171.784 158.400,169.571 157.196,169.200 156.771 C 169.090 156.645,168.730 156.442,168.400 156.319 C 163.252 154.413,152.194 142.265,147.901 133.800 C 142.362 122.879,140.125 109.691,141.930 98.600 C 142.181 97.060,142.498 95.034,142.635 94.097 C 142.772 93.161,143.045 92.295,143.242 92.174 C 143.439 92.052,143.600 91.570,143.600 91.103 C 143.600 87.028,150.585 74.050,156.000 68.064 L 158.200 65.632 158.065 54.916 C 157.913 42.973,158.418 37.393,160.274 30.486 C 161.728 25.075,161.852 24.000,161.020 24.000 C 160.653 24.000,160.464 24.180,160.600 24.400 " stroke="none" fill="#4cbbfb" fill-rule="evenodd"></path><path id="path3" d="M195.020 15.568 C 194.859 15.828,193.254 16.000,191.000 16.000 C 188.930 16.000,187.136 16.179,187.000 16.400 C 186.864 16.620,185.773 16.800,184.576 16.800 C 183.379 16.800,182.400 16.980,182.400 17.200 C 182.400 17.420,181.590 17.600,180.600 17.600 C 179.610 17.600,178.800 17.780,178.800 18.000 C 178.800 18.220,178.080 18.400,177.200 18.400 C 176.320 18.400,175.600 18.580,175.600 18.800 C 175.600 19.020,175.071 19.200,174.424 19.200 C 173.777 19.200,173.136 19.380,173.000 19.600 C 172.864 19.820,172.234 20.000,171.600 20.000 C 170.966 20.000,170.336 20.180,170.200 20.400 C 170.064 20.620,169.603 20.800,169.176 20.800 C 168.749 20.800,168.400 20.980,168.400 21.200 C 168.400 21.420,168.038 21.600,167.595 21.600 C 167.152 21.600,166.477 21.759,166.095 21.953 C 165.713 22.148,164.860 22.529,164.200 22.800 C 161.988 23.708,161.801 23.881,161.552 25.244 C 161.416 25.990,160.838 28.349,160.268 30.486 C 158.416 37.422,157.914 42.990,158.065 54.916 L 158.200 65.632 156.000 68.064 C 150.585 74.050,143.600 87.028,143.600 91.103 C 143.600 91.570,143.439 92.052,143.242 92.174 C 143.045 92.295,142.772 93.161,142.635 94.097 C 142.498 95.034,142.181 97.060,141.930 98.600 C 139.505 113.500,144.036 130.444,153.804 143.000 C 157.480 147.725,165.872 155.383,168.400 156.319 C 168.730 156.442,169.090 156.645,169.200 156.771 C 169.571 157.196,171.784 158.400,174.800 159.816 C 176.450 160.591,178.113 161.399,178.495 161.612 C 178.877 161.826,179.516 162.000,179.915 162.000 C 180.314 162.000,180.811 162.149,181.020 162.330 C 181.583 162.820,185.600 163.909,190.400 164.875 C 193.791 165.557,206.138 165.552,209.600 164.867 C 214.622 163.873,217.175 163.142,221.400 161.491 C 225.041 160.068,230.233 157.451,230.800 156.754 C 231.410 156.004,233.177 156.109,237.633 157.162 C 246.358 159.223,257.309 160.754,263.800 160.821 C 265.780 160.842,268.390 161.007,269.600 161.188 C 271.431 161.462,271.885 161.406,272.308 160.858 C 272.587 160.496,273.045 159.926,273.326 159.591 C 275.135 157.433,277.397 153.701,280.368 147.969 C 291.646 126.212,293.512 99.565,285.337 77.000 C 284.540 74.800,283.862 72.370,283.829 71.600 C 283.761 69.972,283.654 69.684,281.503 65.300 C 280.613 63.485,279.730 62.000,279.542 62.000 C 279.354 62.000,279.200 61.640,279.200 61.200 C 279.200 60.760,279.020 60.400,278.800 60.400 C 278.580 60.400,278.400 60.130,278.400 59.800 C 278.400 59.470,278.220 59.200,278.000 59.200 C 277.780 59.200,277.600 58.964,277.600 58.675 C 277.600 58.387,277.240 57.764,276.800 57.292 C 276.360 56.820,276.000 56.238,276.000 55.999 C 276.000 55.759,275.550 55.114,275.000 54.564 C 274.450 54.014,274.000 53.409,274.000 53.220 C 274.000 53.030,273.415 52.162,272.700 51.290 C 271.985 50.418,271.130 49.307,270.800 48.822 C 269.658 47.142,263.788 41.200,263.272 41.200 C 262.986 41.200,262.864 41.020,263.000 40.800 C 263.136 40.580,263.047 40.400,262.801 40.400 C 262.556 40.400,261.296 39.320,260.000 38.000 C 258.704 36.680,257.494 35.600,257.310 35.600 C 257.127 35.600,256.717 35.240,256.400 34.800 C 256.083 34.360,255.676 34.000,255.495 34.000 C 255.136 34.000,254.877 33.808,252.811 32.009 C 252.047 31.344,251.275 30.800,251.095 30.800 C 250.688 30.800,248.248 29.108,248.067 28.700 C 247.993 28.535,247.599 28.400,247.190 28.400 C 246.782 28.400,246.334 28.217,246.195 27.992 C 245.861 27.452,242.185 25.600,241.447 25.600 C 241.128 25.600,240.807 25.465,240.733 25.300 C 240.541 24.868,237.228 23.200,236.562 23.200 C 236.253 23.200,236.000 23.020,236.000 22.800 C 236.000 22.580,235.550 22.400,235.000 22.400 C 234.450 22.400,234.000 22.220,234.000 22.000 C 234.000 21.780,233.449 21.600,232.776 21.600 C 232.063 21.600,231.656 21.433,231.800 21.200 C 231.943 20.969,231.560 20.800,230.890 20.800 C 230.254 20.800,229.610 20.677,229.459 20.526 C 229.015 20.082,226.276 19.213,225.300 19.206 C 224.805 19.203,224.400 19.020,224.400 18.800 C 224.400 18.580,223.680 18.400,222.800 18.400 C 221.920 18.400,221.200 18.220,221.200 18.000 C 221.200 17.780,220.516 17.600,219.680 17.600 C 218.844 17.600,217.989 17.437,217.780 17.237 C 217.571 17.037,216.410 16.761,215.200 16.624 C 204.606 15.422,195.408 14.940,195.020 15.568 M209.983 49.974 C 210.762 50.170,212.390 50.543,213.600 50.802 C 218.168 51.781,228.348 55.852,228.733 56.853 C 228.807 57.044,229.042 57.200,229.255 57.200 C 229.469 57.200,230.759 57.950,232.122 58.866 C 240.697 64.631,247.355 72.337,251.941 81.806 C 252.898 83.783,253.843 85.713,254.041 86.095 C 254.238 86.477,254.400 87.064,254.400 87.400 C 254.400 87.736,254.558 88.323,254.751 88.705 C 255.335 89.861,256.000 92.204,256.000 93.105 C 256.000 93.571,256.180 94.064,256.400 94.200 C 256.620 94.336,256.800 95.301,256.800 96.344 C 256.800 97.387,256.987 98.427,257.216 98.656 C 258.047 99.487,257.265 118.429,256.361 119.380 C 256.163 119.589,256.000 120.343,256.000 121.056 C 256.000 121.769,255.820 122.464,255.600 122.600 C 255.380 122.736,255.200 123.276,255.200 123.800 C 255.200 124.324,255.020 124.864,254.800 125.000 C 254.580 125.136,254.400 125.599,254.400 126.029 C 254.400 126.459,254.238 127.123,254.041 127.505 C 253.843 127.887,252.901 129.820,251.947 131.800 C 248.118 139.744,243.817 145.313,236.800 151.418 C 234.945 153.032,230.554 156.000,230.022 156.000 C 229.790 156.000,229.599 156.135,229.597 156.300 C 229.595 156.465,229.190 156.803,228.697 157.052 C 228.204 157.300,226.900 157.957,225.800 158.511 C 220.407 161.229,217.928 161.992,208.069 163.972 C 205.321 164.524,194.691 164.526,191.931 163.975 C 182.656 162.123,179.644 161.206,174.400 158.638 C 172.423 157.670,170.711 156.711,170.400 156.399 C 170.290 156.289,169.708 155.945,169.107 155.635 C 168.505 155.326,167.695 154.781,167.307 154.425 C 166.918 154.069,165.970 153.339,165.200 152.803 C 161.458 150.195,156.089 144.645,152.943 140.133 C 150.132 136.101,146.400 129.144,146.400 127.936 C 146.400 127.531,146.220 127.200,146.000 127.200 C 145.780 127.200,145.600 126.761,145.600 126.224 C 145.600 125.687,145.420 125.136,145.200 125.000 C 144.980 124.864,144.800 124.223,144.800 123.576 C 144.800 122.929,144.620 122.400,144.400 122.400 C 144.180 122.400,144.000 121.781,144.000 121.024 C 144.000 120.267,143.820 119.536,143.600 119.400 C 143.380 119.264,143.200 118.299,143.200 117.256 C 143.200 116.213,143.012 115.172,142.783 114.943 C 141.956 114.116,142.737 95.568,143.639 94.620 C 143.837 94.411,144.000 93.657,144.000 92.944 C 144.000 92.231,144.180 91.536,144.400 91.400 C 144.620 91.264,144.800 90.711,144.800 90.171 C 144.800 89.631,144.959 88.877,145.153 88.495 C 145.348 88.113,145.684 87.350,145.900 86.800 C 149.203 78.398,153.325 72.009,159.445 65.803 C 160.790 64.440,162.590 62.802,163.445 62.164 C 164.300 61.526,165.090 60.900,165.200 60.772 C 165.649 60.251,170.384 57.200,170.745 57.200 C 170.958 57.200,171.193 57.065,171.267 56.900 C 171.606 56.137,177.614 53.444,182.600 51.820 C 185.726 50.802,191.310 49.655,194.200 49.437 C 197.330 49.201,208.410 49.578,209.983 49.974 M132.000 166.525 C 132.000 166.594,132.585 167.179,133.300 167.825 L 134.600 169.000 133.425 167.700 C 132.330 166.488,132.000 166.216,132.000 166.525 " stroke="none" fill="#7cccfb" fill-rule="evenodd"></path><path id="path4" d="M146.600 307.764 C 136.258 310.331,129.594 323.588,136.137 328.579 C 139.399 331.067,145.200 328.514,145.200 324.591 C 145.200 322.081,146.647 320.099,149.075 319.286 C 151.911 318.336,155.593 320.944,155.607 323.914 C 155.626 328.333,160.276 331.235,164.287 329.332 C 166.373 328.342,167.197 326.709,167.199 323.560 C 167.204 313.195,156.816 305.229,146.600 307.764 M246.018 307.637 C 240.414 308.736,235.820 312.939,233.251 319.319 C 232.503 321.176,232.683 326.004,233.554 327.432 C 236.510 332.279,244.400 329.585,244.400 323.729 C 244.400 322.053,246.245 319.904,248.201 319.304 C 251.481 318.298,254.800 320.957,254.800 324.591 C 254.800 327.003,257.730 329.600,260.452 329.600 C 265.469 329.600,267.665 325.039,265.544 319.027 C 262.584 310.641,254.563 305.962,246.018 307.637 M185.501 332.112 C 179.046 336.020,183.406 344.065,193.800 347.424 C 205.298 351.140,221.031 342.119,216.815 334.229 C 215.022 330.874,209.667 330.427,207.179 333.425 C 206.271 334.519,203.954 335.817,201.900 336.382 C 199.093 337.153,194.738 335.736,192.821 333.425 C 191.051 331.292,187.814 330.711,185.501 332.112 " stroke="none" fill="#464e56" fill-rule="evenodd"></path></g></svg>